<?xml version="1.0" encoding="UTF-8"?>
<svg version="1.1" xmlns="http://www.w3.org/2000/svg" width="512" height="512">
<path d="M0 0 C0.93199219 0.77730469 1.86398437 1.55460937 2.82421875 2.35546875 C3.80777344 3.16371094 4.79132813 3.97195312 5.8046875 4.8046875 C27.92555824 23.94939969 41.63466353 51.37866045 44.82421875 80.35546875 C46.61728806 114.35206278 38.60438805 144.01080853 16.82421875 170.35546875 C16.22867188 171.10441406 15.633125 171.85335937 15.01953125 172.625 C10.30272059 178.34610766 4.68521982 182.84951807 -1.17578125 187.35546875 C-2.34753906 188.268125 -2.34753906 188.268125 -3.54296875 189.19921875 C-28.75797805 207.87700341 -60.97306151 214.38931998 -91.7265625 210.09765625 C-122.10010065 205.33029942 -149.47295276 188.5243309 -167.98779297 164.00488281 C-183.13049859 142.98060842 -190.58422484 119.06643907 -190.55078125 93.23046875 C-190.55056976 92.55082062 -190.55035828 91.87117249 -190.55014038 91.17092896 C-190.51576588 80.07317683 -189.50270611 69.94909789 -186.17578125 59.35546875 C-185.82515625 58.16953125 -185.47453125 56.98359375 -185.11328125 55.76171875 C-175.91161531 27.38991544 -155.60188289 2.97749582 -129.20556641 -10.92993164 C-87.55028596 -32.00808474 -37.07130264 -29.38393838 0 0 Z " fill="#375C4A" transform="translate(318.17578125,50.64453125)"/>
<path d="M0 0 C1.162966 0.00040787 1.162966 0.00040787 2.34942627 0.00082397 C23.96981027 0.03537016 45.18798245 1.97489716 66.5625 5.1875 C66.5625 9.66874607 65.88052412 10.61381481 63.5 14.25 C55.93136224 26.85416147 48.23763973 44.89151912 49.99633789 59.88647461 C50.54973066 66.01532842 50.33187218 70.6231683 46.75109863 75.81274414 C41.15457557 82.42283887 34.80425622 88.30422537 28.44683838 94.16864014 C24.31410305 97.99775511 20.25500398 101.90519553 16.18883324 105.80467415 C14.78014177 107.14380043 13.35286689 108.4632927 11.92512512 109.78208923 C0.28315609 120.7346806 -4.15218809 131.5106605 -4.64282227 147.24829102 C-4.68393215 149.06257486 -4.72080132 150.87695869 -4.75390625 152.69140625 C-4.7850779 154.13724342 -4.7850779 154.13724342 -4.81687927 155.61228943 C-4.88168896 158.65812818 -4.94093716 161.70404495 -5 164.75 C-5.04325062 166.82878376 -5.08686688 168.90755994 -5.13085938 170.98632812 C-5.23729888 176.0533077 -5.33875453 181.12036488 -5.4375 186.1875 C-28.58621396 186.23427516 -51.73492009 186.26951587 -74.88367176 186.29112434 C-85.63266901 186.30142538 -96.38163686 186.31546328 -107.13061523 186.33837891 C-116.50228622 186.3583487 -125.87393591 186.37122496 -135.24562758 186.37567699 C-140.20524496 186.37827829 -145.16480139 186.38436801 -150.12439919 186.39896011 C-154.79877438 186.41260076 -159.47306391 186.41670959 -164.14745712 186.41371536 C-165.85698984 186.41426264 -167.56652561 186.41820127 -169.27604103 186.42591095 C-184.05591536 186.48926 -195.2223503 185.51162235 -207.625 177 C-215.7570656 168.8679344 -219.7219097 158.27026982 -219.8543396 146.85760498 C-219.84826691 146.01256409 -219.84219421 145.16752319 -219.8359375 144.296875 C-219.83880768 143.38979797 -219.84167786 142.48272095 -219.84463501 141.54815674 C-219.8466617 139.64228689 -219.84123038 137.73639557 -219.82861328 135.83056641 C-219.81261512 132.95816973 -219.82847116 130.08719606 -219.84765625 127.21484375 C-219.87838796 100.90537147 -211.89534822 80.07648045 -193.4375 61.1875 C-192.79167969 60.47980469 -192.14585937 59.77210938 -191.48046875 59.04296875 C-181.15050005 47.99282794 -167.7720047 40.06526481 -154.4375 33.1875 C-153.72674316 32.81915039 -153.01598633 32.45080078 -152.28369141 32.07128906 C-105.64154515 8.21748794 -51.96385751 -0.0696001 0 0 Z " fill="#375C4A" transform="translate(245.4375,278.8125)"/>
<path d="M0 0 C17.97121802 14.17562949 28.49035074 33.5415849 32.29296875 56 C35.1438238 80.29887667 28.85084053 103.16924265 13.9609375 122.6875 C0.32713491 138.98028512 -18.11489616 150.29196794 -39.2890625 153.5625 C-41.83407526 153.78608572 -44.36502756 153.97577627 -46.9140625 154.125 C-48.95079259 154.25504662 -50.98750897 154.38568662 -53.02340698 154.52816772 C-55.2890625 154.5625 -55.2890625 154.5625 -57.71121216 154.19961548 C-62.32593225 153.66602821 -65.22594189 153.84867456 -69.14797974 156.48210144 C-72.26766355 159.33426952 -75.16889874 162.31006847 -78.0546875 165.39453125 C-79.14046059 166.51103592 -80.22903556 167.62482197 -81.32025146 168.73600769 C-84.17616411 171.65631026 -86.99916959 174.60630609 -89.81445312 177.56573486 C-94.32531824 182.29802445 -98.8820388 186.98594648 -103.4441452 191.66876793 C-105.02557196 193.30196261 -106.59103037 194.94927655 -108.15484619 196.59931946 C-109.12921093 197.61061272 -110.1039437 198.62155158 -111.07910156 199.63208008 C-111.91862366 200.51366287 -112.75814575 201.39524567 -113.62310791 202.30354309 C-118.3177221 206.2814545 -122.98758708 207.93199173 -129.09741211 207.96655273 C-130.7396299 207.98557899 -130.7396299 207.98557899 -132.4150238 208.00498962 C-133.57873001 208.00205399 -134.74243622 207.99911835 -135.94140625 207.99609375 C-137.15550674 208.0013356 -138.36960724 208.00657745 -139.62049866 208.01197815 C-142.18148028 208.01838577 -144.74249138 208.01707775 -147.3034668 208.00854492 C-151.21000853 208.00003606 -155.11508693 208.02881554 -159.02148438 208.06054688 C-161.51562456 208.06215913 -164.00976733 208.06158089 -166.50390625 208.05859375 C-167.66558823 208.06982773 -168.8272702 208.08106171 -170.02415466 208.09263611 C-176.9177175 208.03373784 -181.43308515 207.28073651 -187.2890625 203.5625 C-191.47504385 199.16185294 -192.40871028 195.86346373 -192.46606445 189.90112305 C-192.47889969 188.73949142 -192.49173492 187.5778598 -192.50495911 186.38102722 C-192.51234604 185.12478043 -192.51973297 183.86853363 -192.52734375 182.57421875 C-192.5354155 181.28312698 -192.54348724 179.99203522 -192.55180359 178.66181946 C-192.56681636 175.9272983 -192.57666107 173.19280298 -192.58422852 170.45825195 C-192.59528541 166.96447547 -192.62968222 163.4713372 -192.66940022 159.97778606 C-192.70191279 156.63495631 -192.70634884 153.29219438 -192.71484375 149.94921875 C-192.73235184 148.69904465 -192.74985992 147.44887054 -192.76789856 146.16081238 C-192.76497299 144.98972427 -192.76204742 143.81863617 -192.7590332 142.61206055 C-192.76489944 141.58630417 -192.77076569 140.56054779 -192.77680969 139.50370789 C-191.78312154 133.51158024 -187.66100192 129.70119802 -183.33691406 125.73242188 C-182.34595664 124.81404297 -181.35535167 123.89528363 -180.36505127 122.97619629 C-179.84579323 122.49761673 -179.32653519 122.01903717 -178.79154205 121.5259552 C-175.42355175 118.40274994 -172.1153745 115.21587693 -168.79411697 112.04315948 C-165.88973994 109.27552868 -162.96899232 106.53076385 -160.00439453 103.82763672 C-145.55619806 91.68765035 -145.55619806 91.68765035 -137.81713867 75.34375 C-137.63154693 70.73330971 -138.1619103 66.38713426 -138.99301147 61.86038208 C-140.90203234 47.04298754 -131.58273755 29.14684324 -123.2890625 17.5625 C-120.44288061 14.06478249 -117.42707454 10.79821571 -114.2890625 7.5625 C-113.75023437 6.95019531 -113.21140625 6.33789062 -112.65625 5.70703125 C-84.28533412 -25.44394925 -31.83733359 -24.07896985 0 0 Z M-72.87890625 55.55859375 C-76.49600477 60.69868113 -77.24086593 66.43955833 -76.2890625 72.5625 C-73.44708717 80.75909838 -69.53750473 85.23788067 -61.9765625 89.375 C-54.9474228 91.63862126 -49.08322834 91.23725587 -42.43359375 87.96484375 C-37.08758221 84.46900014 -33.24865344 79.63447193 -31.2890625 73.5625 C-30.36627357 66.38406052 -31.12703753 60.53944078 -35.2890625 54.5625 C-39.4708878 49.45138019 -44.39090299 46.12506238 -50.96875 45.17578125 C-60.80047568 44.78087814 -66.75155938 47.97966585 -72.87890625 55.55859375 Z " fill="#375C4A" transform="translate(453.2890625,278.4375)"/>
</svg>
