<?xml version="1.0" encoding="UTF-8"?>
<svg version="1.1" xmlns="http://www.w3.org/2000/svg" width="512" height="512">
<path d="M0 0 C5.67790651 2.99964872 9.04226861 5.62037524 11.3125 11.75 C12.77208166 18.44162053 12.45712837 23.54366899 9.3125 29.75 C7.25132482 32.43997329 4.89906473 34.75007341 2.45703125 37.09375 C1.79539474 37.74831177 1.13375824 38.40287354 0.45207214 39.07727051 C-1.64542285 41.14697601 -3.75968704 43.19852463 -5.875 45.25 C-7.30778891 46.65768636 -8.73944202 48.06652976 -10.16992188 49.4765625 C-13.6627871 52.91456326 -17.17079231 56.33639831 -20.6875 59.75 C-17.67637606 62.82119425 -14.60075179 65.39663751 -11.125 67.9375 C-1.78232887 74.85577087 7.01164333 82.27371398 15.5234375 90.18359375 C17.85060845 92.32498215 20.21308615 94.39342629 22.625 96.4375 C25.81778667 99.21241684 28.56100587 102.18997414 31.2890625 105.41796875 C33.27120382 107.70240575 35.33490001 109.89299658 37.41967773 112.08349609 C45.04961619 120.14666091 51.74719072 128.80922682 58.3125 137.75 C58.76850586 138.36472168 59.22451172 138.97944336 59.69433594 139.61279297 C68.24500798 151.19705557 73.08554337 160.99662263 71.63818359 175.671875 C68.63009338 194.86592587 47.92269512 213.81870014 35.3125 227.75 C34.75401367 228.3702002 34.19552734 228.99040039 33.62011719 229.62939453 C22.61746057 241.80845544 22.61746057 241.80845544 16.35546875 247.01171875 C13.82853804 249.16178408 11.46485514 251.46156407 9.0625 253.75 C-46.6831389 305.68069505 -123.3606926 331.11185848 -198.6875 328.75 C-221.30930454 327.82569938 -243.6220344 323.80276081 -265.17553711 316.89770508 C-266.1063208 316.60404053 -267.03710449 316.31037598 -267.99609375 316.0078125 C-269.21510376 315.60780029 -269.21510376 315.60780029 -270.45874023 315.19970703 C-273.07406206 314.67200161 -274.18891249 314.82350417 -276.6875 315.75 C-278.97607208 317.62352574 -278.97607208 317.62352574 -281.26904297 320.03857422 C-282.17032928 320.9497702 -283.0716156 321.86096619 -284.00021362 322.79977417 C-284.47733669 323.28925411 -284.95445976 323.77873405 -285.44604111 324.28304672 C-286.94474242 325.82012796 -288.45269595 327.34756235 -289.96340942 328.87283325 C-293.71464876 332.66413864 -297.4495005 336.47145762 -301.18481445 340.27844238 C-304.34084716 343.49382051 -307.5030484 346.7028881 -310.67361832 349.90393448 C-312.15435074 351.4040196 -313.62570137 352.9128986 -315.09689331 354.42233276 C-316.00448395 355.33983307 -316.91207458 356.25733337 -317.84716797 357.20263672 C-318.63896454 358.01014374 -319.43076111 358.81765076 -320.24655151 359.64962769 C-325.87206299 364.49023314 -330.66414035 365.24917777 -337.8515625 365.02734375 C-343.28480765 364.49599333 -346.30314822 362.36910656 -349.9375 358.5 C-354.30338917 353.02258524 -354.99032449 347.85078699 -354.3671875 341.05859375 C-352.66397097 335.27353072 -348.22820713 331.00027994 -344.0455122 326.85074329 C-343.48414231 326.28586733 -342.92277242 325.72099136 -342.34439132 325.13899794 C-340.46347856 323.24878675 -338.57554216 321.36575416 -336.68754578 319.48262024 C-335.32335291 318.11469036 -333.95959293 316.74632866 -332.5962289 315.37757272 C-328.84937097 311.61847617 -325.09628096 307.86565626 -321.34212124 304.11385381 C-317.29415178 300.06629228 -313.25191173 296.01301568 -309.20889282 291.96051025 C-301.28796224 284.022965 -293.36147928 276.09098699 -285.43279489 268.16118757 C-278.98987581 261.71731843 -272.54853823 255.2718727 -266.10831642 248.82530785 C-250.82542909 233.52767431 -235.54132267 218.23126445 -220.25053692 202.94152546 C-219.76165077 202.45267046 -219.27276461 201.96381547 -218.76906373 201.46014669 C-216.29119676 198.98244593 -213.81331385 196.5047611 -211.33542743 194.0270798 C-210.84331214 193.5350044 -210.35119685 193.042929 -209.84416898 192.53594223 C-208.84899292 191.54084704 -207.8538155 190.54575322 -206.85863672 189.55066076 C-191.36971348 174.06296347 -175.88893643 158.56716376 -160.41430664 143.06518555 C-143.02832832 125.64849352 -125.63560589 108.23857714 -108.23334628 90.83815163 C-99.019229 81.62469901 -89.80823164 72.40817585 -80.60519981 63.18364906 C-72.77163349 55.33190383 -64.93121715 47.48708037 -57.08175596 39.65122405 C-53.07587718 35.6518909 -49.07331841 31.64937552 -45.07936668 27.63812828 C-41.42449067 23.96758786 -37.76054154 20.30636839 -34.08908496 16.65241482 C-32.76123191 15.32764623 -31.43676246 13.99947585 -30.1160142 12.66762391 C-28.32208853 10.85961703 -26.516301 9.06434609 -24.70701122 7.27173328 C-24.19550537 6.75029107 -23.68399951 6.22884885 -23.15699348 5.69160536 C-16.36793816 -0.96557881 -8.97868039 -3.04362047 0 0 Z M-87.6875 125.75 C-106.80614486 140.39014653 -106.80614486 140.39014653 -117.40625 160.61328125 C-117.47855909 165.82385878 -116.78992808 170.91505488 -115.984375 176.05566406 C-114.64230597 188.23582344 -121.81937704 201.93180642 -128.96728516 211.45507812 C-139.7312677 224.80856507 -155.32805671 235.14769154 -172.56005859 237.67529297 C-175.15967364 237.76658081 -177.51681107 237.36975337 -180.08203125 236.94140625 C-191.22629195 235.3301975 -191.22629195 235.3301975 -201.60009766 238.97930908 C-211.46144377 246.54492941 -219.69331481 256.29669419 -227.6875 265.75 C-224.69091123 269.04505604 -221.43222522 270.07272723 -217.25 271.3125 C-216.16332031 271.6367395 -216.16332031 271.6367395 -215.0546875 271.9675293 C-186.4366938 280.2901737 -157.22189838 276.05060275 -131.20874023 262.06591797 C-121.47700186 256.55689996 -111.99671308 249.22396066 -104.6875 240.75 C-103.93339844 239.87601562 -103.17929687 239.00203125 -102.40234375 238.1015625 C-86.24137201 218.60709355 -77.2327258 194.39555525 -77.375 169.0625 C-77.37991455 168.01594238 -77.3848291 166.96938477 -77.38989258 165.89111328 C-77.59353868 152.30426325 -80.0216849 139.18487472 -85.6875 126.75 C-86.6775 126.255 -86.6775 126.255 -87.6875 125.75 Z " fill="#375C4A" transform="translate(440.6875,87.25)"/>
<path d="M0 0 C-1.49084629 3.44954377 -3.46010773 5.73934413 -6.07910156 8.41723633 C-7.34116425 9.71296318 -7.34116425 9.71296318 -8.62872314 11.03486633 C-9.99586456 12.41946297 -9.99586456 12.41946297 -11.390625 13.83203125 C-11.85570213 14.30401129 -12.32077927 14.77599133 -12.79994965 15.26227379 C-15.25855826 17.75663982 -17.72319654 20.24486329 -20.19287109 22.72827148 C-22.74155408 25.29354998 -25.26859122 27.87910317 -27.79132462 30.46986866 C-29.73736892 32.46065695 -31.69881798 34.43570926 -33.66478729 36.40680504 C-35.05963984 37.8133906 -36.43771207 39.23655239 -37.81549072 40.65986633 C-38.66947449 41.50792343 -39.52345825 42.35598053 -40.40332031 43.22973633 C-41.52012177 44.36080559 -41.52012177 44.36080559 -42.65948486 45.51472473 C-45 47 -45 47 -48.05609131 46.80570984 C-52.29985776 45.6442457 -56.47145886 44.31005342 -60.63867188 42.90429688 C-86.64170645 34.43996597 -115.78239047 38.12192654 -140.09228516 50.02441406 C-166.86941131 64.09965436 -184.98997898 88.16793272 -193.921875 116.75 C-196.45894525 126.10587472 -197.39025997 135.45475541 -197.375 145.125 C-197.37258301 146.74752686 -197.37258301 146.74752686 -197.37011719 148.40283203 C-197.17787373 161.14178825 -194.70818793 173.03054013 -189.63671875 184.73828125 C-188.80070899 187.70791101 -189.03070199 189.04697814 -190 192 C-191.87521827 194.23981352 -193.72352528 196.22958014 -195.80493164 198.2590332 C-196.40979904 198.86448471 -197.01466644 199.46993622 -197.63786316 200.09373474 C-199.63595788 202.08904674 -201.64783783 204.06982361 -203.66015625 206.05078125 C-205.04965263 207.43281596 -206.43826745 208.81573751 -207.82603455 210.19950867 C-211.47842872 213.83664088 -215.14267594 217.46160054 -218.80950928 221.08416748 C-222.55015181 224.78386998 -226.27947638 228.49494214 -230.00976562 232.20507812 C-237.32880224 239.48123387 -244.66040934 246.74458213 -252 254 C-255.73875705 252.19482236 -259.06729642 249.9735777 -262.4375 247.5625 C-263.04932129 247.12510498 -263.66114258 246.68770996 -264.29150391 246.23706055 C-270.8253101 241.49916947 -276.9218454 236.30204615 -283 231 C-284.16015625 230.00806641 -284.16015625 230.00806641 -285.34375 228.99609375 C-289.21323806 225.66982228 -292.84690046 222.19049321 -296.41796875 218.546875 C-298.08543509 216.85735778 -298.08543509 216.85735778 -300.5 215.0625 C-303.32745592 212.72984887 -305.55640236 210.1670561 -307.9296875 207.3828125 C-309.85824016 205.16315756 -311.84561651 203.01074229 -313.85693359 200.86621094 C-324.77710466 189.17669028 -334.32995359 176.43546995 -343 163 C-343.78117187 161.82244141 -343.78117187 161.82244141 -344.578125 160.62109375 C-348.58077414 153.41914407 -348.17902406 143.93675865 -347 136 C-341.64317832 117.26146546 -323.86876581 100.17816559 -311 86 C-310.11368896 85.02111816 -310.11368896 85.02111816 -309.20947266 84.02246094 C-297.23089363 70.84950892 -297.23089363 70.84950892 -290.94140625 65.63671875 C-288.62088155 63.68038102 -286.45329432 61.58751069 -284.25 59.5 C-208.55728723 -9.46447164 -99.93228549 -32.01296115 0 0 Z " fill="#375C4A" transform="translate(347,111)"/>
<path d="M0 0 C-1.36445801 3.05141393 -2.90704737 5.15797902 -5.26416016 7.51812744 C-6.27364716 8.53607391 -6.27364716 8.53607391 -7.30352783 9.57458496 C-8.04125427 10.30826294 -8.77898071 11.04194092 -9.5390625 11.79785156 C-10.31642761 12.57872131 -11.09379272 13.35959106 -11.89471436 14.16412354 C-14.46646546 16.74468005 -17.04546675 19.31784922 -19.625 21.890625 C-21.41126322 23.67823493 -23.19722942 25.46614171 -24.98291016 27.2543335 C-28.72559598 30.99996874 -32.47178222 34.74205426 -36.22070312 38.48144531 C-40.5586317 42.80847416 -44.88928679 47.14268249 -49.21626472 51.48065972 C-53.37749645 55.65204637 -57.54431875 59.81781312 -61.71356201 63.98119354 C-63.48853589 65.75482922 -65.26201419 67.52996285 -67.03399658 69.30658722 C-69.50485026 71.78249268 -71.98197678 74.25194188 -74.4609375 76.71972656 C-75.56752716 77.83238892 -75.56752716 77.83238892 -76.69647217 78.9675293 C-77.3694635 79.63488098 -78.04245483 80.30223267 -78.73583984 80.98980713 C-79.61409927 81.86693548 -79.61409927 81.86693548 -80.51010132 82.7617836 C-82 84 -82 84 -84 84 C-88.40993327 66.39612004 -84.40294031 46.93880578 -75.328125 31.54296875 C-65.40848262 15.84825058 -49.75589523 5.03019203 -31.9375 0.125 C-22.05883451 -1.93053627 -9.86400292 -2.50642697 0 0 Z " fill="#375C4B" transform="translate(271,187)"/>
</svg>
