<?xml version="1.0" encoding="UTF-8"?>
<svg version="1.1" xmlns="http://www.w3.org/2000/svg" width="512" height="512">
<path d="M0 0 C1.38159578 -0.00657338 1.38159578 -0.00657338 2.79110259 -0.01327956 C5.89643754 -0.02669981 9.0017441 -0.03285362 12.10710144 -0.03897095 C14.32585784 -0.04686929 16.54461296 -0.05513807 18.7633667 -0.06375122 C26.06567655 -0.08999948 33.36799223 -0.10528037 40.67033386 -0.11953735 C43.18072196 -0.12489564 45.69111002 -0.13027314 48.20149803 -0.13566971 C58.64056894 -0.15730139 69.0796397 -0.17619123 79.5187273 -0.1872921 C82.22819841 -0.19022186 84.93766948 -0.19318351 87.6471405 -0.19619751 C88.32057689 -0.19694356 88.99401327 -0.19768961 89.68785682 -0.19845827 C100.59992815 -0.21111502 111.51183666 -0.24434207 122.42383186 -0.28599934 C133.62346911 -0.32840474 144.82302616 -0.35157771 156.02275294 -0.35721266 C162.31245426 -0.36087294 168.60187956 -0.37296641 174.89150429 -0.4053154 C180.80700599 -0.43530384 186.72206333 -0.44174067 192.63762474 -0.42993164 C194.81088285 -0.42971014 196.98416103 -0.43807784 199.15734863 -0.45558548 C202.12065734 -0.4781624 205.08233904 -0.4700352 208.0456543 -0.45410156 C208.90908017 -0.46798365 209.77250603 -0.48186574 210.66209632 -0.49616849 C214.98708188 -0.4387247 216.70690224 -0.23426729 220.24917126 2.48096275 C222.76557572 5.90547485 222.82230098 7.93929646 222.71330261 12.15390015 C222.70299011 13.35015015 222.69267761 14.54640015 222.68205261 15.77890015 C222.18476929 19.35934007 221.42465502 21.31669328 219.21330261 24.15390015 C216.21330261 25.15390015 216.21330261 25.15390015 208.21330261 25.15390015 C208.54330261 47.92390015 208.87330261 70.69390015 209.21330261 94.15390015 C210.53330261 94.48390015 211.85330261 94.81390015 213.21330261 95.15390015 C215.36373421 99.45476334 214.52241359 105.12914932 214.56340027 109.9024353 C214.57996186 111.31666518 214.60725567 112.73081127 214.64543152 114.1446228 C214.70027588 116.18721755 214.7220799 118.22785532 214.73674011 120.27108765 C214.75655945 121.49424683 214.77637878 122.71740601 214.79679871 123.97763062 C214.21330261 127.15390015 214.21330261 127.15390015 212.15684509 129.20928955 C208.74556839 131.46290228 205.45227995 132.48651976 201.53312683 133.44393921 C200.39809219 133.73742249 200.39809219 133.73742249 199.24012756 134.03683472 C196.75238394 134.67673654 194.26046563 135.29833434 191.76799011 135.91952515 C190.03328607 136.36120172 188.29884314 136.80390498 186.56465149 137.24758911 C182.93691421 138.1729998 179.30721852 139.09010264 175.67570496 140.00057983 C171.01771115 141.16849354 166.36347971 142.35061075 161.71044731 143.53812027 C157.27252428 144.67011228 152.83283827 145.795112 148.39299011 146.91952515 C147.54487637 147.13492195 146.69676262 147.35031876 145.82294846 147.57224274 C143.4278147 148.17917317 141.03148891 148.78112566 138.63468933 149.38143921 C137.92397278 149.5621698 137.21325623 149.74290039 136.48100281 149.92910767 C133.6383635 150.63629423 131.15630093 151.15390015 128.21330261 151.15390015 C128.87330261 154.45390015 129.53330261 157.75390015 130.21330261 161.15390015 C132.29965027 161.59089233 132.29965027 161.59089233 134.42814636 162.03671265 C164.34760484 168.46152828 190.9968773 179.79826658 214.21330261 200.15390015 C215.03959167 200.85901733 215.86588074 201.56413452 216.71720886 202.2906189 C248.01015377 229.56788073 268.16218092 268.81188677 272.21330261 310.15390015 C272.55423505 316.04592323 272.55399592 321.94150584 272.52580261 327.84140015 C272.5239798 328.63415344 272.52215698 329.42690674 272.52027893 330.24368286 C272.47436242 342.1110807 272.01107607 353.57177893 269.21330261 365.15390015 C269.04701355 365.88060913 268.88072449 366.60731812 268.70939636 367.35604858 C258.65038357 410.44215339 230.70884721 448.78976552 193.21330261 472.15390015 C178.19999215 480.98289701 162.93500045 487.57768475 146.08830261 491.90390015 C145.31349548 492.10289917 144.53868835 492.30189819 143.74040222 492.50692749 C130.70458022 495.66589424 117.87277646 496.53018017 104.52580261 496.46640015 C103.73304932 496.46457733 102.94029602 496.46275452 102.1235199 496.46087646 C90.25612206 496.41495996 78.79542383 495.9516736 67.21330261 493.15390015 C66.48659363 492.98761108 65.75988464 492.82132202 65.01115417 492.6499939 C21.79779324 482.5612715 -16.23533699 454.6161791 -39.78669739 417.15390015 C-56.09763172 389.81989415 -64.25117889 360.27092364 -64.09919739 328.46640015 C-64.09737457 327.67364685 -64.09555176 326.88089355 -64.09367371 326.06411743 C-64.0477434 314.19315325 -63.57284028 302.74115577 -60.78669739 291.15390015 C-60.62572571 290.43782593 -60.46475403 289.72175171 -60.29890442 288.98397827 C-50.68415174 246.97831525 -23.66596909 209.71842535 12.21330261 186.15390015 C32.54940693 173.45362743 54.65735084 165.31680542 78.21330261 161.15390015 C78.87330261 157.85390015 79.53330261 154.55390015 80.21330261 151.15390015 C79.2888031 150.95796265 78.36430359 150.76202515 77.41178894 150.56015015 C62.93500958 147.44013607 48.57288919 143.85080809 34.21354675 140.2359314 C31.31684543 139.50739604 28.41839662 138.78649989 25.51823425 138.0718689 C21.96731572 137.19685062 18.41976305 136.30927531 14.87426186 135.41256714 C13.53698394 135.07652548 12.19860908 134.74481602 10.85912132 134.41769409 C8.99590166 133.96167611 7.13707348 133.4878281 5.27848816 133.01327515 C4.22469467 132.74998413 3.17090118 132.48669312 2.08517456 132.21542358 C-1.18463951 131.00680971 -3.28311317 129.57034666 -5.78669739 127.15390015 C-6.37019348 123.97763062 -6.37019348 123.97763062 -6.31013489 120.27108765 C-6.30543182 119.61560944 -6.30072876 118.96013123 -6.29588318 118.28479004 C-6.27459579 116.19840846 -6.21801557 114.11459843 -6.16169739 112.02890015 C-6.14518378 110.61876785 -6.13083737 109.2086084 -6.11872864 107.7984314 C-5.98378102 97.54806742 -5.98378102 97.54806742 -4.78669739 95.15390015 C-2.80669739 94.65890015 -2.80669739 94.65890015 -0.78669739 94.15390015 C-0.45669739 71.38390015 -0.12669739 48.61390015 0.21330261 25.15390015 C-2.42669739 25.15390015 -5.06669739 25.15390015 -7.78669739 25.15390015 C-10.72419739 23.84140015 -10.72419739 23.84140015 -12.78669739 22.15390015 C-13.88781427 18.85054949 -13.98896267 16.25557877 -14.03669739 12.77890015 C-14.06247864 11.65741577 -14.08825989 10.5359314 -14.11482239 9.38046265 C-13.7535049 5.82750732 -12.91224197 3.99139898 -10.78669739 1.15390015 C-7.44282283 -0.51803713 -3.67764206 0.00210382 0 0 Z " fill="#BB8457" transform="translate(151.7866973876953,6.846099853515625)"/>
<path d="M0 0 C0.92106385 -0.00438225 1.84212771 -0.00876451 2.79110259 -0.01327956 C5.89643754 -0.02669981 9.0017441 -0.03285362 12.10710144 -0.03897095 C14.32585784 -0.04686929 16.54461296 -0.05513807 18.7633667 -0.06375122 C26.06567655 -0.08999948 33.36799223 -0.10528037 40.67033386 -0.11953735 C43.18072196 -0.12489564 45.69111002 -0.13027314 48.20149803 -0.13566971 C58.64056894 -0.15730139 69.0796397 -0.17619123 79.5187273 -0.1872921 C82.22819841 -0.19022186 84.93766948 -0.19318351 87.6471405 -0.19619751 C88.32057689 -0.19694356 88.99401327 -0.19768961 89.68785682 -0.19845827 C100.59992815 -0.21111502 111.51183666 -0.24434207 122.42383186 -0.28599934 C133.62346911 -0.32840474 144.82302616 -0.35157771 156.02275294 -0.35721266 C162.31245426 -0.36087294 168.60187956 -0.37296641 174.89150429 -0.4053154 C180.80700599 -0.43530384 186.72206333 -0.44174067 192.63762474 -0.42993164 C194.81088285 -0.42971014 196.98416103 -0.43807784 199.15734863 -0.45558548 C202.12065734 -0.4781624 205.08233904 -0.4700352 208.0456543 -0.45410156 C208.90908017 -0.46798365 209.77250603 -0.48186574 210.66209632 -0.49616849 C214.98708188 -0.4387247 216.70690224 -0.23426729 220.24917126 2.48096275 C222.76557572 5.90547485 222.82230098 7.93929646 222.71330261 12.15390015 C222.70299011 13.35015015 222.69267761 14.54640015 222.68205261 15.77890015 C222.18476929 19.35934007 221.42465502 21.31669328 219.21330261 24.15390015 C216.21330261 25.15390015 216.21330261 25.15390015 208.21330261 25.15390015 C208.21330261 48.25390015 208.21330261 71.35390015 208.21330261 95.15390015 C187.10985434 101.01596911 187.10985434 101.01596911 177.27580261 103.46640015 C175.71829285 103.86182007 175.71829285 103.86182007 174.12931824 104.26522827 C173.13738464 104.5133728 172.14545105 104.76151733 171.12345886 105.0171814 C170.24826599 105.23672485 169.37307312 105.45626831 168.47135925 105.6824646 C166.21330261 106.15390015 166.21330261 106.15390015 163.21330261 106.15390015 C163.21330261 79.09390015 163.21330261 52.03390015 163.21330261 24.15390015 C124.27330261 24.15390015 85.33330261 24.15390015 45.21330261 24.15390015 C45.21330261 51.21390015 45.21330261 78.27390015 45.21330261 106.15390015 C39.02101391 105.46586807 33.41905977 104.62952767 27.45939636 103.0874939 C26.76076477 102.91157715 26.06213318 102.7356604 25.34233093 102.55441284 C22.77683536 101.90658579 20.21396015 101.24841677 17.65080261 100.59140015 C11.89642761 99.12702515 6.14205261 97.66265015 0.21330261 96.15390015 C0.21330261 72.72390015 0.21330261 49.29390015 0.21330261 25.15390015 C-2.42669739 25.15390015 -5.06669739 25.15390015 -7.78669739 25.15390015 C-10.72419739 23.84140015 -10.72419739 23.84140015 -12.78669739 22.15390015 C-13.88781427 18.85054949 -13.98896267 16.25557877 -14.03669739 12.77890015 C-14.06247864 11.65741577 -14.08825989 10.5359314 -14.11482239 9.38046265 C-13.7535049 5.82750732 -12.91224197 3.99139898 -10.78669739 1.15390015 C-7.44282283 -0.51803713 -3.67764206 0.00210382 0 0 Z " fill="#C58C5B" transform="translate(151.7866973876953,6.846099853515625)"/>
<path d="M0 0 C4.37198399 1.51431848 7.01571001 6.31517023 9.03881836 10.29760742 C9.65836854 11.59720462 10.27015634 12.90052467 10.875 14.20703125 C11.55999261 15.63242795 12.24555645 17.05755026 12.93164062 18.48242188 C13.98975477 20.70424007 15.04188717 22.92846619 16.08374023 25.15795898 C17.10225673 27.32823577 18.14318107 29.48657789 19.1875 31.64453125 C19.49082748 32.310186 19.79415497 32.97584076 20.10667419 33.66166687 C22.32187439 38.19118408 24.38226863 40.00642949 29.09765625 41.7265625 C31.50281652 42.36644311 31.50281652 42.36644311 33.890625 42.640625 C34.76315918 42.76115234 35.63569336 42.88167969 36.53466797 43.00585938 C37.4423291 43.11994141 38.34999023 43.23402344 39.28515625 43.3515625 C40.22117676 43.47853516 41.15719727 43.60550781 42.12158203 43.73632812 C46.90047016 44.3711865 51.6622296 44.89110736 56.47265625 45.2265625 C61.83202118 45.66041585 65.95659374 46.8531328 70.09765625 50.4765625 C71.62101656 53.9041232 71.03930938 56.14828061 70.09765625 59.7265625 C68.02697871 63.03964656 65.40662684 65.36078323 62.47265625 67.8828125 C58.08087632 71.71121105 53.83561731 75.66395174 49.66015625 79.7265625 C48.58217773 80.73589844 48.58217773 80.73589844 47.48242188 81.765625 C46.79986328 82.43335938 46.11730469 83.10109375 45.4140625 83.7890625 C44.49282593 84.67271484 44.49282593 84.67271484 43.55297852 85.57421875 C40.206976 90.52277741 41.0554326 96.02820585 42.09375 101.62109375 C42.32255859 102.90693359 42.55136719 104.19277344 42.78710938 105.51757812 C43.0353977 106.85826977 43.28475303 108.19876424 43.53515625 109.5390625 C47.72544134 132.11040093 47.72544134 132.11040093 45.01123047 136.47265625 C43.53515625 137.9140625 43.53515625 137.9140625 40.09765625 139.7265625 C34.96793828 139.42368141 31.225836 138.07065817 26.71875 135.671875 C26.14359146 135.36966034 25.56843292 135.06744568 24.97584534 134.756073 C23.15693021 133.7976314 21.34604229 132.82507394 19.53515625 131.8515625 C18.31757459 131.20605456 17.09947903 130.56151497 15.88085938 129.91796875 C13.63263301 128.73012639 11.38837811 127.53581632 9.14624023 126.33642578 C8.14020752 125.8051709 7.1341748 125.27391602 6.09765625 124.7265625 C5.04481445 124.16404785 3.99197266 123.6015332 2.90722656 123.02197266 C-0.97748795 121.23084516 -2.77192463 121.5888931 -6.90234375 122.7265625 C-10.61981863 124.45039456 -14.16030421 126.44124334 -17.71484375 128.4765625 C-29.02745766 134.84722706 -29.02745766 134.84722706 -34.359375 137.61328125 C-35.14159424 138.02022217 -35.92381348 138.42716309 -36.72973633 138.84643555 C-40.14054458 140.22815976 -42.47382531 139.89225877 -45.90234375 138.7265625 C-48.33984375 137.2890625 -48.33984375 137.2890625 -49.90234375 134.7265625 C-51.05945234 125.64896415 -48.6222693 116.40332215 -46.96313477 107.52270508 C-46.59912834 105.55716612 -46.24864102 103.58913886 -45.8984375 101.62109375 C-45.68372803 100.46456299 -45.46901855 99.30803223 -45.24780273 98.11645508 C-44.76978197 93.42577075 -44.7078036 89.4592772 -47.44946289 85.48242188 C-48.10551514 84.85142578 -48.76156738 84.22042969 -49.4375 83.5703125 C-50.16517578 82.85746094 -50.89285156 82.14460938 -51.64257812 81.41015625 C-52.40892578 80.68957031 -53.17527344 79.96898437 -53.96484375 79.2265625 C-54.70412109 78.50597656 -55.44339844 77.78539062 -56.20507812 77.04296875 C-60.41919776 72.96526418 -64.75162957 69.05313282 -69.21630859 65.25195312 C-71.75274479 62.95718722 -73.42375323 60.81231664 -74.90234375 57.7265625 C-74.97314679 53.61998624 -74.75106207 51.61303812 -71.8828125 48.6171875 C-68.01003155 46.16053484 -64.64548443 45.67529013 -60.15234375 45.1015625 C-59.3219458 44.98167969 -58.49154785 44.86179687 -57.63598633 44.73828125 C-53.4604402 44.14884831 -49.27921268 43.64780077 -45.0859375 43.203125 C-44.32829102 43.12143066 -43.57064453 43.03973633 -42.79003906 42.95556641 C-41.36486151 42.80722902 -39.93838306 42.67071864 -38.51074219 42.54833984 C-33.98417541 42.09657996 -30.73915903 41.17479841 -26.90234375 38.7265625 C-25.14984868 36.36156849 -23.96268033 33.80553169 -22.73828125 31.13671875 C-22.37892487 30.39578476 -22.01956848 29.65485077 -21.64932251 28.89146423 C-20.50783135 26.53193231 -19.39127755 24.16171258 -18.27734375 21.7890625 C-17.15288292 19.42186529 -16.02317507 17.05749692 -14.88394165 14.69737244 C-14.17774209 13.23161986 -13.48048092 11.76151682 -12.79354858 10.28663635 C-9.77742308 3.97832788 -7.52329187 0.38887791 0 0 Z " fill="#9D6B47" transform="translate(257.90234375,256.2734375)"/>
<path d="M0 0 C38.94 0 77.88 0 118 0 C118 27.39 118 54.78 118 83 C106.57965774 86.17231729 95.18657736 89.32121076 83.70068359 92.22241211 C82.13126769 92.62061474 80.562923 93.02306008 78.99560547 93.42944336 C76.67380936 94.03125788 74.34912933 94.62047631 72.0234375 95.20703125 C71.33373871 95.38820999 70.64403992 95.56938873 69.93344116 95.75605774 C61.97820508 97.7272897 55.39387648 97.1513329 47.6171875 95.171875 C46.84045685 94.98159729 46.0637262 94.79131958 45.26345825 94.59527588 C43.62704788 94.19265835 41.99170797 93.78566709 40.35742188 93.37451172 C37.90451789 92.75742592 35.44881405 92.15285693 32.9921875 91.55078125 C24.56974587 89.47318752 16.20678646 87.26636711 7.88720703 84.80566406 C5.28936787 84.080747 2.64471044 83.52894209 0 83 C0 55.61 0 28.22 0 0 Z " fill="#ECECED" transform="translate(197,31)"/>
<path d="M0 0 C8.34047338 2.430273 16.73937033 4.54008379 25.1875 6.5625 C26.44715576 6.86462402 27.70681152 7.16674805 29.00463867 7.47802734 C34.21025541 8.72188037 39.41757703 9.95722762 44.6328125 11.16015625 C51.59466324 12.76607043 58.50032335 14.48943814 65.375 16.4375 C72.1387139 18.34628272 78.92447961 20.13733051 85.75 21.8125 C86.61463867 22.03156006 87.47927734 22.25062012 88.37011719 22.47631836 C89.19930664 22.67620361 90.02849609 22.87608887 90.8828125 23.08203125 C91.6061377 23.25968018 92.32946289 23.4373291 93.07470703 23.62036133 C100.98334854 24.79764809 107.67737878 23.26633152 115.32421875 21.296875 C116.43626175 21.01781311 117.54830475 20.73875122 118.69404602 20.45123291 C121.04088211 19.86041988 123.38658559 19.2650917 125.73120117 18.66552734 C129.28126287 17.75798549 132.83453401 16.86408577 136.38867188 15.97265625 C146.15993202 13.50897312 155.88771367 11.02954422 165.48657227 7.95654297 C171.86930882 6.01118616 178.35052334 4.41952406 184.82177734 2.7980957 C187.28314413 2.17916565 189.74109683 1.5476941 192.19921875 0.91601562 C193.77064061 0.52006768 195.34224849 0.12485709 196.9140625 -0.26953125 C197.64525299 -0.45900833 198.37644348 -0.64848541 199.12979126 -0.84370422 C204.28192041 -2.11435986 204.28192041 -2.11435986 207.625 -1 C209.7754316 3.30086319 208.93411098 8.97524917 208.97509766 13.74853516 C208.99165925 15.16276503 209.01895306 16.57691113 209.05712891 17.99072266 C209.11197327 20.03331741 209.13377728 22.07395518 209.1484375 24.1171875 C209.16825684 25.34034668 209.18807617 26.56350586 209.20849609 27.82373047 C208.625 31 208.625 31 206.56655884 33.0553894 C203.16542889 35.30381403 199.88403494 36.33120983 195.9765625 37.29003906 C195.22308533 37.48569458 194.46960815 37.6813501 193.69329834 37.88293457 C191.21520779 38.52296452 188.73291346 39.14459252 186.25 39.765625 C184.5201043 40.20737128 182.79045253 40.65007376 181.06103516 41.09368896 C177.44173063 42.01924713 173.82040549 42.93625323 170.19726562 43.84667969 C165.55696362 45.01296533 160.92105344 46.19568041 156.28640747 47.38422012 C152.71715303 48.29846658 149.14630957 49.20636524 145.57489014 50.11211395 C143.86493434 50.54610334 142.15533561 50.98150213 140.44610596 51.41834259 C138.0567042 52.0274995 135.66543325 52.62866093 133.2734375 53.22753906 C132.5699115 53.40826965 131.8663855 53.58900024 131.14154053 53.77520752 C127.5850556 54.65627487 124.29254465 55.38686599 120.625 55 C119.17578125 53.20703125 119.17578125 53.20703125 117.9375 50.8125 C114.51301983 45.31599259 110.86243499 42.74748514 104.625 41 C97.37837489 40.01478468 90.43798801 39.76110939 84.37890625 44.2890625 C81.03884554 47.54729544 78.31966373 51.20616569 75.625 55 C66.35871668 53.49425409 57.29279373 51.2894696 48.1953125 49.0078125 C47.04483744 48.72017344 47.04483744 48.72017344 45.87112045 48.42672348 C41.82481445 47.4147608 37.77963729 46.39842337 33.73535156 45.37841797 C29.5721871 44.32937694 25.4053335 43.29583197 21.23747444 42.26562691 C18.01477527 41.46605267 14.79503354 40.65504209 11.57598495 39.84090805 C10.04052617 39.45469037 8.50398048 39.07276635 6.96634293 38.69531631 C4.81951816 38.16720804 2.67739768 37.62296825 0.53564453 37.07470703 C-0.68138153 36.76985382 -1.89840759 36.46500061 -3.15231323 36.15090942 C-6.61172813 34.91545792 -8.76163471 33.56902728 -11.375 31 C-11.95849609 27.82373047 -11.95849609 27.82373047 -11.8984375 24.1171875 C-11.89373444 23.46170929 -11.88903137 22.80623108 -11.88418579 22.13088989 C-11.8628984 20.04450831 -11.80631819 17.96069829 -11.75 15.875 C-11.7334864 14.4648677 -11.71913999 13.05470825 -11.70703125 11.64453125 C-11.57208364 1.39416727 -11.57208364 1.39416727 -10.375 -1 C-6.43568025 -2.31310658 -3.82366819 -1.16491377 0 0 Z " fill="#C78F5E" transform="translate(157.375,103)"/>
<path d="M0 0 C2.16796875 0.59765625 2.16796875 0.59765625 4.79296875 2.72265625 C6.62844051 6.56046085 6.32879757 8.53475538 5.16796875 12.59765625 C3.09729121 15.91074031 0.47693934 18.23187698 -2.45703125 20.75390625 C-6.84881118 24.5823048 -11.09407019 28.53504549 -15.26953125 32.59765625 C-15.98818359 33.27054687 -16.70683594 33.9434375 -17.44726562 34.63671875 C-18.47110352 35.63832031 -18.47110352 35.63832031 -19.515625 36.66015625 C-20.12978271 37.24925781 -20.74394043 37.83835937 -21.37670898 38.4453125 C-24.7227115 43.39387116 -23.8742549 48.8992996 -22.8359375 54.4921875 C-22.60712891 55.77802734 -22.37832031 57.06386719 -22.14257812 58.38867188 C-21.8942898 59.72936352 -21.64493447 61.06985799 -21.39453125 62.41015625 C-17.20424616 84.98149468 -17.20424616 84.98149468 -19.91845703 89.34375 C-21.39453125 90.78515625 -21.39453125 90.78515625 -24.83203125 92.59765625 C-29.96174922 92.29477516 -33.7038515 90.94175192 -38.2109375 88.54296875 C-38.78609604 88.24075409 -39.36125458 87.93853943 -39.95384216 87.62716675 C-41.77275729 86.66872515 -43.58364521 85.69616769 -45.39453125 84.72265625 C-46.61211291 84.07714831 -47.83020847 83.43260872 -49.04882812 82.7890625 C-51.29705449 81.60122014 -53.54130939 80.40691007 -55.78344727 79.20751953 C-56.78947998 78.67626465 -57.7955127 78.14500977 -58.83203125 77.59765625 C-59.88487305 77.0351416 -60.93771484 76.47262695 -62.02246094 75.89306641 C-65.90717545 74.10193891 -67.70161213 74.45998685 -71.83203125 75.59765625 C-75.54950613 77.32148831 -79.08999171 79.31233709 -82.64453125 81.34765625 C-93.95714516 87.71832081 -93.95714516 87.71832081 -99.2890625 90.484375 C-100.07128174 90.89131592 -100.85350098 91.29825684 -101.65942383 91.7175293 C-105.07023208 93.09925351 -107.40351281 92.76335252 -110.83203125 91.59765625 C-113.26953125 90.16015625 -113.26953125 90.16015625 -114.83203125 87.59765625 C-116.34548781 79.11885984 -113.56060532 69.89069616 -111.83203125 61.59765625 C-110.72988281 61.25734375 -109.62773437 60.91703125 -108.4921875 60.56640625 C-84.50098734 52.98307295 -62.76322472 40.89812318 -42.59521484 25.88964844 C-39.93716313 23.94193178 -37.22763424 22.06975584 -34.52319336 20.18725586 C-27.01265914 14.95289469 -19.73407533 9.50070056 -12.58984375 3.77734375 C-7.85364044 0.03399892 -5.84892189 -0.830108 0 0 Z " fill="#99653F" transform="translate(322.83203125,303.40234375)"/>
<path d="M0 0 C14.85 0 29.7 0 45 0 C45 27.06 45 54.12 45 82 C38.8077113 81.31196792 33.20575716 80.47562752 27.24609375 78.93359375 C26.54746216 78.757677 25.84883057 78.58176025 25.12902832 78.4005127 C22.56353275 77.75268565 20.00065754 77.09451663 17.4375 76.4375 C11.683125 74.973125 5.92875 73.50875 0 72 C0 48.24 0 24.48 0 0 Z " fill="#D44051" transform="translate(152,31)"/>
<path d="M0 0 C14.85 0 29.7 0 45 0 C45 23.43 45 46.86 45 71 C23.89655172 76.86206897 23.89655172 76.86206897 14.0625 79.3125 C13.02416016 79.57611328 11.98582031 79.83972656 10.91601562 80.11132812 C9.92408203 80.35947266 8.93214844 80.60761719 7.91015625 80.86328125 C6.59736694 81.19259644 6.59736694 81.19259644 5.25805664 81.52856445 C3 82 3 82 0 82 C0 54.94 0 27.88 0 0 Z " fill="#D84452" transform="translate(315,31)"/>
<path d="M0 0 C3.93244436 2.04953668 6.40422343 4.13204365 7.96875 8.2734375 C8.66673245 12.90629599 8.48083874 16.92791078 6.34375 21.1484375 C3.25920447 25.20705004 0.85165772 26.75788101 -4.171875 27.65625 C-8.67982397 28.00891267 -11.41757519 27.45647047 -14.96875 24.5859375 C-18.87677115 20.70505538 -19.88220462 17.83841397 -20.40625 12.3359375 C-20.28456017 8.03623023 -18.85650163 5.55683804 -16.03125 2.2734375 C-11.44378976 -1.65867128 -5.5997399 -2.00298389 0 0 Z " fill="#D79F6C" transform="translate(262.03125,153.7265625)"/>
</svg>
