<?xml version="1.0" encoding="UTF-8"?>
<svg version="1.1" xmlns="http://www.w3.org/2000/svg" width="512" height="512">
<path d="M0 0 C8.55815015 6.29188042 11.95457961 11.88644902 16 22 C16 29.92 16 37.84 16 46 C73.42 46 130.84 46 190 46 C190 38.08 190 30.16 190 22 C194.46066832 10.8483292 199.28973368 3.04092784 210.3125 -2.25 C218.72876224 -5.42025125 229.12986651 -5.46669115 237.5625 -2.3125 C239.06428626 -1.58672035 240.54667274 -0.81850959 242 0 C242.94746094 0.50853516 242.94746094 0.50853516 243.9140625 1.02734375 C250.23746902 4.94117025 254.47342595 11.46112379 257.375 18.1875 C258.81137507 24.65118782 259.13148454 30.85212985 259.0625 37.4375 C259.05798828 38.26443359 259.05347656 39.09136719 259.04882812 39.94335938 C259.03715811 41.96227146 259.01922718 43.98114574 259 46 C260.27004883 45.98428955 261.54009766 45.9685791 262.84863281 45.95239258 C267.61223882 45.89762244 272.37581764 45.86348043 277.13964844 45.83520508 C279.19177957 45.82022484 281.24387927 45.79983354 283.29589844 45.77368164 C306.36223287 45.4873177 324.11933606 49.52591158 341.14453125 66.0859375 C351.82800042 77.40265246 359.11284494 92.32260864 359.13142776 108.04779911 C359.13526891 109.26954242 359.13911005 110.49128573 359.1430676 111.75005156 C359.14228741 113.10265996 359.14140863 114.45526831 359.14044189 115.80787659 C359.14302641 117.24732049 359.14603981 118.68676367 359.1494453 120.12620586 C359.15750861 124.08229619 359.1593045 128.03836837 359.16004276 131.99446595 C359.16189452 136.26118272 359.16944254 140.5278901 359.17617798 144.79460144 C359.18975777 154.12539073 359.19578566 163.45617571 359.20018864 172.78697324 C359.20295204 178.6149252 359.20718961 184.4428755 359.21169281 190.27082634 C359.22388574 206.41118675 359.23418454 222.55154583 359.2375679 238.69191074 C359.23778747 239.72488033 359.23800703 240.75784992 359.23823325 241.82212162 C359.23845153 242.8575474 359.23866981 243.89297318 359.2388947 244.95977551 C359.23933817 247.05790047 359.23978473 249.15602543 359.24023438 251.25415039 C359.2404558 252.29489033 359.24067723 253.33563027 359.24090537 254.40790778 C359.24485172 271.26420411 359.26230066 288.12045717 359.2855939 304.97673679 C359.30932346 322.28874473 359.32177051 339.60073097 359.32293582 356.91275543 C359.32385175 366.63035847 359.32958341 376.34790514 359.34775543 386.06549263 C359.36317817 394.34200793 359.36826412 402.61844944 359.36001733 410.89497638 C359.35611832 415.11518367 359.35700362 419.33524248 359.37107468 423.55543137 C359.38385884 427.42518062 359.38257677 431.29467052 359.37048396 435.16441964 C359.36853473 436.55815126 359.37156932 437.95190154 359.38032833 439.34560699 C359.4985331 459.43969642 352.95261976 475.7116325 338.9140625 490.14453125 C327.27872692 501.12879209 312.26269359 508.11480572 296.17133236 508.13142776 C295.49380882 508.1334804 294.81628528 508.13553303 294.11823073 508.13764787 C291.84344555 508.1433112 289.56872104 508.14186144 287.29393005 508.14044189 C285.64824624 508.14302592 284.00256305 508.14603919 282.35688072 508.1494453 C277.83071217 508.1575143 273.30455947 508.15930481 268.77838457 508.16004276 C263.89816575 508.16189352 259.01795515 508.16944102 254.13774109 508.17617798 C243.46401926 508.18976165 232.79030118 508.19578622 222.11657214 508.20018864 C215.45107172 508.2029513 208.78557276 508.20718872 202.12007332 508.21169281 C183.66355575 508.22388608 165.20703935 508.23418492 146.75051785 508.2375679 C144.97849262 508.23789725 144.97849262 508.23789725 143.1706689 508.23823325 C141.98649572 508.23845153 140.80232254 508.23866981 139.58226532 508.2388947 C137.18269185 508.23933817 134.78311839 508.23978473 132.38354492 508.24023438 C130.59813891 508.24056652 130.59813891 508.24056652 128.77666409 508.24090537 C109.49542285 508.24485232 90.21421944 508.26230294 70.93299281 508.2855939 C51.13495781 508.30931596 31.33694177 508.32177016 11.53889233 508.32293582 C0.42400844 508.32385216 -10.69082618 508.32959404 -21.80569649 508.34775543 C-31.27163775 508.36316801 -40.73751452 508.36827007 -50.20346595 508.36001733 C-55.03124617 508.35611479 -59.85889658 508.35702106 -64.68666077 508.37107468 C-69.11152614 508.38383736 -73.53616448 508.38259532 -77.96102964 508.37048396 C-79.55664385 508.36853105 -81.15227428 508.37158654 -82.74786574 508.38032833 C-103.55946151 508.48707467 -120.10254781 502.54506278 -135.14453125 487.9140625 C-145.82800042 476.59734754 -153.11284494 461.67739136 -153.13142776 445.95220089 C-153.13526891 444.73045758 -153.13911005 443.50871427 -153.1430676 442.24994844 C-153.14228741 440.89734004 -153.14140863 439.54473169 -153.14044189 438.19212341 C-153.14302641 436.75267951 -153.14603981 435.31323633 -153.1494453 433.87379414 C-153.15750861 429.91770381 -153.1593045 425.96163163 -153.16004276 422.00553405 C-153.16189452 417.73881728 -153.16944254 413.4721099 -153.17617798 409.20539856 C-153.18975777 399.87460927 -153.19578566 390.54382429 -153.20018864 381.21302676 C-153.20295204 375.3850748 -153.20718961 369.5571245 -153.21169281 363.72917366 C-153.22388574 347.58881325 -153.23418454 331.44845417 -153.2375679 315.30808926 C-153.23789725 313.75863487 -153.23789725 313.75863487 -153.23823325 312.17787838 C-153.23845153 311.1424526 -153.23866981 310.10702682 -153.2388947 309.04022449 C-153.23933817 306.94209953 -153.23978473 304.84397457 -153.24023438 302.74584961 C-153.2404558 301.70510967 -153.24067723 300.66436973 -153.24090537 299.59209222 C-153.24485172 282.73579589 -153.26230066 265.87954283 -153.2855939 249.02326321 C-153.30932346 231.71125527 -153.32177051 214.39926903 -153.32293582 197.08724457 C-153.32385175 187.36964153 -153.32958341 177.65209486 -153.34775543 167.93450737 C-153.36317817 159.65799207 -153.36826412 151.38155056 -153.36001733 143.10502362 C-153.35611832 138.88481633 -153.35700362 134.66475752 -153.37107468 130.44456863 C-153.38385884 126.57481938 -153.38257677 122.70532948 -153.37048396 118.83558036 C-153.36853473 117.44184874 -153.37156932 116.04809846 -153.38032833 114.65439301 C-153.4985331 94.56030358 -146.95261976 78.2883675 -132.9140625 63.85546875 C-120.00010452 51.66413296 -104.43206206 45.80566142 -86.88671875 45.90234375 C-85.91716751 45.9037587 -84.94761627 45.90517365 -83.94868469 45.90663147 C-80.86159133 45.91221487 -77.77457133 45.92476436 -74.6875 45.9375 C-72.59049584 45.94251714 -70.49349054 45.94707968 -68.39648438 45.95117188 C-63.26429479 45.96217888 -58.13215982 45.97943212 -53 46 C-53.00870117 44.76588379 -53.01740234 43.53176758 -53.02636719 42.26025391 C-53.03340473 40.62402429 -53.04022944 38.98779375 -53.046875 37.3515625 C-53.05630127 36.13448608 -53.05630127 36.13448608 -53.06591797 34.89282227 C-53.09997041 23.70659557 -51.07278811 13.29097157 -43 5 C-30.71869643 -4.5332099 -14.13744016 -8.66488268 0 0 Z " fill="#F3EEEE" transform="translate(153,4)"/>
<path d="M0 0 C8.55815015 6.29188042 11.95457961 11.88644902 16 22 C16 29.92 16 37.84 16 46 C73.42 46 130.84 46 190 46 C190 38.08 190 30.16 190 22 C194.46066832 10.8483292 199.28973368 3.04092784 210.3125 -2.25 C218.72876224 -5.42025125 229.12986651 -5.46669115 237.5625 -2.3125 C239.06428626 -1.58672035 240.54667274 -0.81850959 242 0 C242.94746094 0.50853516 242.94746094 0.50853516 243.9140625 1.02734375 C250.23746902 4.94117025 254.47342595 11.46112379 257.375 18.1875 C258.81137507 24.65118782 259.13148454 30.85212985 259.0625 37.4375 C259.05798828 38.26443359 259.05347656 39.09136719 259.04882812 39.94335938 C259.03715811 41.96227146 259.01922718 43.98114574 259 46 C260.27004883 45.98428955 261.54009766 45.9685791 262.84863281 45.95239258 C267.61223882 45.89762244 272.37581764 45.86348043 277.13964844 45.83520508 C279.19177957 45.82022484 281.24387927 45.79983354 283.29589844 45.77368164 C306.36223287 45.4873177 324.11933606 49.52591158 341.14453125 66.0859375 C351.82800042 77.40265246 359.11284494 92.32260864 359.13142776 108.04779911 C359.13526891 109.26954242 359.13911005 110.49128573 359.1430676 111.75005156 C359.14228741 113.10265996 359.14140863 114.45526831 359.14044189 115.80787659 C359.14302641 117.24732049 359.14603981 118.68676367 359.1494453 120.12620586 C359.15750861 124.08229619 359.1593045 128.03836837 359.16004276 131.99446595 C359.16189452 136.26118272 359.16944254 140.5278901 359.17617798 144.79460144 C359.18975777 154.12539073 359.19578566 163.45617571 359.20018864 172.78697324 C359.20295204 178.6149252 359.20718961 184.4428755 359.21169281 190.27082634 C359.22388574 206.41118675 359.23418454 222.55154583 359.2375679 238.69191074 C359.23778747 239.72488033 359.23800703 240.75784992 359.23823325 241.82212162 C359.23845153 242.8575474 359.23866981 243.89297318 359.2388947 244.95977551 C359.23933817 247.05790047 359.23978473 249.15602543 359.24023438 251.25415039 C359.2404558 252.29489033 359.24067723 253.33563027 359.24090537 254.40790778 C359.24485172 271.26420411 359.26230066 288.12045717 359.2855939 304.97673679 C359.30932346 322.28874473 359.32177051 339.60073097 359.32293582 356.91275543 C359.32385175 366.63035847 359.32958341 376.34790514 359.34775543 386.06549263 C359.36317817 394.34200793 359.36826412 402.61844944 359.36001733 410.89497638 C359.35611832 415.11518367 359.35700362 419.33524248 359.37107468 423.55543137 C359.38385884 427.42518062 359.38257677 431.29467052 359.37048396 435.16441964 C359.36853473 436.55815126 359.37156932 437.95190154 359.38032833 439.34560699 C359.4985331 459.43969642 352.95261976 475.7116325 338.9140625 490.14453125 C327.27872692 501.12879209 312.26269359 508.11480572 296.17133236 508.13142776 C295.49380882 508.1334804 294.81628528 508.13553303 294.11823073 508.13764787 C291.84344555 508.1433112 289.56872104 508.14186144 287.29393005 508.14044189 C285.64824624 508.14302592 284.00256305 508.14603919 282.35688072 508.1494453 C277.83071217 508.1575143 273.30455947 508.15930481 268.77838457 508.16004276 C263.89816575 508.16189352 259.01795515 508.16944102 254.13774109 508.17617798 C243.46401926 508.18976165 232.79030118 508.19578622 222.11657214 508.20018864 C215.45107172 508.2029513 208.78557276 508.20718872 202.12007332 508.21169281 C183.66355575 508.22388608 165.20703935 508.23418492 146.75051785 508.2375679 C144.97849262 508.23789725 144.97849262 508.23789725 143.1706689 508.23823325 C141.98649572 508.23845153 140.80232254 508.23866981 139.58226532 508.2388947 C137.18269185 508.23933817 134.78311839 508.23978473 132.38354492 508.24023438 C130.59813891 508.24056652 130.59813891 508.24056652 128.77666409 508.24090537 C109.49542285 508.24485232 90.21421944 508.26230294 70.93299281 508.2855939 C51.13495781 508.30931596 31.33694177 508.32177016 11.53889233 508.32293582 C0.42400844 508.32385216 -10.69082618 508.32959404 -21.80569649 508.34775543 C-31.27163775 508.36316801 -40.73751452 508.36827007 -50.20346595 508.36001733 C-55.03124617 508.35611479 -59.85889658 508.35702106 -64.68666077 508.37107468 C-69.11152614 508.38383736 -73.53616448 508.38259532 -77.96102964 508.37048396 C-79.55664385 508.36853105 -81.15227428 508.37158654 -82.74786574 508.38032833 C-103.55946151 508.48707467 -120.10254781 502.54506278 -135.14453125 487.9140625 C-145.82800042 476.59734754 -153.11284494 461.67739136 -153.13142776 445.95220089 C-153.13526891 444.73045758 -153.13911005 443.50871427 -153.1430676 442.24994844 C-153.14228741 440.89734004 -153.14140863 439.54473169 -153.14044189 438.19212341 C-153.14302641 436.75267951 -153.14603981 435.31323633 -153.1494453 433.87379414 C-153.15750861 429.91770381 -153.1593045 425.96163163 -153.16004276 422.00553405 C-153.16189452 417.73881728 -153.16944254 413.4721099 -153.17617798 409.20539856 C-153.18975777 399.87460927 -153.19578566 390.54382429 -153.20018864 381.21302676 C-153.20295204 375.3850748 -153.20718961 369.5571245 -153.21169281 363.72917366 C-153.22388574 347.58881325 -153.23418454 331.44845417 -153.2375679 315.30808926 C-153.23789725 313.75863487 -153.23789725 313.75863487 -153.23823325 312.17787838 C-153.23845153 311.1424526 -153.23866981 310.10702682 -153.2388947 309.04022449 C-153.23933817 306.94209953 -153.23978473 304.84397457 -153.24023438 302.74584961 C-153.2404558 301.70510967 -153.24067723 300.66436973 -153.24090537 299.59209222 C-153.24485172 282.73579589 -153.26230066 265.87954283 -153.2855939 249.02326321 C-153.30932346 231.71125527 -153.32177051 214.39926903 -153.32293582 197.08724457 C-153.32385175 187.36964153 -153.32958341 177.65209486 -153.34775543 167.93450737 C-153.36317817 159.65799207 -153.36826412 151.38155056 -153.36001733 143.10502362 C-153.35611832 138.88481633 -153.35700362 134.66475752 -153.37107468 130.44456863 C-153.38385884 126.57481938 -153.38257677 122.70532948 -153.37048396 118.83558036 C-153.36853473 117.44184874 -153.37156932 116.04809846 -153.38032833 114.65439301 C-153.4985331 94.56030358 -146.95261976 78.2883675 -132.9140625 63.85546875 C-120.00010452 51.66413296 -104.43206206 45.80566142 -86.88671875 45.90234375 C-85.91716751 45.9037587 -84.94761627 45.90517365 -83.94868469 45.90663147 C-80.86159133 45.91221487 -77.77457133 45.92476436 -74.6875 45.9375 C-72.59049584 45.94251714 -70.49349054 45.94707968 -68.39648438 45.95117188 C-63.26429479 45.96217888 -58.13215982 45.97943212 -53 46 C-53.00870117 44.76588379 -53.01740234 43.53176758 -53.02636719 42.26025391 C-53.03340473 40.62402429 -53.04022944 38.98779375 -53.046875 37.3515625 C-53.05630127 36.13448608 -53.05630127 36.13448608 -53.06591797 34.89282227 C-53.09997041 23.70659557 -51.07278811 13.29097157 -43 5 C-30.71869643 -4.5332099 -14.13744016 -8.66488268 0 0 Z M-143 181 C-143.061875 224.993125 -143.12375 268.98625 -143.1875 314.3125 C-143.21481201 328.20384033 -143.24212402 342.09518066 -143.27026367 356.4074707 C-143.28029693 368.85872539 -143.28029693 368.85872539 -143.28633118 381.3099823 C-143.28912629 386.85620445 -143.30012023 392.40233571 -143.31672668 397.9485321 C-143.3358642 404.34954564 -143.34449815 410.75047214 -143.34033485 417.15151448 C-143.33853269 420.42380457 -143.3430178 423.69586173 -143.35764539 426.96812499 C-143.37261243 430.4798684 -143.3689535 433.99112892 -143.36076355 437.50288391 C-143.36950154 438.51332355 -143.37823954 439.52376318 -143.38724232 440.5648222 C-143.28589746 456.78214628 -136.43241106 471.56758894 -125 483 C-113.66288862 492.45494503 -101.05221715 498.11975621 -86.18604755 498.12863445 C-85.52226594 498.13038749 -84.85848432 498.13214053 -84.17458811 498.13394669 C-81.95257812 498.13859488 -79.7306339 498.13614423 -77.50862122 498.13371277 C-75.89848502 498.13558134 -74.28834928 498.13788223 -72.67821425 498.14057809 C-68.25498656 498.14669689 -63.83177777 498.1465624 -59.40854681 498.14538372 C-54.63743318 498.14517973 -49.86632564 498.15069833 -45.09521484 498.15544128 C-35.74769828 498.1637491 -26.40018802 498.16649619 -17.05266807 498.16705366 C-9.45374301 498.16752881 -1.85482002 498.1695835 5.74410439 498.17275429 C27.28990786 498.18156163 48.83570636 498.1861736 70.38151165 498.18542381 C72.12396099 498.18536388 72.12396099 498.18536388 73.90161133 498.18530273 C75.64618926 498.18524141 75.64618926 498.18524141 77.42601118 498.18517885 C96.27136499 498.18477248 115.1166988 498.19433969 133.96204682 498.2084411 C153.31375368 498.22280709 172.66545078 498.22971115 192.0171631 498.22884732 C202.88103569 498.22851541 213.74488733 498.23126017 224.60875511 498.24202538 C233.85949684 498.25113334 243.11020813 498.25330322 252.3609524 498.24651595 C257.07922399 498.24325211 261.79743718 498.24318917 266.5157032 498.2518692 C270.83927986 498.25974118 275.16275188 498.25829561 279.48632602 498.24958507 C281.04622486 498.24805161 282.60613153 498.24986041 284.16602113 498.25544515 C302.76429201 498.31759382 317.11486502 495.03936618 331.46484375 482.5703125 C344.47400239 469.3807495 349.17211506 454.11982378 349.12025452 436.05982971 C349.12111053 434.97024963 349.12196655 433.88066956 349.12284851 432.7580719 C349.12450169 429.10114906 349.11898328 425.44427216 349.11352539 421.78735352 C349.11321903 419.1232261 349.11330822 416.45910142 349.11389065 413.79497433 C349.11442159 407.38346267 349.10981126 400.97196507 349.10338932 394.56045702 C349.09618147 387.14182511 349.09539414 379.72320161 349.09460449 372.30456543 C349.08935692 352.72387473 349.07539577 333.14318715 349.0625 313.5625 C349.041875 269.816875 349.02125 226.07125 349 181 C186.64 181 24.28 181 -143 181 Z " fill="#385D4B" transform="translate(153,4)"/>
<path d="M0 0 C1.78361183 -0.00006042 1.78361183 -0.00006042 3.60325623 -0.00012207 C6.10526851 0.00521602 8.60728134 0.02272468 11.10913086 0.05175781 C14.92549186 0.09366104 18.7400879 0.0928155 22.55664062 0.0859375 C24.99610594 0.09642969 27.43556221 0.10936795 29.875 0.125 C31.57530113 0.12530212 31.57530113 0.12530212 33.30995178 0.12561035 C41.80304074 0.25173486 49.09190092 1.31455717 55.37109375 7.59375 C60.21324556 14.04752161 59.95420827 20.02793602 59.90234375 27.90234375 C59.90808411 29.82337669 59.90808411 29.82337669 59.91394043 31.78321838 C59.91981416 34.48564096 59.91134409 37.18753215 59.89257812 39.88989258 C59.86981138 43.33417652 59.88290861 46.77721183 59.90686798 50.22144985 C59.92489656 53.53184467 59.91222847 56.84191359 59.90234375 60.15234375 C59.91044067 61.37964706 59.9185376 62.60695038 59.92687988 63.8714447 C59.83828983 72.00789651 59.00694437 77.85690353 53.12109375 83.90625 C45.42160236 88.6309379 38.69105125 89.05020344 29.83984375 89.02734375 C28.0541095 89.03520653 28.0541095 89.03520653 26.2322998 89.04322815 C23.72437314 89.04962928 21.21641638 89.04833623 18.70849609 89.03979492 C14.88324331 89.03127705 11.05948087 89.06008895 7.234375 89.09179688 C4.79036503 89.09340894 2.34635243 89.09283126 -0.09765625 89.08984375 C-1.80266296 89.10669472 -1.80266296 89.10669472 -3.54211426 89.12388611 C-11.18821908 89.05714498 -17.06358866 88.17936352 -22.6875 82.5234375 C-23.14253906 81.84539062 -23.59757812 81.16734375 -24.06640625 80.46875 C-24.53949219 79.78554688 -25.01257812 79.10234375 -25.5 78.3984375 C-27.5909953 75.05573913 -27.77703055 72.95062674 -27.83764648 69.00170898 C-27.8569371 67.82966415 -27.87622772 66.65761932 -27.89610291 65.45005798 C-27.95382513 60.06755101 -28.00346483 54.6852087 -28.03393555 49.30249023 C-28.05168584 46.46706384 -28.08639779 43.63264392 -28.13647461 40.79760742 C-28.20863047 36.70736012 -28.23095707 32.6181889 -28.25 28.52734375 C-28.27783066 27.26764267 -28.30566132 26.00794159 -28.33433533 24.71006775 C-28.31849932 17.89446356 -27.80725478 12.88779758 -23.49133301 7.43751526 C-16.49768887 0.51394737 -9.52414009 -0.13800215 0 0 Z " fill="#395E4C" transform="translate(81.62890625,296.40625)"/>
<path d="M0 0 C1.16355011 -0.0038269 2.32710022 -0.00765381 3.52590942 -0.01159668 C5.97838205 -0.01430925 8.43088393 -0.00699422 10.88330078 0.00976562 C14.61427156 0.03114376 18.34330817 0.00995951 22.07421875 -0.015625 C24.46615004 -0.01298085 26.85808014 -0.00785408 29.25 0 C30.35447479 -0.00809692 31.45894958 -0.01619385 32.59689331 -0.02453613 C40.42492193 0.06905962 48.04465061 1.1205467 54.01171875 6.6015625 C54.65947266 7.61863281 54.65947266 7.61863281 55.3203125 8.65625 C55.77535156 9.33945312 56.23039062 10.02265625 56.69921875 10.7265625 C58.67616366 14.09685235 58.90626373 16.19567144 58.96655273 20.12329102 C58.98584335 21.29533585 59.00513397 22.46738068 59.02500916 23.67494202 C59.08273138 29.05744899 59.13237108 34.4397913 59.1628418 39.82250977 C59.18059209 42.65793616 59.21530404 45.49235608 59.26538086 48.32739258 C59.33753672 52.41763988 59.35986332 56.5068111 59.37890625 60.59765625 C59.40673691 61.85735733 59.43456757 63.11705841 59.46324158 64.41493225 C59.44740518 71.23070585 58.93683062 76.23859159 54.61880493 81.68789673 C48.55318144 87.69602804 42.71022943 89.10760082 34.30409241 89.25163269 C32.55061745 89.24115654 32.55061745 89.24115654 30.76171875 89.23046875 C28.9186338 89.24120171 28.9186338 89.24120171 27.03831482 89.25215149 C24.45059938 89.25990489 21.86281816 89.25496686 19.27514648 89.23803711 C15.33515938 89.21882241 11.39870686 89.25823024 7.45898438 89.30273438 C4.93489375 89.30302479 2.41079992 89.29988342 -0.11328125 89.29296875 C-1.28024033 89.30825119 -2.4471994 89.32353363 -3.64952087 89.33927917 C-11.55721966 89.22767505 -17.03811138 87.54491533 -23.2421875 82.53125 C-27.1877012 78.17486449 -28.36326389 73.84679612 -28.40332031 68.06933594 C-28.41292786 66.95097351 -28.4225354 65.83261108 -28.43243408 64.68035889 C-28.43668396 63.4709967 -28.44093384 62.26163452 -28.4453125 61.015625 C-28.45101257 59.771297 -28.45671265 58.52696899 -28.46258545 57.24493408 C-28.47203984 54.60872746 -28.47893419 51.97263478 -28.48242188 49.33642578 C-28.48680803 46.63999914 -28.50070433 43.94389221 -28.5234375 41.24755859 C-28.55393539 37.35764866 -28.56447456 33.46814125 -28.5703125 29.578125 C-28.5826593 28.37685974 -28.5950061 27.17559448 -28.60772705 25.93792725 C-28.58717608 18.193246 -28.06232514 12.99599053 -23.0546875 6.84375 C-15.70501808 0.80068848 -9.38906969 -0.06858005 0 0 Z " fill="#395E4C" transform="translate(399.2421875,296.46875)"/>
<path d="M0 0 C1.09496292 -0.0127597 2.18992584 -0.02551941 3.31806946 -0.03866577 C4.49209824 -0.04089142 5.66612701 -0.04311707 6.87573242 -0.04541016 C8.09266281 -0.05206696 9.3095932 -0.05872375 10.56340027 -0.06558228 C13.13632701 -0.07570019 15.70927995 -0.08039956 18.28222656 -0.08007812 C22.20641656 -0.08444508 26.12947615 -0.12075941 30.0534668 -0.15869141 C32.55671817 -0.16456102 35.05997487 -0.16852945 37.56323242 -0.17041016 C38.73118851 -0.18478119 39.89914459 -0.19915222 41.10249329 -0.21395874 C48.90011002 -0.17051441 54.49036634 0.75726224 60.47729492 6.14208984 C60.93233398 6.72732422 61.38737305 7.31255859 61.85620117 7.91552734 C62.32928711 8.50591797 62.80237305 9.09630859 63.28979492 9.70458984 C65.56519665 12.90117497 65.55948667 15.11338109 65.59570312 19.00610352 C65.61495598 20.80388496 65.61495598 20.80388496 65.63459778 22.63798523 C65.64198471 23.94000381 65.64937164 25.2420224 65.65698242 26.58349609 C65.66105795 27.2459112 65.66513348 27.9083263 65.6693325 28.59081459 C65.69019832 32.10017205 65.70449506 35.6094904 65.71386719 39.11889648 C65.72490416 42.7325423 65.75926992 46.34556764 65.79903889 49.95899487 C65.82527645 52.74639475 65.8335655 55.53364878 65.83714867 58.32116127 C65.84434933 60.29697586 65.87076282 62.27269049 65.89753723 64.24833679 C65.87841263 72.18616705 65.28475649 76.96964199 59.89135742 82.99755859 C54.96772125 86.85736202 51.08891559 88.53138926 44.83740234 88.58105469 C43.19495796 88.60019424 43.19495796 88.60019424 41.51933289 88.61972046 C40.34530411 88.62194611 39.17127533 88.62417175 37.96166992 88.62646484 C36.74473953 88.63312164 35.52780914 88.63977844 34.27400208 88.64663696 C31.70107533 88.65675487 29.1281224 88.66145425 26.55517578 88.66113281 C22.63098578 88.66549976 18.70792619 88.7018141 14.78393555 88.73974609 C12.28068417 88.74561571 9.77742747 88.74958413 7.27416992 88.75146484 C6.10621384 88.76583588 4.93825775 88.78020691 3.73490906 88.79501343 C-4.05874935 88.75159115 -9.53376511 87.78328327 -15.60473633 82.54443359 C-16.05075195 81.98626953 -16.49676758 81.42810547 -16.95629883 80.85302734 C-17.4177832 80.29744141 -17.87926758 79.74185547 -18.35473633 79.16943359 C-21.01948978 75.08743866 -21.8350385 71.45445697 -21.88769531 66.61743164 C-21.90368271 65.50244797 -21.9196701 64.38746429 -21.93614197 63.23869324 C-21.94150467 62.04279068 -21.94686737 60.84688812 -21.95239258 59.61474609 C-21.96593529 57.75605644 -21.96593529 57.75605644 -21.97975159 55.8598175 C-21.99424936 53.23982151 -22.00313964 50.61978936 -22.00683594 47.99975586 C-22.0111445 45.32357225 -22.03200152 42.64835018 -22.06835938 39.97241211 C-22.11725006 36.10289295 -22.13262846 32.23454245 -22.13989258 28.36474609 C-22.1594249 27.17491623 -22.17895721 25.98508636 -22.19908142 24.75920105 C-22.15554165 16.70391017 -20.77104542 11.58389212 -15.10301208 5.77568054 C-10.43814831 1.60608462 -6.18001246 0.04909739 0 0 Z " fill="#395E4C" transform="translate(286.581298828125,296.70947265625)"/>
<path d="M0 0 C1.07186554 -0.01283524 2.14373108 -0.02567047 3.24807739 -0.03889465 C4.40741791 -0.04628159 5.56675842 -0.05366852 6.76123047 -0.0612793 C8.55401932 -0.07338692 8.55401932 -0.07338692 10.38302612 -0.08573914 C12.91663157 -0.09958087 15.45025566 -0.11030262 17.98388672 -0.11816406 C21.84232418 -0.1353374 25.6998961 -0.17922012 29.55810547 -0.22338867 C32.02164084 -0.23351921 34.4851835 -0.24203418 36.94873047 -0.2487793 C38.0959256 -0.26628738 39.24312073 -0.28379547 40.42507935 -0.30183411 C48.05218888 -0.2813775 54.88825099 0.51382826 60.63113403 5.95658875 C64.83998563 10.59887522 66.99442509 14.3735182 67.04394531 20.73657227 C67.05670502 21.85163147 67.06946472 22.96669067 67.08261108 24.11553955 C67.08483673 25.31660339 67.08706238 26.51766724 67.08935547 27.75512695 C67.09934067 29.61593903 67.09934067 29.61593903 67.10952759 31.51434326 C67.11965497 34.14032509 67.12434458 36.76633265 67.12402344 39.39233398 C67.12386099 42.07522572 67.13772663 44.75743401 67.16503906 47.44018555 C67.20177186 51.31621076 67.21150077 55.19144477 67.21435547 59.06762695 C67.2287265 60.26059387 67.24309753 61.45356079 67.25790405 62.68267822 C67.21488727 70.56608383 66.26946594 76.01875344 61.04248047 82.20043945 C60.49333984 82.64645508 59.94419922 83.0924707 59.37841797 83.55200195 C58.83443359 84.01348633 58.29044922 84.4749707 57.72998047 84.95043945 C51.37176668 88.89605038 44.64981686 88.4989057 37.41748047 88.51293945 C36.22416107 88.51959625 35.03084167 88.52625305 33.80136108 88.53311157 C31.28148944 88.54321963 28.76159112 88.54792916 26.24169922 88.54760742 C22.3988001 88.55197877 18.55705146 88.58831555 14.71435547 88.6262207 C12.26123438 88.63208965 9.80810786 88.63605852 7.35498047 88.63793945 C6.21203522 88.65231049 5.06908997 88.66668152 3.89151001 88.68148804 C-3.3535377 88.64025436 -9.34778918 87.89771759 -14.76327515 82.72958374 C-18.8990204 78.0023142 -20.48781436 74.48466885 -20.56884766 68.25024414 C-20.58806274 67.05510193 -20.60727783 65.85995972 -20.6270752 64.62860107 C-20.63557495 63.34004211 -20.64407471 62.05148315 -20.65283203 60.72387695 C-20.66131416 59.73487774 -20.66131416 59.73487774 -20.66996765 58.72589874 C-20.69990479 55.23481148 -20.71839127 51.74388842 -20.72705078 48.25268555 C-20.73799753 44.66346962 -20.78601095 41.07578005 -20.84299469 37.48704147 C-20.88043319 34.71244064 -20.89066833 31.93820019 -20.89372253 29.16336823 C-20.90264508 27.20246248 -20.93985187 25.24175047 -20.97766113 23.28118896 C-20.94346591 16.40048953 -20.45727383 11.94765735 -15.84729004 6.67340088 C-11.04328255 2.18244338 -6.63565034 0.06925198 0 0 Z " fill="#395E4C" transform="translate(180.24658203125,296.822998046875)"/>
<path d="M0 0 C1.13515549 -0.01283524 2.27031097 -0.02567047 3.43986511 -0.03889465 C4.66796402 -0.04628159 5.89606293 -0.05366852 7.16137695 -0.0612793 C8.42552933 -0.06935104 9.6896817 -0.07742279 10.99214172 -0.08573914 C13.67123071 -0.0995816 16.35019661 -0.11059685 19.02929688 -0.11816406 C22.44441433 -0.12919788 25.85887469 -0.16356611 29.2737608 -0.20333576 C32.54873368 -0.23593466 35.82376658 -0.2402927 39.09887695 -0.2487793 C40.31685471 -0.26628738 41.53483246 -0.28379547 42.78971863 -0.30183411 C50.70096793 -0.28172413 56.65300298 0.41121472 62.52075195 6.2121582 C62.97579102 6.88118164 63.43083008 7.55020508 63.8996582 8.23950195 C64.37274414 8.91110352 64.84583008 9.58270508 65.33325195 10.2746582 C67.40216392 13.76102543 67.59940297 16.65788317 67.63916016 20.62304688 C67.65841301 22.29574898 67.65841301 22.29574898 67.67805481 24.00224304 C67.68544174 25.20846817 67.69282867 26.4146933 67.70043945 27.6574707 C67.7085112 28.89942703 67.71658295 30.14138336 67.72489929 31.42097473 C67.73874128 34.05298593 67.74975664 36.68487186 67.75732422 39.31689453 C67.76617026 42.00657909 67.78701091 44.69574467 67.81884766 47.38525391 C67.8615499 51.2678179 67.87769915 55.14970092 67.88793945 59.0324707 C67.90544754 60.22857468 67.92295563 61.42467865 67.94099426 62.6570282 C67.92176541 70.09005721 67.39723774 76.05974242 62.01460266 81.6915741 C57.33613662 85.7913765 53.81795611 87.41738859 47.64306641 87.49926758 C46.47117264 87.51848267 45.29927887 87.53769775 44.09187317 87.55749512 C42.82832504 87.56599487 41.56477692 87.57449463 40.26293945 87.58325195 C38.95818161 87.5946521 37.65342377 87.60605225 36.30912781 87.61779785 C33.54607595 87.63878372 30.78313981 87.65048979 28.02001953 87.6574707 C24.50038937 87.66840595 20.98232028 87.71639362 17.46317768 87.77341461 C14.08396547 87.81992101 10.70495468 87.82358383 7.32543945 87.83325195 C6.07201248 87.85794556 4.81858551 87.88263916 3.5271759 87.90808105 C-4.33207466 87.86836178 -9.8609762 86.88880959 -15.5378418 81.17700195 C-20.72509064 74.94840795 -20.13495932 67.2674228 -20.10424805 59.55200195 C-20.11044662 58.25053223 -20.1166452 56.9490625 -20.12303162 55.6081543 C-20.13338994 52.86464615 -20.12894062 50.12165817 -20.11425781 47.37817383 C-20.0970632 43.8810546 -20.12059392 40.38557756 -20.15574741 36.88864136 C-20.18311976 33.52633429 -20.17297946 30.16441496 -20.16674805 26.80200195 C-20.18000626 25.55596191 -20.19326447 24.30992187 -20.20692444 23.02612305 C-20.13052302 15.86446443 -19.48884816 10.60345989 -14.5378418 5.17700195 C-9.67550046 1.38437571 -6.0936087 0.06001242 0 0 Z " fill="#385D4B" transform="translate(179.537841796875,198.822998046875)"/>
<path d="M0 0 C1.67258881 -0.01925285 1.67258881 -0.01925285 3.37896729 -0.03889465 C4.58003113 -0.04628159 5.78109497 -0.05366852 7.01855469 -0.0612793 C8.25909607 -0.06935104 9.49963745 -0.07742279 10.777771 -0.08573914 C13.40375373 -0.09956889 16.02975436 -0.110296 18.65576172 -0.11816406 C21.3386104 -0.12701728 24.02094001 -0.14787844 26.70361328 -0.1796875 C30.5795857 -0.22238283 34.45487622 -0.23853689 38.33105469 -0.2487793 C39.52402161 -0.26628738 40.71698853 -0.28379547 41.94610596 -0.30183411 C49.78438428 -0.28149885 55.68720635 0.46650981 61.49902344 6.2121582 C61.9540625 6.88118164 62.40910156 7.55020508 62.87792969 8.23950195 C63.35101563 8.91110352 63.82410156 9.58270508 64.31152344 10.2746582 C66.38043541 13.76102543 66.57767446 16.65788317 66.61743164 20.62304688 C66.63668449 22.29574898 66.63668449 22.29574898 66.65632629 24.00224304 C66.66371323 25.20846817 66.67110016 26.4146933 66.67871094 27.6574707 C66.68678268 28.89942703 66.69485443 30.14138336 66.70317078 31.42097473 C66.71701276 34.05298593 66.72802812 36.68487186 66.7355957 39.31689453 C66.74444175 42.00657909 66.7652824 44.69574467 66.79711914 47.38525391 C66.83982138 51.2678179 66.85597063 55.14970092 66.86621094 59.0324707 C66.88371902 60.22857468 66.90122711 61.42467865 66.91926575 62.6570282 C66.90003689 70.09005721 66.37550923 76.05974242 60.99287415 81.6915741 C56.31440811 85.7913765 52.7962276 87.41738859 46.62133789 87.49926758 C45.44944412 87.51848267 44.27755035 87.53769775 43.07014465 87.55749512 C41.80659653 87.56599487 40.5430484 87.57449463 39.24121094 87.58325195 C37.93645309 87.5946521 36.63169525 87.60605225 35.28739929 87.61779785 C32.52434744 87.63878372 29.76141129 87.65048979 26.99829102 87.6574707 C23.47866085 87.66840595 19.96059176 87.71639362 16.44144917 87.77341461 C13.06223695 87.81992101 9.68322617 87.82358383 6.30371094 87.83325195 C5.05028397 87.85794556 3.79685699 87.88263916 2.50544739 87.90808105 C-5.35380317 87.86836178 -10.88270472 86.88880959 -16.55957031 81.17700195 C-21.74681916 74.94840795 -21.15668784 67.2674228 -21.12597656 59.55200195 C-21.13217514 58.25053223 -21.13837372 56.9490625 -21.14476013 55.6081543 C-21.15511846 52.86464615 -21.15066913 50.12165817 -21.13598633 47.37817383 C-21.11879172 43.8810546 -21.14232244 40.38557756 -21.17747593 36.88864136 C-21.20484828 33.52633429 -21.19470798 30.16441496 -21.18847656 26.80200195 C-21.20173477 25.55596191 -21.21499298 24.30992187 -21.22865295 23.02612305 C-21.15215605 15.85551379 -20.50111412 10.6172054 -15.55957031 5.17700195 C-10.35975111 1.03837034 -6.50810131 0.06540217 0 0 Z " fill="#385D4B" transform="translate(180.5595703125,395.822998046875)"/>
<path d="M0 0 C1.16170715 -0.00960754 2.32341431 -0.01921509 3.52032471 -0.02911377 C4.78173279 -0.03336365 6.04314087 -0.03761353 7.34277344 -0.04199219 C9.28153351 -0.0505423 9.28153351 -0.0505423 11.25946045 -0.05926514 C13.99996331 -0.0697764 16.74043684 -0.07561762 19.48095703 -0.07910156 C22.98249266 -0.08457382 26.48363696 -0.10857349 29.9850502 -0.13707352 C33.33345015 -0.16025348 36.68179743 -0.16215373 40.03027344 -0.16699219 C41.28358459 -0.17933899 42.53689575 -0.19168579 43.82818604 -0.20440674 C45.00250183 -0.20140564 46.17681763 -0.19840454 47.38671875 -0.1953125 C48.41549133 -0.19895813 49.44426392 -0.20260376 50.50421143 -0.20635986 C56.57896008 0.55092417 60.4966156 3.67106851 64.45214844 8.16113281 C67.12265262 11.9415517 67.83202982 14.49874715 67.85620117 19.10961914 C67.86888535 20.28466507 67.88156952 21.459711 67.89463806 22.67036438 C67.89170242 23.93188828 67.88876678 25.19341217 67.88574219 26.49316406 C67.89098404 27.79887863 67.89622589 29.1045932 67.90162659 30.44987488 C67.91054625 33.2112292 67.90814964 35.97229418 67.89819336 38.73364258 C67.8867305 42.25416046 67.90687789 45.77367125 67.9361105 49.29405689 C67.95899138 52.67297711 67.95199985 56.05166846 67.94824219 59.43066406 C67.95947617 60.68611526 67.97071014 61.94156647 67.98228455 63.23506165 C67.92043293 71.0448654 67.34552535 77.13968429 61.67089844 83.00097656 C60.82011719 83.54431641 60.82011719 83.54431641 59.95214844 84.09863281 C59.38496094 84.47890625 58.81777344 84.85917969 58.23339844 85.25097656 C54.51065905 87.15316577 50.93483687 87.30069707 46.80078125 87.35400391 C45.66570129 87.37006683 44.53062134 87.38612976 43.36114502 87.40267944 C38.17730658 87.44728895 32.99355321 87.48861991 27.80957031 87.51123047 C25.07810854 87.5245523 22.34739696 87.55237815 19.61621094 87.59326172 C15.67092072 87.65230104 11.72599008 87.6699189 7.78027344 87.68457031 C5.95801239 87.71857437 5.95801239 87.71857437 4.09893799 87.75326538 C-3.09775246 87.73539396 -8.02790711 86.97391439 -13.54785156 82.16113281 C-18.06124884 77.41018831 -19.78753745 73.00605344 -19.83837891 66.48803711 C-19.85113861 65.37305344 -19.86389832 64.25806976 -19.87704468 63.10929871 C-19.87927032 61.91339615 -19.88149597 60.71749359 -19.88378906 59.48535156 C-19.89044586 58.24622513 -19.89710266 57.00709869 -19.90396118 55.73042297 C-19.91407978 53.11041751 -19.91877845 50.49038631 -19.91845703 47.87036133 C-19.91829445 45.19430523 -19.93218407 42.51893338 -19.95947266 39.84301758 C-19.99619949 35.97358383 -20.00593377 32.10494247 -20.00878906 28.23535156 C-20.0231601 27.0455217 -20.03753113 25.85569183 -20.05233765 24.62980652 C-20.00958317 16.8168981 -19.26270439 10.85495817 -13.47753906 5.10253906 C-12.79949219 4.6475 -12.12144531 4.19246094 -11.42285156 3.72363281 C-10.39804687 3.01400391 -10.39804687 3.01400391 -9.35253906 2.29003906 C-6.01076761 0.19962359 -3.94761414 0.02628177 0 0 Z " fill="#385D4B" transform="translate(284.5478515625,198.8388671875)"/>
<path d="M0 0 C1.16170715 -0.00960754 2.32341431 -0.01921509 3.52032471 -0.02911377 C4.78173279 -0.03336365 6.04314087 -0.03761353 7.34277344 -0.04199219 C9.28153351 -0.0505423 9.28153351 -0.0505423 11.25946045 -0.05926514 C13.99996331 -0.0697764 16.74043684 -0.07561762 19.48095703 -0.07910156 C22.98249266 -0.08457382 26.48363696 -0.10857349 29.9850502 -0.13707352 C33.33345015 -0.16025348 36.68179743 -0.16215373 40.03027344 -0.16699219 C41.28358459 -0.17933899 42.53689575 -0.19168579 43.82818604 -0.20440674 C45.00250183 -0.20140564 46.17681763 -0.19840454 47.38671875 -0.1953125 C48.41549133 -0.19895813 49.44426392 -0.20260376 50.50421143 -0.20635986 C56.57896008 0.55092417 60.4966156 3.67106851 64.45214844 8.16113281 C67.12265262 11.9415517 67.83202982 14.49874715 67.85620117 19.10961914 C67.86888535 20.28466507 67.88156952 21.459711 67.89463806 22.67036438 C67.89170242 23.93188828 67.88876678 25.19341217 67.88574219 26.49316406 C67.89098404 27.79887863 67.89622589 29.1045932 67.90162659 30.44987488 C67.91054625 33.2112292 67.90814964 35.97229418 67.89819336 38.73364258 C67.8867305 42.25416046 67.90687789 45.77367125 67.9361105 49.29405689 C67.95899138 52.67297711 67.95199985 56.05166846 67.94824219 59.43066406 C67.95947617 60.68611526 67.97071014 61.94156647 67.98228455 63.23506165 C67.92043293 71.0448654 67.34552535 77.13968429 61.67089844 83.00097656 C60.82011719 83.54431641 60.82011719 83.54431641 59.95214844 84.09863281 C59.38496094 84.47890625 58.81777344 84.85917969 58.23339844 85.25097656 C54.51065905 87.15316577 50.93483687 87.30069707 46.80078125 87.35400391 C45.66570129 87.37006683 44.53062134 87.38612976 43.36114502 87.40267944 C38.17730658 87.44728895 32.99355321 87.48861991 27.80957031 87.51123047 C25.07810854 87.5245523 22.34739696 87.55237815 19.61621094 87.59326172 C15.67092072 87.65230104 11.72599008 87.6699189 7.78027344 87.68457031 C5.95801239 87.71857437 5.95801239 87.71857437 4.09893799 87.75326538 C-3.09775246 87.73539396 -8.02790711 86.97391439 -13.54785156 82.16113281 C-18.06124884 77.41018831 -19.78753745 73.00605344 -19.83837891 66.48803711 C-19.85113861 65.37305344 -19.86389832 64.25806976 -19.87704468 63.10929871 C-19.87927032 61.91339615 -19.88149597 60.71749359 -19.88378906 59.48535156 C-19.89044586 58.24622513 -19.89710266 57.00709869 -19.90396118 55.73042297 C-19.91407978 53.11041751 -19.91877845 50.49038631 -19.91845703 47.87036133 C-19.91829445 45.19430523 -19.93218407 42.51893338 -19.95947266 39.84301758 C-19.99619949 35.97358383 -20.00593377 32.10494247 -20.00878906 28.23535156 C-20.0231601 27.0455217 -20.03753113 25.85569183 -20.05233765 24.62980652 C-20.00958317 16.8168981 -19.26270439 10.85495817 -13.47753906 5.10253906 C-12.79949219 4.6475 -12.12144531 4.19246094 -11.42285156 3.72363281 C-10.39804687 3.01400391 -10.39804687 3.01400391 -9.35253906 2.29003906 C-6.01076761 0.19962359 -3.94761414 0.02628177 0 0 Z " fill="#385D4B" transform="translate(284.5478515625,395.8388671875)"/>
<path d="M0 0 C1.15517624 -0.01606293 2.31035248 -0.03212585 3.50053406 -0.04867554 C8.7886094 -0.09319782 14.07653692 -0.13463483 19.36474609 -0.15722656 C22.15154035 -0.17053876 24.93759764 -0.1983421 27.72412109 -0.23925781 C31.74564832 -0.2982961 35.76639173 -0.31591614 39.78833008 -0.33056641 C41.02818161 -0.35323578 42.26803314 -0.37590515 43.54545593 -0.39926147 C50.79041744 -0.38162739 55.82723496 0.30871307 61.37036133 5.19287109 C65.72905601 9.89567325 67.60950094 13.51922616 67.67675781 19.93603516 C67.69274521 21.09113586 67.7087326 22.24623657 67.72520447 23.43634033 C67.73056717 24.68115173 67.73592987 25.92596313 67.74145508 27.20849609 C67.75048355 28.49342957 67.75951202 29.77836304 67.76881409 31.10223389 C67.78528743 33.82241319 67.79300067 36.54246971 67.79589844 39.26269531 C67.80126949 42.73067565 67.83890058 46.19748405 67.8846426 49.66513443 C67.92173978 52.99208085 67.92293621 56.31885014 67.92895508 59.64599609 C67.9484874 60.88271057 67.96801971 62.11942505 67.98814392 63.39361572 C67.95050875 70.62443203 67.2386595 75.65804466 62.37036133 81.19287109 C57.65807145 85.56035927 54.04190261 87.43524745 47.61132812 87.48339844 C46.45299973 87.49615814 45.29467133 87.50891785 44.10124207 87.52206421 C42.85329361 87.52428986 41.60534515 87.5265155 40.31958008 87.52880859 C38.38862236 87.53879379 38.38862236 87.53879379 36.4186554 87.54898071 C33.69427133 87.56094369 30.97001394 87.56466268 28.24560547 87.56347656 C24.76872107 87.56327369 21.29265695 87.59054602 17.81596661 87.62502098 C14.48382654 87.65272439 11.15183367 87.65144161 7.81958008 87.65380859 C5.95676643 87.67536514 5.95676643 87.67536514 4.05632019 87.69735718 C-3.72228247 87.65637038 -8.42622624 86.95381906 -14.33666992 81.66552734 C-18.26221138 76.65803453 -19.87164524 72.76486963 -19.92016602 66.41210938 C-19.93292572 65.27387726 -19.94568542 64.13564514 -19.95883179 62.96292114 C-19.96105743 61.74200775 -19.96328308 60.52109436 -19.96557617 59.26318359 C-19.97223297 57.99948944 -19.97888977 56.73579529 -19.98574829 55.43380737 C-19.99586745 52.76236873 -20.0014316 50.09133718 -20.00024414 47.41992188 C-20.00004107 44.01144132 -20.02733941 40.60379569 -20.06178856 37.19551277 C-20.08948938 33.92643504 -20.08820892 30.65736269 -20.09057617 27.38818359 C-20.11213272 25.5628862 -20.11213272 25.5628862 -20.13412476 23.70071411 C-20.09174471 15.81781722 -19.28168842 11.13551404 -13.81323242 5.23193359 C-13.23702148 4.76529297 -12.66081055 4.29865234 -12.06713867 3.81787109 C-11.19895508 3.09470703 -11.19895508 3.09470703 -10.31323242 2.35693359 C-6.97968586 0.05206845 -3.92272704 0.04958817 0 0 Z " fill="#385D4B" transform="translate(73.629638671875,395.80712890625)"/>
<path d="M0 0 C1.15510071 -0.0159874 2.31020142 -0.03197479 3.50030518 -0.04844666 C5.36752228 -0.05649071 5.36752228 -0.05649071 7.27246094 -0.06469727 C8.55739441 -0.07372574 9.84232788 -0.08275421 11.16619873 -0.09205627 C13.88637804 -0.10852962 16.60643455 -0.11624286 19.32666016 -0.11914062 C22.79464049 -0.12451168 26.2614489 -0.16214276 29.72909927 -0.20788479 C33.05604569 -0.24498197 36.38281498 -0.2461784 39.70996094 -0.25219727 C40.94667542 -0.27172958 42.18338989 -0.2912619 43.45758057 -0.31138611 C50.68839688 -0.27375094 55.72200951 0.43809831 61.25683594 5.30639648 C65.61553062 10.00919864 67.49597554 13.63275155 67.56323242 20.04956055 C67.57921982 21.20466125 67.59520721 22.35976196 67.61167908 23.54986572 C67.61704178 24.79467712 67.62240448 26.03948853 67.62792969 27.32202148 C67.63695816 28.60695496 67.64598663 29.89188843 67.6552887 31.21575928 C67.67176204 33.93593858 67.67947528 36.6559951 67.68237305 39.3762207 C67.6877441 42.84420104 67.72537518 46.31100944 67.77111721 49.77865982 C67.80821439 53.10560624 67.80941082 56.43237553 67.81542969 59.75952148 C67.83496201 60.99623596 67.85449432 62.23295044 67.87461853 63.50714111 C67.83698336 70.73795742 67.12513411 75.77157005 62.25683594 81.30639648 C57.54454606 85.67388466 53.92837722 87.54877284 47.49780273 87.59692383 C46.33947433 87.60968353 45.18114594 87.62244324 43.98771667 87.6355896 C42.73976822 87.63781525 41.49181976 87.64004089 40.20605469 87.64233398 C38.27509697 87.65231918 38.27509697 87.65231918 36.30513 87.6625061 C33.58074594 87.67446909 30.85648855 87.67818807 28.13208008 87.67700195 C24.65519568 87.67679908 21.17913156 87.70407141 17.70244122 87.73854637 C14.37030115 87.76624978 11.03830828 87.764967 7.70605469 87.76733398 C5.84324104 87.78889053 5.84324104 87.78889053 3.9427948 87.81088257 C-3.83580786 87.76989577 -8.53975163 87.06734445 -14.45019531 81.77905273 C-18.37573677 76.77155992 -19.98517063 72.87839502 -20.03369141 66.52563477 C-20.04645111 65.38740265 -20.05921082 64.24917053 -20.07235718 63.07644653 C-20.07458282 61.85553314 -20.07680847 60.63461975 -20.07910156 59.37670898 C-20.08575836 58.11301483 -20.09241516 56.84932068 -20.09927368 55.54733276 C-20.10939285 52.87589412 -20.11495699 50.20486257 -20.11376953 47.53344727 C-20.11356646 44.12496671 -20.1408648 40.71732108 -20.17531395 37.30903816 C-20.20301477 34.03996043 -20.20173431 30.77088808 -20.20410156 27.50170898 C-20.22565811 25.67641159 -20.22565811 25.67641159 -20.24765015 23.8142395 C-20.2063397 16.13029439 -19.48661587 11.39611758 -14.18066406 5.59936523 C-9.26876934 1.82201142 -6.23915362 0.06539481 0 0 Z " fill="#385D4B" transform="translate(73.7431640625,198.693603515625)"/>
<path d="M0 0 C1.15510071 -0.0159874 2.31020142 -0.03197479 3.50030518 -0.04844666 C5.36752228 -0.05649071 5.36752228 -0.05649071 7.27246094 -0.06469727 C8.55739441 -0.07372574 9.84232788 -0.08275421 11.16619873 -0.09205627 C13.88637804 -0.10852962 16.60643455 -0.11624286 19.32666016 -0.11914062 C22.79464049 -0.12451168 26.2614489 -0.16214276 29.72909927 -0.20788479 C33.05604569 -0.24498197 36.38281498 -0.2461784 39.70996094 -0.25219727 C40.94667542 -0.27172958 42.18338989 -0.2912619 43.45758057 -0.31138611 C51.66885878 -0.2686478 56.94004805 0.9876943 62.80523682 6.85548401 C66.56201854 11.11749749 67.3792673 14.30318755 67.43383789 19.84423828 C67.45309074 21.54697151 67.45309074 21.54697151 67.47273254 23.28410339 C67.48011948 24.5122023 67.48750641 25.74030121 67.49511719 27.00561523 C67.50318893 28.26976761 67.51126068 29.53391998 67.51957703 30.83638 C67.53341949 33.515469 67.54443474 36.19443489 67.55200195 38.87353516 C67.56303577 42.28865261 67.597404 45.70311297 67.63717365 49.11799908 C67.66977255 52.39297196 67.67413059 55.66800486 67.68261719 58.94311523 C67.70012527 60.16109299 67.71763336 61.37907074 67.735672 62.63395691 C67.71656661 70.15000472 67.20372128 76.0756503 61.84468079 81.82011414 C57.09967334 86.05475975 52.74136455 87.54907113 46.47607422 87.59692383 C45.3378421 87.60968353 44.19960999 87.62244324 43.02688599 87.6355896 C41.8059726 87.63781525 40.5850592 87.64004089 39.32714844 87.64233398 C37.43160721 87.65231918 37.43160721 87.65231918 35.49777222 87.6625061 C32.82633357 87.67262527 30.15530203 87.67818941 27.48388672 87.67700195 C24.07540616 87.67679889 20.66776053 87.70409722 17.25947762 87.73854637 C13.99039988 87.76624719 10.72132753 87.76496673 7.45214844 87.76733398 C6.23528351 87.78170502 5.01841858 87.79607605 3.76467896 87.81088257 C-3.91926615 87.76957213 -8.65344296 87.04984829 -14.45019531 81.74389648 C-18.22754913 76.83200177 -19.98416574 73.80238604 -20.04956055 67.56323242 C-20.06554794 66.40813171 -20.08153534 65.25303101 -20.0980072 64.06292725 C-20.1033699 62.81811584 -20.1087326 61.57330444 -20.11425781 60.29077148 C-20.12328629 59.00583801 -20.13231476 57.72090454 -20.14161682 56.39703369 C-20.15809017 53.67685439 -20.1658034 50.95679787 -20.16870117 48.23657227 C-20.17407223 44.76859193 -20.21170331 41.30178353 -20.25744534 37.83413315 C-20.29454252 34.50718673 -20.29573895 31.18041744 -20.30175781 27.85327148 C-20.32129013 26.61655701 -20.34082245 25.37984253 -20.36094666 24.10565186 C-20.32331149 16.87483555 -19.61146223 11.84122291 -14.74316406 6.30639648 C-10.0403619 1.9477018 -6.416809 0.06725688 0 0 Z " fill="#385D4B" transform="translate(390.7431640625,395.693603515625)"/>
<path d="M0 0 C1.15510071 -0.0159874 2.31020142 -0.03197479 3.50030518 -0.04844666 C5.36752228 -0.05649071 5.36752228 -0.05649071 7.27246094 -0.06469727 C8.55739441 -0.07372574 9.84232788 -0.08275421 11.16619873 -0.09205627 C13.88637804 -0.10852962 16.60643455 -0.11624286 19.32666016 -0.11914062 C22.79464049 -0.12451168 26.2614489 -0.16214276 29.72909927 -0.20788479 C33.05604569 -0.24498197 36.38281498 -0.2461784 39.70996094 -0.25219727 C40.94667542 -0.27172958 42.18338989 -0.2912619 43.45758057 -0.31138611 C51.66885878 -0.2686478 56.94004805 0.9876943 62.80523682 6.85548401 C66.56201854 11.11749749 67.3792673 14.30318755 67.43383789 19.84423828 C67.45309074 21.54697151 67.45309074 21.54697151 67.47273254 23.28410339 C67.48011948 24.5122023 67.48750641 25.74030121 67.49511719 27.00561523 C67.50318893 28.26976761 67.51126068 29.53391998 67.51957703 30.83638 C67.53341949 33.515469 67.54443474 36.19443489 67.55200195 38.87353516 C67.56303577 42.28865261 67.597404 45.70311297 67.63717365 49.11799908 C67.66977255 52.39297196 67.67413059 55.66800486 67.68261719 58.94311523 C67.70012527 60.16109299 67.71763336 61.37907074 67.735672 62.63395691 C67.71656661 70.15000472 67.20372128 76.0756503 61.84468079 81.82011414 C57.09967334 86.05475975 52.74136455 87.54907113 46.47607422 87.59692383 C45.3378421 87.60968353 44.19960999 87.62244324 43.02688599 87.6355896 C41.8059726 87.63781525 40.5850592 87.64004089 39.32714844 87.64233398 C37.43160721 87.65231918 37.43160721 87.65231918 35.49777222 87.6625061 C32.82633357 87.67262527 30.15530203 87.67818941 27.48388672 87.67700195 C24.07540616 87.67679889 20.66776053 87.70409722 17.25947762 87.73854637 C13.99039988 87.76624719 10.72132753 87.76496673 7.45214844 87.76733398 C6.23528351 87.78170502 5.01841858 87.79607605 3.76467896 87.81088257 C-3.93767592 87.76947315 -8.59618807 87.01684869 -14.45019531 81.77905273 C-18.36809433 76.78130875 -19.98177881 72.8810689 -20.04956055 66.54150391 C-20.06554794 65.40649948 -20.08153534 64.27149506 -20.0980072 63.10209656 C-20.1033699 61.88432022 -20.1087326 60.66654388 -20.11425781 59.41186523 C-20.12328629 58.15054276 -20.13231476 56.88922028 -20.14161682 55.5896759 C-20.15611647 52.92243166 -20.16580011 50.2556156 -20.16870117 47.58837891 C-20.1740772 44.18879955 -20.21173708 40.79041284 -20.25744534 37.39116955 C-20.2945397 34.12730695 -20.29573835 30.86341017 -20.30175781 27.59936523 C-20.32129013 26.38766159 -20.34082245 25.17595795 -20.36094666 23.92753601 C-20.32285345 16.75443045 -19.55019917 11.80397246 -14.74316406 6.30639648 C-10.0403619 1.9477018 -6.416809 0.06725688 0 0 Z " fill="#385D4B" transform="translate(390.7431640625,198.693603515625)"/>
<path d="M0 0 C5.62794181 3.49046088 9.84511309 8.93377677 11.93359375 15.19921875 C12.04188616 17.06827058 12.09242658 18.94089002 12.1105957 20.81298828 C12.12984856 22.5409111 12.12984856 22.5409111 12.14949036 24.30374146 C12.15687729 25.55057709 12.16426422 26.79741272 12.171875 28.08203125 C12.17994675 29.366008 12.18801849 30.64998474 12.19633484 31.97286987 C12.21135286 34.69480252 12.22119329 37.41670919 12.22875977 40.13867188 C12.23978341 43.60525323 12.27413863 47.07118544 12.31393147 50.53753853 C12.34656651 53.86484176 12.35089171 57.19208046 12.359375 60.51953125 C12.37688309 61.7542215 12.39439117 62.98891174 12.41242981 64.26101685 C12.39073205 72.94482734 11.22088441 79.41883449 5.43359375 86.07421875 C4.60859375 86.77546875 3.78359375 87.47671875 2.93359375 88.19921875 C2.29421875 88.75609375 1.65484375 89.31296875 0.99609375 89.88671875 C-4.92151327 93.65246867 -11.24203545 93.95748217 -18.06640625 93.19921875 C-24.68096566 91.37848637 -29.30151479 86.7941334 -33.06640625 81.19921875 C-36.74915416 74.60143951 -36.51775232 68.32458327 -36.5 60.890625 C-36.50524185 59.60993637 -36.5104837 58.32924774 -36.5158844 57.00975037 C-36.52478402 54.30742489 -36.52242889 51.60539543 -36.51245117 48.90307617 C-36.50096631 45.45883683 -36.52117975 42.01562356 -36.55036831 38.5715189 C-36.57324292 35.26116865 -36.56625879 31.95105215 -36.5625 28.640625 C-36.57373398 27.41332169 -36.58496796 26.18601837 -36.59654236 24.92152405 C-36.52940191 16.63340856 -35.5320735 11.10506914 -29.8828125 4.73828125 C-28.76712891 3.79082031 -28.76712891 3.79082031 -27.62890625 2.82421875 C-26.88769531 2.17710938 -26.14648438 1.53 -25.3828125 0.86328125 C-17.65466532 -4.68847372 -8.26440022 -4.19849209 0 0 Z " fill="#F3EFEF" transform="translate(389.06640625,12.80078125)"/>
<path d="M0 0 C6.59188011 3.69481178 11.30303583 8.82818924 13.75 16 C14.02415466 18.77384949 14.02415466 18.77384949 14.05639648 21.82495117 C14.07238388 22.97352097 14.08837128 24.12209076 14.10484314 25.3054657 C14.11020584 26.53884171 14.11556854 27.77221771 14.12109375 29.04296875 C14.13463646 30.96113152 14.13463646 30.96113152 14.14845276 32.91804504 C14.16491203 35.62385575 14.1726366 38.32954323 14.17553711 41.03540039 C14.18090254 44.47737676 14.2185163 47.91816923 14.26428127 51.35981274 C14.30146452 54.67085573 14.30257938 57.98172452 14.30859375 61.29296875 C14.32812607 62.5162236 14.34765839 63.73947845 14.36778259 64.99980164 C14.32126236 73.91183643 12.474063 80.52251385 6.72265625 87.4375 C0.17128671 92.79649349 -5.00098845 94.4896198 -13.5 94.31640625 C-21.29006339 93.42010634 -25.95982299 88.77761064 -30.9375 83.0625 C-33.75255507 78.63884204 -34.50153452 74.19914177 -34.54052734 69.02978516 C-34.55328705 67.87483551 -34.56604675 66.71988586 -34.57919312 65.52993774 C-34.58141876 64.29544891 -34.58364441 63.06096008 -34.5859375 61.7890625 C-34.5925943 60.50695892 -34.5992511 59.22485535 -34.60610962 57.90390015 C-34.61804805 55.19566479 -34.62179398 52.48755666 -34.62060547 49.77929688 C-34.6204024 46.32722887 -34.64770588 42.87598522 -34.68214989 39.42411232 C-34.70987633 36.10825148 -34.70857079 32.79253754 -34.7109375 29.4765625 C-34.72530853 28.24612213 -34.73967957 27.01568176 -34.75448608 25.74795532 C-34.71107429 17.55520515 -33.59905707 12.41076281 -28.57421875 5.79296875 C-20.41359056 -2.21184793 -10.7031911 -4.82213785 0 0 Z " fill="#F3EFEF" transform="translate(145.25,12)"/>
</svg>
