<?xml version="1.0" encoding="UTF-8"?>
<svg version="1.1" xmlns="http://www.w3.org/2000/svg" width="512" height="512">
<path d="M0 0 C140.91 0 281.82 0 427 0 C427 50.82 427 101.64 427 154 C423.37 153.01 419.74 152.02 416 151 C413.27150529 150.26832294 410.542428 149.53881112 407.8125 148.8125 C407.14669922 148.63525391 406.48089844 148.45800781 405.79492188 148.27539062 C404.19669373 147.84996299 402.59835923 147.42493491 401 147 C400.79246094 145.96101562 400.58492188 144.92203125 400.37109375 143.8515625 C398.02351261 132.90844506 394.98410091 124.21797842 385.4375 117.5 C377.1303749 112.25660361 368.47393198 112.24435238 359 113 C355.59787722 113.84692165 352.93787128 115.1080109 350 117 C349.29359375 117.43570313 348.5871875 117.87140625 347.859375 118.3203125 C339.9785802 123.66174009 336.5264131 130.44795455 334.42578125 139.61328125 C333.64902205 145.79172372 334.30028903 151.82905503 335 158 C333.71029297 158.67482422 333.71029297 158.67482422 332.39453125 159.36328125 C323.26965918 164.27567317 315.64419294 170.02725644 308 177 C307.27296875 177.63292969 306.5459375 178.26585937 305.796875 178.91796875 C298.94701272 185.22485414 294.09546415 193.27610131 289 201 C288.34 201.99 287.68 202.98 287 204 C283.29682289 203.20646205 280.32377464 201.70325528 277 199.9375 C270.41774039 196.85206581 262.15825109 196.98224624 255.20703125 198.68359375 C244.98633456 202.50248972 238.77335038 208.20207026 234 218 C230.46394 226.84015 231.18531443 235.74076643 234.75 244.4296875 C239.21120543 253.60304117 245.67820521 258.79852793 255.3203125 262.15625 C259.31873528 263.0730858 262.84121596 263.1975006 266.9375 263.125 C267.96327148 263.11146484 267.96327148 263.11146484 269.00976562 263.09765625 C270.67333287 263.07438958 272.33671631 263.03853167 274 263 C274.83802913 267.1032224 275.66961878 271.20772362 276.5 275.3125 C276.73847656 276.47974609 276.97695313 277.64699219 277.22265625 278.84960938 C277.44824219 279.96787109 277.67382812 281.08613281 277.90625 282.23828125 C278.11572266 283.26993408 278.32519531 284.30158691 278.54101562 285.36450195 C279 288 279 288 279 291 C246.44697902 291.09132028 213.89399506 291.16207472 181.34087516 291.20426132 C177.49458388 291.20926393 173.64829285 291.21444124 169.80200195 291.21972656 C169.03629937 291.2207758 168.27059679 291.22182505 167.4816911 291.22290608 C155.0959848 291.24029447 142.71035304 291.27182348 130.3246909 291.30861118 C117.60861289 291.34606429 104.89257382 291.36824507 92.17644292 291.37635398 C84.33472103 291.38183272 76.49320984 291.39911444 68.65155283 291.43166587 C62.63077776 291.45538013 56.61018258 291.45780885 50.58935547 291.45243073 C48.12513751 291.45352903 45.6609114 291.4614571 43.1967411 291.4768219 C39.82404231 291.49681594 36.45223432 291.49190413 33.07951355 291.48101807 C32.11158109 291.49266943 31.14364864 291.5043208 30.14638489 291.51632524 C22.08844825 291.44635187 14.37187049 289.79793509 8.0625 284.5625 C7.381875 283.716875 6.70125 282.87125 6 282 C5.278125 281.175 4.55625 280.35 3.8125 279.5 C0.92250598 275.51380135 -0.25061931 272.04726384 -0.24609566 267.13683605 C-0.2500774 266.17909849 -0.25405914 265.22136093 -0.25816154 264.23460102 C-0.25233622 263.19112601 -0.24651089 262.147651 -0.24050903 261.07255554 C-0.24222107 259.96024567 -0.24393311 258.84793579 -0.24569702 257.70191956 C-0.24901251 253.95575594 -0.23795191 250.20977037 -0.22705078 246.46362305 C-0.22532617 243.73966522 -0.22661601 241.01571073 -0.2277813 238.29175282 C-0.22884459 231.7280501 -0.2196102 225.16440211 -0.20677864 218.60071345 C-0.19238045 211.00842107 -0.19078924 203.41616158 -0.18920898 195.82385254 C-0.17870766 175.77839302 -0.15078545 155.73294569 -0.125 135.6875 C-0.08375 90.910625 -0.0425 46.13375 0 0 Z M136.98828125 37.109375 C129.23598414 46.53564822 127.86522561 54.81407047 129 67 C131.05982551 76.13434529 137.19293742 83.91633134 145 89 C153.48712018 93.76469905 163.23653942 94.75495041 172.6796875 92.3046875 C174.94760872 91.37083758 176.92781738 90.30939099 179 89 C179.69609375 88.57589844 180.3921875 88.15179688 181.109375 87.71484375 C189.53251025 82.03081075 194.07453175 73.86802478 196 64 C197.16418077 55.47884351 194.26133178 46.90853502 189.50390625 39.87890625 C183.85387332 32.82003394 177.04209867 28.76841912 168.4375 26.25 C156.31533576 25.0067011 145.56038979 28.12114468 136.98828125 37.109375 Z M236.33984375 41.1171875 C231.00658326 49.1093038 229.63717799 57.99120111 231.46484375 67.390625 C234.33789847 77.11481021 240.40947334 85.13949077 249.140625 90.25390625 C257.78405989 94.36096885 268.27037043 94.65248759 277.3125 91.5625 C286.77410514 87.06823756 293.37596175 79.75961929 297 70 C299.81276885 60.97340193 298.37151227 51.9640716 294.40234375 43.5859375 C290.08838091 35.63094195 283.17046639 30.51471431 274.82421875 27.11328125 C259.53064712 22.79185119 245.88763683 28.94094315 236.33984375 41.1171875 Z M340.6875 38.25 C334.65308151 45.87683448 332.22954464 55.3257065 333.3359375 64.91015625 C335.10890587 73.83256199 339.25238832 81.34967916 346.53515625 86.94921875 C355.48921656 92.52693656 363.51140493 93.92614526 374 93 C383.6459736 90.67439541 391.55500593 84.98349445 396.7421875 76.55078125 C401.14468746 67.62273008 401.90051844 58.98656496 399.3125 49.47265625 C396.11117787 40.19739704 390.49906083 33.9875222 381.8125 29.5 C367.04722264 22.53342091 351.74885443 26.49557825 340.6875 38.25 Z M33 124 C27.64167111 132.67914196 24.51141367 141.17861422 26.4609375 151.421875 C28.91038043 160.70094116 33.9380191 168.636248 42 174 C50.71555046 178.6802956 59.16487335 180.42219489 68.875 177.9375 C78.8959315 174.61258264 85.97947417 168.22806878 91 159 C94.32993998 150.83159019 94.4390369 140.87147555 91.4375 132.5625 C87.31327599 123.7729304 79.78900044 116.5319032 70.8515625 112.765625 C56.63575089 108.94877695 42.55378403 112.7141368 33 124 Z M134 126 C128.64981481 134.57901416 128.269119 143.07648891 129 153 C129.85450325 156.37894998 131.14392346 159.06265769 133 162 C133.42410156 162.69609375 133.84820312 163.3921875 134.28515625 164.109375 C139.96918925 172.53251025 148.13197522 177.07453175 158 179 C167.11613828 180.24546861 175.63698535 176.92018864 182.96484375 171.66015625 C189.91392491 165.99151998 195.06724666 158.09434502 196 149 C196.69424972 138.75981661 193.68729839 129.8357692 187 122 C178.81503425 114.19396785 171.37653564 111.41951147 160.14428711 111.44165039 C149.36620723 111.88200728 140.53837306 117.58676816 134 126 Z M244 118 C236.51041474 124.76645289 231.72172236 132.40416799 230.76171875 142.5078125 C230.48597705 152.23133569 232.76665416 159.75555803 239 167.3125 C245.84369158 174.42812635 254.25010656 178.2968861 264 179.3125 C273.06017658 179.13407201 282.67167182 175.51615528 289 169 C291.31758754 166.14799159 293.22396828 163.21456209 295 160 C295.51240234 159.07767578 295.51240234 159.07767578 296.03515625 158.13671875 C299.5630433 150.47381991 299.26744299 140.61666906 296.5625 132.75 C292.44785555 123.95567189 285.17126633 116.38428518 276 113 C264.43932714 109.75737225 254.0167293 111.25671164 244 118 Z M34.0859375 208.2265625 C28.26679972 216.38398396 24.58098108 224.81936428 26 235 C28.21950053 245.90514596 33.86451053 253.82033485 43.125 260 C51.02386422 264.38309525 59.91856384 265.54004714 68.71484375 263.3125 C79.13265781 259.45999557 87.14979378 252.56922125 91.875 242.4375 C94.66684283 233.96166577 94.27888531 223.40620592 90.44921875 215.34375 C84.95093092 206.4516403 78.0970402 200.52311029 68.08203125 197.40234375 C55.42424548 194.95628008 42.63450492 198.28231061 34.0859375 208.2265625 Z M135 210 C128.96676824 219.59769283 127.25390971 229.75889869 129.61328125 240.89453125 C132.86607716 249.99376209 139.31187571 256.82917055 147.92578125 261.0703125 C148.61027344 261.37710938 149.29476562 261.68390625 150 262 C150.928125 262.433125 151.85625 262.86625 152.8125 263.3125 C161.93427643 265.27994198 170.7664552 264.50741504 179 260 C188.07227148 253.25657677 193.65035899 246.10585715 196 235 C197.29610823 226.11463155 194.34277521 216.95322823 189.3125 209.625 C183.52090457 202.60797883 175.05354004 197.63762906 165.99609375 196.68359375 C153.03868733 196.20935573 143.52720341 200.10537118 135 210 Z " fill="#375C4A" transform="translate(17,145)"/>
<path d="M0 0 C18.86955842 15.86898929 31.11506941 36.56829324 34.6875 61.0625 C36.24820068 88.62541997 31.52487098 113.97994785 12.9921875 135.5078125 C12.23164063 136.35085938 11.47109375 137.19390625 10.6875 138.0625 C9.98882812 138.84367188 9.29015625 139.62484375 8.5703125 140.4296875 C-5.97439726 155.82683446 -27.81198563 166.89219436 -49.1105957 168.23950195 C-79.01352022 168.87627416 -103.01234848 162.49290072 -125.6875 141.90625 C-141.85982464 126.38956015 -152.88130039 103.15838529 -153.515625 80.65625 C-153.87680173 52.74734679 -147.09121724 30.31121067 -128.3125 9.0625 C-127.50232422 8.12664062 -127.50232422 8.12664062 -126.67578125 7.171875 C-94.10000999 -27.94759628 -36.64639366 -28.4775381 0 0 Z M-65.3125 26.0625 C-67.87031522 29.89922283 -67.56556456 33.00785987 -67.5078125 37.44921875 C-67.50356766 38.67473198 -67.50356766 38.67473198 -67.49923706 39.92500305 C-67.48804541 42.53348459 -67.4629429 45.1416223 -67.4375 47.75 C-67.42746888 49.51887525 -67.41834326 51.28775588 -67.41015625 53.05664062 C-67.38810942 57.39205949 -67.3535867 61.72722145 -67.3125 66.0625 C-68.40715576 66.04155273 -69.50181152 66.02060547 -70.62963867 65.99902344 C-74.7016078 65.92647291 -78.77352011 65.88064591 -82.84594727 65.84277344 C-84.60646175 65.82269214 -86.36690982 65.79542121 -88.12719727 65.76074219 C-90.66178802 65.71206888 -93.19549495 65.68949695 -95.73046875 65.671875 C-96.90575386 65.64090729 -96.90575386 65.64090729 -98.1047821 65.60931396 C-101.87486324 65.60777554 -104.06511882 65.90677232 -107.28637695 67.93457031 C-109.66280261 70.43040427 -110.3125 71.61979296 -110.3125 75.0625 C-108.69094371 78.54884601 -107.54796708 79.90552194 -104.3125 82.0625 C-101.48266801 82.23443073 -98.75368127 82.29458437 -95.92578125 82.2578125 C-95.10877243 82.2549826 -94.29176361 82.25215271 -93.44999695 82.24923706 C-90.84151541 82.23804541 -88.2333777 82.2129429 -85.625 82.1875 C-83.85612475 82.17746888 -82.08724412 82.16834326 -80.31835938 82.16015625 C-75.98294051 82.13810942 -71.64777855 82.1035867 -67.3125 82.0625 C-67.33344727 83.15715576 -67.35439453 84.25181152 -67.37597656 85.37963867 C-67.44852709 89.4516078 -67.49435409 93.52352011 -67.53222656 97.59594727 C-67.55230786 99.35646175 -67.57957879 101.11690982 -67.61425781 102.87719727 C-67.66293112 105.41178802 -67.68550305 107.94549495 -67.703125 110.48046875 C-67.72377014 111.26399216 -67.74441528 112.04751556 -67.76568604 112.8547821 C-67.76721553 116.60299289 -67.46440893 118.81741086 -65.47167969 122.0324707 C-62.68985749 124.64789942 -61.12231264 125.14025128 -57.3125 125.0625 C-54.56533613 123.29210551 -52.78104078 121.99958156 -51.3125 119.0625 C-51.22566555 116.29089374 -51.1969421 113.54475235 -51.21484375 110.7734375 C-51.2162587 109.95501373 -51.21767365 109.13658997 -51.21913147 108.29336548 C-51.2247371 105.67470675 -51.23729052 103.05613296 -51.25 100.4375 C-51.25501428 98.66406373 -51.25957731 96.89062613 -51.26367188 95.1171875 C-51.27470836 90.76559218 -51.29197675 86.4140605 -51.3125 82.0625 C-50.21784424 82.08344727 -49.12318848 82.10439453 -47.99536133 82.12597656 C-43.9233922 82.19852709 -39.85147989 82.24435409 -35.77905273 82.28222656 C-34.01853825 82.30230786 -32.25809018 82.32957879 -30.49780273 82.36425781 C-27.96321198 82.41293112 -25.42950505 82.43550305 -22.89453125 82.453125 C-21.71924614 82.48409271 -21.71924614 82.48409271 -20.5202179 82.51568604 C-16.77200711 82.51721553 -14.55758914 82.21440893 -11.3425293 80.22167969 C-8.72710058 77.43985749 -8.23474872 75.87231264 -8.3125 72.0625 C-10.08289449 69.31533613 -11.37541844 67.53104078 -14.3125 66.0625 C-17.08410626 65.97566555 -19.83024765 65.9469421 -22.6015625 65.96484375 C-23.41998627 65.9662587 -24.23841003 65.96767365 -25.08163452 65.96913147 C-27.70029325 65.9747371 -30.31886704 65.98729052 -32.9375 66 C-34.71093627 66.00501428 -36.48437387 66.00957731 -38.2578125 66.01367188 C-42.60940782 66.02470836 -46.9609395 66.04197675 -51.3125 66.0625 C-51.29155273 64.96784424 -51.27060547 63.87318848 -51.24902344 62.74536133 C-51.17647291 58.6733922 -51.13064591 54.60147989 -51.09277344 50.52905273 C-51.07269214 48.76853825 -51.04542121 47.00809018 -51.01074219 45.24780273 C-50.96206888 42.71321198 -50.93949695 40.17950505 -50.921875 37.64453125 C-50.90122986 36.86100784 -50.88058472 36.07748444 -50.85931396 35.2702179 C-50.85777554 31.50013676 -51.15677232 29.30988118 -53.18457031 26.08862305 C-57.53140854 21.9497508 -60.71162475 22.58075657 -65.3125 26.0625 Z " fill="#375C4A" transform="translate(460.3125,326.9375)"/>
<path d="M0 0 C1.16144531 0.00902344 2.32289062 0.01804688 3.51953125 0.02734375 C4.39996094 0.03894531 5.28039063 0.05054688 6.1875 0.0625 C6.19160889 0.73716309 6.19571777 1.41182617 6.19995117 2.10693359 C6.23321708 5.21796161 6.30389508 8.32711565 6.375 11.4375 C6.38080078 12.49839844 6.38660156 13.55929688 6.39257812 14.65234375 C6.61788753 22.81355099 8.14838416 30.09477132 14.1628418 36.00292969 C19.71347411 40.55985543 25.77052482 42.61992355 33.015625 42.3671875 C40.53867315 41.31179585 45.82641405 38.17030568 50.71484375 32.453125 C57.3397053 21.69870784 55.57332683 13.57430968 56.1875 0.0625 C73.3475 0.0625 90.5075 0.0625 108.1875 0.0625 C108.5175 7.3225 108.8475 14.5825 109.1875 22.0625 C112.9598268 31.49331699 114.70778818 35.54637731 123.203125 40.15625 C129.2666407 42.73443778 135.01169678 42.97847411 141.25 40.875 C150.23277241 37.03530513 152.42948279 33.57853443 157.1875 24.0625 C157.5175 16.1425 157.8475 8.2225 158.1875 0.0625 C175.3475 0.0625 192.5075 0.0625 210.1875 0.0625 C210.5175 6.0025 210.8475 11.9425 211.1875 18.0625 C212.3748491 26.17605216 214.87683354 32.7993024 221.5625 37.9375 C227.22272841 41.56835926 233.50870762 42.99945289 240.1875 42.0625 C247.81223207 40.16830556 252.98381802 36.73686972 257.1875 30.0625 C261.88485169 21.01446464 260.70520894 9.70832128 261.1875 0.0625 C278.3475 0.0625 295.5075 0.0625 313.1875 0.0625 C313.5175 7.6525 313.8475 15.2425 314.1875 23.0625 C317.37888425 32.33760066 317.37888425 32.33760066 324.1875 38.0625 C324.94546875 38.41570312 325.7034375 38.76890625 326.484375 39.1328125 C334.32358439 42.50317323 339.41573206 43.30707642 347.4375 40.1875 C349.03101893 39.50238836 350.61526601 38.79513965 352.1875 38.0625 C352.90421875 37.77117187 353.6209375 37.47984375 354.359375 37.1796875 C356.66859849 35.76849537 357.05382563 34.49581213 358.1875 32.0625 C358.53200195 31.4238501 358.87650391 30.7852002 359.23144531 30.12719727 C362.42074238 23.77194312 362.83983447 18.03635762 362.9375 11 C362.96714844 9.94361328 362.99679687 8.88722656 363.02734375 7.79882812 C363.09735776 5.21997862 363.15038954 2.64199697 363.1875 0.0625 C372.71177284 -0.48260942 381.29664926 -0.17189178 389.28515625 5.5703125 C394.14064564 10.0031372 395.36590276 13.71390621 398.1875 20.0625 C398.1875 36.2325 398.1875 52.4025 398.1875 69.0625 C257.2775 69.0625 116.3675 69.0625 -28.8125 69.0625 C-28.8125 14.0625 -28.8125 14.0625 -20.8125 6.0625 C-13.85225557 1.44414232 -8.36132144 -0.08445779 0 0 Z " fill="#375C4A" transform="translate(45.8125,58.9375)"/>
<path d="M0 0 C0.639375 -0.01289063 1.27875 -0.02578125 1.9375 -0.0390625 C5.2696904 1.03380183 7.28452688 2.62953377 9 5.625 C9.75824763 9.952435 9.67626551 14.24139958 9.62890625 18.625 C9.63131821 19.8934375 9.63373016 21.161875 9.63621521 22.46875 C9.63523614 25.14930294 9.62443033 27.82762063 9.59692383 30.5078125 C9.56283952 33.93455742 9.56886294 37.35980443 9.5875864 40.78662109 C9.60072597 44.06616729 9.58243252 47.34548608 9.56640625 50.625 C9.57136612 51.8521875 9.57632599 53.079375 9.58143616 54.34375 C9.56559982 55.4884375 9.54976349 56.633125 9.53344727 57.8125 C9.52724869 58.81667969 9.52105011 59.82085937 9.5146637 60.85546875 C8.86208686 64.36714435 7.43726128 66.06240767 5 68.625 C2.14675563 70.05162219 0.16545451 69.93533868 -3 69.625 C-5.69990662 67.82506226 -7.5418865 66.541227 -9 63.625 C-9.11637184 61.80360652 -9.16965308 59.97803577 -9.19287109 58.15307617 C-9.20893402 57.00816208 -9.22499695 55.86324799 -9.24154663 54.68363953 C-9.28590947 49.4452795 -9.327501 44.20700712 -9.35009766 38.96850586 C-9.36343269 36.20286957 -9.39127554 33.43797192 -9.43212891 30.67260742 C-9.49093476 26.69191468 -9.50875882 22.71158105 -9.5234375 18.73046875 C-9.54610687 17.49387009 -9.56877625 16.25727142 -9.59213257 14.98320007 C-9.5685646 5.43729741 -9.5685646 5.43729741 -6.59619141 2.34741211 C-4.11402959 0.70065157 -2.93291121 -0.05913127 0 0 Z " fill="#375D4B" transform="translate(384,16.375)"/>
<path d="M0 0 C2.50102703 1.64677646 3.55616348 2.45611015 5 5 C5.78103117 9.39777572 5.72414109 13.7615511 5.69921875 18.21875 C5.70637405 19.50938354 5.71352936 20.80001709 5.72090149 22.12976074 C5.73276045 24.85681538 5.72611097 27.58305274 5.70678711 30.31005859 C5.68389195 33.79775399 5.71069047 37.28301438 5.75184917 40.77046967 C5.78363295 44.10754852 5.77042923 47.44402994 5.76171875 50.78125 C5.77700119 52.03031128 5.79228363 53.27937256 5.80802917 54.56628418 C5.69467173 62.98362932 5.69467173 62.98362932 3.69160461 65.91430664 C1.53331495 67.78742499 -0.40126243 68.89933659 -3.23046875 69.375 C-6.11074902 68.82309001 -8.52366467 68.33804443 -10.9375 66.625 C-13.08401163 63.34209985 -13.13444812 60.40110747 -13.16113281 56.59814453 C-13.17074036 55.49334747 -13.1803479 54.38855042 -13.19024658 53.25027466 C-13.19449646 52.05651215 -13.19874634 50.86274963 -13.203125 49.6328125 C-13.20882507 48.40593719 -13.21452515 47.17906189 -13.22039795 45.91500854 C-13.22985044 43.31753401 -13.23638291 40.72004747 -13.24023438 38.12255859 C-13.24994406 34.14789951 -13.28096778 30.17375653 -13.3125 26.19921875 C-13.31902961 23.67708641 -13.32428025 21.15495036 -13.328125 18.6328125 C-13.3404718 17.44309845 -13.3528186 16.2533844 -13.36553955 15.02761841 C-13.36253845 13.91651703 -13.35953735 12.80541565 -13.35644531 11.66064453 C-13.36009094 10.68596222 -13.36373657 9.71127991 -13.36749268 8.70706177 C-12.9312896 5.49385851 -11.89401236 3.61013642 -10 1 C-6.84203893 -0.57898053 -3.39329364 -0.81928171 0 0 Z " fill="#385C4B" transform="translate(183,17)"/>
<path d="M0 0 C2.43119623 1.87015094 3.64069173 3.28138345 5 6 C5.10598025 7.76040754 5.14878647 9.52477852 5.16113281 11.28833008 C5.17074036 12.39320267 5.1803479 13.49807526 5.19024658 14.63642883 C5.19449646 15.83535263 5.19874634 17.03427643 5.203125 18.26953125 C5.20882507 19.4978215 5.21452515 20.72611176 5.22039795 21.99162292 C5.2298587 24.59507381 5.23638618 27.19853672 5.24023438 29.80200195 C5.24678795 33.78548148 5.28094669 37.76859436 5.3125 41.75195312 C5.31903039 44.27864276 5.32428072 46.8053361 5.328125 49.33203125 C5.3404718 50.52488235 5.3528186 51.71773346 5.36553955 52.94673157 C5.36253845 54.06106064 5.35953735 55.17538971 5.35644531 56.32348633 C5.36009094 57.30118484 5.36373657 58.27888336 5.36749268 59.28620911 C4.84299839 63.15939597 3.33340384 65.95232556 0.25 68.375 C-3.14112087 69.31697802 -5.60991203 68.84752199 -9 68 C-11.71732769 65.89522505 -12.86144929 64.7234221 -13.5146637 61.3127594 C-13.52086227 60.28859421 -13.52706085 59.26442902 -13.53344727 58.20922852 C-13.5492836 57.04444473 -13.56511993 55.87966095 -13.58143616 54.67958069 C-13.57647629 53.42535812 -13.57151642 52.17113556 -13.56640625 50.87890625 C-13.57260483 49.58685776 -13.57880341 48.29480927 -13.58518982 46.96360779 C-13.59558839 44.23068407 -13.59104195 41.49828119 -13.57641602 38.76538086 C-13.5592374 35.27009175 -13.58271082 31.77644798 -13.61790562 28.28134251 C-13.64520259 24.93876746 -13.63514165 21.59658758 -13.62890625 18.25390625 C-13.64216446 17.00170792 -13.65542267 15.74950958 -13.66908264 14.45936584 C-13.56550861 4.80750643 -13.56550861 4.80750643 -10.59179688 1.7109375 C-6.55579806 -0.95336918 -4.76462018 -0.68066003 0 0 Z " fill="#385D4B" transform="translate(81,17)"/>
<path d="M0 0 C2.125 0.39453125 2.125 0.39453125 4.625 2.20703125 C7.01439356 5.69156353 7.25606898 8.48210264 7.28613281 12.59692383 C7.29574036 13.65845169 7.3053479 14.71997955 7.31524658 15.81367493 C7.31949646 16.96055283 7.32374634 18.10743073 7.328125 19.2890625 C7.33382507 20.46917404 7.33952515 21.64928558 7.34539795 22.86515808 C7.35485036 25.3642792 7.36138288 27.8634128 7.36523438 30.36254883 C7.37493483 34.18137426 7.40595476 37.9996604 7.4375 41.81835938 C7.4440306 44.24609055 7.44928085 46.67382558 7.453125 49.1015625 C7.4654718 50.24236771 7.4778186 51.38317291 7.49053955 52.55854797 C7.47465991 58.22542199 7.44024773 62.55054067 4.125 67.39453125 C1.48055365 69.56675504 0.09512982 69.39346446 -3.375 69.26953125 C-7.29260881 68.29012905 -8.42238041 67.52382094 -10.875 64.39453125 C-11.38293457 61.66259766 -11.38293457 61.66259766 -11.39257812 58.49609375 C-11.40518677 57.30806152 -11.41779541 56.1200293 -11.43078613 54.89599609 C-11.41864075 52.977146 -11.41864075 52.977146 -11.40625 51.01953125 C-11.4100769 49.70291504 -11.41390381 48.38629883 -11.41784668 47.02978516 C-11.42373724 44.24557691 -11.41519414 41.46188276 -11.39648438 38.67773438 C-11.37369376 35.11303792 -11.3868194 31.54954607 -11.41077423 27.9848938 C-11.4287233 24.57967695 -11.41614777 21.17478231 -11.40625 17.76953125 C-11.41434692 16.49029785 -11.42244385 15.21106445 -11.43078613 13.89306641 C-11.41817749 12.70503418 -11.40556885 11.51700195 -11.39257812 10.29296875 C-11.38939575 9.24802246 -11.38621338 8.20307617 -11.38293457 7.12646484 C-10.17417468 0.62513189 -5.78047406 -0.25669868 0 0 Z " fill="#375C4B" transform="translate(283.875,16.60546875)"/>
<path d="M0 0 C4.67394807 3.260894 8.19592213 7.31548247 9.6875 12.875 C10.36131945 18.82707183 9.01623029 23.01932921 5.6875 27.875 C1.8385116 31.94507912 -1.87390037 33.99830373 -7.5 34.1875 C-12.50935729 34.1222315 -16.2230046 32.74319813 -20.3125 29.875 C-25.15816853 24.78083565 -25.68076632 20.46780665 -25.58203125 13.6640625 C-25.09624676 8.63724909 -23.32065213 5.6934419 -19.6171875 2.33984375 C-13.4256906 -2.15964489 -7.13946558 -2.42472416 0 0 Z " fill="#375C4B" transform="translate(187.3125,359.125)"/>
<path d="M0 0 C4.70463148 2.69214372 8.12678633 5.85483884 9.70703125 11.12890625 C10.4456261 16.34523241 10.52452587 21.29430542 8.08203125 26.06640625 C4.87118384 30.20670949 1.6631015 32.47688283 -3.29296875 34.12890625 C-8.98559713 34.69274754 -13.44241013 34.43610531 -18.29296875 31.12890625 C-22.62380315 26.60121574 -24.96386546 23.03598528 -25.66796875 16.81640625 C-25.05648241 10.80345729 -22.83067275 6.17213141 -18.23046875 2.19140625 C-12.82887886 -1.60119942 -6.23146456 -2.36731958 0 0 Z " fill="#375C4B" transform="translate(84.29296875,358.87109375)"/>
<path d="M0 0 C4.47141314 3.93910205 6.72009352 7.34419286 7.5625 13.25 C7.94325804 19.43499651 6.24818994 23.43958853 2.1875 28.125 C-2.90984741 32.47639413 -6.86217645 32.7493216 -13.4609375 32.62890625 C-18.73451314 32.05630621 -21.30198274 29.53051959 -24.6875 25.6875 C-28.32811483 20.56367172 -28.05846687 15.44834302 -27.375 9.3125 C-25.72622188 4.99557472 -23.48221914 2.14966569 -19.8125 -0.625 C-13.17089008 -3.52006073 -6.49039217 -3.24519609 0 0 Z " fill="#375C4A" transform="translate(189.375,189.6875)"/>
<path d="M0 0 C4.03225354 3.72983453 7.19556507 6.91102511 7.703125 12.58203125 C7.80169456 17.92942994 7.66143318 21.78111245 4.5 26.3125 C0.24292089 30.47497736 -3.56696476 33.2558076 -9.66796875 33.34375 C-14.93317224 32.99097255 -18.41075765 31.8311504 -22.5 28.3125 C-26.63464078 22.83689465 -28.38354902 18.19681946 -27.5 11.3125 C-25.73946304 6.02132099 -23.25940304 2.36339939 -18.5 -0.6875 C-12.4658316 -2.69888947 -5.73494967 -2.76506502 0 0 Z " fill="#375D4B" transform="translate(291.5,274.6875)"/>
<path d="M0 0 C4.15477659 1.58684811 7.00948421 3.88167572 9.9375 7.1875 C12.34654467 13.56438296 12.88481933 19.93103151 10.078125 26.24609375 C7.64027334 30.21201909 4.35483678 32.33763535 0.1875 34.375 C-5.07011497 35.4059049 -9.82483427 34.93927611 -14.75 32.8125 C-18.1450652 30.07758636 -21.03344512 26.93310977 -23 23 C-23.5072965 17.44468752 -23.76260422 12.58169764 -21.3125 7.5 C-14.67385991 0.32309179 -9.63863742 -1.07364046 0 0 Z " fill="#375C4B" transform="translate(185,273)"/>
<path d="M0 0 C5.01791684 2.41935276 8.49958655 5.9991731 11 11 C11.50964647 16.58104654 11.78681405 21.42637191 9.25 26.5 C8.5075 27.325 7.765 28.15 7 29 C6.401875 29.7425 5.80375 30.485 5.1875 31.25 C1.02081298 34.58334962 -3.36051444 35.23405961 -8.5625 34.875 C-14.20172256 34.04062523 -17.56160905 31.6327681 -21.3125 27.375 C-24.20501294 21.58997412 -24.70603962 16.39268982 -22.875 10.1875 C-17.21010962 0.55718636 -10.64490601 -1.15581419 0 0 Z " fill="#375C4B" transform="translate(83,273)"/>
<path d="M0 0 C3.85220735 2.64082139 6.37450751 5.81102252 7.86328125 10.27734375 C8.59752864 17.16241767 8.00389341 21.68192191 3.86328125 27.27734375 C-1.30935491 32.07149434 -5.49915865 32.63606309 -12.34375 32.5546875 C-16.65642888 32.12643547 -18.70041031 30.94223601 -22.13671875 28.27734375 C-25.87740532 23.45382686 -27.50875171 19.63064319 -27.41796875 13.46875 C-26.76189937 8.35687604 -24.33845504 4.44826629 -20.69921875 0.90234375 C-13.61321064 -3.59122237 -7.4134092 -4.04498638 0 0 Z " fill="#375C4A" transform="translate(291.13671875,189.72265625)"/>
<path d="M0 0 C4.09337997 3.36138731 5.59999971 7.06160603 6.9375 12.125 C7.12531911 17.66566366 6.17411791 22.47655316 2.37109375 26.68359375 C-3.10299239 31.44913429 -6.682891 32.16332162 -13.953125 32.09375 C-19.10267318 31.60845227 -21.57744298 29.0969983 -25.1875 25.6875 C-28.40052726 20.40895522 -29.30846488 15.07538575 -28.3125 9 C-25.99107778 3.61852123 -23.18908707 0.43829353 -17.9375 -2.1875 C-11.94623994 -4.07947686 -5.27331329 -3.48936262 0 0 Z " fill="#375C4A" transform="translate(394.9375,190.1875)"/>
<path d="M0 0 C2.91366558 1.53629639 3.63789405 2.30059107 5.5625 5.1875 C5.35980327 7.93582922 5.0401471 10.48588138 4.5625 13.1875 C4.37204102 14.32783691 4.37204102 14.32783691 4.17773438 15.49121094 C3.76181224 17.85763046 3.29338484 20.20849114 2.8125 22.5625 C2.5959375 23.77099609 2.5959375 23.77099609 2.375 25.00390625 C1.92208525 27.1844716 1.45583196 29.14720963 0.5625 31.1875 C-3.68849452 33.92078408 -8.5350129 33.72642589 -13.4375 33.1875 C-18.87939799 31.373534 -22.2158325 27.80487362 -25.4375 23.1875 C-27.1472368 18.0582896 -27.08367595 13.12602784 -25.375 8 C-19.2372381 -0.90965437 -10.22463775 -4.8884217 0 0 Z " fill="#375C4A" transform="translate(290.4375,359.8125)"/>
<path d="M0 0 C4.43763562 2.13957432 7.39828655 4.81867481 10 9 C10.4192706 10.54601828 10.78623498 12.1068514 11.109375 13.67578125 C11.27920898 14.48571533 11.44904297 15.29564941 11.62402344 16.13012695 C11.7480957 16.74718506 11.87216797 17.36424316 12 18 C11.43716309 18.04487549 10.87432617 18.08975098 10.29443359 18.13598633 C-1.01732658 19.06153589 -11.97026975 20.21939573 -23 23 C-24.08975702 16.77173592 -24.01154417 12.58707352 -21 7 C-14.74297804 0.07825977 -9.16146458 -0.8633841 0 0 Z " fill="#375D4B" transform="translate(390,273)"/>
</svg>
