<?xml version="1.0" encoding="UTF-8"?>
<svg version="1.1" xmlns="http://www.w3.org/2000/svg" width="512" height="512">
<path d="M0 0 C5.94349459 3.59166017 10.30916333 8.97668123 12.5625 15.5 C12.80859566 17.89561939 12.80859566 17.89561939 12.80300903 20.42915344 C12.80713303 21.87828377 12.80713303 21.87828377 12.81134033 23.35668945 C12.80414978 24.40469727 12.79695923 25.45270508 12.78955078 26.5324707 C12.78984283 27.64510788 12.79013489 28.75774506 12.79043579 29.90409851 C12.78904357 33.57807236 12.77348715 37.25184287 12.7578125 40.92578125 C12.75408199 43.47454213 12.7512352 46.02330444 12.74923706 48.57206726 C12.74238361 54.59265587 12.7266241 60.61315733 12.70653808 66.63371104 C12.68416238 73.48979267 12.67318145 80.34587784 12.66314721 87.20198691 C12.64225736 101.30136491 12.60709183 115.40067846 12.5625 129.5 C13.50855606 129.81089569 14.45461212 130.12179138 15.42933655 130.44210815 C25.3442374 133.78980862 37.09944214 139.19956933 42.5625 148.5 C45.28487415 154.34053426 44.93046958 159.97457924 44.9375 166.3125 C44.96199219 167.46298828 44.98648437 168.61347656 45.01171875 169.79882812 C45.03934817 177.83438471 43.88968803 183.09535471 39.0546875 189.49609375 C33.07919002 194.82208063 20.86079557 203.5 12.5625 203.5 C12.56618717 204.08015114 12.56987434 204.66030228 12.57367325 205.25803375 C12.66214734 219.39755209 12.72826926 233.53702874 12.76974869 247.67676544 C12.79034287 254.51475488 12.81840277 261.35255914 12.86425781 268.19042969 C12.90850045 274.79102658 12.93164728 281.39148185 12.94200897 287.99223328 C12.94939193 290.5087944 12.9638091 293.02534518 12.98542023 295.54182434 C13.01451444 299.07043073 13.01845332 302.59824582 13.01660156 306.12695312 C13.03098267 307.16417511 13.04536377 308.20139709 13.06018066 309.27005005 C13.01803629 316.7062172 11.54747911 322.09368189 6.59765625 327.7421875 C5.94667969 328.28101563 5.29570312 328.81984375 4.625 329.375 C3.97660156 329.92929687 3.32820313 330.48359375 2.66015625 331.0546875 C-3.84107557 335.53412097 -10.80890917 335.17463728 -18.4375 334.5 C-25.0716299 332.82557105 -29.69405804 328.06303907 -33.4375 322.5 C-33.7778125 321.40300781 -34.118125 320.30601562 -34.46875 319.17578125 C-36.73727378 313.67572959 -42.21265463 311.3646673 -47.125 308.5 C-49.31281443 307.18020859 -51.50030547 305.85988097 -53.6875 304.5390625 C-54.80898438 303.87036133 -55.93046875 303.20166016 -57.0859375 302.51269531 C-62.31224933 299.37416714 -67.46501947 296.12095737 -72.625 292.875 C-74.62718033 291.62562262 -76.62978109 290.37691872 -78.6328125 289.12890625 C-82.36757909 286.7991705 -86.09078349 284.45267637 -89.8046875 282.08984375 C-122.22703801 261.56134783 -156.27749474 246.9030716 -194.4375 241.5 C-194.43896656 242.04922874 -194.44043312 242.59845749 -194.44194412 243.16432953 C-194.4790604 256.55299149 -194.53838948 269.94139815 -194.62140274 283.32985687 C-194.66088141 289.80455019 -194.69306823 296.27910741 -194.70849609 302.75390625 C-194.72365972 309.00455953 -194.75810108 315.25483868 -194.80580902 321.50532532 C-194.82062566 323.88785039 -194.82854117 326.27042888 -194.82938385 328.65299988 C-194.83175428 331.99498197 -194.85884222 335.33593081 -194.89160156 338.67773438 C-194.88405602 340.14941071 -194.88405602 340.14941071 -194.87635803 341.65081787 C-194.98584371 348.88852247 -196.58706459 354.24721685 -201.40234375 359.7421875 C-202.05332031 360.28101563 -202.70429688 360.81984375 -203.375 361.375 C-204.02339844 361.92929687 -204.67179688 362.48359375 -205.33984375 363.0546875 C-211.54631577 367.33102762 -217.90187307 366.87234863 -225.19262695 366.87060547 C-227.23409286 366.87496602 -229.2733708 366.91128866 -231.31445312 366.94921875 C-240.10015239 366.97525045 -245.90153122 366.47489947 -252.6796875 360.53515625 C-253.21851563 359.88417969 -253.75734375 359.23320312 -254.3125 358.5625 C-254.86679688 357.91410156 -255.42109375 357.26570313 -255.9921875 356.59765625 C-258.88517309 352.39891771 -259.68808997 348.71907264 -259.72460938 343.66259766 C-259.73802368 342.51014557 -259.75143799 341.35769348 -259.76525879 340.1703186 C-259.77317444 338.31097183 -259.77317444 338.31097183 -259.78125 336.4140625 C-259.80360545 334.44325722 -259.82597168 332.47245201 -259.84893036 330.50165367 C-259.88656724 327.04283438 -259.91156816 323.58392354 -259.9375 320.125 C-259.96846666 316.03306375 -260.00202713 311.94123955 -260.04943848 307.84945679 C-260.078076 305.30610189 -260.09873324 302.76263902 -260.10974121 300.21914673 C-260.31255814 282.31811656 -262.81211899 266.7599098 -274.4375 252.5 C-274.85966797 251.94538086 -275.28183594 251.39076172 -275.71679688 250.81933594 C-281.52517632 243.22852727 -281.52517632 243.22852727 -289.75830078 238.89453125 C-293.86401088 238.39341823 -297.83485711 238.46098809 -301.95703125 238.65234375 C-307.89755664 238.77471652 -312.28160699 236.38922332 -316.6796875 232.53515625 C-317.48792969 231.55869141 -317.48792969 231.55869141 -318.3125 230.5625 C-318.86679687 229.91410156 -319.42109375 229.26570312 -319.9921875 228.59765625 C-323.3379328 223.74180429 -323.70634823 219.46909239 -323.5625 213.6875 C-323.55347656 212.99462891 -323.54445313 212.30175781 -323.53515625 211.58789062 C-323.51176157 209.89177605 -323.47589641 208.19584129 -323.4375 206.5 C-324.4275 206.54640625 -325.4175 206.5928125 -326.4375 206.640625 C-340.79983644 207.1208247 -340.79983644 207.1208247 -346.4375 202.5 C-351.95344949 197.2367733 -355.44659586 192.64068774 -355.72802734 184.83666992 C-355.75467468 182.96806489 -355.76908357 181.0992587 -355.7734375 179.23046875 C-355.7800943 178.23549881 -355.7867511 177.24052887 -355.79360962 176.21540833 C-355.80371898 174.11326949 -355.80842717 172.01109867 -355.80810547 169.90893555 C-355.81247077 166.70892828 -355.84878761 163.51030962 -355.88671875 160.31054688 C-355.89258899 158.26302552 -355.896557 156.21549765 -355.8984375 154.16796875 C-355.91280853 153.21875046 -355.92717957 152.26953217 -355.94198608 151.29154968 C-355.89279602 144.06314585 -354.27789144 138.74132145 -349.47265625 133.2578125 C-348.82167969 132.71898437 -348.17070312 132.18015625 -347.5 131.625 C-346.85160156 131.07070312 -346.20320313 130.51640625 -345.53515625 129.9453125 C-340.67930429 126.5995672 -336.40659239 126.23115177 -330.625 126.375 C-329.93212891 126.38402344 -329.23925781 126.39304687 -328.52539062 126.40234375 C-326.82927605 126.42573843 -325.13334129 126.46160359 -323.4375 126.5 C-323.48390625 125.51 -323.5303125 124.52 -323.578125 123.5 C-324.0583247 109.13766356 -324.0583247 109.13766356 -319.4375 103.5 C-314.51390927 98.33999468 -310.15102243 94.77323334 -302.8356781 94.23498535 C-301.4249632 94.21764858 -300.01409161 94.21097591 -298.60327148 94.21289062 C-297.44069069 94.20264107 -297.44069069 94.20264107 -296.25462341 94.19218445 C-294.57251814 94.17861674 -292.89037186 94.16955043 -291.20821953 94.16447449 C-288.51579355 94.15611715 -285.82369592 94.13553384 -283.13136292 94.11193848 C-277.37929192 94.06375428 -271.62718573 94.03098471 -265.875 94 C-212.60408461 93.70855508 -162.41408719 91.37543044 -114.4375 65.5 C-113.81665527 65.1695166 -113.19581055 64.8390332 -112.55615234 64.49853516 C-102.14838509 58.9299625 -92.23061465 52.63584298 -82.3046875 46.2578125 C-76.25485194 42.3719801 -70.16196514 38.5572818 -64.0625 34.75 C-63.05856201 34.11860107 -62.05462402 33.48720215 -61.02026367 32.83666992 C-56.56815392 30.04197635 -52.11071481 27.28578483 -47.54296875 24.68359375 C-40.59457816 20.67796986 -35.46064968 17.66541686 -32.5 9.83203125 C-30.28715397 4.97515963 -25.80168138 1.6840774 -21.11328125 -0.6640625 C-14.64430396 -2.68502767 -6.26328482 -2.77549484 0 0 Z " fill="#000000" transform="translate(379.4375,73.5)"/>
<path d="M0 0 C4.22955651 0.88115761 5.42727063 2.13286808 8 5.625 C8.75005571 9.51653429 8.66555586 13.3633785 8.62145996 17.31604004 C8.62784878 18.51326518 8.6342376 19.71049031 8.64082003 20.943995 C8.65344334 24.26422643 8.64362926 27.58302028 8.62430525 30.90312886 C8.6088837 34.4846585 8.62227866 38.06609542 8.63204956 41.64762878 C8.6465817 48.66255932 8.63433664 55.6772006 8.61293632 62.69210374 C8.58893369 70.85961299 8.59064024 79.02705585 8.59324223 87.19459254 C8.59693313 101.76666998 8.57610063 116.33861107 8.54199219 130.91064453 C8.50890036 145.05358323 8.49473381 159.19637883 8.50097656 173.33935547 C8.50773955 188.7366777 8.50528295 204.13393996 8.48561716 219.53125334 C8.48457768 220.34535283 8.48353819 221.15945232 8.4824672 221.99822149 C8.48037629 223.63333827 8.47826532 225.26845502 8.47613403 226.90357175 C8.46923641 232.59797644 8.46856946 238.29236265 8.47001648 243.98677063 C8.47145573 250.92550156 8.46177379 257.86411574 8.43807012 264.80280793 C8.42620446 268.34367596 8.41908868 271.88438119 8.42490768 275.42526817 C8.43102599 279.26161436 8.41392709 283.09765382 8.39440918 286.93395996 C8.39973711 288.05603301 8.40506503 289.17810605 8.41055441 290.33418131 C8.40149777 291.36168796 8.39244113 292.38919461 8.38311005 293.44783783 C8.38075324 294.77602106 8.38075324 294.77602106 8.37834883 296.13103628 C7.91148756 299.20844783 6.80051266 301.10715053 5 303.625 C2.19084526 305.02957737 0.11189466 304.87395157 -3 304.625 C-6.1359157 302.84515595 -6.84102736 302.10191793 -8 298.625 C-8.09699877 296.01188423 -8.13735982 293.42545813 -8.13130188 290.81227112 C-8.13447545 289.60596988 -8.13447545 289.60596988 -8.13771313 288.37529892 C-8.14372074 285.67149105 -8.14271245 282.96772976 -8.1418457 280.26391602 C-8.14487664 278.32910075 -8.14839791 276.39428621 -8.15237427 274.45947266 C-8.1602678 270.28847232 -8.16540985 266.11748056 -8.16866493 261.94647408 C-8.17456819 255.35433958 -8.19110132 248.76225926 -8.21000671 242.17015076 C-8.21634415 239.91479209 -8.22266977 237.6594334 -8.22898388 235.40407467 C-8.23214969 234.27456666 -8.2353155 233.14505865 -8.23857725 231.98132312 C-8.28068719 216.63070609 -8.31364232 201.28011431 -8.32592773 185.92944336 C-8.33429643 175.57917359 -8.35674186 165.22903786 -8.3952834 154.87883514 C-8.41508242 149.39910968 -8.42743586 143.91958478 -8.42244911 138.43982124 C-8.41781749 133.28760668 -8.43152648 128.13577274 -8.45946121 122.98363495 C-8.46639777 121.09057044 -8.46647322 119.19746678 -8.45926094 117.30440331 C-8.45042142 114.7240491 -8.46598568 112.14496337 -8.48774719 109.56471252 C-8.47930466 108.81189344 -8.47086212 108.05907435 -8.46216375 107.28344256 C-8.51601271 103.84125534 -8.75610778 101.95093374 -10.8445158 99.16001797 C-13.78902324 97.0631008 -15.46136565 97.03522761 -19 97.625 C-21.29600615 99.14466814 -21.29600615 99.14466814 -23 101.625 C-23.39659627 104.20487635 -23.54803205 106.36138285 -23.51898193 108.93951416 C-23.52648319 109.67797128 -23.53398444 110.41642841 -23.541713 111.17726302 C-23.5620191 113.65264004 -23.55388219 116.12710362 -23.54589844 118.60253906 C-23.5546319 120.37651477 -23.56511688 122.15048259 -23.57722473 123.92443848 C-23.60513324 128.74229222 -23.60848835 133.55988954 -23.60750484 138.37781239 C-23.61062978 143.41206954 -23.63623923 148.4462105 -23.65948486 153.48040771 C-23.70008056 163.01425134 -23.72039397 172.54802651 -23.73345876 182.08194327 C-23.74931671 192.93557907 -23.78772725 203.78909816 -23.82805204 214.64266634 C-23.91049985 236.97007175 -23.96456146 259.297474 -24 281.625 C-27.55314122 280.24247838 -30.66846161 278.71506984 -33.89453125 276.67578125 C-35.31004272 275.78560303 -35.31004272 275.78560303 -36.75415039 274.87744141 C-37.76340576 274.23726074 -38.77266113 273.59708008 -39.8125 272.9375 C-41.97391861 271.57675982 -44.13537813 270.21608461 -46.296875 268.85546875 C-47.95879883 267.80625244 -47.95879883 267.80625244 -49.65429688 266.73583984 C-58.74830205 260.99833483 -67.86768153 255.30129228 -77 249.625 C-77.7410498 249.16335449 -78.48209961 248.70170898 -79.24560547 248.22607422 C-127.41648692 218.32331364 -175.56814492 210.11004882 -232 208.625 C-232 171.665 -232 134.705 -232 96.625 C-219.46 96.295 -206.92 95.965 -194 95.625 C-167.59162124 92.39419423 -167.59162124 92.39419423 -142 85.625 C-141.11876465 85.33753906 -140.2375293 85.05007812 -139.32958984 84.75390625 C-113.02802948 76.15763427 -89.89324417 64.20868451 -66.64990234 49.3125 C-61.68534823 46.1509929 -56.68352513 43.04893675 -51.6875 39.9375 C-43.87012928 35.06802738 -36.09876463 30.14279707 -28.4140625 25.06640625 C-26 23.625 -26 23.625 -24 23.625 C-23.99191315 24.25504944 -23.98382629 24.88509888 -23.97549438 25.53424072 C-23.88948059 32.08797496 -23.78997815 38.64140563 -23.68261719 45.19482422 C-23.64431866 47.64106145 -23.60946736 50.08735516 -23.578125 52.53369141 C-23.53249395 56.04870806 -23.47449543 59.56333555 -23.4140625 63.078125 C-23.39673569 64.7205014 -23.39673569 64.7205014 -23.37905884 66.39605713 C-23.3492543 67.92719147 -23.3492543 67.92719147 -23.31884766 69.48925781 C-23.29886215 70.83494843 -23.29886215 70.83494843 -23.2784729 72.20782471 C-22.98018291 74.79701454 -22.39184957 76.43154255 -21 78.625 C-18.22899606 80.01050197 -16.0665294 79.8127467 -13 79.625 C-9.75150023 77.90273504 -9.75150023 77.90273504 -9 74.625 C-8.90712531 72.42815637 -8.87486944 70.22859096 -8.87402344 68.02978516 C-8.8721553 67.36438217 -8.87028717 66.69897919 -8.86836243 66.01341248 C-8.86436205 64.56965141 -8.86228392 63.12588402 -8.86190033 61.68211746 C-8.85848056 58.61074429 -8.83711398 55.53958201 -8.81666946 52.4682827 C-8.7786666 46.75128751 -8.7473856 41.0345188 -8.74951172 35.31738281 C-8.75029915 31.33897286 -8.72692456 27.36133693 -8.6876297 23.38312912 C-8.67717394 21.86894588 -8.67564264 20.35467325 -8.68328094 18.84047318 C-8.69291478 16.71913292 -8.67170526 14.60013289 -8.64355469 12.47900391 C-8.63990906 11.27337799 -8.63626343 10.06775208 -8.63250732 8.82559204 C-7.6469132 3.83832217 -4.98353015 1.03823545 0 0 Z " fill="#FDB52B" transform="translate(368,87.375)"/>
<path d="M0 0 C14.19 0 28.38 0 43 0 C43 36.96 43 73.92 43 112 C0 112 0 112 -4 109 C-4.90949496 106.27151512 -5.13261988 104.64754805 -5.15390015 101.83853149 C-5.16250061 100.99180374 -5.17110107 100.14507599 -5.17996216 99.27268982 C-5.18422211 98.34690628 -5.18848206 97.42112274 -5.19287109 96.46728516 C-5.20104858 95.48976791 -5.20922607 94.51225067 -5.21765137 93.50511169 C-5.24248899 90.26643487 -5.25901524 87.02780176 -5.2734375 83.7890625 C-5.27876118 82.68376568 -5.28408485 81.57846886 -5.28956985 80.43967819 C-5.31629141 74.59195397 -5.33567151 68.74425105 -5.35009766 62.89648438 C-5.36676381 56.85124483 -5.41156136 50.8065485 -5.4624691 44.76151466 C-5.49608616 40.11698768 -5.50766889 35.47259071 -5.51332474 30.82795334 C-5.52005004 28.59917411 -5.53530507 26.37040382 -5.55921555 24.14174271 C-5.59075684 21.02454212 -5.59092037 17.90882149 -5.58349609 14.79150391 C-5.59990143 13.86976883 -5.61630676 12.94803375 -5.63320923 11.99836731 C-5.62489075 11.14599991 -5.61657227 10.29363251 -5.60800171 9.41543579 C-5.61131186 8.67913248 -5.614622 7.94282917 -5.61803246 7.18421364 C-5 5 -5 5 0 0 Z " fill="#FE3C64" transform="translate(77,184)"/>
<path d="M0 0 C4.22955651 0.88115761 5.42727063 2.13286808 8 5.625 C8.75005571 9.51653429 8.66555586 13.3633785 8.62145996 17.31604004 C8.63104319 19.11187774 8.63104319 19.11187774 8.64082003 20.943995 C8.65344334 24.26422643 8.64362926 27.58302028 8.62430525 30.90312886 C8.6088837 34.4846585 8.62227866 38.06609542 8.63204956 41.64762878 C8.6465817 48.66255932 8.63433664 55.6772006 8.61293632 62.69210374 C8.58893369 70.85961299 8.59064024 79.02705585 8.59324223 87.19459254 C8.59693313 101.76666998 8.57610063 116.33861107 8.54199219 130.91064453 C8.50890036 145.05358323 8.49473381 159.19637883 8.50097656 173.33935547 C8.50773955 188.7366777 8.50528295 204.13393996 8.48561716 219.53125334 C8.48405793 220.75240257 8.48405793 220.75240257 8.4824672 221.99822149 C8.48037629 223.63333827 8.47826532 225.26845502 8.47613403 226.90357175 C8.46923641 232.59797644 8.46856946 238.29236265 8.47001648 243.98677063 C8.47145573 250.92550156 8.46177379 257.86411574 8.43807012 264.80280793 C8.42620446 268.34367596 8.41908868 271.88438119 8.42490768 275.42526817 C8.43102599 279.26161436 8.41392709 283.09765382 8.39440918 286.93395996 C8.40240107 288.61706953 8.40240107 288.61706953 8.41055441 290.33418131 C8.40149777 291.36168796 8.39244113 292.38919461 8.38311005 293.44783783 C8.38153884 294.33329332 8.37996764 295.21874881 8.37834883 296.13103628 C7.91148756 299.20844783 6.80051266 301.10715053 5 303.625 C2.19084526 305.02957737 0.11189466 304.87395157 -3 304.625 C-6.1359157 302.84515595 -6.84102736 302.10191793 -8 298.625 C-8.09699877 296.01188423 -8.13735982 293.42545813 -8.13130188 290.81227112 C-8.13341759 290.00807029 -8.13553331 289.20386947 -8.13771313 288.37529892 C-8.14372074 285.67149105 -8.14271245 282.96772976 -8.1418457 280.26391602 C-8.14487664 278.32910075 -8.14839791 276.39428621 -8.15237427 274.45947266 C-8.1602678 270.28847232 -8.16540985 266.11748056 -8.16866493 261.94647408 C-8.17456819 255.35433958 -8.19110132 248.76225926 -8.21000671 242.17015076 C-8.21634415 239.91479209 -8.22266977 237.6594334 -8.22898388 235.40407467 C-8.23214969 234.27456666 -8.2353155 233.14505865 -8.23857725 231.98132312 C-8.28068719 216.63070609 -8.31364232 201.28011431 -8.32592773 185.92944336 C-8.33429643 175.57917359 -8.35674186 165.22903786 -8.3952834 154.87883514 C-8.41508242 149.39910968 -8.42743586 143.91958478 -8.42244911 138.43982124 C-8.41781749 133.28760668 -8.43152648 128.13577274 -8.45946121 122.98363495 C-8.46639777 121.09057044 -8.46647322 119.19746678 -8.45926094 117.30440331 C-8.45042142 114.7240491 -8.46598568 112.14496337 -8.48774719 109.56471252 C-8.47930466 108.81189344 -8.47086212 108.05907435 -8.46216375 107.28344256 C-8.51588287 103.8495547 -8.74333506 101.96365456 -10.8445158 99.19126797 C-13.00508204 97.45561085 -13.00508204 97.45561085 -16 96.625 C-16 91.345 -16 86.065 -16 80.625 C-14.02 79.635 -12.04 78.645 -10 77.625 C-8.86492823 74.21978468 -8.87540505 71.62069267 -8.87402344 68.02978516 C-8.8721553 67.36438217 -8.87028717 66.69897919 -8.86836243 66.01341248 C-8.86436205 64.56965141 -8.86228392 63.12588402 -8.86190033 61.68211746 C-8.85848056 58.61074429 -8.83711398 55.53958201 -8.81666946 52.4682827 C-8.7786666 46.75128751 -8.7473856 41.0345188 -8.74951172 35.31738281 C-8.75029915 31.33897286 -8.72692456 27.36133693 -8.6876297 23.38312912 C-8.67717394 21.86894588 -8.67564264 20.35467325 -8.68328094 18.84047318 C-8.69291478 16.71913292 -8.67170526 14.60013289 -8.64355469 12.47900391 C-8.63990906 11.27337799 -8.63626343 10.06775208 -8.63250732 8.82559204 C-7.6469132 3.83832217 -4.98353015 1.03823545 0 0 Z " fill="#FE3C64" transform="translate(368,87.375)"/>
<path d="M0 0 C17.16 0 34.32 0 52 0 C52.12032643 26.25344398 52.12032643 26.25344398 52.14648438 37.43554688 C52.16442482 45.06866707 52.18565929 52.70167941 52.22631836 60.3347168 C52.25889007 66.48793025 52.27684853 72.64102806 52.28463173 78.79432106 C52.29017913 81.14309319 52.30101169 83.49185893 52.31719017 85.84058189 C52.33893492 89.12782903 52.3419681 92.41459693 52.34057617 95.7019043 C52.351362 96.6751062 52.36214783 97.64830811 52.3732605 98.65100098 C52.33421631 107.16020246 52.33421631 107.16020246 49 111 C44.56039131 112.47986956 40.21322847 112.22497927 35.5625 112.25 C34.60794922 112.270625 33.65339844 112.29125 32.66992188 112.3125 C31.74888672 112.31765625 30.82785156 112.3228125 29.87890625 112.328125 C29.0391626 112.3374707 28.19941895 112.34681641 27.33422852 112.35644531 C24.44742792 111.9156202 23.1057398 110.99722064 21 109 C19.94031062 105.82093187 19.85652301 103.51534849 19.82641602 100.17431641 C19.81292618 98.97521637 19.79943634 97.77611633 19.78553772 96.54067993 C19.77509933 95.24077118 19.76466095 93.94086243 19.75390625 92.6015625 C19.73838662 91.24693011 19.7221758 89.89230547 19.70530701 88.53768921 C19.63481993 82.79361082 19.57496707 77.0494525 19.52319336 71.30517578 C19.49101049 67.78728774 19.44962755 64.26959771 19.40299797 60.75187302 C19.37959242 58.78424692 19.36634712 56.81650816 19.35340881 54.8487854 C19.09661844 35.85997253 15.06764824 21.51231016 4 6 C2.68 4.02 1.36 2.04 0 0 Z " fill="#5A6E86" transform="translate(116,312)"/>
<path d="M0 0 C5.10089335 1.45855223 8.13647051 7.60378098 10.63671875 11.94799805 C11.47585392 13.48510547 12.30654351 15.02685233 13.12890625 16.57299805 C13.96450603 18.11484779 14.80043905 19.65651698 15.63671875 21.19799805 C16.03213867 21.93687256 16.42755859 22.67574707 16.83496094 23.43701172 C17.93547786 25.44796045 19.09767481 27.40862732 20.27734375 29.3737793 C22.63583711 33.74392876 22.6424417 35.70416526 22.00390625 40.57299805 C20.50390625 43.07299805 20.50390625 43.07299805 18.00390625 44.57299805 C12.58563702 45.34703651 12.58563702 45.34703651 10.00390625 44.57299805 C6.32287088 41.26166877 3.85334717 37.98363763 1.48828125 33.65112305 C0.87726563 32.54381836 0.26625 31.43651367 -0.36328125 30.2956543 C-0.98460937 29.14967773 -1.6059375 28.00370117 -2.24609375 26.82299805 C-3.49847175 24.53497548 -4.7552169 22.24938705 -6.01171875 19.96362305 C-6.56118164 18.95332031 -7.11064453 17.94301758 -7.67675781 16.90209961 C-8.79679921 14.68337959 -8.79679921 14.68337959 -9.99609375 13.57299805 C-10.52082339 9.33215029 -10.683686 5.7476348 -8.49609375 2.01049805 C-5.64859417 0.37318579 -3.29578499 -0.17791473 0 0 Z " fill="#000000" transform="translate(417.99609375,286.427001953125)"/>
<path d="M0 0 C4.30261564 1.86940478 8.2115149 4.27146383 12.1875 6.75 C13.24130859 7.38421875 14.29511719 8.0184375 15.38085938 8.671875 C18.27195283 10.4207406 21.1407794 12.19961058 24 14 C25.00861084 14.63131836 25.00861084 14.63131836 26.03759766 15.27539062 C29.86865942 17.73731884 29.86865942 17.73731884 31 20 C31.56872038 27.0521327 31.56872038 27.0521327 29.5 30.5 C25.96012286 32.62392628 22.96872306 32.71179932 19 32 C14.96112052 30.29872144 11.25931729 28.11791304 7.5 25.875 C6.50613281 25.30523437 5.51226562 24.73546875 4.48828125 24.1484375 C-8.263333 16.736667 -8.263333 16.736667 -13 12 C-13.57392389 4.99812851 -13.57392389 4.99812851 -11.5625 1.5 C-7.72373397 -0.74708255 -4.27196965 -0.7542666 0 0 Z " fill="#000000" transform="translate(444,264)"/>
<path d="M0 0 C3.9375 0.5625 3.9375 0.5625 6.4375 2.0625 C8.56142628 5.60237714 8.64929932 8.59377694 7.9375 12.5625 C6.23622144 16.60137948 4.05541304 20.30318271 1.8125 24.0625 C1.24273437 25.05636719 0.67296875 26.05023438 0.0859375 27.07421875 C-8.85668354 42.45959177 -8.85668354 42.45959177 -13.0625 44.5625 C-19.28106639 45.13829318 -19.28106639 45.13829318 -22.4375 42.8125 C-24.10317237 40.50618441 -24.89652775 39.38402821 -25.0625 36.5625 C-23.11989329 29.84375001 -19.65503441 24.06619976 -16.25 18 C-15.63318359 16.87658203 -15.01636719 15.75316406 -14.38085938 14.59570312 C-13.77435547 13.51095703 -13.16785156 12.42621094 -12.54296875 11.30859375 C-11.99535889 10.32560303 -11.44774902 9.3426123 -10.88354492 8.32983398 C-5.28456513 -0.17860359 -5.28456513 -0.17860359 0 0 Z " fill="#000000" transform="translate(432.0625,148.4375)"/>
<path d="M0 0 C2.5 1.5 2.5 1.5 4 4 C4.77403846 9.41826923 4.77403846 9.41826923 4 12 C0.18256439 16.68742093 -4.50672867 19.21287903 -9.75 22 C-10.51054687 22.4125 -11.27109375 22.825 -12.0546875 23.25 C-13.58958356 24.082486 -15.12710989 24.91014082 -16.66723633 25.73291016 C-18.26730666 26.60202214 -19.85530353 27.49362595 -21.43237305 28.40380859 C-22.21652588 28.85578613 -23.00067871 29.30776367 -23.80859375 29.7734375 C-24.51040771 30.18513184 -25.21222168 30.59682617 -25.93530273 31.02099609 C-29.58723726 32.75260984 -32.01353152 32.67567262 -36 32 C-39.20095991 29.35920808 -39.8768642 27.61567898 -40.6875 23.5625 C-39.7368367 18.63633562 -36.88942708 16.81795504 -33 14 C-28.93708662 11.38774616 -24.77157635 8.99275992 -20.5625 6.625 C-19.46873047 5.98433594 -18.37496094 5.34367188 -17.24804688 4.68359375 C-11.23730569 1.2892077 -6.94746028 -1.04654674 0 0 Z " fill="#000000" transform="translate(471,184)"/>
<path d="M0 0 C0 15.84 0 31.68 0 48 C-11 48 -11 48 -15 45 C-16.95821954 39.12534137 -16.30706286 32.40467829 -16.35009766 26.24023438 C-16.36666642 24.50018955 -16.39396889 22.76021305 -16.43212891 21.02050781 C-16.48696881 18.50550214 -16.5087786 15.99208593 -16.5234375 13.4765625 C-16.54610687 12.70245026 -16.56877625 11.92833801 -16.59213257 11.13076782 C-16.57764071 7.41527103 -16.09562006 5.15700515 -14.15478516 1.97021484 C-11 0 -11 0 0 0 Z " fill="#FCB42B" transform="translate(56,216)"/>
<path d="M0 0 C0.87269531 -0.0038269 1.74539063 -0.00765381 2.64453125 -0.01159668 C4.48699092 -0.0143149 6.32948924 -0.00695994 8.171875 0.00976562 C10.99045934 0.03117752 13.80649485 0.00996199 16.625 -0.015625 C18.41667229 -0.01298171 20.20834299 -0.00785669 22 0 C22.84175781 -0.00809692 23.68351562 -0.01619385 24.55078125 -0.02453613 C30.38715618 0.06889601 30.38715618 0.06889601 33.52929688 2.43945312 C35.12144695 4.7039853 35.542797 5.7922417 35.5 8.53125 C35.5103125 9.19125 35.520625 9.85125 35.53125 10.53125 C34.72011424 13.58493756 33.53019712 14.62236769 31 16.53125 C28.00263779 17.13239553 25.04890723 17.09182764 22 17.0625 C21.12730469 17.0663269 20.25460937 17.07015381 19.35546875 17.07409668 C17.51300908 17.0768149 15.67051076 17.06945994 13.828125 17.05273438 C11.00954066 17.03132248 8.19350515 17.05253801 5.375 17.078125 C3.58332771 17.07548171 1.79165701 17.07035669 0 17.0625 C-0.84175781 17.07059692 -1.68351562 17.07869385 -2.55078125 17.08703613 C-8.38715618 16.99360399 -8.38715618 16.99360399 -11.52929688 14.62304688 C-13.12144695 12.3585147 -13.542797 11.2702583 -13.5 8.53125 C-13.51546875 7.54125 -13.51546875 7.54125 -13.53125 6.53125 C-11.69061453 -0.39820116 -5.94975317 -0.05723107 0 0 Z " fill="#000000" transform="translate(453,231.46875)"/>
<path d="M0 0 C14 7 14 7 16 10 C16.47113251 12.94241959 16.41620723 15.89874337 16.4375 18.875 C16.47037109 19.67808594 16.50324219 20.48117188 16.53710938 21.30859375 C16.57294857 25.2639381 16.39338756 27.41033627 14.16015625 30.7578125 C11 33 11 33 0 38 C0 25.46 0 12.92 0 0 Z " fill="#FBB42B" transform="translate(392,221)"/>
</svg>
