<?xml version="1.0" encoding="UTF-8"?>
<svg version="1.1" xmlns="http://www.w3.org/2000/svg" width="512" height="512">
<path d="M0 0 C7.78113767 4.57790266 11.06842388 10.55198359 13.5 19.0625 C13.5 25.9925 13.5 32.9225 13.5 40.0625 C30 40.0625 46.5 40.0625 63.5 40.0625 C63.5 33.1325 63.5 26.2025 63.5 19.0625 C66.55021916 9.91184251 68.8610167 4.91454242 76.9375 0.125 C84.12472281 -3.15872358 92.38189208 -3.22906015 99.9921875 -1.30859375 C108.12127552 2.21822849 112.15102463 9.24822413 115.5 17.0625 C115.5 24.6525 115.5 32.2425 115.5 40.0625 C132.33 40.0625 149.16 40.0625 166.5 40.0625 C166.5 32.1425 166.5 24.2225 166.5 16.0625 C170.19204291 8.67841418 173.97733311 1.49150046 182.22265625 -1.5 C190.04175257 -3.00212485 198.97273973 -3.44373369 205.93359375 0.87109375 C212.55117219 5.90441401 216.87430609 11.93403043 218.5 20.0625 C218.5 26.6625 218.5 33.2625 218.5 40.0625 C235 40.0625 251.5 40.0625 268.5 40.0625 C268.5 32.8025 268.5 25.5425 268.5 18.0625 C271.61962353 9.74350393 274.5570565 3.79629135 282.5625 -0.4375 C289.5016514 -3.07816683 297.32845465 -3.20296208 304.41015625 -1.0546875 C311.5368932 2.1915788 315.84669311 6.54040784 319.1484375 13.57421875 C321.04443615 18.84466894 320.82915756 24.02695833 320.6875 29.5625 C320.67396484 30.57570312 320.66042969 31.58890625 320.64648438 32.6328125 C320.61143063 35.10994404 320.56229764 37.58592927 320.5 40.0625 C321.29921875 40.02769531 322.0984375 39.99289063 322.921875 39.95703125 C336.6256049 39.61926326 347.89924928 42.30627714 358.3125 51.5625 C359.3953125 52.8 359.3953125 52.8 360.5 54.0625 C361.345625 54.990625 362.19125 55.91875 363.0625 56.875 C369.77374745 65.10577517 371.82020938 74.18932032 371.69099426 84.56867981 C371.68592433 85.97589335 371.68592433 85.97589335 371.68075198 87.41153544 C371.66735097 90.54507072 371.63978915 93.67832447 371.61254883 96.81176758 C371.60056092 99.06255064 371.58964227 101.31333961 371.57971191 103.56413269 C371.55734039 108.40679807 371.52990407 113.24939989 371.49930763 118.09202003 C371.45347607 125.75304148 371.43453613 133.41397855 371.42228699 141.07511902 C371.4201206 142.36893 371.41795422 143.66274098 371.41572219 144.99575835 C371.41138716 147.64110107 371.40713471 150.28644392 371.40296304 152.93178689 C371.39213183 159.72381656 371.37957783 166.51584076 371.36401367 173.30786133 C371.36246325 173.98912111 371.36091282 174.67038089 371.35931542 175.37228491 C371.33294035 186.41018573 371.26649894 197.44753397 371.18709008 208.48516444 C371.10656096 219.83316506 371.07667977 231.18037912 371.08915728 242.52872771 C371.09433097 248.89464952 371.07598968 255.25856558 371.00144386 261.62409401 C370.93169591 267.6126766 370.92269052 273.59830038 370.95978546 279.58714485 C370.9626286 281.78095506 370.9433157 283.97492645 370.89986992 286.16830826 C370.27947198 296.9829642 370.27947198 296.9829642 373.75649047 306.87679839 C377.19748964 310.40215266 381.25657961 312.59802562 385.5 315.0625 C387.54410135 316.80035198 389.36732453 318.641406 391.25 320.5625 C392.04921875 321.3771875 392.8484375 322.191875 393.671875 323.03125 C396.66114747 326.35266386 396.61596078 328.5601841 396.6328125 332.9921875 C396.5 335.0625 396.5 335.0625 395.8203125 337.046875 C395.28068754 339.15825999 395.28068754 339.15825999 396.609375 341.2109375 C397.15078125 341.94570313 397.6921875 342.68046875 398.25 343.4375 C404.5 352.26017442 404.5 352.26017442 404.5 356.0625 C405.551875 355.98 406.60375 355.8975 407.6875 355.8125 C412.19934441 356.10835865 413.3302906 356.93925213 416.5 360.0625 C417.79296875 362.91015625 417.79296875 362.91015625 418.6875 366.125 C418.99042969 367.16785156 419.29335938 368.21070313 419.60546875 369.28515625 C421.94331323 379.15718947 422.88920436 388.46371689 422.875 398.625 C422.87418427 399.61370087 422.87418427 399.61370087 422.87335205 400.62237549 C422.83178571 411.61018911 421.87184491 421.61107267 418.5 432.0625 C418.18651611 433.07691162 418.18651611 433.07691162 417.86669922 434.11181641 C408.63373702 463.346072 387.30503532 485.74400122 360.5625 499.875 C344.99119141 507.34359145 329.15268595 510.46156647 311.9375 510.4375 C311.27869843 510.43695618 310.61989685 510.43641235 309.94113159 510.43585205 C280.00509202 510.32253865 253.40878459 498.46717443 231.8125 477.8125 C213.5 458.99057467 213.5 458.99057467 213.5 451.0625 C212.66573703 451.06420874 212.66573703 451.06420874 211.81462026 451.065952 C178.82125292 451.13314581 145.82790279 451.18458975 112.83448233 451.21569599 C108.86930972 451.21944792 104.90413725 451.22333091 100.93896484 451.22729492 C100.14959965 451.22808185 99.36023447 451.22886878 98.54694912 451.22967956 C85.78041129 451.24271895 73.01391415 451.26636469 60.24740043 451.29395839 C47.13920118 451.32205346 34.03102318 451.33868492 20.92279506 451.34476548 C12.84004847 451.34887343 4.75741693 451.36182886 -3.32529423 451.3862494 C-9.53232623 451.40404295 -15.73927128 451.40585529 -21.9463253 451.40182304 C-24.48590743 451.4026464 -27.02549403 451.40858735 -29.56505013 451.42011642 C-33.04236483 451.43512454 -36.51919418 451.431423 -39.996521 451.42326355 C-40.9926682 451.43200207 -41.9888154 451.4407406 -43.01514888 451.44974393 C-56.04377654 451.36756598 -68.03422068 447.75683292 -77.8046875 438.91796875 C-87.67367534 428.11665718 -89.95325724 417.22682781 -89.88768005 403.03262329 C-89.89185808 401.6178846 -89.89733817 400.20314926 -89.90399987 398.78842008 C-89.91841182 394.91918377 -89.91422314 391.05016125 -89.90683305 387.18091345 C-89.9020931 383.00084292 -89.91461855 378.8208181 -89.92485046 374.64076233 C-89.94202776 366.4587097 -89.94288067 358.2767339 -89.93763756 350.09466793 C-89.93359254 343.44260411 -89.93504336 336.79056295 -89.94038582 330.13850021 C-89.94113424 329.19094667 -89.94188266 328.24339313 -89.94265376 327.26712584 C-89.94418528 325.34203168 -89.94572362 323.41693753 -89.94726873 321.49184339 C-89.96098997 303.44725493 -89.95555878 285.40270986 -89.94408352 267.35812239 C-89.93415212 250.86027385 -89.94709087 234.36253748 -89.97101771 217.86470623 C-89.99541697 200.9130405 -90.00501451 183.96142699 -89.99836498 167.00974405 C-89.99487453 157.49734445 -89.99709334 147.9850311 -90.01461601 138.47264481 C-90.02934834 130.37476592 -90.02995998 122.27703402 -90.0125451 114.17915799 C-90.00404111 110.05014733 -90.00187071 105.92139914 -90.01719666 101.79240227 C-90.03107189 98.00728258 -90.02624469 94.22264949 -90.00695742 90.43755774 C-90.00143821 88.43096895 -90.01544526 86.42435521 -90.03031152 84.4178139 C-89.93132248 72.20183425 -86.54821584 62.34646552 -78.5 53.0625 C-66.46853443 41.76677154 -54.586195 39.65062018 -38.5 40.0625 C-38.52618408 39.41812988 -38.55236816 38.77375977 -38.5793457 38.10986328 C-38.6845092 35.13599921 -38.74869732 32.16252777 -38.8125 29.1875 C-38.85439453 28.17429687 -38.89628906 27.16109375 -38.93945312 26.1171875 C-39.0769376 17.5381564 -37.01358317 11.21491647 -31.4375 4.625 C-30.4784375 3.8515625 -30.4784375 3.8515625 -29.5 3.0625 C-28.5409375 2.258125 -28.5409375 2.258125 -27.5625 1.4375 C-19.80518198 -3.73404535 -8.41430732 -3.74830894 0 0 Z " fill="#262626" transform="translate(89.5,1.9375)"/>
<path d="M0 0 C140.91 0 281.82 0 427 0 C427 50.82 427 101.64 427 154 C423.7 153.01 420.4 152.02 417 151 C414.12746958 150.25053526 411.25838624 149.51556477 408.375 148.8125 C407.29798828 148.54663086 407.29798828 148.54663086 406.19921875 148.27539062 C404.46669341 147.84803437 402.73342823 147.42367911 401 147 C400.87044922 145.74896484 400.87044922 145.74896484 400.73828125 144.47265625 C399.46216106 134.25198723 396.8937365 126.90701944 389 120 C388.236875 119.29875 387.47375 118.5975 386.6875 117.875 C378.94494603 112.47321816 369.26379489 110.94297725 360 112 C349.16533097 115.21570842 342.94958684 119.77490436 337.296875 129.5 C334.67153339 134.56089948 333.74366972 138.17452835 333.8125 143.9375 C333.81894531 145.12214844 333.82539063 146.30679688 333.83203125 147.52734375 C333.98863682 150.76507287 334.3929816 153.81922361 335 157 C334.04480469 157.54527344 333.08960938 158.09054687 332.10546875 158.65234375 C323.79321322 163.47004158 316.17186294 168.55097049 309 175 C308.23300781 175.68449219 307.46601563 176.36898437 306.67578125 177.07421875 C298.76639804 184.54189121 292.46273014 193.62525022 287 203 C284.08609529 202.39160231 281.99274733 201.42583822 279.4375 199.9375 C271.31885228 196.26927379 260.21493687 196.46693422 251.7578125 198.953125 C249.30884605 200.12922439 247.19163628 201.40045901 245 203 C244.4225 203.38414062 243.845 203.76828125 243.25 204.1640625 C236.86604981 208.85626589 233.79223109 215.4900759 232 223 C231.15282172 232.11209198 231.62452408 239.89160056 236 248 C236.804375 249.5778125 236.804375 249.5778125 237.625 251.1875 C242.80862187 257.32599959 249.14550777 261.30750481 257 263 C259.98692149 263.21153547 262.94520025 263.19166649 265.9375 263.125 C267.10635742 263.11146484 267.10635742 263.11146484 268.29882812 263.09765625 C270.19935447 263.07433691 272.09972008 263.03847586 274 263 C274.12117188 264.07378906 274.24234375 265.14757812 274.3671875 266.25390625 C274.53615615 267.69013975 274.70544404 269.12633572 274.875 270.5625 C274.95363281 271.26697266 275.03226562 271.97144531 275.11328125 272.69726562 C275.66527095 277.30425659 276.71098156 281.53176382 278 286 C278 287.32 278 288.64 278 290 C245.14112668 290.09157592 212.28228648 290.16204906 179.42331463 290.20426132 C175.54311449 290.20926408 171.66291461 290.21444138 167.78271484 290.21972656 C167.0102441 290.2207758 166.23777336 290.22182505 165.44189441 290.22290608 C152.93776441 290.24030647 140.43370803 290.27184213 127.9296217 290.30861118 C115.09716684 290.34603083 102.26475052 290.36823801 89.43224335 290.37635398 C81.51527567 290.38183964 73.59851615 290.39915915 65.68161255 290.43166587 C59.60864439 290.45532965 53.53585489 290.45781726 47.46283531 290.45243073 C44.97316901 290.45353143 42.48349485 290.46149146 39.9938755 290.4768219 C36.59385331 290.49673193 33.19472065 290.49193455 29.79467773 290.48101807 C28.81022486 290.49266943 27.82577198 290.5043208 26.8114872 290.51632524 C18.30349782 290.44252367 12.27471907 287.80253183 6 282 C-2.92282213 271.47250797 -0.7954813 256.71845042 -0.68115234 243.85253906 C-0.6793127 241.14771872 -0.67985217 238.44299479 -0.68334389 235.73818588 C-0.68651997 229.24718987 -0.65895309 222.75669626 -0.62033591 216.26582895 C-0.57696771 208.74992489 -0.57235836 201.23431831 -0.56762695 193.71826172 C-0.53618372 173.89542876 -0.45241639 154.07270673 -0.375 134.25 C-0.25125 89.9475 -0.1275 45.645 0 0 Z " fill="#E6E5FA" transform="translate(17,145)"/>
<path d="M0 0 C1.31291016 0.29003906 1.31291016 0.29003906 2.65234375 0.5859375 C19.12775969 4.8075915 33.71856884 15.07673196 45.2578125 27.25 C47.81790855 29.8215763 48.71318864 29.9895705 52.4375 30.125 C55.9630948 30.1693943 55.9630948 30.1693943 59 29 C60.27701821 31.01714277 61.54660194 33.0383933 62.8125 35.0625 C63.16892578 35.62388672 63.52535156 36.18527344 63.89257812 36.76367188 C66.35463667 40.71651816 68.25584361 44.68087454 70 49 C69.154375 49.66 68.30875 50.32 67.4375 51 C64.57139784 53.83773281 64.57139784 53.83773281 65.21875 57.7109375 C65.75919256 61.08342197 66.58046831 64.34173212 67.51147461 67.62915039 C74.09898311 91.48953231 69.70135884 116.35833118 57.99414062 137.84619141 C46.43520501 157.61289418 28.32089362 172.11006479 7 180 C6.23171875 180.29648437 5.4634375 180.59296875 4.671875 180.8984375 C-16.77434707 188.69005055 -41.87339691 186.73773692 -62.42138672 177.24511719 C-86.60624364 165.3079076 -104.40821002 146.78623571 -113.28466797 121.18701172 C-121.36956673 96.46874444 -119.71392425 71.04034695 -107.953125 47.79589844 C-96.26023486 25.76390565 -76.13516211 8.80238122 -52.48046875 1.03125 C-34.65505186 -4.250355 -17.98891645 -4.30126047 0 0 Z " fill="#58D278" transform="translate(425,310)"/>
<path d="M0 0 C-0.00112793 0.60360352 -0.00225586 1.20720703 -0.00341797 1.82910156 C-0.29150011 18.98368998 -0.29150011 18.98368998 7 34 C13.78642191 40.04672541 19.90200928 41.43090223 28.82421875 41.34375 C35.34199359 40.638259 40.1510921 37.72832695 44.875 33.3125 C52.04294104 22.13894485 51.26420391 14.71592177 52 0 C68.5 0 85 0 102 0 C102.33 6.6 102.66 13.2 103 20 C105.4000237 28.26674831 109.02816909 34.88517795 116.5625 39.4375 C123.25945295 42.41963644 131.63857657 42.10211674 138.5 39.75 C146.9642509 35.51787455 149.62261992 30.75048475 153 22 C153.33 14.74 153.66 7.48 154 0 C170.83 0 187.66 0 205 0 C205.33 7.26 205.66 14.52 206 22 C210.20728761 31.46639712 212.15099272 35.57549636 221 40 C227.12810324 41.95994773 234.59297299 42.1539128 240.67578125 40.09375 C248.49445383 35.99387463 251.49427606 31.18002253 255 23 C255.33 15.41 255.66 7.82 256 0 C272.83 0 289.66 0 307 0 C307.33 6.6 307.66 13.2 308 20 C310.96545761 28.89637282 313.55999739 34.64053754 321.625 39.5 C328.5053032 42.4925979 336.9392471 42.15574128 343.875 39.5 C351.04880029 35.74166713 355.01740811 30.09916996 357.39746094 22.5168457 C358.43436979 18.18560854 358.57355061 13.87501465 358.6875 9.4375 C358.72166016 8.52419922 358.75582031 7.61089844 358.79101562 6.66992188 C358.87249358 4.44673771 358.94195738 2.22389803 359 0 C369.82590141 -0.50746413 377.40587105 -0.35026355 385.75 7.1875 C389.75979505 11.03184234 390.48059806 14.33134565 393 20 C393 35.84 393 51.68 393 68 C252.09 68 111.18 68 -34 68 C-34 14.09259259 -34 14.09259259 -25.625 5.5625 C-17.35608581 -0.64798236 -9.94087885 -0.34543594 0 0 Z " fill="#E93856" transform="translate(51,60)"/>
<path d="M0 0 C7.25462427 4.39674198 13.61477043 11.06259405 16.2578125 19.2890625 C17.92136217 28.76535437 17.87838275 38.44170791 12.6953125 46.78125 C12.0971875 47.833125 11.4990625 48.885 10.8828125 49.96875 C5.56281498 56.80874681 -1.66361256 62.12363705 -10.3046875 63.78125 C-20.7559201 64.77361463 -28.35546495 63.5857767 -37.3046875 57.78125 C-37.93117187 57.37519531 -38.55765625 56.96914063 -39.203125 56.55078125 C-45.72728412 51.69905886 -49.74147968 43.62133843 -51.3046875 35.78125 C-52.31131914 26.00955746 -51.25647102 18.07617409 -45.31640625 10.1171875 C-33.31587594 -3.93524696 -16.96825783 -8.97304482 0 0 Z " fill="#282829" transform="translate(196.3046875,260.21875)"/>
<path d="M0 0 C8.35686904 6.08533096 14.15382312 13.02600622 17 23 C18.19313186 33.80755485 16.15379436 42.9212522 9.875 51.8125 C4.02078323 58.83756012 -4.39611161 63.46451733 -13.515625 64.3359375 C-26.05219825 64.4670732 -33.63429784 62.21719199 -42.796875 53.515625 C-50.45246797 44.77413232 -51.69850496 35.07945126 -51.17919922 23.91308594 C-50.78687643 19.72474617 -49.24675214 16.49261469 -47 13 C-46.57589844 12.30519531 -46.15179688 11.61039062 -45.71484375 10.89453125 C-35.58629082 -4.14312533 -15.88149934 -8.77599889 0 0 Z " fill="#282829" transform="translate(94,260)"/>
<path d="M0 0 C0.64195312 0.4125 1.28390625 0.825 1.9453125 1.25 C2.97011719 1.86875 2.97011719 1.86875 4.015625 2.5 C11.36294611 7.41683846 16.67439106 14.69939439 18.9453125 23.25 C20.1549025 34.48008826 18.51894856 44.4237904 11.6953125 53.625 C3.76619948 61.19369879 -4.50613066 65.28824119 -15.4921875 65.6875 C-25.02993947 65.431826 -33.18417528 61.8988828 -40.0546875 55.25 C-47.3329978 46.50282436 -49.68151623 37.905466 -49.40234375 26.6171875 C-48.90834539 21.83261914 -47.57440789 18.31304913 -45.0546875 14.25 C-44.6421875 13.56421875 -44.2296875 12.8784375 -43.8046875 12.171875 C-34.5829326 -1.55596468 -15.10843833 -8.27230083 0 0 Z " fill="#282829" transform="translate(399.0546875,173.75)"/>
<path d="M0 0 C8.24965711 5.19267757 15.44774982 12.11921067 17.90625 21.80859375 C19.64344716 33.22687024 18.27672016 42.83999608 11.921875 52.578125 C6.57619635 59.37372745 -1.25625808 63.7712703 -9.69140625 65.453125 C-19.47144753 66.46061669 -27.4738474 65.43236308 -35.390625 59.39453125 C-43.53686634 52.34238363 -48.77189302 45.248998 -50.05078125 34.40625 C-50.48535931 24.31438171 -47.79402517 15.87267432 -41.37890625 8.015625 C-30.93705342 -2.90292111 -13.90633166 -6.66003068 0 0 Z " fill="#282829" transform="translate(194.69140625,173.546875)"/>
<path d="M0 0 C9.5635501 5.11002306 15.36387109 11.83127966 19.22265625 21.9765625 C21.76490507 31.04316671 20.38537757 38.87617919 16.10546875 47.125 C11.37486385 55.44433966 5.46147129 60.84631859 -3.51171875 64.2421875 C-12.07781762 66.47768212 -21.47048395 66.4269161 -29.5546875 62.56640625 C-38.32932579 57.16099468 -45.00573559 50.16860351 -47.89453125 40.125 C-49.44511113 30.4507299 -48.84165257 21.24987433 -43.796875 12.6796875 C-33.42187668 -1.25306178 -16.32754943 -7.67101833 0 0 Z " fill="#282829" transform="translate(295.89453125,258.875)"/>
<path d="M0 0 C8.4020528 4.88940285 14.48182486 12.82383375 17.11328125 22.21484375 C18.92685409 31.62275286 17.02158009 40.58596686 12.16015625 48.84765625 C6.67805613 56.50816984 -1.03131104 62.67984889 -10.44921875 64.484375 C-21.86801875 65.42820535 -30.6447111 63.39223265 -39.6328125 56.18359375 C-45.61513127 50.58723103 -50.29316391 43.59763598 -50.953125 35.28515625 C-51.30495854 23.5448214 -49.33052035 14.67793774 -41.32421875 5.609375 C-29.12544424 -5.20740327 -14.60287412 -6.69212336 0 0 Z " fill="#282829" transform="translate(298.44921875,174.515625)"/>
<path d="M0 0 C7.52310307 5.31980506 14.63653891 12.58086709 16.83984375 21.74609375 C17.90224827 32.33728105 17.37475872 41.58767921 10.88671875 50.3984375 C5.50734208 56.80290518 -0.71218338 62.2127793 -9.16015625 63.74609375 C-20.02401174 64.65525115 -29.01559352 64.46314058 -38.16015625 57.74609375 C-45.16902287 51.47621801 -50.64334556 43.6137127 -51.36328125 34.046875 C-51.54600936 22.39795803 -48.54232303 13.63332409 -40.53125 4.98828125 C-29.48945938 -5.20808225 -13.16172584 -7.63998914 0 0 Z " fill="#282829" transform="translate(196.16015625,345.25390625)"/>
<path d="M0 0 C7.02877374 4.90941067 13.20670442 12.5507345 15.2265625 21 C17.04632816 31.9505197 15.23262237 40.82565851 8.921875 49.9296875 C3.89762255 56.19418363 -3.19141822 61.75193222 -11.32250977 62.98120117 C-13.43841075 63.11710316 -15.52064973 63.14762006 -17.640625 63.1171875 C-18.76102173 63.10473999 -18.76102173 63.10473999 -19.90405273 63.09204102 C-31.68553014 62.73316891 -38.58408431 57.58328487 -46.578125 49.3671875 C-52.333999 40.52780958 -54.00370346 31.0620101 -52.328125 20.6796875 C-49.31961009 11.08318375 -43.17665627 2.99695385 -34.203125 -1.6953125 C-32.92014246 -2.25723896 -31.62896755 -2.80106862 -30.328125 -3.3203125 C-29.379375 -3.7328125 -28.430625 -4.1453125 -27.453125 -4.5703125 C-17.80241869 -6.88648202 -8.5869842 -4.86979976 0 0 Z " fill="#282829" transform="translate(95.328125,346.3203125)"/>
<path d="M0 0 C2.69990662 1.79993774 4.5418865 3.083773 6 6 C6.08675538 8.69893181 6.11557897 11.37169231 6.09765625 14.0703125 C6.0962413 14.86654022 6.09482635 15.66276794 6.09336853 16.48312378 C6.08776345 19.0304538 6.07521014 21.57769647 6.0625 24.125 C6.05748565 25.85025915 6.05292263 27.57551967 6.04882812 29.30078125 C6.03779237 33.53388791 6.02052436 37.76692914 6 42 C7.05912598 41.97381592 8.11825195 41.94763184 9.20947266 41.9206543 C13.15652155 41.82983448 17.103479 41.77263658 21.05126953 41.7253418 C22.75650589 41.70026955 24.46163554 41.66620236 26.16650391 41.62280273 C28.62429174 41.56182434 31.08065361 41.53371888 33.5390625 41.51171875 C34.29555084 41.48591232 35.05203918 41.4601059 35.83145142 41.43351746 C39.80935017 41.43143182 42.3029762 41.8273299 45.48974609 44.31176758 C48 47 48 47 48.625 50.5 C47.91563321 54.47245401 46.82768293 56.17231707 44 59 C40.82709287 60.58645357 37.41174616 60.12078213 33.9296875 60.09765625 C33.13345978 60.0962413 32.33723206 60.09482635 31.51687622 60.09336853 C28.9695462 60.08776345 26.42230353 60.07521014 23.875 60.0625 C22.14974085 60.05748565 20.42448033 60.05292263 18.69921875 60.04882812 C14.46611209 60.03779237 10.23307086 60.02052436 6 60 C6.02094727 61.06436279 6.04189453 62.12872559 6.06347656 63.2253418 C6.13603962 67.18549066 6.18185851 71.1455811 6.21972656 75.10620117 C6.23980505 76.81821586 6.26707392 78.53016228 6.30175781 80.24194336 C6.35044401 82.70704008 6.37300573 85.1712279 6.390625 87.63671875 C6.41127014 88.39836838 6.43191528 89.16001801 6.45318604 89.94474792 C6.45475467 93.68491609 6.14053729 95.78097498 4.10058594 98.96020508 C1.41093148 101.57202086 0.44944885 101.94063883 -3.3125 102.4375 C-7 102 -7 102 -9.69995117 99.50146484 C-12.67518014 95.6580274 -12.64912226 92.25394803 -12.48828125 87.5390625 C-12.48120651 86.74849457 -12.47413177 85.95792664 -12.46684265 85.1434021 C-12.43901463 82.63627567 -12.37630474 80.13144288 -12.3125 77.625 C-12.28740184 75.91800117 -12.26459133 74.21096708 -12.24414062 72.50390625 C-12.18922691 68.33506352 -12.10304076 64.16791962 -12 60 C-13.06436279 60.02094727 -14.12872559 60.04189453 -15.2253418 60.06347656 C-19.18549066 60.13603962 -23.1455811 60.18185851 -27.10620117 60.21972656 C-28.81821586 60.23980505 -30.53016228 60.26707392 -32.24194336 60.30175781 C-34.70704008 60.35044401 -37.1712279 60.37300573 -39.63671875 60.390625 C-40.77919319 60.42159271 -40.77919319 60.42159271 -41.94474792 60.45318604 C-45.68491609 60.45475467 -47.78097498 60.14053729 -50.96020508 58.10058594 C-53.38920432 55.59919641 -53.92784424 54.64940188 -54.3125 51.1875 C-53.91028394 47.08489619 -53.03288807 45.78578763 -50 43 C-47.02018256 42.30775307 -44.12325433 42.41731598 -41.078125 42.51171875 C-40.21813904 42.51879349 -39.35815308 42.52586823 -38.47210693 42.53315735 C-35.7305125 42.56110389 -32.990975 42.6238402 -30.25 42.6875 C-28.38935245 42.71258266 -26.52867283 42.73539589 -24.66796875 42.75585938 C-20.11118894 42.81093113 -15.55594296 42.89720345 -11 43 C-11.02618408 41.83952148 -11.05236816 40.67904297 -11.0793457 39.48339844 C-11.1698961 35.17483832 -11.2272665 30.86636213 -11.2746582 26.55712891 C-11.29979147 24.69272719 -11.33390383 22.8284239 -11.37719727 20.96435547 C-11.43790352 18.28328169 -11.46622058 15.60351098 -11.48828125 12.921875 C-11.51408768 12.08944275 -11.5398941 11.2570105 -11.56648254 10.39935303 C-11.56928192 4.61383029 -11.56928192 4.61383029 -8.65698242 1.47363281 C-5.39027879 -0.33816753 -3.68316336 -0.61386056 0 0 Z " fill="#272B28" transform="translate(404,350)"/>
<path d="M0 0 C3.37245577 1.20899358 4.23463218 2.62503443 6.0703125 5.7421875 C6.69160962 9.9134151 6.65441454 14.05845414 6.63671875 18.26953125 C6.64291733 19.49120499 6.64911591 20.71287872 6.65550232 21.97157288 C6.66260036 24.55289921 6.65942688 27.13427132 6.64672852 29.71557617 C6.63287405 33.66215432 6.66692628 37.60635682 6.70507812 41.55273438 C6.70602943 44.06250058 6.70416991 46.57226975 6.69921875 49.08203125 C6.71247696 50.26030991 6.72573517 51.43858856 6.73939514 52.65257263 C6.63584873 61.77834393 6.63584873 61.77834393 3.65991211 65.48364258 C0.12562466 68.56610634 0.12562466 68.56610634 -2.9296875 68.4921875 C-3.88875 68.51539062 -3.88875 68.51539062 -4.8671875 68.5390625 C-8.3269327 67.20234276 -10.26487075 64.95325073 -11.9296875 61.7421875 C-12.66596584 57.5224034 -12.60669152 53.35655853 -12.55859375 49.08203125 C-12.56100571 47.85940079 -12.56341766 46.63677032 -12.56590271 45.37709045 C-12.56492494 42.79750315 -12.55154848 40.21789469 -12.52661133 37.63842773 C-12.49227603 33.68986812 -12.50596594 29.74354327 -12.52539062 25.79492188 C-12.51849292 23.28644881 -12.50882123 20.77798151 -12.49609375 18.26953125 C-12.50105362 17.08922836 -12.50601349 15.90892548 -12.51112366 14.69285583 C-12.39367592 6.52435635 -12.39367592 6.52435635 -10.01928711 2.52172852 C-6.54224944 -0.43937998 -4.53168016 -0.29292229 0 0 Z " fill="#2A3E7D" transform="translate(386.9296875,17.2578125)"/>
<path d="M0 0 C3.34265205 1.20706879 3.94704566 1.92056849 6 5 C6.27415466 7.52902222 6.27415466 7.52902222 6.30639648 10.58544922 C6.32238388 11.73028778 6.33837128 12.87512634 6.35484314 14.05465698 C6.36288719 15.91092209 6.36288719 15.91092209 6.37109375 17.8046875 C6.38463646 19.71158859 6.38463646 19.71158859 6.39845276 21.65701294 C6.41297399 24.34879721 6.42264172 27.04015652 6.42553711 29.73193359 C6.43091891 33.1744567 6.46858946 36.61580517 6.51428127 40.05799675 C6.55125046 43.34849046 6.55256802 46.639014 6.55859375 49.9296875 C6.57812607 51.16314911 6.59765839 52.39661072 6.61778259 53.66744995 C6.56752638 63.18615075 6.56752638 63.18615075 3.68383789 66.27783203 C0.11044182 68.57081264 -1.83054732 68.74454512 -6 68 C-8.5742998 66.33982782 -9.57325275 65.6095442 -11 63 C-11.76041201 58.67157721 -11.70023031 54.38533832 -11.6640625 50 C-11.66884613 48.7315625 -11.67362976 47.463125 -11.67855835 46.15625 C-11.68195934 43.47569176 -11.67527278 40.79741858 -11.65185547 38.1171875 C-11.62336542 34.69024145 -11.63977701 31.26525319 -11.66971779 27.83837891 C-11.69218044 24.55885007 -11.67643061 21.27955444 -11.6640625 18 C-11.67418365 16.7728125 -11.68430481 15.545625 -11.69473267 14.28125 C-11.56450208 4.82276506 -11.56450208 4.82276506 -8.64990234 1.71484375 C-5.42198701 -0.37405226 -3.77851101 -0.56275696 0 0 Z " fill="#2A3F81" transform="translate(284,17)"/>
<path d="M0 0 C2.69990662 1.79993774 4.5418865 3.083773 6 6 C6.10092302 7.76584766 6.13837233 9.53548332 6.14526367 11.30419922 C6.15164352 12.4122995 6.15802338 13.52039978 6.16459656 14.66207886 C6.16570938 15.86413971 6.1668222 17.06620056 6.16796875 18.3046875 C6.17129715 19.53534943 6.17462555 20.76601135 6.17805481 22.03396606 C6.18312565 24.6416181 6.18546309 27.24927664 6.18530273 29.85693359 C6.18522137 32.53213242 6.19217591 35.20716042 6.20581055 37.88232422 C6.22409472 41.73149886 6.22903777 45.58047382 6.23046875 49.4296875 C6.23765427 50.62769989 6.24483978 51.82571228 6.25224304 53.06002808 C6.24916641 54.17443268 6.24608978 55.28883728 6.24291992 56.43701172 C6.24434494 57.41693085 6.24576996 58.39684998 6.24723816 59.40646362 C5.98659745 62.14059321 5.50603911 63.71674207 4 66 C0.8090836 68.1272776 -1.20159774 68.33381412 -4.96484375 68.55859375 C-8.15972641 67.68168738 -9.18628667 65.69122007 -11 63 C-11.5146637 60.23046875 -11.5146637 60.23046875 -11.53344727 57.1875 C-11.5492836 56.0428125 -11.56511993 54.898125 -11.58143616 53.71875 C-11.57647629 52.4915625 -11.57151642 51.264375 -11.56640625 50 C-11.57260483 48.7315625 -11.57880341 47.463125 -11.58518982 46.15625 C-11.59228986 43.4760011 -11.59105938 40.79725484 -11.57641602 38.1171875 C-11.55922051 34.69029714 -11.58273775 31.26508236 -11.61790562 27.83837891 C-11.64519849 24.55889949 -11.63514239 21.27956093 -11.62890625 18 C-11.64216446 16.7728125 -11.65542267 15.545625 -11.66908264 14.28125 C-11.56551018 4.82166004 -11.56551018 4.82166004 -8.64819336 1.72265625 C-5.37338901 -0.40761198 -3.83535924 -0.71912986 0 0 Z " fill="#2A3F80" transform="translate(182,17)"/>
<path d="M0 0 C2.56808961 1.65324012 3.56871533 2.39763385 5 5 C5.76204841 9.32803018 5.70022916 13.61480109 5.6640625 18 C5.66884613 19.2684375 5.67362976 20.536875 5.67855835 21.84375 C5.68195934 24.52430824 5.67527278 27.20258142 5.65185547 29.8828125 C5.62336542 33.30975855 5.63977701 36.73474681 5.66971779 40.16162109 C5.69218044 43.44114993 5.67643061 46.72044556 5.6640625 50 C5.67418365 51.2271875 5.68430481 52.454375 5.69473267 53.71875 C5.56449513 63.17774 5.56449513 63.17774 2.68115234 66.27734375 C-0.85096285 68.54674867 -2.87807724 68.67449645 -7 68 C-9.36497439 66.13291495 -10.66030715 64.67938569 -12 62 C-12.11104916 60.23973558 -12.15920049 58.47534389 -12.17700195 56.71166992 C-12.18983719 55.60679733 -12.20267242 54.50192474 -12.21589661 53.36357117 C-12.22328354 52.16464737 -12.23067047 50.96572357 -12.23828125 49.73046875 C-12.246353 48.5021785 -12.25442474 47.27388824 -12.26274109 46.00837708 C-12.27659134 43.4049318 -12.28730927 40.8014683 -12.29516602 38.19799805 C-12.30839491 34.21440279 -12.35626517 30.2314172 -12.40039062 26.24804688 C-12.41051672 23.72136028 -12.41903308 21.19466662 -12.42578125 18.66796875 C-12.44328934 17.47511765 -12.46079742 16.28226654 -12.47883606 15.05326843 C-12.45710549 6.77624012 -12.45710549 6.77624012 -10.09838867 2.77075195 C-6.67573959 -0.11749398 -4.46880241 -0.52574146 0 0 Z " fill="#2A3F80" transform="translate(80,17)"/>
<path d="M0 0 C4.46876455 3.07848225 8.07974831 6.73924494 9.8125 11.9375 C10.6315793 17.86997433 9.91337649 22.28510107 6.42578125 27.20703125 C2.68303769 31.2216448 -1.79550785 33.11073197 -7.25 33.375 C-13.4085868 32.69071258 -17.52344551 31.12499085 -21.625 26.4375 C-25.03332431 21.47578392 -25.18008117 16.76238423 -24.1875 10.9375 C-22.57269096 5.62457891 -19.16739374 2.50506574 -14.40234375 -0.18359375 C-9.42558627 -2.15849751 -4.98820388 -1.66273463 0 0 Z " fill="#C8C8F0" transform="translate(84.1875,274.0625)"/>
<path d="M0 0 C5.18072208 2.86303062 8.55506092 6.68051377 10.828125 12.1484375 C11.76566146 17.98199769 10.10592719 22.38163371 6.828125 27.1484375 C2.74376861 31.36824449 -0.56662116 33.30895687 -6.421875 33.4609375 C-11.51124869 33.40771529 -14.29569374 32.64645474 -18.171875 29.1484375 C-22.92569602 23.88068988 -23.54161128 19.78524078 -23.44140625 12.87109375 C-22.97288914 8.13839194 -20.98700784 5.68904686 -17.44140625 2.6796875 C-11.88049321 -1.31617816 -6.49556602 -2.54682265 0 0 Z " fill="#C8C8F0" transform="translate(288.171875,273.8515625)"/>
<path d="M0 0 C4.58388542 3.40630107 6.71184567 6.14946909 7.5625 11.91796875 C7.89881129 16.9976705 7.55607255 20.62729594 4.625 24.875 C1.04041128 28.96210115 -2.56931243 30.91991684 -8.01171875 31.68359375 C-13.49145436 31.9906078 -17.64825938 31.04325166 -21.8125 27.375 C-25.23202425 23.53993862 -27.11168755 19.9274687 -27.3125 14.75 C-26.91314243 8.78011632 -24.77040644 5.04288952 -20.375 1.0625 C-14.27358985 -4.1380308 -6.65028678 -4.14830593 0 0 Z " fill="#C8C8F0" transform="translate(188.8125,275.625)"/>
<path d="M0 0 C4.63219064 1.9614569 7.48490688 4.69429266 9.90625 9.09375 C11.44184324 13.22640646 11.53013439 17.05859117 10.75390625 21.375 C8.25505716 26.46880776 4.14661558 30.95225092 -1.18359375 33.1875 C-7.10383475 33.72570373 -11.16625066 33.72553481 -16.24609375 30.375 C-20.44168236 26.14020028 -23.37586598 22.8429668 -23.62109375 16.75 C-23.55604738 11.12348903 -21.90660249 7.58895436 -18.24609375 3.375 C-12.86492082 -1.63074226 -6.87824018 -1.91394509 0 0 Z " fill="#C8C8F0" transform="translate(390.24609375,188.625)"/>
<path d="M0 0 C4.41854291 3.11306432 8.02390999 6.75922996 9.75 11.9375 C10.33738515 17.92882854 9.05397394 22.02965522 5.75 26.9375 C1.84030441 30.65171081 -2.02838293 33.20770236 -7.5 33.375 C-12.7736246 33.23599177 -16.33688581 31.40895344 -20.25 27.9375 C-24.42278275 23.41208772 -24.87493313 18.51986842 -24.63671875 12.5234375 C-23.88642899 7.50634838 -21.31063035 4.87186483 -17.625 1.625 C-12.24342122 -2.19875334 -6.19049534 -2.02381578 0 0 Z " fill="#C8C8F0" transform="translate(289.25,189.0625)"/>
<path d="M0 0 C3.73008607 2.65845913 7.03230464 5.45504871 8.62109375 9.82421875 C9.42526413 15.6977163 9.00483196 20.87818213 6.0078125 26.0625 C2.93292409 29.96890753 -0.76321724 32.31636161 -5.65234375 33.265625 C-11.32654768 33.5657962 -14.8171424 32.1337337 -19.37890625 28.82421875 C-23.46556721 24.5166572 -25.14205418 20.88821538 -25.81640625 15.01171875 C-25.66584198 10.0336877 -23.59957752 6.52840046 -20.37890625 2.82421875 C-14.93852259 -2.20636977 -6.64125827 -3.28246098 0 0 Z " fill="#C8C8F0" transform="translate(187.37890625,189.17578125)"/>
<path d="M0 0 C5.01791684 2.41935276 8.49958655 5.9991731 11 11 C11.55713132 16.95701945 11.52180186 21.95208399 8 27 C3.57901207 31.33846282 0.43990751 33.16622109 -5.75 33.3125 C-11.02727204 33.25568726 -14.04924942 32.75321305 -18 29 C-21.65153244 24.16418677 -23.43433907 20.34013953 -23.34375 14.19140625 C-22.51238657 8.89146441 -19.16861616 5.14011333 -15.4375 1.5 C-10.29517977 -0.74392156 -5.52295971 -0.75106183 0 0 Z " fill="#C8C8F1" transform="translate(185,359)"/>
<path d="M0 0 C2.77963588 2.01523601 4.56593475 3.98047588 6.5 6.8125 C6.9125 7.410625 7.325 8.00875 7.75 8.625 C9.50655242 13.74827788 9.03258995 18.24481493 6.8125 23.0625 C4.32634676 27.54991845 1.40575302 30.17724899 -3.5 31.8125 C-8.7674928 32.31692239 -13.13179168 32.4841659 -17.9375 30.125 C-22.04712292 26.4163159 -25.14141996 23.22782795 -25.73828125 17.54296875 C-25.90818638 11.72148235 -25.51050544 8.35070353 -21.5 3.8125 C-20.675 2.86375 -19.85 1.915 -19 0.9375 C-13.73257977 -3.22806191 -5.94343674 -2.01652318 0 0 Z " fill="#C8C8F1" transform="translate(85.5,360.1875)"/>
<path d="M0 0 C2.72674546 1.40052964 4.48568007 2.83606457 6.03125 5.48828125 C6.98315352 9.23278571 6.12811132 11.43482933 4.92578125 15.08203125 C3.65351404 19.11017295 2.52470863 22.8005333 2.23828125 27.01953125 C2.07328125 28.09203125 1.90828125 29.16453125 1.73828125 30.26953125 C-2.91128667 33.51771071 -8.88701741 33.18364286 -14.26171875 32.26953125 C-18.79275971 29.6773213 -22.38417905 26.19807295 -24.26171875 21.26953125 C-24.92243801 15.75329367 -24.99370209 10.84611075 -22.63671875 5.76953125 C-16.19596471 -1.01020985 -9.10354934 -2.94017915 0 0 Z " fill="#C8C8F1" transform="translate(289.26171875,359.73046875)"/>
<path d="M0 0 C4.80704023 2.35817068 7.9786775 5.59750151 11 10 C11.39981731 12.32286497 11.74214505 14.65712434 12 17 C10.76765625 17.10957031 9.5353125 17.21914063 8.265625 17.33203125 C-0.26540021 18.13440316 -8.48167494 19.04161696 -16.75 21.4140625 C-19 22 -19 22 -22 22 C-22.35073826 17.07017894 -22.58614972 13.19484365 -20.375 8.6875 C-14.20009189 1.70010398 -9.41081201 -1.02953413 0 0 Z " fill="#C7C7EF" transform="translate(389,273)"/>
</svg>
