<?xml version="1.0" encoding="UTF-8"?>
<svg version="1.1" xmlns="http://www.w3.org/2000/svg" width="512" height="512">
<path d="M0 0 C1.79849458 -0.00417658 3.59698652 -0.00965587 5.3954736 -0.01631981 C10.32085174 -0.03075059 15.2460622 -0.02653707 20.17144942 -0.019153 C25.48990552 -0.01441778 30.80832553 -0.02693432 36.12677002 -0.03717041 C46.5395664 -0.0543568 56.95230243 -0.05519874 67.36510931 -0.04995751 C75.8296869 -0.04591427 84.29424666 -0.0473612 92.75882339 -0.05270576 C93.96406132 -0.05345419 95.16929925 -0.05420261 96.41105954 -0.05497371 C98.85958743 -0.0565052 101.30811531 -0.05804355 103.75664319 -0.05958868 C126.71278425 -0.07331315 149.66889121 -0.0678764 172.62503149 -0.05640347 C193.61960079 -0.04647123 214.61408196 -0.05941173 235.60863768 -0.08333766 C257.17417803 -0.10772884 278.73967734 -0.11733647 300.30523121 -0.11068493 C312.40932282 -0.10719275 324.51334665 -0.10942476 336.61742783 -0.12693596 C346.9213587 -0.14165813 357.22517406 -0.14229309 367.52910267 -0.12486505 C372.78427263 -0.11635288 378.03923625 -0.11421097 383.29439545 -0.1295166 C388.10955986 -0.14336693 392.92434121 -0.13859592 397.73948349 -0.11927737 C399.47693595 -0.11551814 401.21441911 -0.11843708 402.9518442 -0.12888902 C419.53234718 -0.22150315 431.70268551 3.22038214 444.07595825 14.70018005 C454.06137475 25.25080881 456.78682522 37.0631524 456.71363831 51.2023468 C456.72171661 53.08906418 456.72171661 53.08906418 456.72995812 55.01389706 C456.74433445 58.47989645 456.74019272 61.94565648 456.7327913 65.41166854 C456.72804242 69.15956424 456.74058464 72.90740943 456.75080872 76.6552887 C456.76796862 83.9879682 456.76884256 91.32056191 456.76359581 98.65325628 C456.75954755 104.61592912 456.76100546 110.57857668 456.76634407 116.54124832 C456.76709249 117.39124001 456.76784091 118.2412317 456.76861202 119.11698071 C456.77014356 120.8439726 456.77168191 122.57096448 456.77322698 124.29795636 C456.78694193 140.4784065 456.78152147 156.65880823 456.77004177 172.83925726 C456.760111 187.62597541 456.77304914 202.4125684 456.79697596 217.19926725 C456.82138742 232.40058161 456.83096977 247.60183772 456.82432324 262.80317128 C456.82083549 271.33022713 456.82303364 279.85718677 456.84057426 288.38422775 C456.85532188 295.64323794 456.85589837 302.90208414 456.83850335 310.16109119 C456.83001185 313.86088684 456.82779803 317.56038987 456.84315491 321.26016998 C456.85963308 325.28003065 456.84480738 329.2991903 456.8271637 333.31904602 C456.8367687 334.4756828 456.84637371 335.63231958 456.85626978 336.82400596 C456.7283533 351.03870355 451.59341291 361.81211572 442.01345825 372.13768005 C429.90930363 383.59339782 416.52058451 384.83536746 400.6519165 384.77536011 C398.85342193 384.77953669 397.05492999 384.78501598 395.2564429 384.79167992 C390.33106477 384.8061107 385.4058543 384.80189718 380.48046708 384.79451311 C375.16201098 384.78977789 369.84359097 384.80229443 364.52514648 384.81253052 C354.1123501 384.82971691 343.69961407 384.83055885 333.28680719 384.82531761 C324.82222961 384.82127438 316.35766984 384.82272131 307.89309311 384.82806587 C306.68785518 384.82881429 305.48261726 384.82956272 304.24085697 384.83033382 C301.79232908 384.83186531 299.34380119 384.83340366 296.89527331 384.83494879 C273.93913226 384.84867326 250.98302529 384.84323651 228.02688502 384.83176357 C207.03231571 384.82183133 186.03783454 384.83477183 165.04327883 384.85869776 C143.47773847 384.88308894 121.91223916 384.89269658 100.34668529 384.88604504 C88.24259368 384.88255286 76.13856985 384.88478486 64.03448868 384.90229607 C53.73055781 384.91701824 43.42674244 384.9176532 33.12281384 384.90022516 C27.86764387 384.89171299 22.61268026 384.88957107 17.35752106 384.90487671 C12.54235664 384.91872703 7.72757529 384.91395603 2.91243301 384.89463747 C1.17498056 384.89087824 -0.56250261 384.89379719 -2.2999277 384.90424912 C-18.88043068 384.99686325 -31.050769 381.55497796 -43.42404175 370.07518005 C-53.40945825 359.5245513 -56.13490872 347.71220771 -56.0617218 333.57301331 C-56.06710734 332.31520172 -56.07249288 331.05739013 -56.07804161 329.76146305 C-56.09241795 326.29546365 -56.08827622 322.82970363 -56.0808748 319.36369157 C-56.07612592 315.61579587 -56.08866814 311.86795068 -56.09889221 308.12007141 C-56.11605212 300.7873919 -56.11692605 293.45479819 -56.11167931 286.12210383 C-56.10763104 280.15943099 -56.10908895 274.19678342 -56.11442757 268.23411179 C-56.11517599 267.3841201 -56.11592441 266.53412841 -56.11669551 265.6583794 C-56.11822706 263.93138751 -56.1197654 262.20439562 -56.12131048 260.47740375 C-56.13502542 244.29695361 -56.12960496 228.11655188 -56.11812527 211.93610285 C-56.1081945 197.1493847 -56.12113264 182.36279171 -56.14505946 167.57609285 C-56.16947091 152.3747785 -56.17905327 137.17352239 -56.17240673 121.97218883 C-56.16891899 113.44513298 -56.17111713 104.91817334 -56.18865776 96.39113235 C-56.20340538 89.13212217 -56.20398187 81.87327597 -56.18658685 74.61426891 C-56.17809535 70.91447327 -56.17588152 67.21497024 -56.1912384 63.51519012 C-56.20771657 59.49532945 -56.19289088 55.47616981 -56.17524719 51.45631409 C-56.1896547 49.72135892 -56.1896547 49.72135892 -56.20435327 47.95135415 C-56.0764368 33.73665656 -50.9414964 22.96324439 -41.36154175 12.63768005 C-29.25738713 1.18196229 -15.868668 -0.06000736 0 0 Z M50.32595825 32.38768005 C54.02529806 36.08701986 57.6502128 39.34543469 61.76345825 42.51268005 C63.01222628 43.48394408 64.26092218 44.45530085 65.509552 45.42674255 C66.14360962 45.91819763 66.77766724 46.40965271 67.43093872 46.91600037 C70.4063282 49.22669964 73.36570203 51.55764768 76.32595825 53.88768005 C77.49382507 54.80577848 78.66179404 55.72374698 79.8298645 56.6415863 C80.40752563 57.09549744 80.98518677 57.54940857 81.58035278 58.01707458 C83.31625502 59.38006132 85.05336673 60.74149199 86.790802 62.1025238 C93.46363886 67.33258513 100.10350062 72.60118305 106.7180481 77.9047699 C112.64490465 82.65270238 118.61389417 87.34574721 124.59207153 92.02879333 C128.09042271 94.77053125 131.58393776 97.51842962 135.07839966 100.26512146 C137.98098248 102.54624244 140.88464098 104.82596269 143.790802 107.1025238 C150.46363886 112.33258513 157.10350062 117.60118305 163.7180481 122.9047699 C168.49192735 126.72906633 173.28502526 130.52792393 178.10696411 134.29148865 C181.14157012 136.6610759 184.15357666 139.05329482 187.13845825 141.4853363 C188.07999756 142.2451178 188.07999756 142.2451178 189.04055786 143.02024841 C190.24003768 143.98899199 191.43393952 144.96469856 192.62112427 145.94847107 C196.9841774 149.4817549 196.9841774 149.4817549 202.32595825 150.38768005 C205.09132192 148.6891614 205.09132192 148.6891614 207.76345825 146.13768005 C208.82547815 145.20205946 209.88935406 144.26854233 210.9548645 143.3368988 C211.50674438 142.84882751 212.05862427 142.36075623 212.62722778 141.8578949 C215.40545315 139.45340034 218.30015893 137.20396848 221.20095825 134.95018005 C222.38589109 134.02444617 223.57078667 133.09866459 224.75564575 132.1728363 C225.34571411 131.71280212 225.93578247 131.25276794 226.54373169 130.77879333 C229.47701182 128.48922756 232.40109334 126.18797935 235.32595825 123.88768005 C238.81243517 121.14709053 242.29973992 118.40758367 245.790802 115.6728363 C251.82726755 110.9415525 257.84219758 106.18549797 263.82595825 101.38768005 C270.38158826 96.13133362 276.97734321 90.92825945 283.59207153 85.74656677 C286.50562642 83.4631471 289.41564241 81.17522561 292.32595825 78.88768005 C295.81251982 76.14719797 299.29973971 73.40758383 302.790802 70.6728363 C308.82726868 65.94155161 314.84212565 61.18540947 320.82595825 56.38768005 C325.78931612 52.40912565 330.76415417 48.44600567 335.76345825 44.51268005 C336.34240845 44.05715759 336.92135864 43.60163513 337.51785278 43.13230896 C340.71172013 40.62805813 343.93568686 38.17289795 347.20095825 35.76268005 C348.23220825 34.97893005 349.26345825 34.19518005 350.32595825 33.38768005 C350.32595825 33.05768005 350.32595825 32.72768005 350.32595825 32.38768005 C251.32595825 32.38768005 152.32595825 32.38768005 50.32595825 32.38768005 Z M8.32595825 86.38768005 C8.32595825 174.16768005 8.32595825 261.94768005 8.32595825 352.38768005 C135.04595825 352.38768005 261.76595825 352.38768005 392.32595825 352.38768005 C392.32595825 264.60768005 392.32595825 176.82768005 392.32595825 86.38768005 C387.680234 89.04237963 384.34795861 90.99675844 380.45095825 94.32518005 C375.70855577 98.28586784 370.8679596 102.0835793 365.95095825 105.82518005 C365.21989868 106.38173279 364.48883911 106.93828552 363.73562622 107.51170349 C362.28260637 108.61719894 360.82932328 109.7223485 359.37576294 110.82713318 C356.43461439 113.06627343 353.5042957 115.31932563 350.57595825 117.57518005 C349.539552 118.37310974 348.50314575 119.17103943 347.43533325 119.9931488 C346.4092395 120.78334412 345.38314575 121.57353943 344.32595825 122.38768005 C342.15951174 124.05463298 339.99273328 125.72115419 337.82595825 127.38768005 C336.74261887 128.22100553 335.65928553 129.05433885 334.57595825 129.88768005 C290.15929159 164.05434672 245.74262492 198.22101339 201.32595825 232.38768005 C197.82158836 230.80452942 194.94542474 228.71047684 191.88845825 226.38768005 C191.3669519 225.99250183 190.84544556 225.59732361 190.30813599 225.19017029 C188.64415771 223.9268758 186.98443924 222.65818112 185.32595825 221.38768005 C184.79228638 220.97920837 184.2586145 220.57073669 183.70877075 220.14988708 C180.45629197 217.6579727 177.21053063 215.15743165 173.96707153 212.65379333 C171.25573696 210.56200799 168.54067373 208.47507449 165.82595825 206.38768005 C164.74260676 205.55437032 163.65927344 204.72103698 162.57595825 203.88768005 C162.03970825 203.47518005 161.50345825 203.06268005 160.95095825 202.63768005 C39.07595825 108.88768005 39.07595825 108.88768005 37.44949341 107.63645935 C36.37116399 106.80703755 35.29271436 105.97777203 34.21414185 105.14866638 C31.4282188 103.0067827 28.64472993 100.86184231 25.86502075 98.7118988 C17.57436655 90.93073001 17.57436655 90.93073001 8.32595825 86.38768005 Z " fill="#017260" transform="translate(55.674041748046875,63.61231994628906)"/>
</svg>
