<?xml version="1.0" encoding="UTF-8"?>
<svg version="1.1" xmlns="http://www.w3.org/2000/svg" width="512" height="512">
<path d="M0 0 C137.28 0 274.56 0 416 0 C416 199.10076828 416 199.10076828 395.7734375 219.3515625 C380.91223449 233.54296481 364.07522808 240.49986395 343.420578 240.38768005 C342.21217689 240.39306559 341.00377578 240.39845113 339.75875646 240.40399987 C336.43978549 240.4157451 333.12132292 240.4142494 329.80237329 240.40683305 C326.20919362 240.40207246 322.61606602 240.41463666 319.02290344 240.42485046 C311.99696793 240.4419881 304.97112205 240.4428889 297.94517108 240.43763756 C292.22999715 240.43358486 286.51484958 240.43505244 280.7996769 240.44038582 C279.57635159 240.44150845 279.57635159 240.44150845 278.32831264 240.44265376 C276.67114501 240.44418535 275.01397739 240.4457237 273.35680977 240.44726873 C257.83914045 240.4609758 242.32152164 240.45556893 226.80385349 240.44408352 C212.63360708 240.43415518 198.46349133 240.44708808 184.29326507 240.47101771 C169.71450919 240.49545017 155.13581406 240.50500628 140.55703813 240.49836498 C132.38370706 240.49488168 124.21047638 240.49704571 116.03716087 240.51461601 C109.07875053 240.52939007 102.12051127 240.52990599 95.16210409 240.5125451 C91.61786394 240.50407486 88.07392872 240.50178683 84.52970505 240.51719666 C60.68680952 240.6135224 40.01513306 238.40449707 22.07666016 221.19995117 C9.69716371 208.83526779 4.26461257 197.05845029 0 180 C0 120.6 0 61.2 0 0 Z M197 53 C193.8527614 57.2236832 191.95181099 61.36926698 190.421875 66.3671875 C190.20557434 67.04677521 189.98927368 67.72636292 189.76641846 68.42654419 C189.08535635 70.57333279 188.41749761 72.72396002 187.75 74.875 C187.287329 76.34142082 186.82379539 77.80756978 186.359375 79.2734375 C185.22959151 82.84589436 184.11162065 86.42185194 183 90 C181.91058105 90.01458252 180.82116211 90.02916504 179.69873047 90.04418945 C175.63932215 90.10236072 171.58045763 90.17959182 167.52148438 90.26245117 C165.76799373 90.2956122 164.01439862 90.32367142 162.26074219 90.34643555 C159.73327302 90.3801447 157.20675362 90.43246692 154.6796875 90.48828125 C153.90132538 90.49467117 153.12296326 90.5010611 152.3210144 90.50764465 C146.84240515 90.65412894 142.54778304 91.67613139 138.35546875 95.5 C134.5094283 100.43939643 133.47798326 103.73579914 134 110 C138.22151894 120.55379735 149.93250043 126.47884179 158.8984375 132.80078125 C161.29508154 134.50016487 163.66246791 136.22094232 166 138 C165.26811187 145.95928345 162.40462138 153.30086966 159.8828125 160.83984375 C156.37309639 170.55219805 156.37309639 170.55219805 157 180.5625 C160.25457103 186.15629395 163.59411633 189.2506264 169.8125 191.1875 C178.68983935 191.6641143 187.22174914 183.93957397 193.875 178.875 C194.70257813 178.25496094 195.53015625 177.63492188 196.3828125 176.99609375 C200.79675241 173.6943669 200.79675241 173.6943669 205.11352539 170.26831055 C205.73606201 169.84976807 206.35859863 169.43122559 207 169 C211.39926296 169.97520608 214.48479744 172.78030967 217.9375 175.5625 C222.62892807 179.25308104 227.39402781 182.77124807 232.375 186.0625 C232.9330835 186.44414307 233.49116699 186.82578613 234.06616211 187.21899414 C238.00848817 189.77445472 241.32526664 190.72956088 246 191 C251.27015724 189.52065762 254.29356953 187.08743529 257.8359375 183.109375 C260.37341098 178.51126869 260.26339043 174.29772957 258.92578125 169.36328125 C258.40257532 167.67510776 257.8642116 165.9915737 257.3125 164.3125 C256.89955688 162.99173462 256.89955688 162.99173462 256.47827148 161.64428711 C255.27038515 157.80869352 254.01306395 153.99416372 252.671875 150.203125 C252.30578125 149.16671875 251.9396875 148.1303125 251.5625 147.0625 C251.23378906 146.18722656 250.90507812 145.31195313 250.56640625 144.41015625 C249.85659904 141.38980419 249.84025819 139.89935453 251 137 C253.08627398 135.20241158 255.02684553 133.74298541 257.3125 132.25 C258.58802731 131.37745251 259.86275221 130.50373098 261.13671875 129.62890625 C261.7817334 129.1920752 262.42674805 128.75524414 263.09130859 128.30517578 C265.98381539 126.32726054 268.80616274 124.26947721 271.625 122.1875 C273.03652344 121.15689453 273.03652344 121.15689453 274.4765625 120.10546875 C278.02917954 117.14128828 280.52838762 114.41483715 282 110 C282.39680449 104.74234055 281.89498146 101.43897158 279 97 C273.62591506 91.5524986 269.01327075 90.83938251 261.61328125 90.68359375 C260.38776802 90.6524221 260.38776802 90.6524221 259.13749695 90.62062073 C256.52924966 90.55526921 253.92090225 90.49630727 251.3125 90.4375 C249.54360946 90.39430108 247.77472903 90.35068635 246.00585938 90.30664062 C241.67067537 90.19960257 237.33539071 90.09829456 233 90 C232.69296143 89.03175293 232.38592285 88.06350586 232.06958008 87.06591797 C230.91871354 83.4495092 229.74953835 79.8392358 228.57495117 76.23046875 C228.07064424 74.6724946 227.571211 73.11293359 227.0769043 71.55175781 C226.3624477 69.29830558 225.63022428 67.05128334 224.89453125 64.8046875 C224.6797261 64.1138205 224.46492096 63.42295349 224.24360657 62.71115112 C222.43597027 57.28265302 219.86072122 52.9256995 214.9921875 49.6484375 C208.38614336 47.4982349 202.17751863 48.31557838 197 53 Z " fill="#017260" transform="translate(48,192)"/>
<path d="M0 0 C1.67967541 0.01508399 3.35936403 0.02876578 5.0390625 0.04101562 C9.10970756 0.07370446 13.17970367 0.12527769 17.25 0.1875 C17.279729 1.1916394 17.279729 1.1916394 17.31005859 2.21606445 C17.40655166 5.31103971 17.51571634 8.40545099 17.625 11.5 C17.6559375 12.55251953 17.686875 13.60503906 17.71875 14.68945312 C18.16519049 26.78054983 19.06433162 38.15029585 28.140625 47.0390625 C36.80425516 53.96314487 45.26376671 55.28735913 56.25 54.1875 C64.86925325 52.11747581 71.42669529 47.54665883 76.0625 40 C81.7914565 27.39629569 80.68057549 13.85368828 81.25 0.1875 C112.93 0.1875 144.61 0.1875 177.25 0.1875 C177.58 8.1075 177.91 16.0275 178.25 24.1875 C180.16092347 34.69757909 181.71980656 41.90746351 190.125 48.625 C198.52645962 54.19965272 206.16652901 55.19698135 216.25 54.1875 C224.86925325 52.11747581 231.42669529 47.54665883 236.0625 40 C240.46701462 31.14443396 240.58947236 21.21388826 240.875 11.5 C240.91367187 10.40494141 240.95234375 9.30988281 240.9921875 8.18164062 C241.08527252 5.517082 241.17109852 2.85250978 241.25 0.1875 C246.10223655 0.08706361 250.95384113 0.01531035 255.80688477 -0.03222656 C257.45054693 -0.05208568 259.09414096 -0.07918256 260.73754883 -0.11425781 C281.45617292 -0.54470891 299.8738029 4.31397059 315.17333984 18.98754883 C327.55283629 31.35223221 332.98538743 43.12904971 337.25 60.1875 C337.25 72.0675 337.25 83.9475 337.25 96.1875 C199.97 96.1875 62.69 96.1875 -78.75 96.1875 C-78.75 41.08673172 -78.75 41.08673172 -58.5234375 20.8359375 C-41.40629744 4.49027418 -23.19916066 -0.36550402 0 0 Z " fill="#017260" transform="translate(126.75,79.8125)"/>
<path d="M0 0 C4.65386266 2.16072195 7.98202935 5.23986999 10 10 C10.58703123 13.91787008 10.56069855 17.79422437 10.53125 21.75 C10.5350769 22.88147461 10.53890381 24.01294922 10.54284668 25.17871094 C10.54556298 27.56576428 10.53822167 29.95284754 10.52148438 32.33984375 C10.50007246 35.98765606 10.52129746 39.63349875 10.546875 43.28125 C10.54423168 45.604171 10.53910661 47.92709078 10.53125 50.25 C10.53934692 51.33764648 10.54744385 52.42529297 10.55578613 53.54589844 C10.47995501 59.68797732 10.10743241 63.32954328 6 68 C2.18069828 71.62833663 -0.88279006 72.31000458 -6 72.5 C-11.11720994 72.31000458 -14.18069828 71.62833663 -18 68 C-22.84793586 62.48753567 -22.58433485 57.38080103 -22.53125 50.25 C-22.5350769 49.11852539 -22.53890381 47.98705078 -22.54284668 46.82128906 C-22.54556298 44.43423572 -22.53822167 42.04715246 -22.52148438 39.66015625 C-22.50007246 36.01234394 -22.52129746 32.36650125 -22.546875 28.71875 C-22.54423168 26.395829 -22.53910661 24.07290922 -22.53125 21.75 C-22.53934692 20.66235352 -22.54744385 19.57470703 -22.55578613 18.45410156 C-22.47995501 12.31202268 -22.10743241 8.67045672 -18 4 C-12.72867143 -1.00776214 -6.89190982 -0.92775709 0 0 Z " fill="#017261" transform="translate(342,48)"/>
<path d="M0 0 C4.65386266 2.16072195 7.98202935 5.23986999 10 10 C10.58703123 13.91787008 10.56069855 17.79422437 10.53125 21.75 C10.5350769 22.88147461 10.53890381 24.01294922 10.54284668 25.17871094 C10.54556298 27.56576428 10.53822167 29.95284754 10.52148438 32.33984375 C10.50007246 35.98765606 10.52129746 39.63349875 10.546875 43.28125 C10.54423168 45.604171 10.53910661 47.92709078 10.53125 50.25 C10.53934692 51.33764648 10.54744385 52.42529297 10.55578613 53.54589844 C10.47995501 59.68797732 10.10743241 63.32954328 6 68 C2.18069828 71.62833663 -0.88279006 72.31000458 -6 72.5 C-11.11720994 72.31000458 -14.18069828 71.62833663 -18 68 C-22.84793586 62.48753567 -22.58433485 57.38080103 -22.53125 50.25 C-22.5350769 49.11852539 -22.53890381 47.98705078 -22.54284668 46.82128906 C-22.54556298 44.43423572 -22.53822167 42.04715246 -22.52148438 39.66015625 C-22.50007246 36.01234394 -22.52129746 32.36650125 -22.546875 28.71875 C-22.54423168 26.395829 -22.53910661 24.07290922 -22.53125 21.75 C-22.53934692 20.66235352 -22.54744385 19.57470703 -22.55578613 18.45410156 C-22.47995501 12.31202268 -22.10743241 8.67045672 -18 4 C-12.72867143 -1.00776214 -6.89190982 -0.92775709 0 0 Z " fill="#017261" transform="translate(182,48)"/>
</svg>
