<?xml version="1.0" encoding="UTF-8"?>
<svg version="1.1" xmlns="http://www.w3.org/2000/svg" width="512" height="512">
<path d="M0 0 C0.66339221 -0.00453111 1.32678442 -0.00906223 2.01027942 -0.01373065 C4.23183843 -0.02638454 6.4531526 -0.02475366 8.67474365 -0.02310181 C10.26824763 -0.02908656 11.86174871 -0.03589198 13.45524597 -0.04345703 C17.7839361 -0.06113238 22.11254715 -0.06581313 26.44126987 -0.0670886 C29.14697911 -0.0685102 31.85266825 -0.07278002 34.5583725 -0.07808304 C44.0016355 -0.09659029 53.44484202 -0.10475302 62.88812256 -0.10317993 C71.68363794 -0.10197921 80.47890766 -0.12306612 89.2743609 -0.15466726 C96.83035441 -0.18084536 104.38626778 -0.19154654 111.94230628 -0.19026911 C116.45302192 -0.18975981 120.96351938 -0.19542488 125.47418976 -0.21662521 C129.71945709 -0.23603281 133.96429876 -0.23611499 138.20958138 -0.22159195 C139.76396114 -0.21950568 141.31836772 -0.22419396 142.87270164 -0.23631287 C150.91034252 -0.29489995 157.50519006 -0.32557993 164.38470459 4.26742554 C166.44329834 6.30258179 166.44329834 6.30258179 167.82220459 8.32992554 C168.29529053 9.0015271 168.76837646 9.67312866 169.25579834 10.36508179 C171.51966486 14.17997105 171.52019859 17.41150659 171.54533386 21.7557373 C171.55042168 22.41756952 171.5555095 23.07940174 171.5607515 23.76128948 C171.57647301 25.9835476 171.58500029 28.20577321 171.59344482 30.42807007 C171.60298367 32.01980292 171.61287485 33.61153369 171.62309265 35.20326233 C171.65447889 40.43556253 171.67474686 45.66787863 171.69329834 50.90023804 C171.69659566 51.79084978 171.69989298 52.68146152 171.70329022 53.59906149 C171.73407476 62.00109074 171.76077834 70.40312359 171.77770901 78.80519295 C171.79960576 89.54532363 171.84155505 100.28495376 171.91114658 111.02488434 C171.95843524 118.58000952 171.98264917 126.13499989 171.98990589 133.6902684 C171.99485545 138.20062591 172.00986923 142.71041927 172.04965019 147.22061539 C172.08661557 151.46762838 172.09489423 155.71375735 172.08164406 159.96090126 C172.08169785 161.51488984 172.0919288 163.06891857 172.11339569 164.62275887 C172.22978007 173.52712254 171.87275872 180.56301666 165.38470459 187.26742554 C158.7648849 192.94383932 151.74268343 192.83424284 143.38470459 192.26742554 C137.36408977 190.22471694 133.30444576 186.26455564 130.27038574 180.72213745 C127.92217529 175.87607612 127.80931457 171.49297951 127.83880615 166.17953491 C127.82329964 164.71474701 127.82329964 164.71474701 127.80747986 163.22036743 C127.77816183 160.01713295 127.77655498 156.81453337 127.77532959 153.61117554 C127.76034056 151.38057254 127.7436119 149.14998061 127.72521973 146.91940308 C127.6816155 141.06689938 127.66156232 135.2145454 127.64648438 129.36190796 C127.62688844 123.38240736 127.58492115 117.40306785 127.54486084 111.42367554 C127.46963362 99.70497531 127.41929669 87.98631126 127.38470459 76.26742554 C126.20801932 77.45102425 126.20801932 77.45102425 125.00756264 78.65853405 C105.90824271 97.86891436 86.79446885 117.06481982 67.66550636 136.24568462 C58.41516866 145.52178984 49.16956207 154.80251974 39.93499756 164.09432983 C31.8849514 172.19425477 23.82611716 180.28531452 15.75666463 188.36590797 C11.48534117 192.64374244 7.21850928 196.92584796 2.96217728 201.21860313 C-1.04718815 205.26199799 -5.06823357 209.29340222 -9.0983963 213.31606483 C-10.57247766 214.79151759 -12.04230503 216.27123513 -13.50742722 217.75558472 C-29.34814268 233.7938593 -29.34814268 233.7938593 -39.71685791 235.89633179 C-46.79777678 235.70999182 -52.10719564 234.56457053 -57.36920166 229.61898804 C-61.63036075 224.91631126 -63.89080231 220.53106261 -64.05279541 214.07992554 C-64.09275635 213.22012085 -64.13271729 212.36031616 -64.17388916 211.47445679 C-62.03509386 199.19507955 -52.36031322 191.3353683 -43.91094971 182.99545288 C-42.39191552 181.4778306 -40.87398454 179.95910342 -39.35707092 178.43936157 C-35.25291352 174.33377422 -31.13356378 170.24374717 -27.01124549 166.15640593 C-22.69946064 161.87595426 -18.40190452 157.58126471 -14.10279846 153.28808594 C-5.96728428 145.16808964 2.18088706 137.06091936 10.33371943 128.95831549 C19.61803214 119.72995989 28.88808987 110.4873411 38.15699637 101.24351573 C57.21711535 82.23560842 76.29500497 63.24562146 95.38470459 44.26742554 C94.15410309 44.26600052 92.92350159 44.2645755 91.65560913 44.2631073 C80.03278942 44.2464052 68.41031839 44.20353315 56.78768349 44.13533497 C50.81297454 44.1011102 44.83852009 44.07596193 38.8637085 44.0718689 C33.0927806 44.06757639 27.32242636 44.03903376 21.5516777 43.99399376 C19.35501833 43.98104934 17.1582902 43.97670018 14.96159744 43.98127174 C11.87365771 43.98619932 8.78738076 43.95998852 5.699646 43.92684937 C4.35096436 43.93978783 4.35096436 43.93978783 2.97503662 43.95298767 C-3.72912475 43.83313939 -9.02662391 42.01586877 -14.61529541 38.26742554 C-20.52657264 32.09423783 -21.02227197 26.00639518 -20.96295166 17.79476929 C-20.34251568 11.49978405 -17.56757047 8.07685121 -13.05279541 3.89242554 C-8.46319503 0.83269195 -5.60599984 0.01581693 0 0 Z " fill="#FFFFFF" transform="translate(340.61529541015625,-0.267425537109375)"/>
<path d="M0 0 C5.74841562 3.32865134 9.60440035 8.15992367 11.6875 14.4375 C12.05859375 16.98046875 12.05859375 16.98046875 12.125 19.625 C12.16496094 20.48480469 12.20492187 21.34460938 12.24609375 22.23046875 C10.10729845 34.50984599 0.43251781 42.36955724 -8.0168457 50.70947266 C-9.53587989 52.22709493 -11.05381087 53.74582211 -12.57072449 55.26556396 C-16.67488189 59.37115132 -20.79423163 63.46117837 -24.91654992 67.54851961 C-29.22833477 71.82897127 -33.52589089 76.12366083 -37.82499695 80.4168396 C-45.96051113 88.53683589 -54.10868247 96.64400617 -62.26151484 104.74661005 C-71.54582755 113.97496565 -80.81588528 123.21758443 -90.08479178 132.46140981 C-109.14491076 151.46931711 -128.22280038 170.45930408 -147.3125 189.4375 C-146.0818985 189.43892502 -144.851297 189.44035004 -143.58340454 189.44181824 C-131.96058483 189.45852033 -120.3381138 189.50139239 -108.7154789 189.56959057 C-102.74076995 189.60381534 -96.7663155 189.6289636 -90.79150391 189.63305664 C-85.02057601 189.63734915 -79.25022177 189.66589177 -73.47947311 189.71093178 C-71.28281374 189.7238762 -69.08608561 189.72822536 -66.88939285 189.72365379 C-63.80145312 189.71872622 -60.71517617 189.74493702 -57.62744141 189.77807617 C-56.72832031 189.76945053 -55.82919922 189.76082489 -54.90283203 189.75193787 C-48.19867066 189.87178615 -42.9011715 191.68905677 -37.3125 195.4375 C-31.59242873 201.41101 -30.94576871 207.18789479 -31.04296875 215.140625 C-31.50225755 220.75859236 -33.09501433 224.40294574 -37.25390625 228.21875 C-42.47148204 232.29287916 -46.09362449 233.56052387 -52.76957703 233.58467102 C-53.42803126 233.58834771 -54.08648549 233.5920244 -54.76489288 233.5958125 C-56.97567539 233.60684297 -59.18641089 233.6106921 -61.3972168 233.61450195 C-62.98071949 233.62076715 -64.56422072 233.627414 -66.14772034 233.63441467 C-71.35237607 233.65545292 -76.55703208 233.66581765 -81.76171875 233.67578125 C-83.55418221 233.67982906 -85.34664551 233.68394599 -87.13910866 233.68813133 C-95.5614181 233.70718342 -103.98371877 233.72141375 -112.40604562 233.7297433 C-122.12345547 233.73951261 -131.84063735 233.76582401 -141.55796689 233.80624419 C-149.07146798 233.83642307 -156.58490379 233.85121391 -164.09846431 233.85452431 C-168.5846177 233.85687302 -173.07052754 233.86580986 -177.55661583 233.89098549 C-181.77969068 233.91430194 -186.00236226 233.9184852 -190.22548485 233.90822411 C-191.7718083 233.90772948 -193.31815184 233.91402832 -194.86441422 233.92778015 C-202.88665318 233.99510961 -209.44462007 234.01798567 -216.3125 229.4375 C-218.37109375 227.40234375 -218.37109375 227.40234375 -219.75 225.375 C-220.45962891 224.36759766 -220.45962891 224.36759766 -221.18359375 223.33984375 C-223.44973673 219.52111838 -223.44601862 216.29090194 -223.46640015 211.94245911 C-223.4707824 211.27992132 -223.47516465 210.61738354 -223.4796797 209.93476886 C-223.49305588 207.71017179 -223.49924391 205.48561433 -223.50537109 203.26098633 C-223.51327305 201.66763124 -223.52154206 200.07427794 -223.53015137 198.48092651 C-223.5563627 193.24381212 -223.57167907 188.00668978 -223.5859375 182.76953125 C-223.59129772 180.96592389 -223.59667524 179.16231659 -223.60206985 177.35870934 C-223.62369812 169.85512008 -223.64243407 162.35153296 -223.65369225 154.84792042 C-223.66992644 144.098845 -223.70309188 133.35013134 -223.76009309 122.6011923 C-223.79881569 115.04098438 -223.81832773 107.48087312 -223.82361281 99.92056865 C-223.82726337 95.40640799 -223.83925283 90.89263326 -223.87171555 86.37858009 C-223.90183681 82.12918074 -223.90809376 77.88039999 -223.89633179 73.6309166 C-223.89611138 72.07490798 -223.90438906 70.51887033 -223.92198563 68.9629612 C-224.08561455 53.65623724 -224.08561455 53.65623724 -218.3125 47.4375 C-213.17568103 42.67654583 -209.45044988 41.14762242 -202.4375 41.125 C-201.24382812 41.10824219 -200.05015625 41.09148437 -198.8203125 41.07421875 C-192.47179484 41.7316933 -188.36759637 44.6354122 -184.3125 49.4375 C-180.44203013 55.37981721 -179.72783365 60.5406467 -179.76660156 67.52539062 C-179.75626389 68.50191589 -179.74592621 69.47844116 -179.73527527 70.48455811 C-179.70595724 73.68779259 -179.70435039 76.89039217 -179.703125 80.09375 C-179.68813597 82.324353 -179.67140731 84.55494493 -179.65301514 86.78552246 C-179.60941091 92.63802616 -179.58935773 98.49038014 -179.57427979 104.34301758 C-179.55468385 110.32251817 -179.51271656 116.30185769 -179.47265625 122.28125 C-179.39742903 133.99995023 -179.3470921 145.71861428 -179.3125 157.4375 C-178.52804316 156.64843419 -177.74358631 155.85936838 -176.93535805 155.04639149 C-157.83603812 135.83601118 -138.72226426 116.64010572 -119.59330177 97.45924091 C-110.34296407 88.18313569 -101.09735748 78.9024058 -91.86279297 69.6105957 C-83.81274681 61.51067077 -75.75391257 53.41961102 -67.68446004 45.33901757 C-63.41313658 41.0611831 -59.14630469 36.77907757 -54.88997269 32.4863224 C-50.88060726 28.44292755 -46.85956185 24.41152332 -42.82939911 20.3888607 C-41.35531775 18.91340794 -39.88549038 17.4336904 -38.42036819 15.94934082 C-15.82153288 -6.93133821 -15.82153288 -6.93133821 0 0 Z " fill="#FFFFFF" transform="translate(223.3125,278.5625)"/>
</svg>
