<?xml version="1.0" encoding="UTF-8"?>
<svg version="1.1" xmlns="http://www.w3.org/2000/svg" width="512" height="512">
<path d="M0 0 C7.3976822 5.39530206 10.80695606 12.05223984 12.59765625 20.89453125 C12.92374423 25.116477 12.88460662 29.28863658 12.78515625 33.51953125 C12.72328125 37.27328125 12.66140625 41.02703125 12.59765625 44.89453125 C26.12765625 44.89453125 39.65765625 44.89453125 53.59765625 44.89453125 C53.48013939 37.82030743 53.48013939 37.82030743 53.32739258 30.74682617 C53.249306 21.30002938 54.57349855 12.18282433 60.71484375 4.68359375 C68.62748564 -2.83505768 76.97736658 -4.67306191 87.5078125 -4.4375 C95.42989909 -3.99607211 100.65452633 -0.41684596 106.03515625 5.20703125 C113.18326094 13.28036035 112.99462154 21.64247202 112.78515625 31.89453125 C112.72328125 36.18453125 112.66140625 40.47453125 112.59765625 44.89453125 C126.45765625 44.89453125 140.31765625 44.89453125 154.59765625 44.89453125 C154.44037825 36.41364931 154.44037825 36.41364931 154.23730469 27.93383789 C154.14108408 17.590899 156.39819099 10.24923153 163.578125 2.69140625 C170.76602221 -3.70401487 178.34730919 -5.08851119 187.7421875 -4.59375 C195.6423971 -3.59321687 201.44808292 -0.16379031 206.59765625 5.89453125 C207.29890625 6.59578125 208.00015625 7.29703125 208.72265625 8.01953125 C213.82955625 15.85011124 214.01014264 25.0155442 213.78515625 34.08203125 C213.72328125 37.65015625 213.66140625 41.21828125 213.59765625 44.89453125 C227.12765625 44.89453125 240.65765625 44.89453125 254.59765625 44.89453125 C254.4799506 37.44618478 254.4799506 37.44618478 254.32739258 29.99853516 C254.24735828 19.85569376 255.99162684 11.76933256 262.55859375 3.875 C269.31175991 -2.68410966 276.67114634 -4.38256329 285.83642578 -4.34765625 C294.99906347 -4.17140931 299.95508648 -1.53032286 306.61328125 4.703125 C312.00400231 10.65626381 313.73396682 17.08717397 313.6953125 24.97265625 C313.69208984 26.1328125 313.68886719 27.29296875 313.68554688 28.48828125 C313.67716797 29.69484375 313.66878906 30.90140625 313.66015625 32.14453125 C313.65564453 33.3665625 313.65113281 34.58859375 313.64648438 35.84765625 C313.6347044 38.86333071 313.61825478 41.87890623 313.59765625 44.89453125 C314.96531128 44.86311035 314.96531128 44.86311035 316.3605957 44.83105469 C319.79559765 44.76222832 323.22985013 44.71242029 326.6652832 44.67480469 C328.14229003 44.65488638 329.61922009 44.62774118 331.09594727 44.59277344 C343.51184246 44.30647948 353.75116376 45.66985149 363.59375 53.91015625 C370.90013396 61.14532789 375.30856909 70.75194182 375.72530675 81.04844201 C375.72655325 82.24657237 375.72779974 83.44470274 375.72908401 84.67914009 C375.73113665 85.3518981 375.73318928 86.02465612 375.73530412 86.71780074 C375.74096702 88.97636516 375.73951775 91.23486846 375.73809814 93.49343872 C375.74068219 95.12746083 375.74369546 96.76148232 375.74710155 98.39550292 C375.75517023 102.8893974 375.75696105 107.3832759 375.75769901 111.87717676 C375.75954981 116.72261134 375.76709731 121.56803762 375.77383423 126.41346741 C375.78741739 137.01067825 375.79344231 147.6078853 375.79784489 158.2051034 C375.80060747 164.82235323 375.80484487 171.43960159 375.80934906 178.05685043 C375.82154196 196.37868979 375.83184107 214.70052797 375.83522415 233.02237129 C375.83544372 234.19507017 375.83566328 235.36776905 375.8358895 236.57600426 C375.83610778 237.75150806 375.83632606 238.92701186 375.83655095 240.13813698 C375.83699442 242.52015122 375.83744098 244.90216545 375.83789062 247.28417969 C375.83811205 248.46574083 375.83833348 249.64730197 375.83856162 250.864668 C375.84250912 270.0075546 375.85996156 289.15040312 375.88325015 308.29327501 C375.90696813 327.94779362 375.91942622 347.60229313 375.92059207 367.25682628 C375.92150861 378.2917538 375.92725551 389.32663171 375.94541168 400.36154556 C375.96081871 409.75871168 375.96592957 419.15581285 375.95767358 428.5529892 C375.95376916 433.34621633 375.95468655 438.13931272 375.96873093 442.93252373 C375.9814822 447.32464658 375.98026154 451.7165406 375.96814021 456.10866319 C375.96618534 457.69349253 375.96925193 459.27833816 375.97798458 460.86314465 C376.05038843 474.89700462 374.34948326 486.99813917 364.8515625 497.8984375 C354.61245468 507.75437704 342.50282188 508.62595552 329.06274414 508.52944946 C327.30376665 508.53521894 325.5447952 508.54316558 323.78583622 508.55308568 C318.97887939 508.5738688 314.17242185 508.56368282 309.36546373 508.54815459 C304.17108895 508.53680995 298.97679812 508.55431922 293.78244019 508.5680542 C283.61719431 508.59025791 273.4521333 508.58549816 263.28688025 508.57099099 C255.02352367 508.55968749 246.76021879 508.55817267 238.49685669 508.56361008 C236.73103669 508.56475932 236.73103669 508.56475932 234.92954355 508.56593179 C232.53786872 508.56753046 230.14619391 508.56915152 227.7545191 508.57079475 C205.34104537 508.58504386 182.92767397 508.56867264 160.51421702 508.54179291 C141.29295542 508.51945493 122.07184481 508.52333529 102.85058594 508.54638672 C80.51593637 508.57315949 58.18137644 508.58367064 35.84671307 508.5683254 C33.46396066 508.5667327 31.08120824 508.56516084 28.69845581 508.56361008 C26.94003195 508.56245301 26.94003195 508.56245301 25.14608437 508.56127257 C16.89506662 508.55696001 8.64410585 508.56423256 0.39309692 508.57600784 C-9.66561337 508.59004775 -19.72412863 508.58620142 -29.78281665 508.55960412 C-34.91247078 508.54648615 -40.04180002 508.54127924 -45.17145157 508.55784988 C-49.87190181 508.57280412 -54.57172756 508.56447121 -59.27212155 508.53796212 C-60.96778663 508.53240031 -62.66350502 508.53516564 -64.35913551 508.54734106 C-76.95418158 508.63080612 -88.17804441 507.02194932 -97.65625 497.8984375 C-107.75768819 486.30551179 -108.85163236 473.36284967 -108.78329468 458.57409668 C-108.78675619 456.93489378 -108.79152405 455.29569322 -108.79747641 453.65649748 C-108.80994831 449.17609822 -108.80383345 444.69589177 -108.79451776 440.21549201 C-108.78771194 435.37424426 -108.79821608 430.53302896 -108.80645752 425.69178772 C-108.8197807 416.21726455 -108.81692341 406.74281277 -108.8082196 397.26828682 C-108.8014379 389.56650147 -108.80052844 381.86473609 -108.80379105 374.16294861 C-108.80425075 373.06579654 -108.80471044 371.96864447 -108.80518407 370.83824536 C-108.80614327 368.60923627 -108.80711591 366.38022719 -108.80810185 364.15121812 C-108.8166516 343.26147662 -108.80682811 322.37177465 -108.79070075 301.48203963 C-108.77729795 283.56694543 -108.77962616 265.65190955 -108.79345703 247.73681641 C-108.80952016 226.92060591 -108.81582766 206.10443004 -108.80662024 185.28821421 C-108.80566462 183.06751411 -108.8047215 180.846814 -108.80379105 178.62611389 C-108.80332822 177.53355481 -108.80286539 176.44099574 -108.80238854 175.31532881 C-108.79980086 167.62491919 -108.80416488 159.93453158 -108.81122971 152.24412537 C-108.81965303 142.86905364 -108.81734702 133.49405724 -108.80138747 124.11899412 C-108.79351601 119.33788367 -108.790394 114.55689872 -108.80033493 109.77578926 C-108.8093056 105.39499705 -108.80431003 101.01444611 -108.78840227 96.63367563 C-108.7850645 95.05306789 -108.78672583 93.47243956 -108.79402964 91.89184517 C-108.85267805 78.1398311 -107.31457288 65.73761087 -97.80859375 55.11328125 C-90.1139549 47.99936986 -81.32692777 44.75594163 -71.01171875 44.796875 C-69.95479828 44.79899742 -69.95479828 44.79899742 -68.87652588 44.80116272 C-66.63508791 44.80674192 -64.39375132 44.81929052 -62.15234375 44.83203125 C-60.6289077 44.83704894 -59.10547007 44.84161138 -57.58203125 44.84570312 C-53.85543603 44.85670451 -50.12889979 44.87395479 -46.40234375 44.89453125 C-46.42329102 44.15928223 -46.44423828 43.4240332 -46.46582031 42.66650391 C-46.54977704 39.2843229 -46.60125461 35.90236213 -46.65234375 32.51953125 C-46.68585938 31.36324219 -46.719375 30.20695312 -46.75390625 29.015625 C-46.87423931 18.36614891 -44.64018173 10.41527653 -37.26953125 2.5859375 C-27.02084002 -6.69791878 -11.61715313 -6.67634507 0 0 Z M-28.40234375 18.89453125 C-29.47057388 22.09922165 -29.54844759 24.44555935 -29.5793457 27.81542969 C-29.59218094 29.03389587 -29.60501617 30.25236206 -29.61824036 31.50775146 C-29.62562729 32.82648254 -29.63301422 34.14521362 -29.640625 35.50390625 C-29.64470053 36.17643684 -29.64877605 36.84896744 -29.65297508 37.54187775 C-29.67381857 41.10311066 -29.68812645 44.66430527 -29.69750977 48.22558594 C-29.70855772 51.89188537 -29.74294281 55.55757512 -29.78268147 59.22365952 C-29.80891206 62.05309119 -29.81720734 64.88237914 -29.82079124 67.71192169 C-29.82799081 69.71654423 -29.85440331 71.72106827 -29.88117981 73.7255249 C-29.86476144 80.63435235 -29.71375299 85.35229066 -25.40234375 90.89453125 C-22.57951841 92.8251142 -19.79418878 93.53930424 -16.40234375 93.89453125 C-11.13268942 92.51232684 -8.35801498 90.44171775 -5.40234375 85.89453125 C-4.34807577 82.7317273 -4.26299935 80.46365718 -4.24121094 77.14135742 C-4.23160339 75.95970505 -4.22199585 74.77805267 -4.21209717 73.56059265 C-4.20784729 72.28247208 -4.20359741 71.0043515 -4.19921875 69.6875 C-4.19066864 67.71756828 -4.19066864 67.71756828 -4.1819458 65.70783997 C-4.17144537 62.92623508 -4.16559669 60.14465902 -4.16210938 57.36303711 C-4.15663156 53.80884606 -4.13261528 50.25503944 -4.10413742 46.70096874 C-4.08096504 43.30065345 -4.07905822 39.90039014 -4.07421875 36.5 C-4.06187195 35.22795212 -4.04952515 33.95590424 -4.0368042 32.64530945 C-4.0398053 31.45420059 -4.0428064 30.26309174 -4.04589844 29.03588867 C-4.04225281 27.9923674 -4.03860718 26.94884613 -4.03485107 25.873703 C-4.60545093 21.24799187 -6.44578308 17.96362847 -9.52734375 14.51953125 C-16.89063492 10.35767102 -23.23228878 12.57044615 -28.40234375 18.89453125 Z M72.59765625 17.89453125 C70.94408013 21.96166139 70.34322882 25.41576457 70.32299805 29.78881836 C70.31346603 30.92697495 70.30393402 32.06513153 70.29411316 33.23777771 C70.29502457 34.45352982 70.29593597 35.66928192 70.296875 36.921875 C70.29258987 38.18415421 70.28830475 39.44643341 70.28388977 40.7469635 C70.27815498 43.41242462 70.27670084 46.07749741 70.28198242 48.74291992 C70.28777539 52.1433922 70.27083905 55.54331949 70.24763775 58.94370174 C70.22928735 62.20725498 70.2330871 65.47077951 70.234375 68.734375 C70.22516525 69.94810287 70.21595551 71.16183075 70.20646667 72.41233826 C70.24748813 79.9287486 70.44089545 85.65245259 75.91015625 91.26953125 C79.03702899 93.16019849 80.93761162 93.82133036 84.59765625 93.89453125 C89.06484416 92.58518307 92.2710425 91.07875963 94.7902832 87.0480957 C96.7398218 81.84795058 96.16578108 76.00253204 96.12890625 70.51953125 C96.1316041 69.10758192 96.13548896 67.69563441 96.14050293 66.28369141 C96.14638436 63.33152493 96.1378797 60.37984417 96.11914062 57.42773438 C96.09635087 53.6548089 96.10948139 49.88302171 96.13343048 46.11013794 C96.1479258 43.19660965 96.14326562 40.28334861 96.13291931 37.36981201 C96.13026228 35.97922631 96.13348561 34.58861588 96.14283752 33.19805908 C96.44403574 23.1665423 96.44403574 23.1665423 91.59765625 14.89453125 C84.86959905 10.30721952 77.68233419 12.18977063 72.59765625 17.89453125 Z M174.59765625 15.89453125 C171.7889528 19.76728577 171.21677062 22.49208328 171.19360352 27.24194336 C171.18091934 28.50352768 171.16823517 29.765112 171.15516663 31.06492615 C171.15721828 32.43391077 171.16020649 33.80289427 171.1640625 35.171875 C171.15949784 36.5852534 171.15419141 37.99862958 171.1481781 39.41200256 C171.13925787 42.37005649 171.1416573 45.32784028 171.15161133 48.28588867 C171.16309744 52.06664899 171.14289087 55.8464748 171.11369419 59.62711239 C171.09530001 62.5449053 171.09563099 65.4624756 171.10133171 68.38031197 C171.10148455 69.77370069 171.09547131 71.16710487 171.08304024 72.56043816 C170.72901349 82.62601076 170.72901349 82.62601076 175.59765625 90.89453125 C179.4543992 93.26791153 182.29013606 94.26826608 186.72265625 93.45703125 C191.18604566 92.06168039 193.0528031 89.75036935 195.59765625 85.89453125 C196.6831359 82.66509815 196.73563893 79.61901176 196.75878906 76.22729492 C196.76839661 75.08898727 196.77800415 73.95067963 196.78790283 72.77787781 C196.79427765 70.93876579 196.79427765 70.93876579 196.80078125 69.0625 C196.80933136 67.16483635 196.80933136 67.16483635 196.8180542 65.22883606 C196.82750091 62.55152797 196.83439949 59.87433187 196.83789062 57.19702148 C196.84336772 53.78083426 196.86738713 50.36504712 196.89586258 46.9489851 C196.91906461 43.67435409 196.92094358 40.39970168 196.92578125 37.125 C196.93812805 35.90499802 196.95047485 34.68499603 196.9631958 33.42802429 C196.94334815 25.83733197 196.62348701 20.36533712 191.47265625 14.45703125 C185.8885867 11.42221084 179.52502053 11.69177936 174.59765625 15.89453125 Z M273.59765625 17.89453125 C271.73331801 21.64936577 271.34152465 24.70614835 271.32299805 28.87475586 C271.31346603 30.05625717 271.30393402 31.23775848 271.29411316 32.45506287 C271.29502457 33.72286087 271.29593597 34.99065887 271.296875 36.296875 C271.29258987 37.60733292 271.28830475 38.91779083 271.28388977 40.26795959 C271.2764436 43.03764906 271.27670716 45.80721103 271.28198242 48.5769043 C271.2877757 52.11537897 271.27084239 55.65332996 271.24763775 59.1917181 C271.22931056 62.58095853 271.23308664 65.97008535 271.234375 69.359375 C271.22516525 70.62514877 271.21595551 71.89092255 271.20646667 73.1950531 C271.21269547 74.37970657 271.21892426 75.56436005 271.2253418 76.78491211 C271.22471237 77.82240097 271.22408295 78.85988983 271.22343445 79.92881775 C271.8149841 84.61685775 273.59043955 87.88731455 276.91015625 91.20703125 C280.08573808 93.20100124 281.8336609 93.89453125 285.59765625 93.89453125 C289.96629798 92.55736144 292.82459312 91.20716898 295.18789673 87.1943512 C296.68353398 83.6935175 296.9774271 81.38341383 296.98583984 77.60131836 C296.99529633 76.37662338 297.00475281 75.15192841 297.01449585 73.89012146 C297.00842316 72.58060013 297.00235046 71.2710788 296.99609375 69.921875 C296.99811708 68.55237168 297.00103068 67.18286941 297.00479126 65.81336975 C297.00920099 62.95123986 297.0028266 60.0893919 296.98876953 57.22729492 C296.97166176 53.56653678 296.98153677 49.9064378 296.99948692 46.2457037 C297.01034778 43.42060921 297.00686825 40.59567002 296.99910355 37.77057076 C296.99614204 35.76704096 297.00521923 33.76350502 297.01449585 31.75999451 C297.00503937 30.53845169 296.99558289 29.31690887 296.98583984 28.05834961 C296.98345306 26.98612656 296.98106628 25.9139035 296.97860718 24.80918884 C296.40262849 20.4023728 294.42897549 17.79920219 291.47265625 14.58203125 C284.58270228 10.53792783 278.74325943 12.246918 273.59765625 17.89453125 Z M-87.27734375 69.76953125 C-98.70358867 86.57283261 -91.40234375 126.5157223 -91.40234375 134.89453125 C57.09765625 134.89453125 205.59765625 134.89453125 358.59765625 134.89453125 C362.80735056 104.7056878 362.80735056 104.7056878 352.78515625 68.08203125 C352.09486328 67.26798828 352.09486328 67.26798828 351.390625 66.4375 C346.74849147 62.44263564 342.46006816 61.52450033 336.44921875 61.6015625 C335.79182709 61.60580734 335.13443542 61.61005219 334.4571228 61.61442566 C332.37853234 61.63108148 330.30094851 61.66870505 328.22265625 61.70703125 C326.80470161 61.7220952 325.38673161 61.7357806 323.96875 61.74804688 C320.51139735 61.78094087 317.05462522 61.8326296 313.59765625 61.89453125 C313.5836377 62.95196533 313.5836377 62.95196533 313.56933594 64.03076172 C313.51508763 67.27768277 313.43154901 70.52324613 313.34765625 73.76953125 C313.33347656 74.878125 313.31929688 75.98671875 313.3046875 77.12890625 C313.02513291 86.63376246 311.11589279 95.2544271 304.4140625 102.359375 C297.04614111 108.58645695 288.68378318 110.45304372 279.21875 109.70703125 C272.23843884 108.54162278 266.39470847 105.1278758 261.76953125 99.78125 C255.78652141 91.37308812 255.27502216 82.92562769 254.97265625 72.89453125 C254.84890625 69.26453125 254.72515625 65.63453125 254.59765625 61.89453125 C241.06765625 61.89453125 227.53765625 61.89453125 213.59765625 61.89453125 C213.49453125 65.29765625 213.39140625 68.70078125 213.28515625 72.20703125 C212.80304444 83.77686897 212.22441014 94.30681245 203.59765625 102.89453125 C196.92116649 108.41601645 189.72164759 110.22995972 181.16015625 109.83203125 C172.30026447 108.74158303 165.87221468 104.93573003 160.0703125 98.25 C155.26210099 90.55941236 155.08186637 83.25455099 154.91015625 74.39453125 C154.80703125 70.26953125 154.70390625 66.14453125 154.59765625 61.89453125 C140.73765625 61.89453125 126.87765625 61.89453125 112.59765625 61.89453125 C112.42776028 70.0454358 112.42776028 70.0454358 112.29980469 78.19702148 C111.99919481 88.34260496 109.5653885 95.71249497 102.5703125 103.16796875 C96.31455071 108.64330877 88.72464445 109.97697896 80.59765625 109.89453125 C72.86299263 109.29858176 66.2118271 105.88682703 60.9921875 100.12109375 C54.70271411 91.67364855 54.43663265 82.70877714 54.03515625 72.51953125 C53.89078125 69.01328125 53.74640625 65.50703125 53.59765625 61.89453125 C40.06765625 61.89453125 26.53765625 61.89453125 12.59765625 61.89453125 C12.38874115 69.01304537 12.38874115 69.01304537 12.2097168 76.13232422 C11.8370719 86.3614719 9.9733073 95.40207124 2.59765625 102.89453125 C-4.06877918 108.42176569 -11.28589284 110.22960925 -19.83984375 109.83203125 C-28.65890467 108.74660837 -35.09286774 104.94455328 -40.9296875 98.34765625 C-45.57279276 90.61325279 -45.91126533 82.67421433 -46.08984375 73.83203125 C-46.12400391 72.68025391 -46.15816406 71.52847656 -46.19335938 70.34179688 C-46.27514196 67.52613915 -46.3445175 64.71076554 -46.40234375 61.89453125 C-50.52808181 61.76991556 -54.65307506 61.67972221 -58.78027344 61.61987305 C-60.18085844 61.59489713 -61.58131536 61.56090308 -62.98144531 61.51733398 C-73.25636616 61.2058617 -80.07933522 62.06214493 -87.27734375 69.76953125 Z M-91.40234375 151.89453125 C-91.46421875 204.69453125 -91.52609375 257.49453125 -91.58984375 311.89453125 C-91.61715576 328.58015625 -91.64446777 345.26578125 -91.67260742 362.45703125 C-91.68263932 377.38452055 -91.68263932 377.38452055 -91.68867493 392.31201172 C-91.69147536 398.9725257 -91.70249179 405.63296441 -91.71907043 412.29345703 C-91.73815962 419.97391122 -91.74685317 427.65429307 -91.7426786 435.33477116 C-91.74087045 439.26410758 -91.74374777 443.19328231 -91.75998914 447.12258911 C-91.77727654 451.33053224 -91.77132823 455.53812323 -91.7631073 459.74609375 C-91.77184529 460.97143326 -91.78058329 462.19677277 -91.78958607 463.45924377 C-91.74123412 472.64331116 -90.38729265 479.50683355 -84.0078125 486.421875 C-78.11412365 491.82800808 -70.92562512 492.01881667 -63.31451607 492.0231657 C-62.62113331 492.02491874 -61.92775055 492.02667178 -61.2133562 492.02847794 C-58.89068132 492.03312865 -56.56806931 492.03067483 -54.24539185 492.02824402 C-52.56299599 492.03011245 -50.88060056 492.03241329 -49.19820583 492.03510934 C-44.57535977 492.04122964 -39.95253178 492.04109348 -35.32968259 492.03991497 C-30.34390054 492.03971102 -25.35812431 492.04522911 -20.37234497 492.04997253 C-10.60472447 492.05828072 -0.83711001 492.06102744 8.93051372 492.06158491 C16.86890013 492.06205996 24.80728454 492.06411412 32.74567032 492.06728554 C55.24740872 492.07609227 77.74914235 492.08070484 100.25088249 492.07995506 C102.07068247 492.07989513 102.07068247 492.07989513 103.92724609 492.07983398 C105.7492651 492.07977266 105.7492651 492.07977266 107.60809256 492.0797101 C127.29935439 492.07930354 146.9905971 492.0888756 166.6818534 492.10297235 C186.89574516 492.1173292 207.1096276 492.12424293 227.32352459 492.12337857 C238.67411489 492.12304638 250.02468514 492.12580315 261.37527084 492.13655663 C271.03818921 492.1456525 280.70107845 492.14784437 290.36399923 492.1410472 C295.29455118 492.13777749 300.22504721 492.1377416 305.15559387 492.14640045 C309.66960568 492.15424633 314.18351705 492.15285361 318.69752635 492.14411632 C320.33004964 492.14257712 321.96258036 492.14441326 323.5950949 492.1499764 C338.52715134 492.41172826 338.52715134 492.41172826 351.59765625 485.89453125 C359.27675294 478.04090964 358.88757656 470.28455957 358.83816528 459.86634827 C358.83987732 458.55271805 358.84158936 457.23908783 358.84335327 455.88565063 C358.84782964 452.24302915 358.83982545 448.6005257 358.82980171 444.9579192 C358.8210586 440.96816218 358.82399158 436.97841048 358.82543755 432.98864651 C358.82650023 425.24636756 358.81727176 417.50413507 358.80443489 409.76186806 C358.79002916 400.8050673 358.78844507 391.84829439 358.78686523 382.89147949 C358.77636658 359.24665606 358.74844432 335.60184295 358.72265625 311.95703125 C358.68140625 259.13640625 358.64015625 206.31578125 358.59765625 151.89453125 C210.09765625 151.89453125 61.59765625 151.89453125 -91.40234375 151.89453125 Z " fill="#017260" transform="translate(122.40234375,4.10546875)"/>
<path d="M0 0 C1.02024106 0.93269987 2.03852162 1.86754943 3.0546875 2.8046875 C4.00085938 3.66835937 4.94703125 4.53203125 5.921875 5.421875 C16.1850416 15.21985558 23.92019934 26.21030124 30.39453125 38.8046875 C31.07316223 40.10986328 31.07316223 40.10986328 31.76550293 41.44140625 C32.86638716 43.56022639 33.96267368 45.6812861 35.0546875 47.8046875 C35.81588394 47.80833313 36.57708038 47.81197876 37.36134338 47.81573486 C44.55564067 47.85369436 51.74942465 47.91063619 58.94339085 47.98859024 C62.64139573 48.02800076 66.33916481 48.06022028 70.03735352 48.07568359 C73.61030255 48.09089321 77.18260302 48.12541309 80.75526237 48.17299652 C82.11426067 48.18776636 83.47335159 48.19572599 84.83242989 48.19657135 C98.40835418 48.21349948 98.40835418 48.21349948 104.0546875 52.8046875 C108.53673977 58.335633 107.60678743 64.89190942 107.6171875 71.6796875 C107.67229492 73.56107422 107.67229492 73.56107422 107.72851562 75.48046875 C107.76050741 82.1987439 107.59442984 86.76564925 102.73803711 91.67236328 C100.86101879 92.93496096 99.26677163 93.39583167 97.0546875 93.8046875 C97.0861084 94.77124268 97.0861084 94.77124268 97.11816406 95.75732422 C97.20229748 98.73128082 97.25365095 101.70498592 97.3046875 104.6796875 C97.33820313 105.69289063 97.37171875 106.70609375 97.40625 107.75 C97.5039857 115.37338453 96.60535928 122.76187949 91.39013672 128.69995117 C89.38286126 130.57846363 87.27238538 132.17683794 85.0546875 133.8046875 C84.46026855 134.24522461 83.86584961 134.68576172 83.25341797 135.13964844 C79.93455043 137.59837137 76.60127276 140.03487939 73.25 142.44921875 C70.14306857 144.61657359 70.14306857 144.61657359 68.0546875 146.8046875 C68.22542368 149.83563791 68.62803056 151.35178146 70.7253418 153.578125 C71.43601807 154.10664063 72.14669434 154.63515625 72.87890625 155.1796875 C73.66072266 155.77265625 74.44253906 156.365625 75.24804688 156.9765625 C76.07111328 157.57984375 76.89417969 158.183125 77.7421875 158.8046875 C79.35089029 160.01218213 80.95897551 161.22050002 82.56640625 162.4296875 C83.3349292 163.00468994 84.10345215 163.57969238 84.89526367 164.17211914 C91.09783713 168.8613909 95.46137238 172.85342358 97.0546875 180.8046875 C97.13459854 182.61050505 97.16238573 184.41900559 97.15234375 186.2265625 C97.14912109 187.25136719 97.14589844 188.27617187 97.14257812 189.33203125 C97.13419922 190.39550781 97.12582031 191.45898438 97.1171875 192.5546875 C97.11267578 193.63363281 97.10816406 194.71257812 97.10351562 195.82421875 C97.09174477 198.48443133 97.07530149 201.14453115 97.0546875 203.8046875 C97.82232422 204.08771729 98.58996094 204.37074707 99.38085938 204.66235352 C103.12705171 206.26283141 105.36531927 208.13336468 107.0546875 211.8046875 C107.73612714 216.34033162 107.66152417 220.79020742 107.5546875 225.3671875 C107.55726563 226.58599609 107.55984375 227.80480469 107.5625 229.06054688 C107.45226347 239.10860683 107.45226347 239.10860683 104.0546875 243.8046875 C100.06749763 247.3056347 97.76130318 248.92498354 92.4887085 248.95185852 C91.52700241 248.95901382 90.56529633 248.96616913 89.57444763 248.97354126 C88.51572952 248.97623016 87.45701141 248.97891907 86.36621094 248.98168945 C85.25389603 248.98826065 84.14158112 248.99483185 82.99555969 249.00160217 C79.30172667 249.02136914 75.60793437 249.03300539 71.9140625 249.04296875 C70.65464088 249.04704428 69.39521927 249.0511198 68.09763336 249.05531883 C62.11967955 249.07403986 56.14175051 249.08860214 50.16377521 249.0969308 C43.26716853 249.10669822 36.37088325 249.13300348 29.47438979 249.17343169 C23.49857717 249.20725812 17.52292026 249.21907814 11.5470047 249.22313499 C9.00647045 249.22801183 6.4659399 249.23965679 3.92546844 249.25817299 C0.37029848 249.2824739 -3.18403053 249.28161541 -6.73925781 249.2746582 C-8.31518959 249.29387329 -8.31518959 249.29387329 -9.92295837 249.31347656 C-15.92793472 249.27062139 -19.36298647 248.79189534 -23.9453125 244.8046875 C-27.03697985 241.28658328 -28.03194717 238.2024748 -28.26171875 233.57421875 C-28.32456055 232.37055664 -28.32456055 232.37055664 -28.38867188 231.14257812 C-28.42798828 230.30919922 -28.46730469 229.47582031 -28.5078125 228.6171875 C-28.55099609 227.77220703 -28.59417969 226.92722656 -28.63867188 226.05664062 C-28.74462768 223.97284317 -28.8454627 221.88878647 -28.9453125 219.8046875 C-29.80769531 220.17980469 -30.67007813 220.55492187 -31.55859375 220.94140625 C-65.69508637 235.40972755 -102.30621626 236.80162279 -137.02734375 223.2421875 C-152.04290897 217.11309036 -165.05412054 208.80180488 -176.9453125 197.8046875 C-177.72068359 197.09505859 -177.72068359 197.09505859 -178.51171875 196.37109375 C-201.49362433 175.117151 -217.44301001 144.00860355 -219.12231445 112.48168945 C-219.4125733 96.19365817 -219.41221618 80.61686585 -214.9453125 64.8046875 C-214.67243408 63.80211914 -214.67243408 63.80211914 -214.39404297 62.77929688 C-205.33458887 30.29803696 -182.4025971 1.97980292 -153.40234375 -14.890625 C-104.97501242 -41.97794552 -41.88796484 -37.44637943 0 0 Z M-174.3359375 24.34716797 C-196.28812569 49.92308134 -203.66997146 80.68279683 -201.9453125 113.8046875 C-200.20239177 135.92536564 -189.4772021 158.26547463 -174.9453125 174.8046875 C-174.28273438 175.61035156 -173.62015625 176.41601562 -172.9375 177.24609375 C-153.36138151 200.32568732 -123.70839374 213.23452803 -93.9453125 215.8046875 C-70.03605951 217.39306445 -47.19611919 210.8082877 -26.69824219 198.81396484 C-25.20659935 197.95512759 -23.67669314 197.1633103 -22.140625 196.38671875 C-19.76632202 195.01367877 -18.4315114 194.11603153 -16.9453125 191.8046875 C-16.30780445 188.22351812 -16.13192628 184.8781633 -16.17578125 181.2421875 C-15.74169108 174.76762227 -12.66831344 171.01018903 -7.9453125 166.8046875 C-5.30494156 164.69716462 -2.604613 162.68049777 0.1171875 160.6796875 C0.82423828 160.15503906 1.53128906 159.63039063 2.25976562 159.08984375 C3.2894043 158.32607422 3.2894043 158.32607422 4.33984375 157.546875 C4.98920898 157.06460449 5.63857422 156.58233398 6.30761719 156.08544922 C7.69112781 155.07120988 9.09765358 154.08837376 10.51171875 153.1171875 C12.35647485 151.81687937 12.35647485 151.81687937 12.6796875 148.9296875 C11.77316082 144.39705408 9.83067869 143.37236151 6.0546875 140.8046875 C5.3946875 140.8046875 4.7346875 140.8046875 4.0546875 140.8046875 C3.714375 141.54332031 3.3740625 142.28195312 3.0234375 143.04296875 C-9.22255257 168.67486818 -29.12067943 185.62869953 -55.609375 195.1171875 C-83.04580332 203.54010906 -110.3391376 200.39842182 -135.6328125 187.5546875 C-159.1386322 174.34360025 -175.78018488 153.3729431 -183.27636719 127.49951172 C-190.24642329 100.7233035 -186.5473083 72.99702757 -172.87890625 49.1171875 C-164.90976268 35.81419438 -154.5735382 25.67470228 -141.9453125 16.8046875 C-141.16027344 16.24136719 -140.37523437 15.67804688 -139.56640625 15.09765625 C-117.35192707 0.45541693 -88.75198069 -1.93352577 -63.28515625 3.25683594 C-44.54655208 7.6442971 -24.12391082 18.60838341 -11.9453125 33.8046875 C-11.17903958 35.05317194 -10.42504146 36.30922763 -9.6796875 37.5703125 C-5.54189838 44.96972265 -5.54189838 44.96972265 1.21337891 49.484375 C6.2376856 50.10780605 11.07628355 49.59259434 16.0546875 48.8046875 C2.63872641 22.07798855 -20.69401069 0.80095303 -49.13525391 -8.94580078 C-94.43422008 -23.37551669 -142.30638143 -11.17999763 -174.3359375 24.34716797 Z M-149.625 44.859375 C-166.12099137 64.59946556 -171.46377209 86.46512115 -169.9453125 111.8046875 C-168.17121693 127.41931369 -160.63088928 143.39011267 -149.9453125 154.8046875 C-148.72908203 156.15626953 -148.72908203 156.15626953 -147.48828125 157.53515625 C-131.44121657 174.56900968 -110.27070236 183.41387443 -86.9453125 184.1796875 C-63.78960487 183.41944539 -44.6643314 174.77680865 -27.9453125 158.8046875 C-27.00558594 157.97710937 -27.00558594 157.97710937 -26.046875 157.1328125 C-18.96765346 150.66221182 -13.81092802 141.50232242 -9.9453125 132.8046875 C-9.9453125 131.4846875 -9.9453125 130.1646875 -9.9453125 128.8046875 C-10.6053125 128.8046875 -11.2653125 128.8046875 -11.9453125 128.8046875 C-14.55994204 123.76218768 -16.19233781 119.81690168 -16.078125 114.05859375 C-16.08070313 112.97384766 -16.08328125 111.88910156 -16.0859375 110.77148438 C-16.07553771 108.50563032 -16.04175362 106.23976068 -15.984375 103.97460938 C-15.86783342 97.91586272 -15.86783342 97.91586272 -18.71386719 92.85888672 C-20.82101931 91.30634489 -20.82101931 91.30634489 -23.03076172 90.16381836 C-25.60255788 88.338112 -26.09088036 86.8153363 -26.9453125 83.8046875 C-27.37969146 79.66713666 -27.31554121 75.52536505 -27.3203125 71.3671875 C-27.34480469 70.24763672 -27.36929688 69.12808594 -27.39453125 67.97460938 C-27.41739193 61.55456744 -27.22213444 57.69361964 -22.9453125 52.8046875 C-22.2853125 51.8146875 -21.6253125 50.8246875 -20.9453125 49.8046875 C-23.24796931 47.1100891 -25.58820909 44.45175204 -27.9453125 41.8046875 C-28.450625 41.21945312 -28.9559375 40.63421875 -29.4765625 40.03125 C-43.50630198 24.78464537 -64.04313482 18.31643507 -84.08984375 16.5234375 C-108.48519568 15.72249571 -133.64246205 26.37152669 -149.625 44.859375 Z M-10.9453125 65.8046875 C-10.9453125 69.7646875 -10.9453125 73.7246875 -10.9453125 77.8046875 C22.3846875 77.8046875 55.7146875 77.8046875 90.0546875 77.8046875 C90.0546875 73.8446875 90.0546875 69.8846875 90.0546875 65.8046875 C56.7246875 65.8046875 23.3946875 65.8046875 -10.9453125 65.8046875 Z M0.0546875 94.8046875 C-2.04746793 114.02088901 -2.04746793 114.02088901 3.7109375 120.671875 C6.04021201 122.32232844 6.04021201 122.32232844 8.5546875 123.6796875 C10.14998567 124.71637149 11.74374636 125.75542538 13.3359375 126.796875 C14.12025146 127.28051514 14.90456543 127.76415527 15.71264648 128.26245117 C20.82368573 131.62807558 26.6837471 135.55929235 28.0546875 141.8046875 C29.27050403 147.88377016 29.32585902 152.97016804 27.0546875 158.8046875 C22.59564375 165.26580099 16.51683705 169.76064061 10.1796875 174.2421875 C8.47367261 175.46965506 6.76792822 176.6974987 5.0625 177.92578125 C4.31629395 178.4561499 3.57008789 178.98651855 2.80126953 179.53295898 C1.11876338 180.68880738 1.11876338 180.68880738 0.0546875 181.8046875 C0.0546875 188.7346875 0.0546875 195.6646875 0.0546875 202.8046875 C26.4546875 202.8046875 52.8546875 202.8046875 80.0546875 202.8046875 C82.0546875 184.63802083 82.0546875 184.63802083 77.0546875 178.8046875 C75.41114177 177.76712536 73.73894635 176.77476477 72.0546875 175.8046875 C69.99642183 174.35803601 67.97879332 172.8651227 65.96484375 171.35742188 C64.55277185 170.3015598 63.12858124 169.26166466 61.69140625 168.24023438 C56.49612818 164.47140549 53.13091403 161.0333671 51.0546875 154.8046875 C50.39157941 147.46701598 50.2221609 140.70444702 55.0546875 134.8046875 C58.5196542 131.52270882 62.23295529 128.65773349 66.0546875 125.8046875 C67.16042018 124.9717044 68.26588598 124.13836692 69.37109375 123.3046875 C71.44644573 121.74231268 73.53013328 120.19405323 75.62109375 118.65234375 C78.0700446 116.87972858 78.0700446 116.87972858 80.0546875 114.8046875 C80.0546875 108.2046875 80.0546875 101.6046875 80.0546875 94.8046875 C53.6546875 94.8046875 27.2546875 94.8046875 0.0546875 94.8046875 Z M-10.9453125 219.8046875 C-10.9453125 223.7646875 -10.9453125 227.7246875 -10.9453125 231.8046875 C22.3846875 231.8046875 55.7146875 231.8046875 90.0546875 231.8046875 C90.0546875 227.8446875 90.0546875 223.8846875 90.0546875 219.8046875 C56.7246875 219.8046875 23.3946875 219.8046875 -10.9453125 219.8046875 Z " fill="#017260" transform="translate(311.9453125,217.1953125)"/>
<path d="M0 0 C2.8493293 2.02650878 4.72243982 3.6252149 5.4347229 7.15322876 C5.57920591 9.82044155 5.56184937 12.44313896 5.48828125 15.11328125 C5.48120651 16.08283249 5.47413177 17.05238373 5.46684265 18.05131531 C5.43891874 21.13917137 5.37618303 24.22519475 5.3125 27.3125 C5.28741458 29.40947897 5.26460184 31.50648644 5.24414062 33.60351562 C5.18909838 38.73638009 5.10283859 43.86787964 5 49 C6.96005981 48.96072388 6.96005981 48.96072388 8.9597168 48.9206543 C13.81435988 48.83005676 18.66892845 48.77271555 23.52416992 48.7253418 C25.6242327 48.70021949 27.72420823 48.66611542 29.82397461 48.62280273 C32.8451084 48.56205129 35.86508496 48.53376737 38.88671875 48.51171875 C39.82335861 48.48591232 40.75999847 48.4601059 41.72502136 48.43351746 C46.28902211 48.43155999 48.34015324 48.50682067 52.09301758 51.31176758 C54 54 54 54 54.625 57.5 C53.79951508 62.12271554 52.82583272 63.25343354 49 66 C44.88798301 66.74435396 40.8253331 66.6764925 36.65625 66.62890625 C34.85347595 66.63252419 34.85347595 66.63252419 33.01428223 66.63621521 C30.47579648 66.63523665 27.93728942 66.62184127 25.39892578 66.59692383 C21.51391078 66.56262282 17.63117089 66.57626544 13.74609375 66.59570312 C11.27863615 66.58880458 8.81118442 66.57913212 6.34375 66.56640625 C5.18218384 66.57136612 4.02061768 66.57632599 2.82385254 66.58143616 C-5.19358528 66.46437561 -5.19358528 66.46437561 -9.20898438 64.15209961 C-11.96472449 60.84077885 -12.12966407 58.12259463 -12.16113281 53.96533203 C-12.17554413 52.42826096 -12.17554413 52.42826096 -12.19024658 50.86013794 C-12.19449646 49.75387054 -12.19874634 48.64760315 -12.203125 47.5078125 C-12.21167511 45.80067581 -12.21167511 45.80067581 -12.22039795 44.05905151 C-12.22984879 41.64989146 -12.23638226 39.24071848 -12.24023438 36.83154297 C-12.24994314 33.14658063 -12.28096781 29.46217523 -12.3125 25.77734375 C-12.31902977 23.43750331 -12.32428034 21.09765889 -12.328125 18.7578125 C-12.3466452 17.1044841 -12.3466452 17.1044841 -12.36553955 15.41775513 C-12.36253845 14.38673676 -12.35953735 13.35571838 -12.35644531 12.29345703 C-12.36009094 11.38983429 -12.36373657 10.48621155 -12.36749268 9.5552063 C-11.9151545 6.41006234 -10.85838439 4.56027648 -9 2 C-5.48175489 -0.34549674 -4.14224306 -0.57991403 0 0 Z " fill="#017361" transform="translate(228,260)"/>
</svg>
