<?xml version="1.0" encoding="UTF-8"?>
<svg version="1.1" xmlns="http://www.w3.org/2000/svg" width="512" height="512">
<path d="M0 0 C1.70762931 -0.00599321 3.41525592 -0.01280056 5.12287903 -0.02035522 C9.73406044 -0.03792992 14.34516751 -0.04270665 18.95637918 -0.0439868 C21.83932208 -0.04541243 24.72224631 -0.04968956 27.60518456 -0.05498123 C37.66746591 -0.07344475 47.72969445 -0.08165541 57.79199219 -0.08007812 C67.16708356 -0.07887384 76.5419458 -0.10004174 85.91697913 -0.13156545 C93.97665117 -0.15769957 102.03624813 -0.16844681 110.09596223 -0.16716731 C114.90550615 -0.16665735 119.71484567 -0.17236082 124.52434731 -0.19352341 C129.04135368 -0.21286056 133.55795942 -0.21306149 138.07497978 -0.19849014 C139.73221547 -0.19639615 141.38947598 -0.20113801 143.04666901 -0.21321106 C145.3088328 -0.22862523 147.56960792 -0.21938294 149.83174133 -0.20394897 C151.73004936 -0.20558328 151.73004936 -0.20558328 153.66670704 -0.2072506 C159.54724495 0.67851113 162.5032573 4.68925318 166.03393555 9.16552734 C169.59970885 13.61532764 173.24424086 17.97516977 176.97143555 22.29052734 C180.58211792 26.48176195 184.15752432 30.69445095 187.65893555 34.97802734 C188.3449223 35.79242751 189.03090906 36.60682768 189.7376833 37.44590664 C191.97143555 40.29052734 191.97143555 40.29052734 193.63502026 43.17067814 C196.07694754 47.03536106 198.4226266 50.4936658 202.97053742 51.91552806 C209.14249195 52.94878519 215.39723709 52.68614446 221.63085938 52.56762695 C223.74077431 52.56783837 225.85069358 52.57295132 227.96058655 52.58258057 C232.49399922 52.59271969 237.02541682 52.56821313 241.55854225 52.51649284 C248.73327272 52.43471266 255.90683505 52.42955447 263.08195496 52.43421936 C274.43629177 52.43239687 285.7896862 52.37807547 297.14374512 52.30195194 C317.46136825 52.1671854 337.77926016 52.11650934 358.09728831 52.0925141 C365.22193906 52.08196143 372.34592792 52.04695764 379.47036517 51.99135101 C383.91224983 51.95993881 388.35409619 51.94463348 392.79607201 51.93292236 C394.84709379 51.92391703 396.89809941 51.90797596 398.94900513 51.8843708 C416.12700656 51.69156708 428.92894447 53.98519051 442.09643555 65.79052734 C448.87562485 72.800671 454.08395856 83.134246 454.10565662 92.95027161 C454.11011447 93.88786882 454.11457231 94.82546604 454.11916524 95.7914753 C454.1188887 97.33171773 454.1188887 97.33171773 454.11860657 98.90307617 C454.12228326 99.99650267 454.12595994 101.08992916 454.12974805 102.21648979 C454.14079247 105.89351744 454.14463005 109.57051683 454.1484375 113.24755859 C454.15470164 115.87889191 454.1613484 118.51022433 454.16835022 121.14155579 C454.18810201 129.04805765 454.19818009 136.95456076 454.20707801 144.86108112 C454.2114638 148.58729956 454.21682993 152.31351657 454.22206688 156.03973389 C454.23907934 168.43216659 454.25357189 180.82459842 454.26081562 193.21704102 C454.26272542 196.43212892 454.26464577 199.64721681 454.26660156 202.86230469 C454.2670853 203.66137033 454.26756904 204.46043597 454.26806744 205.28371572 C454.27636166 218.21815171 454.30168818 231.15249503 454.33418224 244.08689058 C454.36729433 257.37602284 454.3852682 270.66510809 454.38845986 283.95428181 C454.39062133 291.41168781 454.39931639 298.86895876 454.42492104 306.32632446 C454.44668499 312.67967373 454.45465069 319.03285513 454.44495425 325.38623744 C454.44042562 328.62427771 454.44441701 331.86190167 454.4617157 335.09990883 C454.47946882 338.62093102 454.47231054 342.14108567 454.45918274 345.66210938 C454.47015199 346.67109189 454.48112123 347.68007441 454.49242288 348.71963215 C454.37274395 362.08739897 449.22081891 372.35562309 440.3190918 382.09912109 C427.62282101 394.05037843 411.89828726 394.59081945 395.525177 394.55122375 C393.75143297 394.55424716 391.97769025 394.5581376 390.20394981 394.56281632 C385.34701134 394.57308056 380.49014681 394.57091851 375.63320231 394.56663573 C370.38837438 394.56416566 365.14356411 394.57318614 359.89874268 394.58067322 C349.63033719 394.59341427 339.36195787 394.59521466 329.09354581 394.59287295 C320.74624839 394.59108903 312.39895891 394.59284104 304.05166245 394.5970974 C302.86307669 394.59769259 301.67449093 394.59828777 300.44988742 394.598901 C298.03518153 394.60011277 295.62047565 394.6013269 293.20576976 394.60254338 C270.56724638 394.61341656 247.92873791 394.61125743 225.29021369 394.60515853 C204.5866532 394.59998916 183.88313976 394.61124576 163.17958857 394.63025675 C141.91237621 394.64963538 120.6451861 394.65789113 99.37796485 394.6541335 C87.44155763 394.65222155 75.50519045 394.6547085 63.56879044 394.66884804 C53.40760898 394.68076307 43.24649223 394.68216528 33.08530988 394.67005787 C27.9030798 394.66417019 22.72096807 394.6630668 17.53874588 394.67506027 C12.790256 394.68592206 8.04198324 394.6828121 3.29350351 394.66879859 C1.58027599 394.6661525 -0.13296856 394.66851539 -1.84617935 394.67653445 C-19.20474379 394.75211356 -33.79169294 392.04662294 -46.7668457 379.74365234 C-56.35628114 369.34267574 -58.48460401 357.75794427 -58.41624451 344.02029419 C-58.42163004 342.71347998 -58.42701558 341.40666576 -58.43256432 340.06025112 C-58.44694761 336.45743576 -58.44279669 332.85485055 -58.43539751 329.25202298 C-58.43065038 325.35688746 -58.44318931 321.46180062 -58.45341492 317.56668091 C-58.47057821 309.94524069 -58.47144805 302.323883 -58.46620201 294.70242848 C-58.46215439 288.50520216 -58.4636109 282.30800016 -58.46895027 276.11077499 C-58.46969869 275.22747897 -58.47044712 274.34418295 -58.47121822 273.43412038 C-58.47274975 271.63948449 -58.4742881 269.8448486 -58.47583319 268.05021273 C-58.48954935 251.23454173 -58.4841268 234.41891731 -58.47264797 217.60324739 C-58.46271702 202.23454368 -58.47565546 186.86596039 -58.49958216 171.49727525 C-58.52399102 155.69931484 -58.53357661 139.90141047 -58.52692944 124.10343158 C-58.52344113 115.241029 -58.52564361 106.378719 -58.54318047 97.51633072 C-58.55792482 89.97185978 -58.55850879 82.42754662 -58.54110955 74.88307871 C-58.53261541 71.03746776 -58.53041082 67.19213839 -58.54576111 63.34654236 C-58.56222914 59.16904415 -58.54741957 54.99222114 -58.5297699 50.81472778 C-58.54417741 49.00973554 -58.54417741 49.00973554 -58.55887598 47.16827881 C-58.44288709 33.78501607 -54.28817509 23.17731816 -45.2199707 13.32568359 C-32.21578845 0.97035867 -16.93915771 -0.01191487 0 0 Z " fill="#027261" transform="translate(58.028564453125,58.70947265625)"/>
</svg>
