<?xml version="1.0" standalone="no"?>
<!DOCTYPE svg PUBLIC "-//W3C//DTD SVG 20010904//EN"
 "http://www.w3.org/TR/2001/REC-SVG-20010904/DTD/svg10.dtd">
<svg version="1.0" xmlns="http://www.w3.org/2000/svg"
 width="512.000000pt" height="512.000000pt" viewBox="0 0 512.000000 512.000000"
 preserveAspectRatio="xMidYMid meet">

<g transform="translate(0.000000,512.000000) scale(0.100000,-0.100000)"
fill="#000000" stroke="none">
<path d="M2261 4729 c-239 -25 -467 -92 -698 -205 -341 -166 -613 -402 -827
-717 -83 -123 -203 -368 -251 -511 -168 -510 -132 -1069 99 -1551 108 -225
214 -379 376 -549 301 -315 672 -523 1086 -610 767 -160 1545 111 2048 714
313 375 486 853 486 1345 0 107 -7 125 -46 125 -29 0 -34 -16 -34 -113 0 -774
-432 -1476 -1120 -1822 -321 -161 -694 -235 -1043 -207 -530 44 -965 249
-1322 623 -360 378 -555 866 -555 1389 0 317 65 597 205 885 176 363 457 663
810 867 264 152 533 233 863 260 227 18 470 -7 702 -73 303 -87 588 -248 816
-463 185 -173 319 -355 430 -581 35 -71 68 -136 74 -142 16 -20 48 -15 60 7
21 40 -122 318 -253 492 -208 275 -460 485 -762 633 -348 171 -759 244 -1144
204z"/>
<path d="M1844 3411 c-288 -46 -498 -282 -512 -576 -5 -122 10 -193 69 -315
41 -84 49 -92 473 -516 484 -484 477 -479 606 -479 127 0 126 -1 568 439 217
215 416 419 443 452 100 125 144 261 137 419 -11 221 -129 410 -318 509 -102
53 -170 70 -290 69 -169 0 -301 -53 -448 -178 -83 -72 -101 -72 -184 0 -88 74
-169 121 -258 149 -85 27 -210 39 -286 27z m278 -110 c78 -27 140 -65 207
-126 72 -67 89 -75 151 -75 63 0 78 8 158 81 66 60 174 119 256 138 26 7 87
12 135 12 405 0 651 -441 445 -800 -35 -61 -846 -876 -899 -903 -54 -28 -136
-28 -190 0 -53 27 -864 842 -899 903 -144 251 -71 566 167 720 133 86 311 105
469 50z"/>
<path d="M4430 3225 c-11 -13 0 -76 48 -279 9 -37 36 -55 60 -40 13 9 16 23
14 60 -3 63 -40 223 -58 252 -16 25 -46 29 -64 7z"/>
</g>
</svg>
