<?xml version="1.0" encoding="UTF-8"?>
<svg version="1.1" xmlns="http://www.w3.org/2000/svg" width="512" height="512">
<path d="M0 0 C0.82419434 0.20399414 1.64838867 0.40798828 2.49755859 0.61816406 C14.5205156 3.6387424 25.87695934 7.52799531 37 13 C37.63099609 13.30663574 38.26199219 13.61327148 38.91210938 13.92919922 C51.79086973 20.26027178 63.28902933 28.12659236 73.78125 37.9375 C75.75737093 39.77445749 77.78954621 41.47811165 79.875 43.1875 C108.09079391 67.93320635 125.27208221 107.2151116 129 144 C129.11008146 146.68298544 129.18603084 149.34077147 129.203125 152.0234375 C129.21009399 152.76291122 129.21706299 153.50238495 129.22424316 154.26426697 C129.24152819 156.63456994 129.24796162 159.00463665 129.25 161.375 C129.25100708 162.18335297 129.25201416 162.99170593 129.25305176 163.82455444 C129.24319639 175.49519462 128.81684603 186.62381069 126 198 C125.70996094 199.26457031 125.41992188 200.52914062 125.12109375 201.83203125 C119.84302036 223.27558466 110.25775534 242.87995729 97.7265625 261.00390625 C94.36715004 265.87241997 91.22421717 270.87680059 88.0625 275.875 C83.94398353 282.37223398 79.81433379 288.86067265 75.625 295.3125 C68.36102959 306.50593764 61.1870498 317.7570907 54 329 C38.38293118 353.43023121 38.38293118 353.43023121 31.08081055 364.68164062 C27.3538078 370.43326541 23.67470736 376.21485894 20 382 C15.47412587 389.12514433 10.92394258 396.2329099 6.32641602 403.31201172 C2.87245613 408.6361095 -0.54680948 413.98184614 -3.96020508 419.33203125 C-7.29804423 424.56031768 -10.64819548 429.78066014 -14 435 C-14.53141602 435.83063965 -15.06283203 436.6612793 -15.61035156 437.51708984 C-16.96037735 439.62159492 -18.321339 441.71844672 -19.6875 443.8125 C-20.06076416 444.39789551 -20.43402832 444.98329102 -20.81860352 445.58642578 C-23.78524212 450.08757939 -26.83087133 453.27695711 -32 455 C-37.59152272 455.36665723 -41.27051375 455.32070311 -46 452 C-51.81117187 445.94369185 -55.96714065 438.40186923 -60.34375 431.2890625 C-62.91850176 427.11077049 -65.57247099 422.9879658 -68.25 418.875 C-72.54016468 412.27521978 -76.78051123 405.64517968 -81 399 C-85.13951991 392.48210115 -89.29504109 385.97588627 -93.5 379.5 C-98.31735554 372.08098658 -103.06613956 364.61940445 -107.80859375 357.15234375 C-111.3472417 351.58497422 -114.9075485 346.032788 -118.5 340.5 C-122.59697703 334.1883797 -126.6516616 327.85088317 -130.6875 321.5 C-140.34588741 306.30151556 -150.02700275 291.11705342 -159.8125 276 C-160.46230835 274.99501465 -160.46230835 274.99501465 -161.12524414 273.96972656 C-163.33701344 270.55286672 -165.56105457 267.14469936 -167.80078125 263.74609375 C-188.45477817 232.31981558 -201.74600408 200.31265532 -201.4375 162.25 C-201.43379395 161.422724 -201.43008789 160.595448 -201.42626953 159.74310303 C-201.24940823 131.90151665 -194.85333056 105.34910514 -181 81 C-180.36320312 79.8759375 -179.72640625 78.751875 -179.0703125 77.59375 C-155.69519071 38.16583372 -118.32979458 11.94986638 -74.28710938 0.28125 C-51.35505165 -5.40522336 -22.92906517 -5.95105508 0 0 Z M-90 110 C-104.57560475 124.93048904 -110.29047763 144.5214165 -110.2421875 164.8515625 C-110.03870194 181.76121288 -104.00320762 197.0512977 -93 210 C-92.2575 210.99 -91.515 211.98 -90.75 213 C-82.94138341 222.0570161 -72.70644621 227.18701042 -62 232 C-61.20980469 232.36222656 -60.41960937 232.72445312 -59.60546875 233.09765625 C-42.1134143 239.96337388 -21.74940848 237.25336266 -5 230 C14.60516782 221.13666502 27.29995222 205.63512183 35 186 C35.54140625 184.62714844 35.54140625 184.62714844 36.09375 183.2265625 C41.79316778 165.23117859 38.85332755 143.81369049 30.375 127.3125 C20.93906822 110.10317898 5.87583969 96.86714923 -12.83984375 90.64453125 C-41.18478408 82.54179805 -68.62894382 89.67443434 -90 110 Z " fill="#017260" transform="translate(292,3)"/>
<path d="M0 0 C1.25756836 1.56201172 1.25756836 1.56201172 2.33984375 3.4296875 C2.75580811 4.1316626 3.17177246 4.8336377 3.6003418 5.55688477 C4.041604 6.32186279 4.48286621 7.08684082 4.9375 7.875 C5.91932806 9.52885842 6.90380085 11.18114903 7.890625 12.83203125 C8.40173828 13.68877441 8.91285156 14.54551758 9.43945312 15.42822266 C11.93035884 19.53322904 14.55427855 23.54783011 17.1875 27.5625 C22.10370012 35.07823117 26.97590526 42.6202665 31.8125 50.1875 C32.48007324 51.23172119 33.14764648 52.27594238 33.83544922 53.35180664 C35.2004166 55.48748879 36.56516101 57.62331347 37.9296875 59.75927734 C52.39296012 82.42594004 52.39296012 82.42594004 67 105 C67.44069824 105.67804688 67.88139648 106.35609375 68.33544922 107.0546875 C78.19790382 122.2002172 86.88995713 133.23297505 105.35546875 137.55078125 C117.57762049 139.62692224 130.50199155 137.86774166 141 131.0625 C142.36031939 130.07791399 143.69187463 129.05294182 145 128 C145.96164062 127.27167969 146.92328125 126.54335938 147.9140625 125.79296875 C151.50432494 122.77092099 153.86354741 119.17936404 156.375 115.25 C156.88047363 114.4755957 157.38594727 113.70119141 157.90673828 112.90332031 C159.61592585 110.27609302 161.30888033 107.63889004 163 105 C163.62261719 104.03320312 164.24523437 103.06640625 164.88671875 102.0703125 C169.61458817 94.72843145 174.31221162 87.36752066 179 80 C179.60102539 79.05576172 180.20205078 78.11152344 180.82128906 77.13867188 C183.11983759 73.52721706 185.41791986 69.91546687 187.71484375 66.30297852 C193.42272853 57.32803835 199.15643924 48.36971125 204.89453125 39.4140625 C207.34778628 35.58427517 209.79675422 31.75183265 212.23919678 27.91514587 C213.31714614 26.22204621 214.39599438 24.52952261 215.47509766 22.8371582 C216.82158096 20.72483299 218.16643037 18.61146494 219.50927734 16.49682617 C223.51678889 10.21553066 227.67461501 4.06684936 232 -2 C268.37296639 5.14659457 311.40515425 19.42271897 333.37890625 51.35546875 C340.42364072 62.84772233 341.79592301 75.30634329 339.3515625 88.5 C333.49850198 107.71004479 316.31569785 121.22444216 299.32373047 130.45361328 C249.50333589 156.63899046 189.16675372 166.00794192 133.29296875 166.203125 C131.92706267 166.21014862 130.56115691 166.21723543 129.19525146 166.22438049 C124.85932942 166.24375894 120.52346099 166.24881405 116.1875 166.25 C115.07928831 166.25066278 115.07928831 166.25066278 113.94868851 166.25133896 C91.82463678 166.2582777 69.96735744 165.98322138 48 163 C46.62538964 162.82079657 45.25071287 162.64210191 43.87597656 162.46386719 C-1.47799692 156.51176811 -52.80939896 147.0461866 -89 117 C-89.58394531 116.56558594 -90.16789062 116.13117188 -90.76953125 115.68359375 C-100.20832852 108.53600848 -106.9228081 97.32352632 -110 86 C-111.6791603 70.20551429 -108.63158916 57.76788698 -99 45 C-77.30082415 19.53549309 -43.05556613 8.83079156 -12 0 C-11.24025879 -0.23364258 -10.48051758 -0.46728516 -9.69775391 -0.70800781 C-5.63166382 -1.88476225 -3.57206971 -2.33540956 0 0 Z " fill="#017260" transform="translate(141,346)"/>
</svg>
