<?xml version="1.0" encoding="UTF-8"?>
<svg version="1.1" xmlns="http://www.w3.org/2000/svg" width="512" height="512">
<path d="M0 0 C0.87479004 0.18804199 1.74958008 0.37608398 2.65087891 0.56982422 C21.3547976 4.66079791 51.69616431 11.65570025 64.25 27.5 C67.65100698 34.30201395 69.02701319 40.50658995 67 48 C63.90888903 54.74315714 59.7052607 59.10767639 52.75 61.8125 C47.40628531 63.79128157 41.83472864 63.09477785 36.59716797 61.07202148 C34.05304061 59.87539977 31.55739231 58.60852966 29.0625 57.3125 C11.21064135 48.46374917 -8.89381328 41.67207309 -29 41 C-29.99725098 40.96132812 -29.99725098 40.96132812 -31.01464844 40.921875 C-64.68411194 39.77323659 -98.85846876 48.38779939 -126 69 C-126.84046875 69.63292969 -127.6809375 70.26585937 -128.546875 70.91796875 C-138.86491844 78.94489385 -148.11929038 87.54426498 -156 98 C-156.72832031 98.96292969 -157.45664063 99.92585938 -158.20703125 100.91796875 C-181.40317885 132.97008863 -191.35235897 172.71985443 -185.35498047 211.86767578 C-181.18668175 236.90613587 -171.27095751 261.38460424 -155 281 C-154.08717821 282.13927374 -153.17442083 283.2785991 -152.26171875 284.41796875 C-127.71896674 314.53655688 -91.74633206 331.95146056 -53.4765625 336.59375 C-23.42689569 339.64787099 6.46323212 332.773536 33.11083984 318.90112305 C39.0487667 315.81692747 44.40684779 314.13930121 51.16796875 315.40625 C57.44261858 317.44520778 62.23858658 321.35787988 65.875 326.8125 C68.64962102 334.67392623 68.45340084 341.33776688 65 349 C59.30220742 356.37361393 49.94140761 360.81942051 41.5625 364.5 C40.69270508 364.88381836 39.82291016 365.26763672 38.92675781 365.66308594 C17.74079942 374.84392443 -5.28399669 381.06154261 -28.48828125 381.203125 C-29.26499176 381.21018463 -30.04170227 381.21724426 -30.84194946 381.22451782 C-62.93632314 381.45005776 -62.93632314 381.45005776 -78 378 C-78.87479004 377.81195801 -79.74958008 377.62391602 -80.65087891 377.43017578 C-109.57559614 371.10368029 -135.98436181 358.55118829 -159 340 C-159.58652344 339.52916992 -160.17304688 339.05833984 -160.77734375 338.57324219 C-173.42468484 328.34208814 -184.28131547 317.03268816 -194 304 C-194.62519531 303.16984375 -195.25039062 302.3396875 -195.89453125 301.484375 C-216.74173697 272.77674745 -230.88078076 236.04734645 -231.23828125 200.3125 C-231.2480751 199.50069275 -231.25786896 198.6888855 -231.26795959 197.85247803 C-231.81504118 140.72585855 -213.55395957 91.64452696 -173.625 50.3125 C-167.50135597 44.32083106 -160.87341518 39.09407193 -154 34 C-152.96101563 33.22785156 -151.92203125 32.45570312 -150.8515625 31.66015625 C-128.84143488 15.88715547 -104.3904164 5.76314826 -78 0 C-77.22672363 -0.17789063 -76.45344727 -0.35578125 -75.65673828 -0.5390625 C-52.09037156 -5.7748786 -23.48938415 -5.37981084 0 0 Z " fill="#FF5656" transform="translate(295,67)"/>
<path d="M0 0 C4.33751309 3.51230953 8.2044943 7.43021335 12.10546875 11.4140625 C13.23915991 12.5513396 14.37397293 13.68749935 15.50984192 14.82260132 C17.87822819 17.19565689 20.23627304 19.57836631 22.58666992 21.96923828 C25.57690504 25.01035158 28.58641921 28.03143118 31.60332775 31.04606056 C33.94560388 33.38915871 36.27993363 35.7400433 38.61178017 38.0935173 C39.71785621 39.20903875 40.82566913 40.32284117 41.93535423 41.43477249 C53.73470276 53.28421452 63.26180203 64.4834265 63.5625 81.875 C63.34602312 101.56418514 50.88033497 113.42784112 37.75390625 126.65234375 C37.23404585 127.17785891 36.71418545 127.70337406 36.1785717 128.24481392 C33.43612504 131.01691726 30.68823685 133.78347855 27.93530273 136.54516602 C25.11665792 139.37483791 22.31710884 142.22265552 19.52142429 145.07498837 C17.34294232 147.29089637 15.15098421 149.49310077 12.95524406 151.69189644 C11.91734419 152.73579424 10.8843797 153.78462612 9.85681343 154.83869743 C2.9616084 161.89917957 -3.79307734 167.81131565 -14.0625 168.5 C-21.73263155 167.52601504 -26.97851993 164.83604339 -31.80859375 158.78125 C-34.66440127 154.51158367 -35.34087935 151.45614784 -35.4375 146.25 C-35.47746094 145.07953125 -35.51742187 143.9090625 -35.55859375 142.703125 C-34.41811304 135.14245566 -29.15130672 129.70640931 -23.82421875 124.53125 C-22.9691851 123.68258362 -22.9691851 123.68258362 -22.09687805 122.81677246 C-20.30075994 121.03725068 -18.49442961 119.26853568 -16.6875 117.5 C-15.4569866 116.28455808 -14.22716244 115.06841796 -12.99804688 113.8515625 C-10.006592 110.89292362 -7.00593942 107.94391866 -4 105 C-4.83268402 104.99761165 -5.66536804 104.99522329 -6.52328491 104.99276257 C-26.79666773 104.9335926 -47.06993188 104.85802966 -67.34318542 104.76428509 C-77.14723637 104.71934479 -86.95125114 104.67992602 -96.75537109 104.65356445 C-105.30195606 104.63057011 -113.84842635 104.59715596 -122.39492035 104.55129844 C-126.91903884 104.52738564 -131.4430439 104.50864412 -135.96722412 104.50238609 C-140.22884973 104.49632646 -144.49018518 104.47629491 -148.75170326 104.44572449 C-150.31250301 104.43695833 -151.87334069 104.43321873 -153.43416405 104.43499184 C-162.52517301 104.44205614 -169.87477397 104.26150747 -177.75 99.25 C-182.65708223 94.34291777 -184.79375389 89.09369169 -185.25 82.25 C-185.15084549 75.59425365 -182.71844869 69.71844869 -178 65 C-172.10073451 60.92013415 -167.40082728 59.87985061 -160.33087158 59.84178162 C-159.66183485 59.83684364 -158.99279811 59.83190566 -158.30348754 59.82681805 C-156.06333009 59.811469 -153.82320125 59.80308949 -151.58300781 59.79467773 C-149.97652434 59.78509717 -148.37004339 59.77508698 -146.76356506 59.76467896 C-142.40238684 59.73764316 -138.04119781 59.71662641 -133.67998219 59.69667697 C-129.12222639 59.67480926 -124.56450386 59.6474244 -120.0067749 59.62062073 C-111.37605508 59.57070448 -102.74531679 59.52576167 -94.11456084 59.48259836 C-84.28875642 59.43321688 -74.46298537 59.37830212 -64.63721323 59.32291877 C-44.42483991 59.20911511 -24.21243473 59.10227253 -4 59 C-5.24873901 57.77482666 -5.24873901 57.77482666 -6.52270508 56.52490234 C-9.62218528 53.47990137 -12.71157984 50.42483594 -15.7980957 47.36669922 C-17.13294799 46.04689253 -18.47048582 44.72979607 -19.81079102 43.41552734 C-21.74174463 41.52114211 -23.66269035 39.61707893 -25.58203125 37.7109375 C-26.17901321 37.12943939 -26.77599518 36.54794128 -27.3910675 35.94882202 C-32.76167381 30.58038745 -35.43070151 25.90375524 -35.5 18.125 C-35.32822871 10.71541096 -33.57935985 6.73289807 -28.54296875 1.48046875 C-19.98382318 -6.3560049 -9.49056032 -5.30572776 0 0 Z " fill="#FF5656" transform="translate(419,174)"/>
</svg>
