<?xml version="1.0" encoding="UTF-8"?>
<svg version="1.1" xmlns="http://www.w3.org/2000/svg" width="512" height="512">
<path d="M0 0 C1.89078705 -0.00701996 1.89078705 -0.00701996 3.81977183 -0.01418173 C7.27918349 -0.02658151 10.73834348 -0.02057254 14.19775546 -0.01122308 C17.94343277 -0.00438763 21.68906918 -0.01493558 25.43473816 -0.02316284 C32.75497264 -0.03645204 40.07511447 -0.03364482 47.39535248 -0.02492492 C53.34417866 -0.01813336 59.29297899 -0.01723799 65.24180794 -0.02049637 C66.51462123 -0.02118592 66.51462123 -0.02118592 67.81314792 -0.0218894 C69.5371726 -0.02284861 71.26119727 -0.02382125 72.98522193 -0.02480717 C89.12115585 -0.033346 105.2570385 -0.02354874 121.39296401 -0.00740607 C135.23502915 0.00601274 149.07701885 0.00365324 162.91908264 -0.01016235 C179.01047604 -0.02621555 195.10182468 -0.03254003 211.19322497 -0.02332556 C212.90855665 -0.02236994 214.62388835 -0.02142683 216.33922005 -0.02049637 C217.60507416 -0.01980213 217.60507416 -0.01980213 218.89650108 -0.01909386 C224.84100452 -0.01650446 230.78547952 -0.02087354 236.72997856 -0.02793503 C243.96967131 -0.03634657 251.20926646 -0.03407648 258.44894802 -0.0180928 C262.14189725 -0.01020802 265.83468373 -0.00712218 269.52763176 -0.01704025 C273.52963065 -0.02762602 277.53121841 -0.01498808 281.53320312 0 C282.70137965 -0.00669217 283.86955617 -0.01338433 285.07313198 -0.02027929 C292.04949029 0.03056962 296.92527359 0.4840657 302.07215881 5.63095093 C305.61244636 11.19425993 306.11626605 16.96558006 306.0761261 23.41758728 C306.07924608 24.19773239 306.08236606 24.97787749 306.08558059 25.78166336 C306.09352062 28.380674 306.08725243 30.97944855 306.08094788 33.57846069 C306.08365967 35.4483809 306.08722166 37.31830004 306.09156799 39.18821716 C306.10067626 44.25885558 306.09715298 49.32941249 306.09080982 54.40005231 C306.08573652 59.71863346 306.09044546 65.03720775 306.09358215 70.35578918 C306.09722013 79.29428352 306.09242941 88.23274481 306.082901 97.17123413 C306.07204009 107.47816427 306.0755255 117.78501514 306.08655381 128.09194332 C306.09565936 136.95932806 306.09689534 145.82668905 306.09167647 154.69407696 C306.08857169 159.98175442 306.0881057 165.26939476 306.09474945 170.55706978 C306.10056908 175.53689042 306.09644234 180.51661006 306.08496094 185.49641991 C306.08233786 187.31434589 306.08303868 189.13228051 306.08748627 190.95020294 C306.1370207 213.27268718 303.47149802 232.0860899 287.63465881 249.06845093 C273.23028382 262.84020135 256.54291236 264.98855809 237.61463928 264.87924194 C235.7207344 264.88307328 233.82683244 264.88869923 231.93293762 264.89596558 C227.88211067 264.90784289 223.83154327 264.90748402 219.78071213 264.89737129 C213.36605897 264.8817057 206.95166825 264.89556016 200.53703308 264.91340637 C188.07961866 264.94412047 175.62228599 264.94573133 163.1648407 264.9437561 C147.30126737 264.94236002 131.43775675 264.95280829 115.57422936 264.99233383 C109.20663142 265.00720779 102.8392693 265.00704247 96.471668 264.994856 C92.50281866 264.99012504 88.5340585 264.99769532 84.56522369 265.00839996 C82.73516141 265.01079335 80.90508382 265.00811624 79.07503891 264.9997921 C61.58963872 264.92505634 48.61879727 267.79135483 34.44715881 278.31845093 C32.85740697 279.48263894 31.26756053 280.64669779 29.67762756 281.81063843 C28.8724469 282.40328491 28.06726624 282.9959314 27.23768616 283.60653687 C23.42656956 286.40613212 19.59383133 289.17555706 15.75965881 291.94345093 C15.01611145 292.48082886 14.27256409 293.01820679 13.50648499 293.5718689 C6.35456885 298.73355824 -0.84969952 303.8195118 -8.06455994 308.89266968 C-10.91482297 310.89997137 -13.75905893 312.91572019 -16.60264587 314.9324646 C-18.0197058 315.93408451 -19.43960676 316.93169791 -20.8624115 317.92514038 C-24.423102 320.41210902 -27.93177539 322.94023683 -31.38096619 325.58016968 C-43.84654895 334.94883192 -43.84654895 334.94883192 -52.68174744 334.01376343 C-57.21476854 332.86454681 -59.85313477 330.9736953 -62.80595493 327.42340851 C-64.88872845 322.80440305 -64.59419216 318.40039562 -64.56552124 313.38912964 C-64.57090678 312.26696942 -64.57629232 311.1448092 -64.58184105 309.98864412 C-64.59617317 306.22021366 -64.5890036 302.45213188 -64.58189392 298.6836853 C-64.58759495 295.98485193 -64.59445745 293.28604377 -64.60269165 290.58721924 C-64.61989475 284.01084698 -64.62071601 277.43457021 -64.61547875 270.8581813 C-64.61143623 265.50895489 -64.6128816 260.15975668 -64.61822701 254.81053162 C-64.61897543 254.04896276 -64.61972385 253.28739391 -64.62049495 252.50274721 C-64.62202647 250.95549738 -64.62356481 249.40824755 -64.62510992 247.86099774 C-64.63884209 233.3458479 -64.63339374 218.83075193 -64.62192471 204.31560332 C-64.61200628 191.05533746 -64.62490759 177.79521141 -64.6488589 164.53496712 C-64.67328635 150.907912 -64.68284792 137.28092188 -64.67620617 123.65384531 C-64.67272014 116.00808559 -64.67490437 108.36243318 -64.6924572 100.71669006 C-64.70722547 94.20307814 -64.70775535 87.68964898 -64.69038629 81.17604047 C-64.68190872 77.85681937 -64.6818376 74.53819008 -64.69503784 71.21894455 C-64.78855107 45.751857 -64.78855107 45.751857 -60.17784119 35.38095093 C-59.86685706 34.62320122 -59.55587294 33.86545151 -59.23546505 33.08473969 C-53.50700014 19.66985465 -41.48968758 9.77654438 -28.36997181 4.1639477 C-19.04509823 0.8332402 -9.82743064 -0.05706142 0 0 Z M-27.50987244 40.97860718 C-33.92005451 49.38388914 -34.33229659 58.69394349 -34.2980957 68.91645813 C-34.29895013 69.85757259 -34.29980455 70.79868706 -34.30068487 71.76832014 C-34.3023276 74.91127068 -34.29683809 78.05416745 -34.29136658 81.19711304 C-34.29108442 83.45427448 -34.291243 85.71143602 -34.29180908 87.96859741 C-34.29209594 94.08989655 -34.2862172 100.21117608 -34.27923512 106.33247066 C-34.27298305 112.73197629 -34.27239632 119.13148238 -34.27120972 125.5309906 C-34.26845496 136.27012536 -34.26220912 147.00925155 -34.25328064 157.74838257 C-34.2440956 168.807627 -34.23702011 179.86686947 -34.23277283 190.92611694 C-34.2325101 191.60829987 -34.23224738 192.29048279 -34.2319767 192.99333792 C-34.23067162 196.41579579 -34.22940792 199.83825366 -34.22816479 203.26071155 C-34.21780532 231.63412962 -34.20012392 260.00753989 -34.17784119 288.38095093 C-32.42703192 287.27682529 -30.6775296 286.17062704 -28.92857361 285.06356812 C-27.95417831 284.44777893 -26.97978302 283.83198975 -25.9758606 283.19754028 C-22.34392738 280.83953977 -18.91336938 278.27856954 -15.49034119 275.63095093 C-9.54956148 271.10609731 -3.51003015 266.78488494 2.67811584 262.6055603 C6.28102418 260.16213816 9.81938323 257.66079051 13.30262756 255.04891968 C35.11606962 238.72550819 54.41155255 234.22161512 81.33192444 234.25497437 C83.19892418 234.25357759 85.0659236 234.25167696 86.93292236 234.24931335 C90.93736017 234.24483572 94.94178778 234.2429607 98.94622803 234.24285126 C105.28433298 234.24170573 111.62238039 234.22883076 117.96046448 234.21328735 C119.56861755 234.20942807 119.56861755 234.20942807 121.20925856 234.20549083 C123.40054072 234.20022499 125.59182283 234.19493951 127.7831049 234.1896348 C142.52643826 234.15458557 157.26969821 234.12797596 172.01307678 234.13046265 C181.97636603 234.1320527 191.93945707 234.11598694 201.90268278 234.07975602 C207.16792029 234.06132974 212.43282689 234.05192489 217.6980896 234.06423187 C222.64939689 234.07569482 227.60011148 234.06390342 232.5513401 234.0345974 C234.36287682 234.02797614 236.17446812 234.02979037 237.98598289 234.04089546 C248.54807743 234.1002489 257.78879131 234.00369988 265.94272614 226.40470505 C273.60646688 218.39584512 274.95021396 209.76176716 274.94241333 198.89549255 C274.94326775 198.17488992 274.94412218 197.45428728 274.9450025 196.7118482 C274.94663987 194.31514626 274.94116466 191.91851548 274.9356842 189.52182007 C274.93540193 187.79667157 274.93556085 186.07152294 274.93612671 184.34637451 C274.93641311 179.67543982 274.93054172 175.0045309 274.92355275 170.33360219 C274.91729311 165.44756657 274.91671335 160.56153034 274.91552734 155.67549133 C274.91242173 146.4286097 274.90421871 137.18173992 274.89417785 127.93486351 C274.88299283 117.40527798 274.87750024 106.87569187 274.87248242 96.34610188 C274.86203546 74.69104495 274.84445091 53.03599869 274.82215881 31.38095093 C238.70210664 31.28934229 202.58207488 31.21888525 166.46193041 31.17668961 C162.19504346 31.17168694 157.92815674 31.16650964 153.66127014 31.16122437 C152.81183035 31.16017512 151.96239055 31.15912588 151.08721016 31.15804484 C137.34353724 31.14065223 123.59993143 31.10912086 109.85629829 31.07233974 C95.74804454 31.03489847 81.63982587 31.01270834 67.53152448 31.00459695 C58.82994672 30.99911578 50.12855866 30.98182065 41.4270393 30.94928506 C35.45543307 30.9280978 29.48392453 30.92176039 23.51228347 30.92694542 C20.06986276 30.92950068 16.62777293 30.92565755 13.18541145 30.90412903 C9.4448993 30.88416504 5.70519226 30.88903626 1.96466064 30.89993286 C0.88778164 30.8882815 -0.18909737 30.87663013 -1.29860908 30.86462569 C-11.11416929 30.94166855 -20.97875452 33.14509624 -27.50987244 40.97860718 Z " fill="#385D4A" transform="translate(64.17784118652344,30.619049072265625)"/>
<path d="M0 0 C1.64826782 -0.01902626 1.64826782 -0.01902626 3.32983398 -0.03843689 C5.10015991 -0.03403343 5.10015991 -0.03403343 6.90625 -0.02954102 C8.7471521 -0.03740379 8.7471521 -0.03740379 10.62524414 -0.04542542 C13.22427617 -0.05184713 15.82333726 -0.05050674 18.42236328 -0.04199219 C22.36414732 -0.03353757 26.30445486 -0.06215498 30.24609375 -0.09399414 C32.7786454 -0.09560786 35.31119959 -0.09502537 37.84375 -0.09204102 C39.58978516 -0.10889198 39.58978516 -0.10889198 41.37109375 -0.12608337 C56.54224202 0.00052862 71.54708783 5.54489056 82.40625 16.40405273 C93.38613369 29.45004357 98.72394491 41.81835293 98.67367554 58.80374146 C98.67820665 59.93340391 98.68273776 61.06306637 98.68740618 62.22696102 C98.70004014 66.00234207 98.69843046 69.77757869 98.69677734 73.55297852 C98.70167792 76.26360618 98.70951223 78.97422378 98.71713257 81.68484497 C98.73370885 88.27648389 98.73924049 94.86808704 98.74035732 101.45974506 C98.74130892 106.81705969 98.74542477 112.17436254 98.75175858 117.53167343 C98.76935787 132.72717808 98.77859891 147.92265453 98.77709763 163.11816944 C98.77701772 163.93648065 98.7769378 164.75479187 98.77685547 165.59790039 C98.77677371 166.41721219 98.77669195 167.236524 98.77660771 168.08066343 C98.77579405 181.37132845 98.79495505 194.66188035 98.8231322 207.95251264 C98.85184924 221.60561278 98.86567331 235.2586577 98.86394465 248.91178882 C98.86328058 256.57461447 98.86878079 264.23732135 98.89030075 271.90011978 C98.90849653 278.42080343 98.91287279 284.9413144 98.8992819 291.46201243 C98.89274531 294.78849549 98.89482666 298.11437622 98.9099884 301.44087219 C98.92536262 305.04699025 98.91618356 308.65223287 98.90072632 312.2583313 C98.91101344 313.30929902 98.92130057 314.36026675 98.93189943 315.44308197 C98.87510086 321.42349869 98.37100407 324.83707944 94.40625 329.40405273 C90.37296036 332.94845878 86.96283661 333.51955826 81.63671875 333.73217773 C75.30072619 332.80008776 70.10702144 328.16993294 65.09375 324.46655273 C63.48366913 323.28995518 61.87297779 322.11419261 60.26171875 320.93920898 C59.45009277 320.34640137 58.6384668 319.75359375 57.80224609 319.14282227 C54.19629555 316.52599123 50.55307381 313.96345999 46.90625 311.40405273 C41.04096837 307.28071821 35.21206966 303.11067954 29.40625 298.90405273 C21.47951303 293.16447319 13.51298443 287.48591696 5.49414062 281.87573242 C3.37533813 280.38226406 1.27304048 278.86752034 -0.828125 277.34936523 C-2.20808391 276.36724384 -3.58828326 275.38546018 -4.96875 274.40405273 C-5.57412598 273.95916504 -6.17950195 273.51427734 -6.80322266 273.0559082 C-18.05486788 265.1358403 -29.12154949 264.82532412 -42.36889648 264.88989258 C-44.25250825 264.88442418 -46.13611557 264.87717834 -48.01971436 264.86830139 C-52.05749026 264.85302449 -56.09501229 264.85013733 -60.13281059 264.85706711 C-66.52622686 264.86790169 -72.9193804 264.85041438 -79.3127594 264.82925415 C-89.43061794 264.79904897 -99.54839808 264.78730483 -109.66629797 264.7836777 C-127.77380626 264.77702386 -145.88125972 264.74787555 -163.9887014 264.69858134 C-170.33534446 264.68214989 -176.68187347 264.67665366 -183.02853572 264.68017173 C-186.98644436 264.68061089 -190.94431045 264.67301287 -194.90220642 264.66349602 C-196.72742604 264.66082912 -198.55265446 264.66153768 -200.37787056 264.66600609 C-221.30914412 264.71367726 -238.6369396 261.83713589 -254.59375 247.40405273 C-267.91872489 233.90432408 -271.44180059 217.11198036 -271.84375 198.84155273 C-271.77772124 191.57838893 -271.43356137 185.39736743 -266.28125 179.96655273 C-261.24920963 177.04094787 -257.28164556 175.92263014 -251.55078125 176.86499023 C-247.45309685 177.99369372 -244.59358004 180.16024503 -241.9609375 183.43530273 C-240.01815282 187.6539209 -240.10261581 191.55945387 -240.03125 196.15405273 C-239.80335122 207.36329664 -238.72073712 216.49556215 -231.0625 225.13061523 C-221.71514727 234.08114639 -208.83846548 232.82725415 -196.79614258 232.77294922 C-194.89784529 232.77542034 -192.99954937 232.77926189 -191.10125732 232.78436279 C-187.02803295 232.79267238 -182.95494853 232.79191721 -178.8817234 232.78417778 C-172.4287895 232.77254426 -165.97603363 232.78480056 -159.52311707 232.80079651 C-143.49389713 232.83690809 -127.46468176 232.84322607 -111.4354248 232.84069824 C-98.97682086 232.83898314 -86.51836348 232.84622269 -74.05980033 232.88067681 C-67.65787216 232.89738644 -61.25630272 232.89574875 -54.85437644 232.87985408 C-50.85475633 232.87401938 -46.85530293 232.88486477 -42.85571289 232.90010071 C-41.01562768 232.90379802 -39.17551349 232.90080371 -37.33545494 232.89023018 C-12.81691508 232.75884456 4.66469147 241.15682096 24.08740234 255.67797852 C27.85247759 258.48057717 31.66084023 261.22259345 35.46875 263.96655273 C36.20480469 264.49837158 36.94085938 265.03019043 37.69921875 265.578125 C42.99804093 269.40292175 48.31911124 273.19542522 53.65625 276.96655273 C54.34726807 277.45518799 55.03828613 277.94382324 55.75024414 278.44726562 C56.40500732 278.90866943 57.05977051 279.37007324 57.734375 279.84545898 C58.3005957 280.24450439 58.86681641 280.6435498 59.45019531 281.0546875 C62.08112166 282.86960636 64.74568273 284.63296047 67.40625 286.40405273 C67.45191237 257.52842621 67.48728854 228.65280395 67.50838066 199.7771484 C67.51088196 196.36518546 67.51347061 192.9532226 67.51611328 189.54125977 C67.5166379 188.8620227 67.51716252 188.18278564 67.51770304 187.48296563 C67.52639668 176.49661516 67.54216091 165.5102857 67.56055559 154.52394767 C67.57928364 143.24411755 67.59022324 131.9642979 67.59442699 120.68445146 C67.59703254 114.35162126 67.60314952 108.01883865 67.61771011 101.68602371 C67.63131084 95.72221768 67.63546757 89.75847873 67.63246536 83.79465866 C67.63301441 81.60900253 67.63697694 79.4233441 67.64466095 77.23770142 C67.65466113 74.24583925 67.65220038 71.254228 67.64675903 68.26235962 C67.65258472 67.40435182 67.6584104 66.54634403 67.66441262 65.66233599 C67.61484934 55.52931086 66.1455627 46.49216345 58.9921875 38.90405273 C50.7283094 31.47982 41.21079725 31.27280041 30.75 31.22827148 C28.65493775 31.20508422 26.55988561 31.18096734 24.46484375 31.15600586 C21.17978 31.12084914 17.89509267 31.09150729 14.60986328 31.078125 C11.42695395 31.06264161 8.24512362 31.02244667 5.0625 30.97827148 C3.59508362 30.98113411 3.59508362 30.98113411 2.09802246 30.98405457 C-3.77284053 30.87895182 -7.10287796 30.27767046 -11.59375 26.40405273 C-15.65005398 21.18145416 -15.36772544 15.75065131 -14.59375 9.40405273 C-11.50876598 2.89130868 -7.16487139 0.04022892 0 0 Z " fill="#375C4A" transform="translate(413.59375,147.595947265625)"/>
<path d="M0 0 C0.74647439 -0.00453111 1.49294877 -0.00906223 2.2620436 -0.01373065 C4.76465318 -0.02639616 7.26704574 -0.02475291 9.76968384 -0.02310181 C11.56347433 -0.02908571 13.35726224 -0.03589093 15.15104675 -0.04345703 C20.025038 -0.06113807 24.89895904 -0.06581329 29.77297926 -0.0670886 C33.84110432 -0.06898714 37.909213 -0.07634414 41.97733176 -0.08343279 C51.57495364 -0.09972225 61.172538 -0.10460123 70.77017212 -0.10317993 C80.67225223 -0.10197825 90.57411446 -0.12308413 100.47613943 -0.15466726 C108.97646625 -0.18081392 117.47672184 -0.19154791 125.97708857 -0.19026911 C131.05446887 -0.18975902 136.13165556 -0.19546851 141.20899582 -0.21662521 C145.98446314 -0.23598053 150.75955164 -0.23615062 155.53503227 -0.22159195 C157.28698339 -0.2194994 159.03895805 -0.22423125 160.79086876 -0.23631287 C163.18434845 -0.25174888 165.57651922 -0.24246922 167.9699707 -0.22705078 C168.66180871 -0.23733791 169.35364672 -0.24762503 170.06644952 -0.25822389 C176.16812749 -0.17147602 179.61799541 2.38123431 183.92446899 6.45492554 C186.2663759 10.35810371 186.92959929 13.72984988 186.61196899 18.26742554 C185.01479687 23.60385947 182.33713756 27.23847133 177.61196899 30.26742554 C174.13808392 31.42538723 171.03294802 31.41239493 167.42012024 31.40786743 C166.68266738 31.41083855 165.94521453 31.41380968 165.18541461 31.41687083 C162.70738942 31.42556186 160.22941252 31.42706642 157.75137329 31.42855835 C155.97743628 31.43318623 154.20350028 31.43821085 152.42956543 31.44360352 C147.60511429 31.45673227 142.78067707 31.46317339 137.95621085 31.46761417 C134.94281371 31.47054409 131.92942038 31.47464875 128.91602516 31.47911835 C119.48991751 31.49279445 110.06381857 31.50246059 100.63770169 31.50632024 C89.75268949 31.5108016 78.86780282 31.52835266 67.9828288 31.55732083 C59.57170119 31.57892918 51.16060892 31.58902406 42.74945384 31.59036136 C37.72462536 31.59140998 32.69991487 31.59732999 27.67511559 31.61518097 C22.94814632 31.63164702 18.22138392 31.63382428 13.49439621 31.62504196 C11.76018406 31.6242708 10.02596086 31.62862466 8.29177666 31.63850021 C5.92252738 31.65120015 3.55401292 31.64535392 1.18476868 31.63491821 C0.50003044 31.64297462 -0.18470779 31.65103102 -0.89019567 31.65933156 C-5.43839129 31.61254366 -8.51481265 30.62776675 -12.38803101 28.26742554 C-15.80860289 24.65682188 -18.23520214 21.26739966 -18.49349976 16.19711304 C-18.24431513 10.75196741 -16.72088071 7.66278653 -13.05599976 3.67758179 C-8.95582677 0.21115919 -5.22300887 -0.02323242 0 0 Z " fill="#375D4B" transform="translate(110.38803100585938,182.73257446289063)"/>
<path d="M0 0 C0.74647439 -0.00453111 1.49294877 -0.00906223 2.2620436 -0.01373065 C4.76465318 -0.02639616 7.26704574 -0.02475291 9.76968384 -0.02310181 C11.56347433 -0.02908571 13.35726224 -0.03589093 15.15104675 -0.04345703 C20.025038 -0.06113807 24.89895904 -0.06581329 29.77297926 -0.0670886 C33.84110432 -0.06898714 37.909213 -0.07634414 41.97733176 -0.08343279 C51.57495364 -0.09972225 61.172538 -0.10460123 70.77017212 -0.10317993 C80.67225223 -0.10197825 90.57411446 -0.12308413 100.47613943 -0.15466726 C108.97646625 -0.18081392 117.47672184 -0.19154791 125.97708857 -0.19026911 C131.05446887 -0.18975902 136.13165556 -0.19546851 141.20899582 -0.21662521 C145.98446314 -0.23598053 150.75955164 -0.23615062 155.53503227 -0.22159195 C157.28698339 -0.2194994 159.03895805 -0.22423125 160.79086876 -0.23631287 C163.18434845 -0.25174888 165.57651922 -0.24246922 167.9699707 -0.22705078 C168.66180871 -0.23733791 169.35364672 -0.24762503 170.06644952 -0.25822389 C176.16812749 -0.17147602 179.61799541 2.38123431 183.92446899 6.45492554 C186.2663759 10.35810371 186.92959929 13.72984988 186.61196899 18.26742554 C185.01479687 23.60385947 182.33713756 27.23847133 177.61196899 30.26742554 C174.13808392 31.42538723 171.03294802 31.41239493 167.42012024 31.40786743 C166.68266738 31.41083855 165.94521453 31.41380968 165.18541461 31.41687083 C162.70738942 31.42556186 160.22941252 31.42706642 157.75137329 31.42855835 C155.97743628 31.43318623 154.20350028 31.43821085 152.42956543 31.44360352 C147.60511429 31.45673227 142.78067707 31.46317339 137.95621085 31.46761417 C134.94281371 31.47054409 131.92942038 31.47464875 128.91602516 31.47911835 C119.48991751 31.49279445 110.06381857 31.50246059 100.63770169 31.50632024 C89.75268949 31.5108016 78.86780282 31.52835266 67.9828288 31.55732083 C59.57170119 31.57892918 51.16060892 31.58902406 42.74945384 31.59036136 C37.72462536 31.59140998 32.69991487 31.59732999 27.67511559 31.61518097 C22.94814632 31.63164702 18.22138392 31.63382428 13.49439621 31.62504196 C11.76018406 31.6242708 10.02596086 31.62862466 8.29177666 31.63850021 C5.92252738 31.65120015 3.55401292 31.64535392 1.18476868 31.63491821 C0.50003044 31.64297462 -0.18470779 31.65103102 -0.89019567 31.65933156 C-5.43839129 31.61254366 -8.51481265 30.62776675 -12.38803101 28.26742554 C-15.80860289 24.65682188 -18.23520214 21.26739966 -18.49349976 16.19711304 C-18.24431513 10.75196741 -16.72088071 7.66278653 -13.05599976 3.67758179 C-8.95582677 0.21115919 -5.22300887 -0.02323242 0 0 Z " fill="#375D4B" transform="translate(110.38803100585938,112.73257446289063)"/>
</svg>
