<?xml version="1.0" encoding="UTF-8"?>
<svg version="1.1" xmlns="http://www.w3.org/2000/svg" width="512" height="512">
<path d="M0 0 C0.99698221 -0.00623996 1.99396442 -0.01247993 3.02115822 -0.01890898 C6.3716031 -0.03490081 9.72132669 -0.02221015 13.07177734 -0.00964355 C15.46979193 -0.0150619 17.86780318 -0.02218293 20.26580811 -0.03088379 C26.10874186 -0.04725537 31.95148737 -0.0448238 37.79441595 -0.03323323 C42.5425876 -0.02420383 47.29070163 -0.02297275 52.03887939 -0.02732849 C52.71437069 -0.02794142 53.38986198 -0.02855436 54.0858227 -0.02918586 C55.45802166 -0.03046475 56.8302206 -0.0317616 58.20241952 -0.03307623 C71.07299099 -0.04448552 83.94344854 -0.03136289 96.81400132 -0.00987476 C107.86027018 0.00799658 118.9063709 0.00489257 129.95263672 -0.0135498 C142.77678636 -0.0349504 155.60083614 -0.04338686 168.42500114 -0.03110075 C169.79218418 -0.02982654 171.15936723 -0.02856906 172.52655029 -0.02732849 C173.1992504 -0.02671139 173.8719505 -0.02609429 174.56503546 -0.02545848 C179.3081315 -0.02200313 184.05116425 -0.02783788 188.79425049 -0.0372467 C195.1767593 -0.04962919 201.55902493 -0.04082769 207.94150543 -0.01766968 C210.28770671 -0.0123684 212.63393466 -0.01392043 214.98012543 -0.02272034 C218.17559186 -0.03360305 221.37002935 -0.01999953 224.56542969 0 C225.967947 -0.01338433 225.967947 -0.01338433 227.39879799 -0.02703905 C233.64777881 0.0491587 233.64777881 0.0491587 236.85829926 2.36893463 C238.73424505 5.18598323 238.79001551 7.03172254 238.80029297 10.40637207 C238.81290161 11.5944043 238.82551025 12.78243652 238.83850098 14.00646973 C238.82635559 15.92531982 238.82635559 15.92531982 238.81396484 17.88293457 C238.81779175 19.19955078 238.82161865 20.51616699 238.82556152 21.87268066 C238.83145208 24.65688891 238.82290898 27.44058307 238.80419922 30.22473145 C238.7814086 33.7894279 238.79453425 37.35291975 238.81848907 40.91757202 C238.83643815 44.32278887 238.82386262 47.72768351 238.81396484 51.13293457 C238.82206177 52.41216797 238.83015869 53.69140137 238.83850098 55.00939941 C238.81958801 56.79144775 238.81958801 56.79144775 238.80029297 58.60949707 C238.7971106 59.65444336 238.79392822 60.69938965 238.79064941 61.77600098 C238.15576923 65.1907134 236.96438362 66.37204788 234.28271484 68.50793457 C232.28271484 69.07434082 232.28271484 69.07434082 230.28271484 69.07043457 C229.62271484 69.09234863 228.96271484 69.1142627 228.28271484 69.13684082 C226.28271484 68.50793457 226.28271484 68.50793457 222.28271484 63.50793457 C222.28271484 47.66793457 222.28271484 31.82793457 222.28271484 15.50793457 C149.68271484 15.50793457 77.08271484 15.50793457 2.28271484 15.50793457 C2.28271484 54.44793457 2.28271484 93.38793457 2.28271484 133.50793457 C74.88271484 133.50793457 147.48271484 133.50793457 222.28271484 133.50793457 C222.28271484 120.30793457 222.28271484 107.10793457 222.28271484 93.50793457 C226.28271484 88.50793457 226.28271484 88.50793457 228.65771484 87.50793457 C232.19011486 87.50793457 234.30160814 88.67861909 237.28271484 90.50793457 C238.5178948 92.97829449 238.43628341 94.66560453 238.47558594 97.42907715 C238.49968033 98.96626152 238.49968033 98.96626152 238.52426147 100.53450012 C238.56865927 105.22331122 238.60977393 109.91198009 238.6328125 114.60095215 C238.64937874 117.07533163 238.67667717 119.54966314 238.71484375 122.02380371 C238.76955335 125.58777746 238.79147828 129.15062894 238.80615234 132.71496582 C238.82882172 133.82032181 238.85149109 134.9256778 238.87484741 136.06452942 C238.85379007 143.70599914 238.85379007 143.70599914 235.99926758 147.71447754 C233.40138425 149.42958951 232.3292516 150.11958241 229.29443359 149.99621582 C228.58867187 149.98010254 227.88291016 149.96398926 227.15576172 149.9473877 C226.07391602 149.8845459 226.07391602 149.8845459 224.97021484 149.82043457 C223.85936523 149.78659668 223.85936523 149.78659668 222.72607422 149.7520752 C220.91074127 149.69351607 219.09645804 149.60384343 217.28271484 149.50793457 C217.28271484 152.14793457 217.28271484 154.78793457 217.28271484 157.50793457 C218.39913864 157.49683151 219.51556244 157.48572845 220.66581726 157.47428894 C231.18621289 157.37293774 241.70650949 157.29798098 252.22728252 157.24887371 C257.63618502 157.22277828 263.04469345 157.18738067 268.45336914 157.1307373 C273.67293483 157.07641642 278.89212147 157.04651363 284.11194801 157.03354836 C286.10350322 157.02430867 288.09503764 157.00626556 290.0864315 156.97928429 C292.87586696 156.94299298 295.66373565 156.93798925 298.45336914 156.94030762 C299.68875427 156.91334305 299.68875427 156.91334305 300.94909668 156.88583374 C305.04308565 156.92265819 306.84469188 157.20292708 310.29510498 159.60554504 C312.7468435 163.18567428 312.91045545 165.19504973 312.91381836 169.51379395 C312.92455132 170.54159721 312.92455132 170.54159721 312.9355011 171.59016418 C312.9523463 173.84469222 312.93301366 176.09721971 312.91162109 178.35168457 C312.9124502 179.92439945 312.91491114 181.49711425 312.91893005 183.06982422 C312.92178515 186.36179772 312.9071161 189.65308977 312.87963867 192.94494629 C312.84555546 197.15854651 312.85157631 201.37092856 312.87030125 205.5845871 C312.8808845 208.83093364 312.87192157 212.07699814 312.85691643 215.32331848 C312.85174382 216.87660382 312.85220524 218.42991872 312.85846138 219.98320007 C312.86393003 222.15679963 312.84348996 224.32867259 312.81616211 226.5020752 C312.80686424 228.35476013 312.80686424 228.35476013 312.79737854 230.24487305 C312.18994314 234.09612409 311.00785473 235.77005156 308.28271484 238.50793457 C306.28271484 239.13684082 306.28271484 239.13684082 304.28271484 239.07043457 C303.62271484 239.07172363 302.96271484 239.0730127 302.28271484 239.07434082 C300.28271484 238.50793457 300.28271484 238.50793457 296.28271484 234.50793457 C296.28271484 224.27793457 296.28271484 214.04793457 296.28271484 203.50793457 C174.84271484 203.50793457 53.40271484 203.50793457 -71.71728516 203.50793457 C-71.71728516 259.93793457 -71.71728516 316.36793457 -71.71728516 374.50793457 C-75.71728516 379.50793457 -75.71728516 379.50793457 -77.71728516 380.17199707 C-78.70728516 380.15266113 -78.70728516 380.15266113 -79.71728516 380.13293457 C-80.37728516 380.1458252 -81.03728516 380.15871582 -81.71728516 380.17199707 C-84.91879665 379.10899521 -85.9235465 377.32668379 -87.71728516 374.50793457 C-88.10499344 371.51129055 -88.26251823 368.88521134 -88.23194885 365.89196777 C-88.23889438 365.02551038 -88.24583991 364.15905298 -88.25299591 363.2663393 C-88.27128954 360.36353616 -88.26099506 357.4615481 -88.25073242 354.55871582 C-88.25778965 352.47744128 -88.26653383 350.39617188 -88.27684021 348.31491089 C-88.29936462 342.66207505 -88.29638746 337.00951878 -88.28751874 331.35665512 C-88.28241347 326.63970311 -88.28969759 321.92280385 -88.29699081 317.20585728 C-88.31399918 306.08026594 -88.31041405 294.95481174 -88.29370117 283.82922363 C-88.27677296 272.34506961 -88.29262211 260.86129549 -88.32492405 249.37718296 C-88.35159729 239.52143061 -88.35890224 229.66579669 -88.35040897 219.81001186 C-88.34547389 213.92168687 -88.34772711 208.03359059 -88.36819649 202.14529419 C-88.38651824 196.60970767 -88.38063751 191.07466896 -88.35599709 185.53911209 C-88.35097836 183.50616353 -88.35450634 181.47317349 -88.36714554 179.44025803 C-88.38302243 176.66750505 -88.36817631 173.89656786 -88.34547424 171.12390137 C-88.35730997 170.31699513 -88.3691457 169.5100889 -88.38134009 168.67873096 C-88.31458068 164.67300864 -87.88537712 162.72838929 -85.42914963 159.50701618 C-82.81480225 157.5798204 -81.84936534 156.88463331 -78.69926453 156.90666199 C-77.93511734 156.89978867 -77.17097015 156.89291534 -76.38366699 156.88583374 C-75.5600769 156.90381012 -74.73648682 156.9217865 -73.88793945 156.94030762 C-73.00938797 156.93957748 -72.13083649 156.93884735 -71.22566223 156.93809509 C-68.33030826 156.94157034 -65.43657579 156.98042817 -62.54150391 157.01965332 C-60.53083678 157.02898168 -58.52015827 157.03609768 -56.50947571 157.04109192 C-51.22379034 157.06015985 -45.93879468 157.10925934 -40.65338135 157.16461182 C-35.25745982 157.21580844 -29.86142657 157.23860687 -24.46533203 157.26379395 C-13.88234713 157.3173779 -3.29987355 157.40268861 7.28271484 157.50793457 C7.28271484 154.86793457 7.28271484 152.22793457 7.28271484 149.50793457 C5.63722656 149.59494629 5.63722656 149.59494629 3.95849609 149.68371582 C2.5041117 149.73063145 1.04968111 149.77612968 -0.40478516 149.82043457 C-1.12601562 149.8623291 -1.84724609 149.90422363 -2.59033203 149.9473877 C-3.64897461 149.97155762 -3.64897461 149.97155762 -4.72900391 149.99621582 C-5.69519653 150.03549194 -5.69519653 150.03549194 -6.6809082 150.07556152 C-10.06159071 149.13321806 -12.01941791 147.50286005 -13.71728516 144.50793457 C-14.48636183 140.06533432 -14.38932832 135.6510344 -14.34838867 131.15222168 C-14.35352949 129.77867204 -14.360812 128.405129 -14.37007141 127.03160095 C-14.38857189 123.30835776 -14.37565686 119.58583147 -14.35598111 115.86261821 C-14.33958504 111.96472397 -14.34840867 108.06687479 -14.35350037 104.16896057 C-14.35801974 97.62452756 -14.34216008 91.08038052 -14.31420898 84.53601074 C-14.28214418 76.97013855 -14.28217836 69.4047817 -14.29942375 61.83887285 C-14.31528663 54.55859347 -14.30855776 47.278503 -14.29148674 39.99823189 C-14.28461477 36.90058932 -14.28565007 33.80309813 -14.29303169 30.70545769 C-14.30069237 27.05844303 -14.28857655 23.41201507 -14.26118279 19.76510048 C-14.25101059 17.7883093 -14.26048323 15.81144769 -14.27050781 13.83465576 C-14.25142113 12.07027412 -14.25142113 12.07027412 -14.23194885 10.27024841 C-14.22914193 9.24802154 -14.22633501 8.22579466 -14.22344303 7.17259121 C-13.71728516 4.50793457 -13.71728516 4.50793457 -12.292449 2.17953587 C-8.33141143 -0.39166967 -4.62853034 -0.04417042 0 0 Z M23.28271484 149.50793457 C23.28271484 152.14793457 23.28271484 154.78793457 23.28271484 157.50793457 C26.58271484 157.50793457 29.88271484 157.50793457 33.28271484 157.50793457 C33.28271484 154.86793457 33.28271484 152.22793457 33.28271484 149.50793457 C29.98271484 149.50793457 26.68271484 149.50793457 23.28271484 149.50793457 Z M49.28271484 149.50793457 C49.28271484 152.14793457 49.28271484 154.78793457 49.28271484 157.50793457 C90.86271484 157.50793457 132.44271484 157.50793457 175.28271484 157.50793457 C175.28271484 154.86793457 175.28271484 152.22793457 175.28271484 149.50793457 C133.70271484 149.50793457 92.12271484 149.50793457 49.28271484 149.50793457 Z M191.28271484 149.50793457 C191.28271484 152.14793457 191.28271484 154.78793457 191.28271484 157.50793457 C194.58271484 157.50793457 197.88271484 157.50793457 201.28271484 157.50793457 C201.28271484 154.86793457 201.28271484 152.22793457 201.28271484 149.50793457 C197.98271484 149.50793457 194.68271484 149.50793457 191.28271484 149.50793457 Z M-71.71728516 173.50793457 C-71.71728516 178.12793457 -71.71728516 182.74793457 -71.71728516 187.50793457 C49.72271484 187.50793457 171.16271484 187.50793457 296.28271484 187.50793457 C296.28271484 182.88793457 296.28271484 178.26793457 296.28271484 173.50793457 C174.84271484 173.50793457 53.40271484 173.50793457 -71.71728516 173.50793457 Z " fill="#017261" transform="translate(143.71728515625,-0.5079345703125)"/>
<path d="M0 0 C0.99 -0.03287109 0.99 -0.03287109 2 -0.06640625 C5.21065508 0.94319427 6.20911704 2.76116428 8 5.5625 C8.37710565 8.46291299 8.52451891 10.97583025 8.48101807 13.87043762 C8.48443577 14.70367088 8.48785347 15.53690413 8.49137473 16.39538687 C8.49795993 19.18557282 8.47596721 21.97479536 8.45410156 24.76489258 C8.45297322 26.76560442 8.45360668 28.76631793 8.45587158 30.76702881 C8.45702018 36.19852259 8.43348708 41.6296637 8.40557575 47.06107545 C8.38058649 52.7372066 8.37822205 58.41334565 8.37347412 64.08952332 C8.36103709 74.83818093 8.32820553 85.58667599 8.28807616 96.335262 C8.24338117 108.57212341 8.22137711 120.80899254 8.20129442 133.04591525 C8.15947363 158.21820032 8.08910733 183.39034105 8 208.5625 C9.02480469 208.50449219 10.04960937 208.44648438 11.10546875 208.38671875 C12.46610011 208.33980043 13.82678096 208.29430248 15.1875 208.25 C16.19780273 208.1871582 16.19780273 208.1871582 17.22851562 208.12304688 C21.1394317 208.02765868 22.82045426 208.42393701 25.94883728 210.83824158 C28.69374379 214.48389806 28.70440331 217.61369344 28.62890625 222.00390625 C28.63131821 222.80859848 28.63373016 223.61329071 28.63621521 224.44236755 C28.63523872 226.13765407 28.62189208 227.83297325 28.59692383 229.52807617 C28.56255659 232.12073059 28.57628638 234.70998507 28.59570312 237.30273438 C28.58880571 238.95313948 28.57913426 240.60353581 28.56640625 242.25390625 C28.57136612 243.02690567 28.57632599 243.79990509 28.58143616 244.59632874 C28.50990237 247.86816357 28.35221162 250.07163259 26.41839218 252.76674223 C23.09790402 255.23234416 20.8895848 255.06382134 16.77227783 255.06586456 C16.03948341 255.07167833 15.30668899 255.07749209 14.55168867 255.08348203 C12.08263144 255.09814409 9.6145587 255.08416858 7.14550781 255.07043457 C5.36298741 255.07504105 3.58047081 255.08139226 1.79796219 255.08934355 C-3.1108606 255.10609482 -8.01937372 255.09776425 -12.92819786 255.08539867 C-18.21798208 255.07637416 -23.50771184 255.09030497 -28.79748535 255.10131836 C-39.16432362 255.119136 -49.53104627 255.11524916 -59.89788914 255.1036678 C-68.32072972 255.09464649 -76.74353782 255.09340382 -85.16638184 255.09776306 C-86.36364104 255.09837599 -87.56090024 255.09898893 -88.79444003 255.09962043 C-91.22639498 255.10089929 -93.65834992 255.10219614 -96.09030485 255.1035108 C-118.91266023 255.1149261 -141.73495142 255.10178798 -164.55729628 255.08030933 C-184.15411509 255.0624375 -203.75083914 255.06554134 -223.34765625 255.08398438 C-246.08648363 255.1053743 -268.8252547 255.11382738 -291.56409073 255.10153532 C-293.98726653 255.10026108 -296.41044234 255.0990036 -298.83361816 255.09776306 C-300.025971 255.09714596 -301.21832384 255.09652886 -302.44680858 255.09589306 C-310.86278681 255.09243452 -319.27872943 255.09827933 -327.69470215 255.10768127 C-337.94631268 255.11888179 -348.19780066 255.11590229 -358.44939709 255.0945583 C-363.68327775 255.08402163 -368.91695383 255.0799705 -374.15083313 255.09315491 C-378.93745382 255.10503058 -383.72367933 255.09859637 -388.51026392 255.0772447 C-390.24640463 255.07275808 -391.98257838 255.07509075 -393.71869802 255.08474785 C-396.07037269 255.09683054 -398.42067601 255.08452144 -400.77227783 255.06586456 C-402.08090412 255.06521515 -403.38953041 255.06456574 -404.73781204 255.06389666 C-408 254.5625 -408 254.5625 -410.41839218 252.76674223 C-412.78717383 249.46543802 -412.59152693 246.168983 -412.56640625 242.25390625 C-412.57260483 241.45017075 -412.57880341 240.64643524 -412.58518982 239.81834412 C-412.59228199 238.12134002 -412.5891244 236.42426626 -412.57641602 234.72729492 C-412.56256176 232.13654882 -412.59660937 229.54942476 -412.63476562 226.95898438 C-412.63571701 225.30729079 -412.63385696 223.65559269 -412.62890625 222.00390625 C-412.64216446 221.23293106 -412.65542267 220.46195587 -412.66908264 219.6676178 C-412.60444929 215.91600081 -412.22474835 213.86100025 -409.94883728 210.83824158 C-406.29408576 208.01771634 -403.60057933 207.97550224 -399.1875 208.25 C-398.14819336 208.28383789 -398.14819336 208.28383789 -397.08789062 208.31835938 C-395.39098427 208.37687339 -393.69520139 208.4665452 -392 208.5625 C-392.00888245 207.79686234 -392.01776489 207.03122467 -392.0269165 206.24238586 C-392.10714597 199.01835231 -392.16800634 191.79453551 -392.20724869 184.57017231 C-392.22810212 180.85623951 -392.25637755 177.14267559 -392.30175781 173.42895508 C-392.34529746 169.84332352 -392.369154 166.2580462 -392.37950897 162.67217064 C-392.38688594 161.30582288 -392.40129181 159.93949398 -392.42292023 158.5732975 C-392.45205572 156.65623595 -392.45363476 154.73881609 -392.45410156 152.8215332 C-392.46298401 151.73121292 -392.47186646 150.64089264 -392.48101807 149.51753235 C-391.88531191 145.85793807 -390.56445652 144.18994625 -388 141.5625 C-386 140.93359375 -386 140.93359375 -384 141 C-383.34 140.99871094 -382.68 140.99742187 -382 140.99609375 C-380 141.5625 -380 141.5625 -376 145.5625 C-376 166.3525 -376 187.1425 -376 208.5625 C-332.44 208.5625 -288.88 208.5625 -244 208.5625 C-244.19793149 180.11060341 -244.19793149 180.11060341 -244.45043945 151.65917969 C-244.47302246 146.15478516 -244.47302246 146.15478516 -244.47721863 143.57745361 C-244.48489377 141.77839985 -244.50247389 139.97937173 -244.52787781 138.18048096 C-244.56445205 135.45417652 -244.56953136 132.7294425 -244.56762695 130.00292969 C-244.58561749 129.20227459 -244.60360804 128.40161949 -244.62214375 127.57670212 C-244.58825181 123.95495276 -244.29998173 121.9432936 -242.03434753 119.06732178 C-237.8857305 117.00990113 -234.45705229 117.00150888 -229.8828125 117.04492188 C-228.9732782 117.0379126 -228.0637439 117.03090332 -227.12664795 117.02368164 C-224.12578634 117.00610353 -221.12587089 117.01772389 -218.125 117.03125 C-216.03661926 117.02855504 -213.94823973 117.02467258 -211.85986328 117.01965332 C-207.48522991 117.01375851 -203.11092347 117.02232086 -198.73632812 117.04101562 C-193.13056414 117.06380494 -187.5255662 117.0506818 -181.91983032 117.02672577 C-177.60809565 117.01226746 -173.2965424 117.01687398 -168.98480225 117.02723694 C-166.91794748 117.02990412 -164.85107621 117.02663477 -162.78424072 117.01731873 C-159.89477951 117.00715281 -157.00655655 117.02265511 -154.1171875 117.04492188 C-153.26404968 117.03682495 -152.41091187 117.02872803 -151.53192139 117.02038574 C-147.75564657 117.07426243 -145.39284572 117.36767631 -141.96565247 119.06732178 C-139.20045454 122.57743446 -139.33615824 125.72096422 -139.43237305 130.00292969 C-139.43146904 131.29719313 -139.43146904 131.29719313 -139.43054676 132.6176033 C-139.43427518 135.40718579 -139.47232853 138.19509193 -139.51171875 140.984375 C-139.5190714 142.70783687 -139.52417154 144.43130988 -139.52697754 146.15478516 C-139.55317784 152.54086052 -139.62298425 158.92669678 -139.6875 165.3125 C-139.790625 179.585 -139.89375 193.8575 -140 208.5625 C-96.44 208.5625 -52.88 208.5625 -8 208.5625 C-8.04640625 193.88265625 -8.0928125 179.2028125 -8.140625 164.078125 C-8.16105382 154.79947637 -8.18047418 145.52084396 -8.1953125 136.2421875 C-8.21907333 121.50222221 -8.24704892 106.76234819 -8.30175781 92.02246094 C-8.34157806 81.28883223 -8.36742153 70.55527735 -8.37635398 59.82157683 C-8.38157686 54.13608776 -8.39388483 48.45080997 -8.42292023 42.76538849 C-8.45001321 37.4171218 -8.45845735 32.06915399 -8.45243073 26.7208252 C-8.4535337 24.75516894 -8.46152383 22.78950298 -8.4768219 20.82390594 C-8.49665415 18.14494928 -8.49196411 15.46712862 -8.48101807 12.78814697 C-8.49266943 12.00604489 -8.5043208 11.2239428 -8.51632524 10.41814065 C-8.47699865 6.86986226 -8.28835705 4.93768503 -6.09493637 2.08379745 C-3.8389126 0.44552181 -2.75804368 -0.0053868 0 0 Z M-228 133.5625 C-228 158.3125 -228 183.0625 -228 208.5625 C-218.76 208.5625 -209.52 208.5625 -200 208.5625 C-200 183.8125 -200 159.0625 -200 133.5625 C-209.24 133.5625 -218.48 133.5625 -228 133.5625 Z M-184 133.5625 C-184 158.3125 -184 183.0625 -184 208.5625 C-174.76 208.5625 -165.52 208.5625 -156 208.5625 C-156 183.8125 -156 159.0625 -156 133.5625 C-165.24 133.5625 -174.48 133.5625 -184 133.5625 Z M-396 224.5625 C-396 229.5125 -396 234.4625 -396 239.5625 C-261.36 239.5625 -126.72 239.5625 12 239.5625 C12 234.6125 12 229.6625 12 224.5625 C-122.64 224.5625 -257.28 224.5625 -396 224.5625 Z " fill="#017260" transform="translate(448,257.4375)"/>
<path d="M0 0 C0.9477832 -0.01583633 1.89556641 -0.03167267 2.87207031 -0.04798889 C4.39719238 -0.04054909 4.39719238 -0.04054909 5.953125 -0.03295898 C7.00338867 -0.03915756 8.05365234 -0.04535614 9.13574219 -0.05174255 C11.35480828 -0.058842 13.57392762 -0.0556646 15.79296875 -0.04296875 C19.19109913 -0.02910181 22.58647719 -0.06317568 25.984375 -0.10131836 C28.14062567 -0.10226953 30.2968798 -0.10041086 32.453125 -0.09545898 C33.97824707 -0.1153463 33.97824707 -0.1153463 35.53417969 -0.13563538 C36.95585449 -0.11683571 36.95585449 -0.11683571 38.40625 -0.09765625 C39.23801758 -0.09669449 40.06978516 -0.09573273 40.92675781 -0.09474182 C44.42306993 0.87010477 45.40304361 2.42803943 47.203125 5.53344727 C47.58041526 8.4628315 47.73109189 11.00882873 47.68896484 13.93212891 C47.69276154 14.76524094 47.69655823 15.59835297 47.70046997 16.45671082 C47.70786235 19.20272816 47.68651353 21.94768067 47.6640625 24.69360352 C47.66167738 26.60501481 47.6607729 28.51642847 47.6612854 30.42784119 C47.65815975 34.43007116 47.64161124 38.43194231 47.61474609 42.43408203 C47.5807437 47.56447268 47.57311833 52.69446962 47.57463646 57.82495975 C47.57409269 61.77033751 47.56312482 65.71562919 47.54863358 69.66097832 C47.54226939 71.55281358 47.53832757 73.44465859 47.53684616 75.33650398 C47.53251044 77.97922518 47.51500429 80.62152871 47.49365234 83.26416016 C47.4950119 84.43705093 47.4950119 84.43705093 47.49639893 85.63363647 C47.41621891 92.41926055 47.41621891 92.41926055 45.203125 95.53344727 C40.73581388 98.24605013 35.7631769 97.82242528 30.703125 97.79907227 C29.78982422 97.80098572 28.87652344 97.80289917 27.93554688 97.80487061 C26.00911177 97.80622852 24.0826674 97.80255958 22.15625 97.79418945 C19.21333189 97.78348439 16.2710242 97.7940981 13.328125 97.80688477 C11.45312366 97.8055631 9.57812269 97.80300056 7.703125 97.79907227 C6.38731445 97.80514496 6.38731445 97.80514496 5.04492188 97.81134033 C-0.43776146 97.76941109 -4.72885084 97.60147142 -8.796875 93.53344727 C-9.00604135 90.72367698 -9.09051501 88.01167286 -9.08740234 85.19995117 C-9.09411957 84.33801651 -9.10083679 83.47608185 -9.10775757 82.58802795 C-9.12681016 79.72863048 -9.1306655 76.86946683 -9.1328125 74.01000977 C-9.13923572 72.02704775 -9.14596371 70.0440867 -9.15298462 68.06112671 C-9.1649758 63.89985964 -9.16866359 59.73867571 -9.16748047 55.57739258 C-9.16727725 50.24165068 -9.19457401 44.90644126 -9.22902489 39.57082558 C-9.25124928 35.47361802 -9.25531937 31.37653947 -9.25426102 27.2792778 C-9.25662392 25.31205791 -9.26548602 23.34483482 -9.28092575 21.3776741 C-9.30049431 18.62664655 -9.29478371 15.87677814 -9.28271484 13.12573242 C-9.29395386 12.31103989 -9.30519287 11.49634735 -9.31677246 10.65696716 C-9.27757045 7.14532799 -9.08745613 4.95384372 -7.0663147 2.0297699 C-4.46079233 0.31185596 -3.0985868 0.02309158 0 0 Z M7.203125 16.53344727 C7.203125 37.98344727 7.203125 59.43344727 7.203125 81.53344727 C15.123125 81.53344727 23.043125 81.53344727 31.203125 81.53344727 C31.203125 60.08344727 31.203125 38.63344727 31.203125 16.53344727 C23.283125 16.53344727 15.363125 16.53344727 7.203125 16.53344727 Z " fill="#017260" transform="translate(308.796875,25.466552734375)"/>
<path d="M0 0 C0.9477832 -0.01260864 1.89556641 -0.02521729 2.87207031 -0.03820801 C4.39719238 -0.02606262 4.39719238 -0.02606262 5.953125 -0.01367188 C7.00338867 -0.01749878 8.05365234 -0.02132568 9.13574219 -0.02526855 C11.35482747 -0.02798883 13.57394474 -0.02061964 15.79296875 -0.00390625 C19.19083095 0.01750067 22.58657861 -0.00370513 25.984375 -0.02929688 C28.14062967 -0.02665362 30.29688302 -0.02152869 32.453125 -0.01367188 C33.46987305 -0.0217688 34.48662109 -0.02986572 35.53417969 -0.03820801 C42.48686215 0.0542856 42.48686215 0.0542856 45.83959961 2.22290039 C48.39681577 6.52644106 47.81697831 11.07651353 47.765625 15.95507812 C47.80139648 17.5106543 47.80139648 17.5106543 47.83789062 19.09765625 C47.82329437 26.67311417 47.82329437 26.67311417 44.859375 30.70898438 C41.61752784 32.9163009 40.05016149 33.17239285 36.203125 32.51757812 C33.0672093 30.73773408 32.36209764 29.99449606 31.203125 26.51757812 C31.203125 23.21757813 31.203125 19.91757812 31.203125 16.51757812 C23.283125 16.51757812 15.363125 16.51757812 7.203125 16.51757812 C7.203125 37.96757813 7.203125 59.41757813 7.203125 81.51757812 C15.123125 81.51757812 23.043125 81.51757812 31.203125 81.51757812 C31.203125 74.91757813 31.203125 68.31757812 31.203125 61.51757812 C27.903125 61.51757812 24.603125 61.51757812 21.203125 61.51757812 C18.02845644 58.94760834 17.33931258 57.47089117 16.765625 53.45507812 C17.24938385 50.20698298 17.89723774 48.82346538 20.203125 46.51757812 C24.20422623 45.18387772 27.88815903 45.29422338 32.078125 45.26757812 C32.88121094 45.24695313 33.68429687 45.22632813 34.51171875 45.20507812 C39.23500231 45.1739527 42.37705303 45.42671214 46.203125 48.51757812 C47.32970779 50.77074371 47.34638254 52.03559879 47.38012695 54.53662109 C47.39937981 55.77833572 47.39937981 55.77833572 47.41902161 57.0451355 C47.42640854 57.94096344 47.43379547 58.83679138 47.44140625 59.75976562 C47.449478 60.67968292 47.45754974 61.59960022 47.46586609 62.5473938 C47.47970857 64.49593214 47.49042999 66.44449475 47.49829102 68.39306641 C47.51551671 71.37383874 47.55940237 74.35350568 47.60351562 77.33398438 C47.61364135 79.22590329 47.62215783 81.11783165 47.62890625 83.00976562 C47.64641434 83.9015451 47.66392242 84.79332458 47.68196106 85.71212769 C47.66029904 91.88822797 47.66029904 91.88822797 45.36401367 95.04931641 C42.26763131 97.15321919 39.75539294 97.644133 36.10229492 97.67871094 C34.87037666 97.69312225 34.87037666 97.69312225 33.61357117 97.70782471 C32.28698235 97.71419952 32.28698235 97.71419952 30.93359375 97.72070312 C30.01983475 97.7264032 29.10607574 97.73210327 28.16462708 97.73797607 C26.23045 97.7474223 24.29625685 97.75395856 22.36206055 97.7578125 C19.41230964 97.76750686 16.46325893 97.7985291 13.51367188 97.83007812 C11.63281663 97.8366096 9.75195641 97.84185951 7.87109375 97.84570312 C6.9927739 97.85804993 6.11445404 97.87039673 5.20951843 97.88311768 C0.13279328 97.86477759 -3.41335497 97.37868584 -7.796875 94.51757812 C-9.40275793 91.30581227 -8.96215276 87.80499238 -8.97387695 84.27587891 C-8.98044815 83.42369781 -8.98701935 82.57151672 -8.99378967 81.69351196 C-9.01353982 78.86663735 -9.02518812 76.03981586 -9.03515625 73.21289062 C-9.03923178 72.24885189 -9.0433073 71.28481316 -9.04750633 70.29156113 C-9.06837285 65.19063276 -9.08267293 60.08973136 -9.09204102 54.98876953 C-9.10311606 49.71359153 -9.13752693 44.43883412 -9.17721272 39.16380501 C-9.20332324 35.11293743 -9.21172782 31.06217099 -9.21532249 27.01122665 C-9.22020166 25.06632517 -9.23185326 23.12142859 -9.25036049 21.17660904 C-9.27463732 18.45675282 -9.27380823 15.73799717 -9.2668457 13.01806641 C-9.27965576 12.21272461 -9.29246582 11.40738281 -9.30566406 10.57763672 C-9.27301721 7.0841159 -9.07949148 4.92591081 -7.06730652 2.01864624 C-4.45725056 0.29303957 -3.1059917 0.01188364 0 0 Z " fill="#017260" transform="translate(236.796875,25.482421875)"/>
<path d="M0 0 C0.99 0.01933594 0.99 0.01933594 2 0.0390625 C2.66 0.02617187 3.32 0.01328125 4 0 C7.29452231 1.09388436 8.30487724 2.67244175 10 5.6640625 C10.06079984 7.84954037 9.81783249 9.92672192 9.59008789 12.10058594 C9.04103229 18.48483741 9.39358476 23.4004611 13.18896484 28.74853516 C19.10364507 35.69613434 26.06047317 41.76880466 33 47.6640625 C33.01458252 46.48376465 33.02916504 45.3034668 33.04418945 44.08740234 C33.10232697 39.69256875 33.17955881 35.29823924 33.26245117 30.90380859 C33.29562793 29.00480351 33.32368231 27.10570154 33.34643555 25.20654297 C33.38011518 22.47061015 33.4324372 19.73555939 33.48828125 17 C33.49467117 16.15601654 33.5010611 15.31203308 33.50764465 14.44247437 C33.63045341 9.47670165 34.2385314 5.96137317 37 1.6640625 C40.09173752 0.11819374 42.59429552 0.37046729 46 0.6640625 C48.19520569 2.14756775 48.19520569 2.14756775 50 4.6640625 C50.38939083 7.6470924 50.53715867 10.25899406 50.50170898 13.24047852 C50.50711197 14.10431152 50.51251495 14.96814453 50.51808167 15.8581543 C50.53058304 18.71177492 50.51407006 21.56438951 50.49609375 24.41796875 C50.49624869 26.40046746 50.49773686 28.38296647 50.50050354 30.36546326 C50.50188812 34.51908772 50.48931844 38.67236712 50.46655273 42.82592773 C50.43814951 48.15494184 50.4409097 53.48338331 50.45364285 58.81243992 C50.46059089 62.90533862 50.45282105 66.9981045 50.44038582 71.09098625 C50.43586412 73.05621774 50.43554077 75.02146345 50.43945122 76.98669624 C50.44235534 79.73044298 50.42589562 82.47339464 50.40405273 85.21704102 C50.40855438 86.03218674 50.41305603 86.84733246 50.41769409 87.68717957 C50.34503478 93.16857999 50.34503478 93.16857999 48.6231842 95.64122009 C46.36403528 97.06481288 44.66751895 97.47352543 42 97.6640625 C38.90346249 96.7279 37.29576678 95.95982928 35 93.6640625 C33.84467815 90.87259121 34.06441414 89.1630636 34.45703125 86.109375 C35.15275802 79.41878945 34.90333184 74.25191857 30.79785156 68.66992188 C24.81590836 61.75486657 17.90244546 55.6371547 11 49.6640625 C10.9906543 50.94571289 10.98130859 52.22736328 10.97167969 53.54785156 C10.93179939 58.30422692 10.86604585 63.05995412 10.79248047 67.81591797 C10.76425951 69.87410148 10.74305059 71.9323936 10.72900391 73.99072266 C10.7075901 76.95011035 10.66094779 79.9081907 10.609375 82.8671875 C10.60753204 84.24707855 10.60753204 84.24707855 10.60565186 85.65484619 C10.45932454 92.04108426 10.45932454 92.04108426 8.11425781 95.22167969 C5.61039094 96.92986046 4.03163196 97.51617801 1 97.6640625 C-1.77904129 96.95314496 -3.42856955 96.45811843 -5.12637329 94.09886169 C-6.39391826 90.56621162 -6.29482406 87.10154959 -6.29052734 83.39477539 C-6.29724457 82.56341568 -6.30396179 81.73205597 -6.31088257 80.87550354 C-6.32986986 78.12918105 -6.33378695 75.38310278 -6.3359375 72.63671875 C-6.34236429 70.72627156 -6.34909257 68.81582536 -6.35610962 66.90538025 C-6.36808376 62.90149656 -6.37179024 58.89769916 -6.37060547 54.89379883 C-6.37040213 49.76446898 -6.39771913 44.63569226 -6.43214989 39.50649357 C-6.45439035 35.56108561 -6.45844391 31.61581145 -6.45738602 27.67034721 C-6.45974571 25.77931243 -6.46858991 23.88827416 -6.48405075 21.9973011 C-6.50365565 19.35205471 -6.49789496 16.70801005 -6.48583984 14.06274414 C-6.49707886 13.28284119 -6.50831787 12.50293823 -6.51989746 11.69940186 C-6.47671409 7.96886139 -6.1224216 5.85574981 -4.09463501 2.6806488 C-2 0.6640625 -2 0.6640625 0 0 Z " fill="#017260" transform="translate(162,25.3359375)"/>
<path d="M0 0 C0.76217331 -0.00807175 1.52434662 -0.01614349 2.30961609 -0.02445984 C3.92440518 -0.0382985 5.53922349 -0.04902164 7.15405273 -0.05688477 C9.61694208 -0.07408067 12.07848281 -0.11796382 14.54101562 -0.16210938 C16.11066722 -0.1722381 17.68033022 -0.18075364 19.25 -0.1875 C19.98350174 -0.20500809 20.71700348 -0.22251617 21.47273254 -0.24055481 C25.10140374 -0.22525574 27.16263549 0.13727663 30.26635742 2.07739258 C33.32584271 5.29005177 33.45249455 7.92597554 33.48535156 12.18115234 C33.49495911 13.18584564 33.50456665 14.19053894 33.51446533 15.22567749 C33.51871521 16.31007111 33.52296509 17.39446472 33.52734375 18.51171875 C33.53304382 19.62761383 33.5387439 20.74350891 33.5446167 21.89321899 C33.55406709 24.25530041 33.56060083 26.61739501 33.56445312 28.97949219 C33.57416164 32.59203076 33.60518657 36.20400116 33.63671875 39.81640625 C33.64324856 42.1106737 33.64849912 44.40494523 33.65234375 46.69921875 C33.66469055 47.7795639 33.67703735 48.85990906 33.6897583 49.97299194 C33.66169549 59.42667557 33.66169549 59.42667557 30.32421875 63.23828125 C26.64562101 65.69067975 23.81029962 65.56131023 19.55078125 65.57421875 C18.40964371 65.58420395 18.40964371 65.58420395 17.24545288 65.59439087 C15.6366416 65.60451048 14.02778839 65.6092081 12.41894531 65.60888672 C9.96478568 65.61325355 7.51243442 65.64955909 5.05859375 65.6875 C3.49349572 65.69336974 1.92838916 65.69733808 0.36328125 65.69921875 C-0.36708344 65.71358978 -1.09744812 65.72796082 -1.84994507 65.74276733 C-6.74598453 65.69914767 -9.24554545 64.72868236 -12.67578125 61.23828125 C-13.92377296 58.74229782 -13.82296235 57.01838902 -13.8527832 54.2253418 C-13.86561844 53.18053146 -13.87845367 52.13572113 -13.89167786 51.05924988 C-13.89906479 49.92594742 -13.90645172 48.79264496 -13.9140625 47.625 C-13.92213425 46.46329788 -13.93020599 45.30159576 -13.93852234 44.10469055 C-13.95237151 41.64248145 -13.96308992 39.18025309 -13.97094727 36.71801758 C-13.98816316 32.95161585 -14.03204382 29.18609093 -14.07617188 25.41992188 C-14.08629822 23.02995438 -14.0948145 20.63997942 -14.1015625 18.25 C-14.11907059 17.12277023 -14.13657867 15.99554047 -14.15461731 14.83415222 C-14.13289066 7.0046687 -14.13289066 7.0046687 -11.77416992 3.05004883 C-8.01342612 -0.19701106 -4.77044484 0.04764761 0 0 Z M2.32421875 16.23828125 C2.32421875 27.12828125 2.32421875 38.01828125 2.32421875 49.23828125 C7.27421875 49.23828125 12.22421875 49.23828125 17.32421875 49.23828125 C17.32421875 38.34828125 17.32421875 27.45828125 17.32421875 16.23828125 C12.37421875 16.23828125 7.42421875 16.23828125 2.32421875 16.23828125 Z " fill="#017260" transform="translate(392.67578125,374.76171875)"/>
<path d="M0 0 C0.76075836 -0.0066568 1.52151672 -0.0133136 2.30532837 -0.02017212 C3.91413965 -0.03029173 5.52299286 -0.03498935 7.13183594 -0.03466797 C9.58599557 -0.0390348 12.03834683 -0.07534034 14.4921875 -0.11328125 C16.05728553 -0.11915099 17.62239209 -0.12311933 19.1875 -0.125 C20.28304703 -0.14655655 20.28304703 -0.14655655 21.40072632 -0.16854858 C26.29676578 -0.12492892 28.7963267 0.84553639 32.2265625 4.3359375 C33.47455421 6.83192093 33.3737436 8.55582973 33.40356445 11.34887695 C33.42281731 12.91609245 33.42281731 12.91609245 33.44245911 14.51496887 C33.44984604 15.64827133 33.45723297 16.78157379 33.46484375 17.94921875 C33.4729155 19.11092087 33.48098724 20.27262299 33.48930359 21.4695282 C33.50315276 23.9317373 33.51387117 26.39396566 33.52172852 28.85620117 C33.53894441 32.6226029 33.58282507 36.38812782 33.62695312 40.15429688 C33.63707947 42.54426437 33.64559575 44.93423933 33.65234375 47.32421875 C33.66985184 48.45144852 33.68735992 49.57867828 33.70539856 50.74006653 C33.68367191 58.56955005 33.68367191 58.56955005 31.32495117 62.52416992 C27.56420737 65.77122981 24.32122609 65.52657114 19.55078125 65.57421875 C18.78860794 65.5822905 18.02643463 65.59036224 17.24116516 65.59867859 C15.62637607 65.61251725 14.01155776 65.62324039 12.39672852 65.63110352 C9.93383917 65.64829942 7.47229844 65.69218257 5.00976562 65.73632812 C3.44011403 65.74645685 1.87045103 65.75497239 0.30078125 65.76171875 C-0.43272049 65.77922684 -1.16622223 65.79673492 -1.92195129 65.81477356 C-5.55062249 65.79947449 -7.61185424 65.43694212 -10.71557617 63.49682617 C-13.77506146 60.28416698 -13.9017133 57.64824321 -13.93457031 53.39306641 C-13.94417786 52.38837311 -13.9537854 51.38367981 -13.96368408 50.34854126 C-13.96793396 49.26414764 -13.97218384 48.17975403 -13.9765625 47.0625 C-13.98226257 45.94660492 -13.98796265 44.83070984 -13.99383545 43.68099976 C-14.00328584 41.31891834 -14.00981958 38.95682374 -14.01367188 36.59472656 C-14.02338039 32.98218799 -14.05440532 29.37021759 -14.0859375 25.7578125 C-14.09246731 23.46354505 -14.09771787 21.16927352 -14.1015625 18.875 C-14.1139093 17.79465485 -14.1262561 16.71430969 -14.13897705 15.60122681 C-14.11091424 6.14754318 -14.11091424 6.14754318 -10.7734375 2.3359375 C-7.09483976 -0.116461 -4.25951837 0.01290852 0 0 Z M2.2265625 16.3359375 C2.2265625 27.2259375 2.2265625 38.1159375 2.2265625 49.3359375 C7.1765625 49.3359375 12.1265625 49.3359375 17.2265625 49.3359375 C17.2265625 38.4459375 17.2265625 27.5559375 17.2265625 16.3359375 C12.2765625 16.3359375 7.3265625 16.3359375 2.2265625 16.3359375 Z " fill="#017260" transform="translate(99.7734375,374.6640625)"/>
<path d="M0 0 C0.73856232 -0.00570007 1.47712463 -0.01140015 2.23806763 -0.01727295 C3.79981051 -0.02671145 5.3615732 -0.03325237 6.92333984 -0.03710938 C9.30471776 -0.04681146 11.68523094 -0.07784278 14.06640625 -0.109375 C15.58593239 -0.11590594 17.10546469 -0.12115606 18.625 -0.125 C19.68773636 -0.1435202 19.68773636 -0.1435202 20.77194214 -0.16241455 C25.17117898 -0.14272821 27.9482502 0.49736876 31.4453125 3.203125 C32.71903707 5.75057415 32.58617219 7.56350536 32.60644531 10.41552734 C32.61605286 11.50360687 32.6256604 12.5916864 32.63555908 13.71273804 C32.63980896 14.89292511 32.64405884 16.07311218 32.6484375 17.2890625 C32.65413757 18.49752838 32.65983765 19.70599426 32.66571045 20.95108032 C32.67517025 23.51164878 32.6816983 26.07222946 32.68554688 28.6328125 C32.69525502 32.55490294 32.72627117 36.47647009 32.7578125 40.3984375 C32.76434205 42.88280938 32.76959271 45.36718502 32.7734375 47.8515625 C32.7857843 49.02770111 32.7981311 50.20383972 32.81085205 51.4156189 C32.80785095 52.51000275 32.80484985 53.6043866 32.80175781 54.73193359 C32.80722626 56.17516495 32.80722626 56.17516495 32.81280518 57.64755249 C32.3776769 60.67346822 31.55850357 62.01972143 29.4453125 64.203125 C23.80361403 66.08369116 17.45748871 65.50948601 11.54003906 65.55322266 C9.8969914 65.56978957 8.25401604 65.59708979 6.61132812 65.63525391 C4.23529922 65.69012204 1.86095267 65.71190718 -0.515625 65.7265625 C-1.24598969 65.74923187 -1.97635437 65.77190125 -2.72885132 65.79525757 C-6.27812883 65.78061145 -8.45916718 65.2597876 -11.52001953 63.4440918 C-14.67500865 58.41859617 -14.23032465 53.64140026 -14.1484375 47.82421875 C-14.14847778 46.61999771 -14.14851807 45.41577667 -14.14855957 44.17506409 C-14.14320359 41.6323626 -14.12561789 39.08966159 -14.09667969 36.54711914 C-14.0548027 32.65134213 -14.05561363 28.75729238 -14.0625 24.86132812 C-14.05200843 22.39061297 -14.03907051 19.91990673 -14.0234375 17.44921875 C-14.02323608 16.2824913 -14.02303467 15.11576385 -14.02282715 13.91368103 C-14.00691528 12.82898026 -13.99100342 11.74427948 -13.97460938 10.62670898 C-13.96619019 9.67360336 -13.957771 8.72049774 -13.94909668 7.73851013 C-13.48277884 4.74087371 -12.64800205 3.37490616 -10.5546875 1.203125 C-6.98690773 0.01386508 -3.71523261 0.02215918 0 0 Z M2.4453125 16.203125 C2.4453125 27.093125 2.4453125 37.983125 2.4453125 49.203125 C7.0653125 49.203125 11.6853125 49.203125 16.4453125 49.203125 C16.4453125 38.313125 16.4453125 27.423125 16.4453125 16.203125 C11.8253125 16.203125 7.2053125 16.203125 2.4453125 16.203125 Z " fill="#017260" transform="translate(334.5546875,374.796875)"/>
<path d="M0 0 C0.73856232 -0.00570007 1.47712463 -0.01140015 2.23806763 -0.01727295 C3.79981051 -0.02671145 5.3615732 -0.03325237 6.92333984 -0.03710938 C9.30471776 -0.04681146 11.68523094 -0.07784278 14.06640625 -0.109375 C15.58593239 -0.11590594 17.10546469 -0.12115606 18.625 -0.125 C19.68773636 -0.1435202 19.68773636 -0.1435202 20.77194214 -0.16241455 C25.17117898 -0.14272821 27.9482502 0.49736876 31.4453125 3.203125 C32.71418689 5.74087377 32.6000256 7.55853091 32.63818359 10.3996582 C32.65424652 11.48451004 32.67030945 12.56936188 32.68685913 13.68708801 C32.73123853 18.65067985 32.77237076 23.61413712 32.79541016 28.57788086 C32.81197832 31.19776283 32.83927919 33.81759945 32.87744141 36.43725586 C32.93213191 40.20971182 32.95407321 43.98110754 32.96875 47.75390625 C32.99141937 48.92488358 33.01408875 50.0958609 33.03744507 51.30232239 C33.01663379 59.293083 33.01663379 59.293083 30.41064453 63.4440918 C26.7023067 65.6438756 23.67174401 65.89186465 19.4765625 65.796875 C18.71863403 65.79691528 17.96070557 65.79695557 17.17980957 65.79699707 C15.58284174 65.79165329 13.98587356 65.77411905 12.38916016 65.74511719 C9.95262807 65.7032507 7.5188626 65.70405241 5.08203125 65.7109375 C3.52602257 65.70044395 1.97002806 65.68750495 0.4140625 65.671875 C-0.31002808 65.67167358 -1.03411865 65.67147217 -1.78015137 65.67126465 C-6.18670885 65.56878657 -9.04750042 64.91397821 -12.5546875 62.203125 C-13.82841207 59.65567585 -13.69554719 57.84274464 -13.71582031 54.99072266 C-13.72542786 53.90264313 -13.7350354 52.8145636 -13.74493408 51.69351196 C-13.74918396 50.51332489 -13.75343384 49.33313782 -13.7578125 48.1171875 C-13.76351257 46.90872162 -13.76921265 45.70025574 -13.77508545 44.45516968 C-13.78454525 41.89460122 -13.7910733 39.33402054 -13.79492188 36.7734375 C-13.80463002 32.85134706 -13.83564617 28.92977991 -13.8671875 25.0078125 C-13.87371705 22.52344062 -13.87896771 20.03906498 -13.8828125 17.5546875 C-13.8951593 16.37854889 -13.9075061 15.20241028 -13.92022705 13.9906311 C-13.91722595 12.89624725 -13.91422485 11.8018634 -13.91113281 10.67431641 C-13.91477844 9.71216217 -13.91842407 8.75000793 -13.92218018 7.75869751 C-13.4870519 4.73278178 -12.66787857 3.38652857 -10.5546875 1.203125 C-6.98690773 0.01386508 -3.71523261 0.02215918 0 0 Z M2.4453125 16.203125 C2.4453125 27.093125 2.4453125 37.983125 2.4453125 49.203125 C7.0653125 49.203125 11.6853125 49.203125 16.4453125 49.203125 C16.4453125 38.313125 16.4453125 27.423125 16.4453125 16.203125 C11.8253125 16.203125 7.2053125 16.203125 2.4453125 16.203125 Z " fill="#017260" transform="translate(158.5546875,374.796875)"/>
<path d="M0 0 C1.21340561 -0.00855011 1.21340561 -0.00855011 2.45132446 -0.01727295 C4.16447643 -0.0267259 5.8776466 -0.0332581 7.59082031 -0.03710938 C10.20930793 -0.04681107 12.82700932 -0.07782918 15.4453125 -0.109375 C17.10937034 -0.11590551 18.77343379 -0.12115579 20.4375 -0.125 C21.21991058 -0.1373468 22.00232117 -0.1496936 22.80844116 -0.16241455 C26.05679518 -0.14913322 28.42962099 -0.02520014 31.31494141 1.53613281 C34.03637163 4.48845654 33.98374173 7.41280317 34.01269531 11.23779297 C34.02230286 12.26250702 34.0319104 13.28722107 34.04180908 14.34298706 C34.04605896 15.44925446 34.05030884 16.55552185 34.0546875 17.6953125 C34.06038757 18.83340363 34.06608765 19.97149475 34.07196045 21.14407349 C34.08141129 23.55323354 34.08794476 25.96240652 34.09179688 28.37158203 C34.10150564 32.05654437 34.13253031 35.74094977 34.1640625 39.42578125 C34.17059227 41.76562169 34.17584284 44.10546611 34.1796875 46.4453125 C34.1920343 47.54753143 34.2043811 48.64975037 34.21710205 49.78536987 C34.21410095 50.81638824 34.21109985 51.84740662 34.20800781 52.90966797 C34.21347626 54.26510208 34.21347626 54.26510208 34.21905518 55.6479187 C33.77021325 58.7687529 32.68046536 60.65652804 30.8515625 63.203125 C27.66277884 64.79751683 24.20641536 64.38731887 20.703125 64.40625 C19.89418793 64.41195007 19.08525085 64.41765015 18.25180054 64.42352295 C16.53864857 64.4329759 14.8254784 64.4395081 13.11230469 64.44335938 C10.49381707 64.45306107 7.87611568 64.48407918 5.2578125 64.515625 C3.59375466 64.52215551 1.92969121 64.52740579 0.265625 64.53125 C-0.90799088 64.5497702 -0.90799088 64.5497702 -2.10531616 64.56866455 C-5.35367018 64.55538322 -7.72649599 64.43145014 -10.61181641 62.87011719 C-13.33324663 59.91779346 -13.28061673 56.99344683 -13.30957031 53.16845703 C-13.32398163 51.63138596 -13.32398163 51.63138596 -13.33868408 50.06326294 C-13.34293396 48.95699554 -13.34718384 47.85072815 -13.3515625 46.7109375 C-13.36011261 45.00380081 -13.36011261 45.00380081 -13.36883545 43.26217651 C-13.37828629 40.85301646 -13.38481976 38.44384348 -13.38867188 36.03466797 C-13.39838064 32.34970563 -13.42940531 28.66530023 -13.4609375 24.98046875 C-13.46746727 22.64062831 -13.47271784 20.30078389 -13.4765625 17.9609375 C-13.4950827 16.3076091 -13.4950827 16.3076091 -13.51397705 14.62088013 C-13.51097595 13.58986176 -13.50797485 12.55884338 -13.50488281 11.49658203 C-13.50852844 10.59295929 -13.51217407 9.68933655 -13.51593018 8.7583313 C-13.06708825 5.6374971 -11.97734036 3.74972196 -10.1484375 1.203125 C-6.95965384 -0.39126683 -3.50329036 0.01893113 0 0 Z M2.8515625 16.203125 C2.8515625 26.763125 2.8515625 37.323125 2.8515625 48.203125 C7.8015625 48.203125 12.7515625 48.203125 17.8515625 48.203125 C17.8515625 37.643125 17.8515625 27.083125 17.8515625 16.203125 C12.9015625 16.203125 7.9515625 16.203125 2.8515625 16.203125 Z " fill="#017260" transform="translate(99.1484375,217.796875)"/>
<path d="M0 0 C1.21340561 -0.00855011 1.21340561 -0.00855011 2.45132446 -0.01727295 C4.16447643 -0.0267259 5.8776466 -0.0332581 7.59082031 -0.03710938 C10.20930793 -0.04681107 12.82700932 -0.07782918 15.4453125 -0.109375 C17.10937034 -0.11590551 18.77343379 -0.12115579 20.4375 -0.125 C21.21991058 -0.1373468 22.00232117 -0.1496936 22.80844116 -0.16241455 C26.05679518 -0.14913322 28.42962099 -0.02520014 31.31494141 1.53613281 C34.03637163 4.48845654 33.98374173 7.41280317 34.01269531 11.23779297 C34.02230286 12.26250702 34.0319104 13.28722107 34.04180908 14.34298706 C34.04605896 15.44925446 34.05030884 16.55552185 34.0546875 17.6953125 C34.06038757 18.83340363 34.06608765 19.97149475 34.07196045 21.14407349 C34.08141129 23.55323354 34.08794476 25.96240652 34.09179688 28.37158203 C34.10150564 32.05654437 34.13253031 35.74094977 34.1640625 39.42578125 C34.17059227 41.76562169 34.17584284 44.10546611 34.1796875 46.4453125 C34.1920343 47.54753143 34.2043811 48.64975037 34.21710205 49.78536987 C34.21410095 50.81638824 34.21109985 51.84740662 34.20800781 52.90966797 C34.21347626 54.26510208 34.21347626 54.26510208 34.21905518 55.6479187 C33.77021325 58.7687529 32.68046536 60.65652804 30.8515625 63.203125 C27.66277884 64.79751683 24.20641536 64.38731887 20.703125 64.40625 C19.89418793 64.41195007 19.08525085 64.41765015 18.25180054 64.42352295 C16.53864857 64.4329759 14.8254784 64.4395081 13.11230469 64.44335938 C10.49381707 64.45306107 7.87611568 64.48407918 5.2578125 64.515625 C3.59375466 64.52215551 1.92969121 64.52740579 0.265625 64.53125 C-0.90799088 64.5497702 -0.90799088 64.5497702 -2.10531616 64.56866455 C-5.35367018 64.55538322 -7.72649599 64.43145014 -10.61181641 62.87011719 C-13.33324663 59.91779346 -13.28061673 56.99344683 -13.30957031 53.16845703 C-13.32398163 51.63138596 -13.32398163 51.63138596 -13.33868408 50.06326294 C-13.34293396 48.95699554 -13.34718384 47.85072815 -13.3515625 46.7109375 C-13.36011261 45.00380081 -13.36011261 45.00380081 -13.36883545 43.26217651 C-13.37828629 40.85301646 -13.38481976 38.44384348 -13.38867188 36.03466797 C-13.39838064 32.34970563 -13.42940531 28.66530023 -13.4609375 24.98046875 C-13.46746727 22.64062831 -13.47271784 20.30078389 -13.4765625 17.9609375 C-13.4950827 16.3076091 -13.4950827 16.3076091 -13.51397705 14.62088013 C-13.51097595 13.58986176 -13.50797485 12.55884338 -13.50488281 11.49658203 C-13.50852844 10.59295929 -13.51217407 9.68933655 -13.51593018 8.7583313 C-13.06708825 5.6374971 -11.97734036 3.74972196 -10.1484375 1.203125 C-6.95965384 -0.39126683 -3.50329036 0.01893113 0 0 Z M2.8515625 16.203125 C2.8515625 26.763125 2.8515625 37.323125 2.8515625 48.203125 C7.8015625 48.203125 12.7515625 48.203125 17.8515625 48.203125 C17.8515625 37.643125 17.8515625 27.083125 17.8515625 16.203125 C12.9015625 16.203125 7.9515625 16.203125 2.8515625 16.203125 Z " fill="#017260" transform="translate(392.1484375,217.796875)"/>
<path d="M0 0 C1.85754936 -0.01655483 3.71503515 -0.0438388 5.57226562 -0.08203125 C8.24683766 -0.13677465 10.91991401 -0.15867012 13.5949707 -0.17333984 C14.4242659 -0.19600922 15.2535611 -0.21867859 16.10798645 -0.24203491 C19.87905831 -0.22820759 21.87690066 -0.07840164 25.00610352 2.13867188 C27.28950811 7.10821259 27.0321089 11.85075832 26.9777832 17.25634766 C26.97923843 18.41380493 26.98069366 19.57126221 26.98219299 20.76379395 C26.98053486 23.20811483 26.96898328 25.65244624 26.94824219 28.09667969 C26.9192943 31.83655174 26.92763498 35.57500556 26.94067383 39.31494141 C26.93443609 41.69125037 26.92604487 44.06755487 26.9152832 46.44384766 C26.91821884 47.56166626 26.92115448 48.67948486 26.92417908 49.83117676 C26.90515282 51.39805237 26.90515282 51.39805237 26.88574219 52.99658203 C26.8803392 53.91193726 26.87493622 54.82729248 26.86936951 55.77038574 C26.39986835 58.89455404 25.31458014 60.79750178 23.48168945 63.35009766 C20.29385542 64.94401468 16.83643661 64.55547473 13.33325195 64.58837891 C12.52431488 64.59645065 11.71537781 64.6045224 10.88192749 64.61283875 C9.16878401 64.62667755 7.45561297 64.63740063 5.74243164 64.64526367 C3.12373622 64.66248555 0.50630052 64.70637245 -2.11206055 64.75048828 C-3.77611376 64.76061455 -5.44017771 64.76913086 -7.10424805 64.77587891 C-7.88665863 64.79338699 -8.66906921 64.81089508 -9.47518921 64.82893372 C-13.07380033 64.81459062 -15.08950659 64.68111391 -17.98168945 62.44848633 C-20.35354792 59.20950897 -20.64944866 57.40123933 -20.67944336 53.42895508 C-20.6890509 52.4041655 -20.69865845 51.37937592 -20.70855713 50.3235321 C-20.71280701 49.21210342 -20.71705688 48.10067474 -20.72143555 46.95556641 C-20.72713562 45.81606033 -20.73283569 44.67655426 -20.7387085 43.5025177 C-20.74816824 41.0873813 -20.75469633 38.67223194 -20.75854492 36.25708008 C-20.7682432 32.56324695 -20.79925519 28.8699718 -20.83081055 25.17626953 C-20.83734115 22.8318718 -20.8425914 20.48747008 -20.84643555 18.14306641 C-20.85878235 17.03771042 -20.87112915 15.93235443 -20.8838501 14.79350281 C-20.880849 13.75925674 -20.8778479 12.72501068 -20.87475586 11.65942383 C-20.87840149 10.75278488 -20.88204712 9.84614594 -20.88580322 8.91203308 C-19.24069881 -2.55663431 -8.96873212 0.05865543 0 0 Z M-4.51831055 15.35009766 C-4.51831055 26.24009766 -4.51831055 37.13009766 -4.51831055 48.35009766 C0.43168945 48.35009766 5.38168945 48.35009766 10.48168945 48.35009766 C10.48168945 37.46009766 10.48168945 26.57009766 10.48168945 15.35009766 C5.53168945 15.35009766 0.58168945 15.35009766 -4.51831055 15.35009766 Z " fill="#017260" transform="translate(106.518310546875,296.64990234375)"/>
<path d="M0 0 C0.85287094 -0.00004028 1.70574188 -0.00008057 2.5844574 -0.00012207 C4.38409816 0.00523103 6.18373849 0.02280502 7.9831543 0.05175781 C10.74014529 0.09365959 13.49469704 0.09282265 16.25195312 0.0859375 C18.00131908 0.09642863 19.75067244 0.10936633 21.5 0.125 C22.32504532 0.12520142 23.15009064 0.12540283 24.00013733 0.12561035 C29.74594834 0.24470623 29.74594834 0.24470623 31.86216736 1.93249512 C34.27633267 4.96750632 34.31281095 7.81413698 34.32885742 11.53662109 C34.33523727 12.54131439 34.34161713 13.54600769 34.34819031 14.58114624 C34.34930313 15.66553986 34.35041595 16.74993347 34.3515625 17.8671875 C34.3565551 19.54103012 34.3565551 19.54103012 34.36164856 21.24868774 C34.36671423 23.61077461 34.369057 25.97286864 34.36889648 28.33496094 C34.37108083 31.9473858 34.38923473 35.55950428 34.40820312 39.171875 C34.41113754 41.46614479 34.41312201 43.76041603 34.4140625 46.0546875 C34.42124802 47.13503265 34.42843353 48.21537781 34.43583679 49.32846069 C34.43276016 50.33945831 34.42968353 51.35045593 34.42651367 52.39208984 C34.42793869 53.27794769 34.42936371 54.16380554 34.43083191 55.07650757 C34.14922438 57.9436799 33.49120558 60.02842829 32.18359375 62.59375 C28.39816284 65.11737061 25.32677343 64.91718398 20.9375 64.9296875 C20.12997787 64.9363443 19.32245575 64.9430011 18.49046326 64.94985962 C16.78329749 64.95998016 15.07609222 64.96467682 13.36889648 64.96435547 C10.75893922 64.96872848 8.15067364 65.00505127 5.54101562 65.04296875 C3.8815162 65.04883713 2.22200874 65.05280638 0.5625 65.0546875 C-0.21677353 65.06905853 -0.99604706 65.08342957 -1.79893494 65.09823608 C-5.38681543 65.06802579 -7.39706449 64.91812527 -10.27758789 62.68994141 C-12.6719973 59.42825663 -12.95064031 57.58648877 -12.9934082 53.58081055 C-13.00624344 52.53600021 -13.01907867 51.49118988 -13.03230286 50.41471863 C-13.03968979 49.28141617 -13.04707672 48.14811371 -13.0546875 46.98046875 C-13.06275925 45.81876663 -13.07083099 44.65706451 -13.07914734 43.4601593 C-13.09299651 40.9979502 -13.10371492 38.53572184 -13.11157227 36.07348633 C-13.12878816 32.3070846 -13.17266882 28.54155968 -13.21679688 24.77539062 C-13.22692322 22.38542313 -13.2354395 19.99544817 -13.2421875 17.60546875 C-13.25969559 16.47823898 -13.27720367 15.35100922 -13.29524231 14.18962097 C-13.28290474 9.74361353 -13.21003528 6.45101984 -11.34082031 2.38012695 C-7.61705168 -0.25496154 -4.4629938 -0.08890654 0 0 Z M3.18359375 15.59375 C3.18359375 26.48375 3.18359375 37.37375 3.18359375 48.59375 C8.13359375 48.59375 13.08359375 48.59375 18.18359375 48.59375 C18.18359375 37.70375 18.18359375 26.81375 18.18359375 15.59375 C13.23359375 15.59375 8.28359375 15.59375 3.18359375 15.59375 Z " fill="#017260" transform="translate(391.81640625,296.40625)"/>
<path d="M0 0 C1.24245483 -0.00361794 1.24245483 -0.00361794 2.51000977 -0.00730896 C4.25834956 -0.00633103 6.00672052 0.00705004 7.75488281 0.03198242 C10.42880588 0.06629469 13.09942392 0.05264065 15.7734375 0.03320312 C17.47397238 0.04010179 19.17449874 0.04977436 20.875 0.0625 C22.07201538 0.0550602 22.07201538 0.0550602 23.29321289 0.04747009 C26.6849967 0.11932024 28.90689359 0.22373089 31.64758301 2.31654358 C33.84745253 5.15851681 33.94343424 6.59683349 33.95507812 10.16015625 C33.96768677 11.26810547 33.98029541 12.37605469 33.99328613 13.51757812 C33.98518921 14.70931641 33.97709229 15.90105469 33.96875 17.12890625 C33.9725769 18.35673828 33.97640381 19.58457031 33.98034668 20.84960938 C33.98306842 23.44532084 33.97568911 26.04105961 33.95898438 28.63671875 C33.93758075 32.61390224 33.95877963 36.58927907 33.984375 40.56640625 C33.98173177 43.08724358 33.97660691 45.60807978 33.96875 48.12890625 C33.97684692 49.32064453 33.98494385 50.51238281 33.99328613 51.74023438 C33.98067749 52.84818359 33.96806885 53.95613281 33.95507812 55.09765625 C33.95030457 56.55848633 33.95030457 56.55848633 33.94543457 58.04882812 C33.28751932 61.39074037 32.11540201 62.57779343 29.4375 64.62890625 C26.53885241 65.03892405 24.02678818 65.21390645 21.12890625 65.1953125 C20.32517075 65.20151108 19.52143524 65.20770966 18.69334412 65.21409607 C16.99634002 65.22118824 15.29926626 65.21803065 13.60229492 65.20532227 C11.01154882 65.19146801 8.42442476 65.22551562 5.83398438 65.26367188 C4.18229079 65.26462326 2.53059269 65.26276321 0.87890625 65.2578125 C0.10793106 65.27107071 -0.66304413 65.28432892 -1.4573822 65.29798889 C-5.09687618 65.23528721 -7.41449559 64.71714058 -10.55078125 62.84741211 C-13.64711653 57.89365144 -13.25806908 53.23432747 -13.19140625 47.50390625 C-13.19381821 46.32425293 -13.19623016 45.14459961 -13.19871521 43.92919922 C-13.19773673 41.43779129 -13.18434309 38.94636162 -13.15942383 36.45507812 C-13.1251221 32.64247751 -13.13876582 28.83219521 -13.15820312 25.01953125 C-13.15130457 22.59764639 -13.1416321 20.1757675 -13.12890625 17.75390625 C-13.13386612 16.61421387 -13.13882599 15.47452148 -13.14393616 14.30029297 C-13.07745586 9.83112582 -12.96433475 6.49097094 -11.06225586 2.41040039 C-7.49769475 -0.12994558 -4.21946622 -0.07010257 0 0 Z M3.4375 16.62890625 C3.4375 27.18890625 3.4375 37.74890625 3.4375 48.62890625 C8.0575 48.62890625 12.6775 48.62890625 17.4375 48.62890625 C17.4375 38.06890625 17.4375 27.50890625 17.4375 16.62890625 C12.8175 16.62890625 8.1975 16.62890625 3.4375 16.62890625 Z " fill="#017260" transform="translate(274.5625,217.37109375)"/>
<path d="M0 0 C0.82830322 -0.00619858 1.65660645 -0.01239716 2.51000977 -0.01878357 C4.25828884 -0.02587592 6.00663554 -0.02271786 7.75488281 -0.01000977 C10.42899824 0.00386215 13.09961732 -0.03022521 15.7734375 -0.06835938 C17.47395919 -0.06931056 19.17448525 -0.06745177 20.875 -0.0625 C21.67301025 -0.07575821 22.47102051 -0.08901642 23.29321289 -0.10267639 C26.82087219 -0.04353516 29.04006718 0.28316889 31.93725586 2.34790039 C34.27790006 7.36933449 34.027736 12.21574196 34.00390625 17.69140625 C34.01320412 19.46088623 34.01320412 19.46088623 34.02268982 21.26611328 C34.02978629 23.75747859 34.02661711 26.24889134 34.01391602 28.74023438 C34.00004887 32.55297005 34.0341305 36.36325273 34.07226562 40.17578125 C34.0732168 42.59765685 34.07135808 45.01953552 34.06640625 47.44140625 C34.07966446 48.58109863 34.09292267 49.72079102 34.10658264 50.89501953 C34.05021309 55.68323811 33.99814914 58.66943566 31.42578125 62.78491211 C27.58445693 65.07495652 24.34658583 65.2701265 19.99609375 65.1953125 C19.19140152 65.19772446 18.38670929 65.20013641 17.55763245 65.20262146 C15.86234593 65.20164497 14.16702675 65.18829833 12.47192383 65.16333008 C9.87926941 65.12896284 7.29001493 65.14269263 4.69726562 65.16210938 C3.04686052 65.15521196 1.39646419 65.14554051 -0.25390625 65.1328125 C-1.02690567 65.13777237 -1.79990509 65.14273224 -2.59632874 65.14784241 C-5.93670683 65.07481002 -8.07274221 64.94153143 -10.76585388 62.87876892 C-12.97406029 60.03671003 -13.06841899 58.60314535 -13.08007812 55.03515625 C-13.09268677 53.92720703 -13.10529541 52.81925781 -13.11828613 51.67773438 C-13.11018921 50.48599609 -13.10209229 49.29425781 -13.09375 48.06640625 C-13.0975769 46.83857422 -13.10140381 45.61074219 -13.10534668 44.34570312 C-13.10806842 41.74999166 -13.10068911 39.15425289 -13.08398438 36.55859375 C-13.06258075 32.58141026 -13.08377963 28.60603343 -13.109375 24.62890625 C-13.10673177 22.10806892 -13.10160691 19.58723272 -13.09375 17.06640625 C-13.10184692 15.87466797 -13.10994385 14.68292969 -13.11828613 13.45507812 C-13.10567749 12.34712891 -13.09306885 11.23917969 -13.08007812 10.09765625 C-13.07689575 9.12376953 -13.07371338 8.14988281 -13.07043457 7.14648438 C-11.67563015 0.0615081 -6.14551933 -0.03819622 0 0 Z M3.4375 16.56640625 C3.4375 27.12640625 3.4375 37.68640625 3.4375 48.56640625 C8.0575 48.56640625 12.6775 48.56640625 17.4375 48.56640625 C17.4375 38.00640625 17.4375 27.44640625 17.4375 16.56640625 C12.8175 16.56640625 8.1975 16.56640625 3.4375 16.56640625 Z " fill="#017260" transform="translate(216.5625,217.43359375)"/>
<path d="M0 0 C0.82830322 -0.00619858 1.65660645 -0.01239716 2.51000977 -0.01878357 C4.25828884 -0.02587592 6.00663554 -0.02271786 7.75488281 -0.01000977 C10.42899824 0.00386215 13.09961732 -0.03022521 15.7734375 -0.06835938 C17.47395919 -0.06931056 19.17448525 -0.06745177 20.875 -0.0625 C21.67301025 -0.07575821 22.47102051 -0.08901642 23.29321289 -0.10267639 C26.82146799 -0.04352517 29.04101247 0.28409072 31.93945312 2.34790039 C34.27782507 7.37181782 34.00765416 12.21540335 33.96875 17.69140625 C33.9725769 18.87105957 33.97640381 20.05071289 33.98034668 21.26611328 C33.98306581 23.75749567 33.9757047 26.24890661 33.95898438 28.74023438 C33.93757679 32.55273107 33.95878817 36.36334314 33.984375 40.17578125 C33.98173173 42.59766041 33.97660676 45.01953839 33.96875 47.44140625 C33.97684692 48.58109863 33.98494385 49.72079102 33.99328613 50.89501953 C33.94032531 55.36673998 33.8404421 58.70069802 31.93945312 62.78491211 C28.37329086 65.32416719 25.09532438 65.26542932 20.875 65.1953125 C19.63254517 65.19893044 19.63254517 65.19893044 18.36499023 65.20262146 C16.61665044 65.20164353 14.86827948 65.18826246 13.12011719 65.16333008 C10.44619412 65.12901781 7.77557608 65.14267185 5.1015625 65.16210938 C3.40102762 65.15521071 1.70050126 65.14553814 0 65.1328125 C-1.19701538 65.1402523 -1.19701538 65.1402523 -2.41821289 65.14784241 C-5.8099967 65.07599226 -8.03189359 64.97158161 -10.77258301 62.87876892 C-12.97245253 60.03679569 -13.06843424 58.59847901 -13.08007812 55.03515625 C-13.09268677 53.92720703 -13.10529541 52.81925781 -13.11828613 51.67773438 C-13.11018921 50.48599609 -13.10209229 49.29425781 -13.09375 48.06640625 C-13.0975769 46.83857422 -13.10140381 45.61074219 -13.10534668 44.34570312 C-13.10806842 41.74999166 -13.10068911 39.15425289 -13.08398438 36.55859375 C-13.06258075 32.58141026 -13.08377963 28.60603343 -13.109375 24.62890625 C-13.10673177 22.10806892 -13.10160691 19.58723272 -13.09375 17.06640625 C-13.10184692 15.87466797 -13.10994385 14.68292969 -13.11828613 13.45507812 C-13.10567749 12.34712891 -13.09306885 11.23917969 -13.08007812 10.09765625 C-13.07689575 9.12376953 -13.07371338 8.14988281 -13.07043457 7.14648438 C-11.67563015 0.0615081 -6.14551933 -0.03819622 0 0 Z M3.4375 16.56640625 C3.4375 27.12640625 3.4375 37.68640625 3.4375 48.56640625 C8.0575 48.56640625 12.6775 48.56640625 17.4375 48.56640625 C17.4375 38.00640625 17.4375 27.44640625 17.4375 16.56640625 C12.8175 16.56640625 8.1975 16.56640625 3.4375 16.56640625 Z " fill="#017260" transform="translate(333.5625,217.43359375)"/>
<path d="M0 0 C1.24245483 -0.00361794 1.24245483 -0.00361794 2.51000977 -0.00730896 C4.25834956 -0.00633103 6.00672052 0.00705004 7.75488281 0.03198242 C10.42880588 0.06629469 13.09942392 0.05264065 15.7734375 0.03320312 C17.47397238 0.04010179 19.17449874 0.04977436 20.875 0.0625 C22.07201538 0.0550602 22.07201538 0.0550602 23.29321289 0.04747009 C26.6849967 0.11932024 28.90689359 0.22373089 31.64758301 2.31654358 C33.84745253 5.15851681 33.94343424 6.59683349 33.95507812 10.16015625 C33.96768677 11.26810547 33.98029541 12.37605469 33.99328613 13.51757812 C33.98518921 14.70931641 33.97709229 15.90105469 33.96875 17.12890625 C33.9725769 18.35673828 33.97640381 19.58457031 33.98034668 20.84960938 C33.98306842 23.44532084 33.97568911 26.04105961 33.95898438 28.63671875 C33.93758075 32.61390224 33.95877963 36.58927907 33.984375 40.56640625 C33.98173177 43.08724358 33.97660691 45.60807978 33.96875 48.12890625 C33.97684692 49.32064453 33.98494385 50.51238281 33.99328613 51.74023438 C33.98067749 52.84818359 33.96806885 53.95613281 33.95507812 55.09765625 C33.95030457 56.55848633 33.95030457 56.55848633 33.94543457 58.04882812 C33.28697669 61.39349667 32.12124276 62.57957849 29.4375 64.62890625 C26.45769608 65.03870431 23.85428683 65.21382965 20.875 65.1953125 C20.04669678 65.20151108 19.21839355 65.20770966 18.36499023 65.21409607 C16.61671116 65.22118842 14.86836446 65.21803036 13.12011719 65.20532227 C10.44600176 65.19145035 7.77538268 65.22553771 5.1015625 65.26367188 C3.40104081 65.26462306 1.70051475 65.26276427 0 65.2578125 C-0.79801025 65.27107071 -1.59602051 65.28432892 -2.41821289 65.29798889 C-5.94646799 65.23883767 -8.16601247 64.91122178 -11.06445312 62.84741211 C-13.40282507 57.82349468 -13.13265416 52.97990915 -13.09375 47.50390625 C-13.0975769 46.32425293 -13.10140381 45.14459961 -13.10534668 43.92919922 C-13.10806581 41.43781683 -13.1007047 38.94640589 -13.08398438 36.45507812 C-13.06257679 32.64258143 -13.08378817 28.83196936 -13.109375 25.01953125 C-13.10673173 22.59765209 -13.10160676 20.17577411 -13.09375 17.75390625 C-13.10184692 16.61421387 -13.10994385 15.47452148 -13.11828613 14.30029297 C-13.06532531 9.82857252 -12.9654421 6.49461448 -11.06445312 2.41040039 C-7.49829086 -0.12885469 -4.22032438 -0.07011682 0 0 Z M3.4375 16.62890625 C3.4375 27.18890625 3.4375 37.74890625 3.4375 48.62890625 C8.0575 48.62890625 12.6775 48.62890625 17.4375 48.62890625 C17.4375 38.06890625 17.4375 27.50890625 17.4375 16.62890625 C12.8175 16.62890625 8.1975 16.62890625 3.4375 16.62890625 Z " fill="#017260" transform="translate(157.5625,217.37109375)"/>
<path d="M0 0 C1.24245483 -0.00574036 1.24245483 -0.00574036 2.51000977 -0.01159668 C4.25831317 -0.01431425 6.00665734 -0.00696381 7.75488281 0.00976562 C10.42865777 0.03117918 13.09974596 0.00996056 15.7734375 -0.015625 C17.47396425 -0.01298169 19.17448934 -0.00785665 20.875 0 C22.07201538 -0.01214539 22.07201538 -0.01214539 23.29321289 -0.02453613 C26.69210063 0.03278965 28.90318664 0.12167311 31.64659119 2.22462463 C33.82744935 5.03349057 33.94802953 6.43095809 33.97094727 9.95483398 C33.9867836 11.03953476 34.00261993 12.12423553 34.01893616 13.24180603 C34.01397629 14.40853348 34.00901642 15.57526093 34.00390625 16.77734375 C34.01320412 18.58224022 34.01320412 18.58224022 34.02268982 20.42359924 C34.02979319 22.96801952 34.02660508 25.51248622 34.01391602 28.05688477 C34.00006349 31.95090307 34.03410304 35.84251331 34.07226562 39.73632812 C34.07321692 42.20833392 34.07135747 44.68034273 34.06640625 47.15234375 C34.07966446 48.31704697 34.09292267 49.48175018 34.10658264 50.68174744 C34.0152457 58.60963951 34.0152457 58.60963951 31.40991211 62.765625 C27.64411682 65.00252287 24.51275972 65.23591933 20.25 65.16015625 C19.07981323 65.16377419 19.07981323 65.16377419 17.88598633 65.16746521 C16.24197286 65.16648878 14.59792568 65.15314372 12.95410156 65.12817383 C10.44482176 65.09385015 7.93906422 65.10752537 5.4296875 65.12695312 C3.82811009 65.12005426 2.22654172 65.1103815 0.625 65.09765625 C-0.12096436 65.10261612 -0.86692871 65.10757599 -1.63549805 65.11268616 C-4.92044734 65.03881614 -7.50604055 64.55507195 -10.53491211 63.27709961 C-13.9420016 58.66306764 -13.25344259 53.60749903 -13.19140625 48.03125 C-13.19381821 46.80341797 -13.19623016 45.57558594 -13.19871521 44.31054688 C-13.19773579 41.71481089 -13.1843199 39.11905427 -13.15942383 36.5234375 C-13.12512852 32.54615447 -13.13875943 28.57109357 -13.15820312 24.59375 C-13.15130469 22.07290719 -13.14163234 19.55207013 -13.12890625 17.03125 C-13.13386612 15.83951172 -13.13882599 14.64777344 -13.14393616 13.41992188 C-13.12809982 12.31197266 -13.11226349 11.20402344 -13.09594727 10.0625 C-13.08974869 9.08861328 -13.08355011 8.11472656 -13.0771637 7.11132812 C-11.66251395 0.01949926 -6.1557854 -0.062459 0 0 Z M3.4375 15.53125 C3.4375 26.42125 3.4375 37.31125 3.4375 48.53125 C8.0575 48.53125 12.6775 48.53125 17.4375 48.53125 C17.4375 37.64125 17.4375 26.75125 17.4375 15.53125 C12.8175 15.53125 8.1975 15.53125 3.4375 15.53125 Z " fill="#017260" transform="translate(333.5625,296.46875)"/>
<path d="M0 0 C0.85191422 -0.00761353 1.70382843 -0.01522705 2.58155823 -0.02307129 C4.38287425 -0.03387397 6.18425291 -0.0367247 7.9855957 -0.03222656 C10.7408098 -0.03125462 13.49323535 -0.07286229 16.24804688 -0.1171875 C17.99869211 -0.12239486 19.74934702 -0.12508269 21.5 -0.125 C22.32302109 -0.14139526 23.14604218 -0.15779053 23.9940033 -0.17468262 C27.73250029 -0.12955133 29.7295346 0.05365677 32.83203125 2.24804688 C35.14837427 7.27390166 34.90662128 12.122903 34.8828125 17.59375 C34.89211037 19.36322998 34.89211037 19.36322998 34.90159607 21.16845703 C34.90869254 23.65982234 34.90552336 26.15123509 34.89282227 28.64257812 C34.87895512 32.4553138 34.91303675 36.26559648 34.95117188 40.078125 C34.95212305 42.5000006 34.95026433 44.92187927 34.9453125 47.34375 C34.95857071 48.48344238 34.97182892 49.62313477 34.98548889 50.79736328 C34.92899645 55.59602077 34.8820693 58.57084079 32.28881836 62.68725586 C28.52384429 64.94376639 25.39912757 65.17355195 21.12890625 65.09765625 C19.95871948 65.10127419 19.95871948 65.10127419 18.76489258 65.10496521 C17.12087911 65.10398878 15.47683193 65.09064372 13.83300781 65.06567383 C11.32372801 65.03135015 8.81797047 65.04502537 6.30859375 65.06445312 C4.70701634 65.05755426 3.10544797 65.0478815 1.50390625 65.03515625 C0.75794189 65.04011612 0.01197754 65.04507599 -0.7565918 65.05018616 C-4.03398966 64.97648595 -6.6306432 64.49079245 -9.65820312 63.23046875 C-13.09133659 58.54922408 -12.35336095 53.35634295 -12.27734375 47.71484375 C-12.27738403 46.462444 -12.27742432 45.21004425 -12.27746582 43.91969299 C-12.27210316 41.27184748 -12.25715363 38.62620777 -12.22558594 35.97875977 C-12.18586637 32.58670868 -12.18154596 29.19576645 -12.18904877 25.80352688 C-12.19285657 22.56553882 -12.17204259 19.32776165 -12.15234375 16.08984375 C-12.15214233 14.8710704 -12.15194092 13.65229706 -12.1517334 12.39659119 C-12.13582153 11.26854568 -12.11990967 10.14050018 -12.10351562 8.97827148 C-12.09509644 7.98439926 -12.08667725 6.99052704 -12.07800293 5.96653748 C-11.68359375 3.46875 -11.68359375 3.46875 -10.39842224 1.65065002 C-7.33062281 -0.46374931 -3.60293882 0.00087958 0 0 Z M4.31640625 15.46875 C4.31640625 26.35875 4.31640625 37.24875 4.31640625 48.46875 C8.93640625 48.46875 13.55640625 48.46875 18.31640625 48.46875 C18.31640625 37.57875 18.31640625 26.68875 18.31640625 15.46875 C13.69640625 15.46875 9.07640625 15.46875 4.31640625 15.46875 Z " fill="#017260" transform="translate(215.68359375,296.53125)"/>
<path d="M0 0 C1.24245483 -0.00574036 1.24245483 -0.00574036 2.51000977 -0.01159668 C4.25831317 -0.01431425 6.00665734 -0.00696381 7.75488281 0.00976562 C10.42865777 0.03117918 13.09974596 0.00996056 15.7734375 -0.015625 C17.47396425 -0.01298169 19.17448934 -0.00785665 20.875 0 C22.07201538 -0.01214539 22.07201538 -0.01214539 23.29321289 -0.02453613 C26.68768728 0.03271521 28.90301254 0.12316777 31.64659119 2.21789551 C33.8450779 5.05772692 33.9482821 6.50147276 33.97094727 10.0625 C33.9867836 11.17044922 34.00261993 12.27839844 34.01893616 13.41992188 C34.01397629 14.61166016 34.00901642 15.80339844 34.00390625 17.03125 C34.01010483 18.25908203 34.01630341 19.48691406 34.02268982 20.75195312 C34.02979309 23.34764818 34.02660526 25.94338874 34.01391602 28.5390625 C34.0000515 32.51647521 34.03411784 36.49153609 34.07226562 40.46875 C34.07321678 42.98958391 34.07135817 45.51042077 34.06640625 48.03125 C34.07966446 49.22298828 34.09292267 50.41472656 34.10658264 51.64257812 C34.01487905 59.74933764 34.01487905 59.74933764 31.40991211 63.27709961 C27.64491223 64.8656667 24.2733005 65.12440692 20.25 65.09765625 C19.46987549 65.10385483 18.68975098 65.11005341 17.88598633 65.11643982 C16.24203739 65.1235212 14.59801649 65.12039331 12.95410156 65.10766602 C10.44461733 65.09378936 7.93885767 65.12790103 5.4296875 65.16601562 C3.82812409 65.16696684 2.22655604 65.16510787 0.625 65.16015625 C-0.12096436 65.17341446 -0.86692871 65.18667267 -1.63549805 65.20033264 C-5.20525874 65.13680205 -7.45748839 64.59362733 -10.53491211 62.765625 C-13.68145472 57.74631176 -13.25753538 52.96163569 -13.19140625 47.15234375 C-13.19381821 45.94812271 -13.19623016 44.74390167 -13.19871521 43.50318909 C-13.19773672 40.96050723 -13.18434301 38.41780408 -13.15942383 35.87524414 C-13.12509249 31.9792464 -13.13877324 28.08551334 -13.15820312 24.18945312 C-13.15130552 21.71874033 -13.14163393 19.24803339 -13.12890625 16.77734375 C-13.13386612 15.6106163 -13.13882599 14.44388885 -13.14393616 13.24180603 C-13.12809982 12.15710526 -13.11226349 11.07240448 -13.09594727 9.95483398 C-13.08974869 9.00172836 -13.08355011 8.04862274 -13.0771637 7.06663513 C-11.64492522 0.01100608 -6.12257065 -0.06212199 0 0 Z M3.4375 15.53125 C3.4375 26.42125 3.4375 37.31125 3.4375 48.53125 C8.0575 48.53125 12.6775 48.53125 17.4375 48.53125 C17.4375 37.64125 17.4375 26.75125 17.4375 15.53125 C12.8175 15.53125 8.1975 15.53125 3.4375 15.53125 Z " fill="#017260" transform="translate(157.5625,296.46875)"/>
<path d="M0 0 C1.27930641 -0.00361794 1.27930641 -0.00361794 2.5844574 -0.00730896 C4.38407042 -0.006331 6.18371372 0.00705051 7.9831543 0.03198242 C10.74045669 0.06633602 13.49456199 0.05263003 16.25195312 0.03320312 C18.00131574 0.04010043 19.75067009 0.04977177 21.5 0.0625 C22.32504532 0.05754013 23.15009064 0.05258026 24.00013733 0.04747009 C29.71252932 0.16531124 29.71252932 0.16531124 31.89842224 2.31654358 C33.46116666 5.12833317 33.57577537 6.95131242 33.60351562 10.16015625 C33.61942749 11.26810547 33.63533936 12.37605469 33.6517334 13.51757812 C33.65193481 14.70931641 33.65213623 15.90105469 33.65234375 17.12890625 C33.66376404 18.9706543 33.66376404 18.9706543 33.67541504 20.84960938 C33.68621939 23.44529181 33.68906781 26.04101773 33.68457031 28.63671875 C33.68359739 32.61401549 33.72523278 36.5893878 33.76953125 40.56640625 C33.77473759 43.08723555 33.77742645 45.60807157 33.77734375 48.12890625 C33.80193665 49.91651367 33.80193665 49.91651367 33.82702637 51.74023438 C33.75892328 59.84892419 33.75892328 59.84892419 31.15820312 63.37475586 C27.39218977 64.96257682 24.02011452 65.22206796 19.99609375 65.1953125 C19.21596924 65.20151108 18.43584473 65.20770966 17.63208008 65.21409607 C15.98813114 65.22117745 14.34411024 65.21804956 12.70019531 65.20532227 C10.19071108 65.19144561 7.68495142 65.22555728 5.17578125 65.26367188 C3.57421784 65.26462309 1.97264979 65.26276412 0.37109375 65.2578125 C-0.37487061 65.27107071 -1.12083496 65.28432892 -1.8894043 65.29798889 C-5.46925147 65.23427879 -7.70934294 64.69307388 -10.78881836 62.84741211 C-13.90758284 57.89681944 -13.51206481 53.2420187 -13.4453125 47.50390625 C-13.44772446 46.32425293 -13.45013641 45.14459961 -13.45262146 43.92919922 C-13.45164298 41.43779129 -13.43824934 38.94636162 -13.41333008 36.45507812 C-13.37902835 32.64247751 -13.39267207 28.83219521 -13.41210938 25.01953125 C-13.40521082 22.59764639 -13.39553835 20.1757675 -13.3828125 17.75390625 C-13.38777237 16.61421387 -13.39273224 15.47452148 -13.39784241 14.30029297 C-13.33149985 9.84038527 -13.21323232 6.48932698 -11.33203125 2.41040039 C-7.61777065 -0.21993342 -4.45436042 -0.07175617 0 0 Z M3.18359375 15.62890625 C3.18359375 26.51890625 3.18359375 37.40890625 3.18359375 48.62890625 C7.80359375 48.62890625 12.42359375 48.62890625 17.18359375 48.62890625 C17.18359375 37.73890625 17.18359375 26.84890625 17.18359375 15.62890625 C12.56359375 15.62890625 7.94359375 15.62890625 3.18359375 15.62890625 Z " fill="#017260" transform="translate(274.81640625,296.37109375)"/>
</svg>
