<?xml version="1.0" encoding="UTF-8"?>
<svg version="1.1" xmlns="http://www.w3.org/2000/svg" width="512" height="512">
<path d="M0 0 C10.99106706 6.94072574 19.92708114 17.22286486 23.53051758 29.8605957 C26.35440588 42.72889168 24.40543191 56.52592622 17.35546875 67.578125 C10.4240952 77.02857562 0.70198197 84.57772385 -11 87 C-12.4197963 87.08869543 -13.84306269 87.13059667 -15.265625 87.1328125 C-16.47798828 87.13474609 -16.47798828 87.13474609 -17.71484375 87.13671875 C-18.55144531 87.13285156 -19.38804687 87.12898438 -20.25 87.125 C-21.07113281 87.12886719 -21.89226562 87.13273437 -22.73828125 87.13671875 C-26.73023516 87.13039236 -30.41025874 86.95492505 -34.33203125 86.19140625 C-38.04272812 85.58925067 -38.04272812 85.58925067 -40.43359375 87.95703125 C-41.09488281 88.89933594 -41.75617188 89.84164062 -42.4375 90.8125 C-43.18902344 91.82957031 -43.94054687 92.84664063 -44.71484375 93.89453125 C-45.46894531 94.91933594 -46.22304688 95.94414063 -47 97 C-48.4770892 98.68700482 -49.97658329 100.35470996 -51.5 102 C-54.61458668 105.41739372 -57.5918662 108.9052235 -60.5 112.5 C-64.11032442 116.96276213 -67.88427929 121.22719533 -71.75 125.46875 C-74.07862053 128.0884481 -76.29562947 130.7751531 -78.5 133.5 C-82.11032442 137.96276213 -85.88427929 142.22719533 -89.75 146.46875 C-92.07862053 149.0884481 -94.29562947 151.7751531 -96.5 154.5 C-99.4081338 158.0947765 -102.38541332 161.58260628 -105.5 165 C-114.08794653 173.66509607 -114.08794653 173.66509607 -120 184 C-118.59273546 186.1732055 -117.15183227 188.15442977 -115.5625 190.1875 C-101.97862787 208.40561583 -95.59690857 228.86150227 -95.625 251.5625 C-95.62516113 252.78598145 -95.62532227 254.00946289 -95.62548828 255.27001953 C-95.77946706 267.58670103 -98.09487008 278.37043728 -102 290 C-101.36312256 290.35602295 -100.72624512 290.7120459 -100.07006836 291.07885742 C-85.65943651 299.13659514 -71.26748751 307.22607271 -56.89990234 315.36035156 C-53.86869885 317.07423965 -50.83501994 318.78367917 -47.80078125 320.4921875 C-46.77742676 321.0689624 -45.75407227 321.6457373 -44.69970703 322.23999023 C-42.76247637 323.33170403 -40.82469541 324.4224422 -38.88623047 325.51196289 C-37.55615967 326.26207642 -37.55615967 326.26207642 -36.19921875 327.02734375 C-35.33989746 327.51058105 -34.48057617 327.99381836 -33.59521484 328.49169922 C-31.79221967 329.53957356 -30.01234143 330.62783982 -28.25244141 331.74658203 C-27.37120605 332.30587402 -26.4899707 332.86516602 -25.58203125 333.44140625 C-24.79675049 333.95517822 -24.01146973 334.4689502 -23.20239258 334.99829102 C-21.0676452 336.2013103 -21.0676452 336.2013103 -18.82543945 335.7277832 C-16.78318978 334.91356008 -15.17374881 333.88795129 -13.375 332.625 C-3.19309879 326.22653749 8.256942 325.68962664 20 327 C31.33083677 329.62018322 41.45413625 336.30778186 48 346 C55.17125692 358.79379168 57.38016804 371.3692943 54.12890625 385.890625 C49.06022312 399.91675142 39.87104814 408.39297902 26.76953125 414.80078125 C16.83733123 419.10146589 2.82530418 418.55587118 -7.1875 414.9375 C-20.55994567 408.8513228 -28.25874132 399.25912836 -34 386 C-34.97166341 382.89437192 -34.94281438 381.51123405 -34.54296875 378.09375 C-34.05123653 373.15159833 -33.88185432 368.59371574 -36 364 C-41.12953249 358.95048712 -48.33943664 356.391027 -54.81689453 353.49804688 C-60.0853811 351.01856892 -65.01496455 347.9989282 -70 345 C-78.69595847 339.86913776 -87.48388733 334.94446122 -96.36572266 330.14355469 C-103.64443188 326.20846479 -110.84308805 322.15247451 -118 318 C-120.44055502 320.42336801 -122.86244746 322.85372934 -125.21875 325.359375 C-137.7191698 338.45913 -153.11705957 346.89141112 -170 353 C-167.45896647 374.7325236 -164.21885525 396.359797 -161 418 C-159.90026855 418.37656738 -159.90026855 418.37656738 -158.77832031 418.76074219 C-143.88349243 423.99192801 -135.02896964 432.09528191 -128.1640625 446.265625 C-123.92577647 456.22133044 -124.44214314 470.16920101 -128.0625 480.1875 C-134.1486772 493.55994567 -143.74087164 501.25874132 -157 507 C-167.711746 510.13879708 -181.20760577 509.11424673 -191.234375 504.55078125 C-202.92770237 497.9939296 -211.7265969 488.17111481 -215.55786133 475.09619141 C-218.00327876 463.50240117 -216.85842266 450.28415599 -211 440 C-207.05328401 433.96632118 -202.6113413 429.23167611 -196.6640625 425.15625 C-194.85167888 423.96981609 -194.85167888 423.96981609 -193 422 C-193.05909742 419.19298916 -193.05909742 419.19298916 -193.59912109 415.89794922 C-193.77945892 414.61677216 -193.95979675 413.33559509 -194.14559937 412.01559448 C-194.35464131 410.61192344 -194.56392646 409.2082886 -194.7734375 407.8046875 C-194.97905179 406.37278961 -195.1836802 404.94074983 -195.38735962 403.50857544 C-195.92662373 399.73580684 -196.47929509 395.96511941 -197.034729 392.19470215 C-197.59893129 388.34841118 -198.15050408 384.50031261 -198.703125 380.65234375 C-199.78969217 373.09973065 -200.89042171 365.54927056 -202 358 C-203.43660728 357.90497444 -203.43660728 357.90497444 -204.90223694 357.80802917 C-206.16047775 357.72209 -207.41871857 357.63615082 -208.71508789 357.54760742 C-210.58482018 357.42164436 -210.58482018 357.42164436 -212.49232483 357.2931366 C-237.27058886 355.22241578 -258.66801676 343.18694572 -276 326 C-276.68707031 325.36191406 -277.37414062 324.72382813 -278.08203125 324.06640625 C-281.58551185 320.76854753 -284.38890135 317.19302823 -287.19921875 313.28515625 C-287.91295654 312.29523682 -288.62669434 311.30531738 -289.36206055 310.28540039 C-289.90258057 309.53121826 -290.44310059 308.77703613 -291 308 C-291.53108368 308.2261348 -292.06216736 308.45226959 -292.60934448 308.68525696 C-295.19527296 309.78631013 -297.78122805 310.88730081 -300.3671875 311.98828125 C-301.82836502 312.61040749 -301.82836502 312.61040749 -303.31906128 313.24510193 C-308.6682325 315.52239598 -314.01782289 317.7986981 -319.36816406 320.07324219 C-321.51888639 320.98761567 -323.66960257 321.90200361 -325.8203125 322.81640625 C-326.88064697 323.26720551 -327.94098145 323.71800476 -329.03344727 324.1824646 C-334.30381677 326.42415675 -339.57208538 328.67049305 -344.8343811 330.93107605 C-346.70807253 331.73584659 -348.58276929 332.53827529 -350.45751953 333.34057617 C-352.59836178 334.25701413 -354.73746421 335.1775308 -356.87451172 336.1027832 C-357.7976416 336.4968335 -358.72077148 336.89088379 -359.671875 337.296875 C-360.4462793 337.63041992 -361.22068359 337.96396484 -362.01855469 338.30761719 C-364 339 -364 339 -367 339 C-366.94199219 339.78761719 -366.88398438 340.57523437 -366.82421875 341.38671875 C-366.33387634 353.22498542 -369.46962189 363.0078486 -377.19921875 372.078125 C-384.81764959 380.20885813 -394.86863588 386.85917369 -406.30859375 387.2734375 C-421.15892278 387.6905081 -432.80024704 385.49407746 -444 375 C-452.32217349 367.12504611 -457.02483156 356.54333675 -457.34350586 345.1965332 C-457.52430846 330.07498828 -453.92064087 319.42724516 -443.41796875 308.328125 C-432.88758188 298.38702985 -420.93294934 296.4257256 -407.13671875 296.6640625 C-395.56122804 297.17702144 -387.44620008 302.48880362 -379 310 C-361.55241035 303.15682136 -344.34001767 295.78893096 -327.12353516 288.38720703 C-323.51882791 286.83778728 -319.91172772 285.29398087 -316.3046875 283.75 C-315.19656708 283.27199951 -314.08844666 282.79399902 -312.94674683 282.30151367 C-311.93033112 281.86685791 -310.91391541 281.43220215 -309.86669922 280.984375 C-308.97216034 280.59991211 -308.07762146 280.21544922 -307.15597534 279.81933594 C-305 279 -305 279 -303 279 C-303.2165625 278.30261719 -303.433125 277.60523438 -303.65625 276.88671875 C-310.49255674 250.96572236 -306.01915391 223.14361166 -293.2734375 199.84375 C-287.62843648 190.66740131 -280.82921527 182.38882191 -273 175 C-274.28044137 171.55446418 -275.76505241 168.59776281 -277.79394531 165.53613281 C-278.35502991 164.68464661 -278.9161145 163.8331604 -279.49420166 162.95587158 C-280.09939636 162.04746521 -280.70459106 161.13905884 -281.328125 160.203125 C-281.95475037 159.25491882 -282.58137573 158.30671265 -283.22698975 157.32977295 C-285.23043459 154.30036018 -287.24013111 151.27515356 -289.25 148.25 C-290.58765048 146.22943863 -291.92489449 144.2086081 -293.26171875 142.1875 C-297.80129607 135.32171182 -297.80129607 135.32171182 -302.37013245 128.47540283 C-303.47523608 126.79699857 -304.54937624 125.09787126 -305.59458923 123.38153076 C-306.10244461 122.56210999 -306.61029999 121.74268921 -307.13354492 120.8984375 C-307.79382942 119.79749756 -307.79382942 119.79749756 -308.467453 118.67431641 C-309.9094682 116.79181007 -309.9094682 116.79181007 -312.37721252 116.39430237 C-314.99054346 116.28574724 -317.46153957 116.47784437 -320.0625 116.75 C-332.43690696 117.39267357 -341.40046362 115.04798538 -351.078125 106.80078125 C-359.20885813 99.18235041 -365.85917369 89.13136412 -366.2734375 77.69140625 C-366.6905081 62.84107722 -364.49407746 51.19975296 -354 40 C-346.12504611 31.67782651 -335.54333675 26.97516844 -324.1965332 26.65649414 C-309.07498828 26.47569154 -298.42724516 30.07935913 -287.328125 40.58203125 C-277.55872793 50.93054206 -275.5291185 62.58020505 -275.7109375 76.1328125 C-275.98022455 83.15331636 -277.69442871 89.7180116 -281.76171875 95.5078125 C-283.32401874 97.92948503 -283.32401874 97.92948503 -282.25201416 100.37677002 C-281.05150673 102.89208269 -279.74460911 105.14216536 -278.20605469 107.46386719 C-277.64497009 108.31535339 -277.0838855 109.1668396 -276.50579834 110.04412842 C-275.90060364 110.95253479 -275.29540894 111.86094116 -274.671875 112.796875 C-273.73193695 114.21918427 -273.73193695 114.21918427 -272.77301025 115.67022705 C-270.76956541 118.69963982 -268.75986889 121.72484644 -266.75 124.75 C-265.41234952 126.77056137 -264.07510551 128.7913919 -262.73828125 130.8125 C-257.17491457 139.21904704 -251.59509077 147.61453582 -246 156 C-245.35643555 155.77812012 -244.71287109 155.55624023 -244.04980469 155.32763672 C-241.41061164 154.41960588 -238.76777619 153.52254663 -236.125 152.625 C-235.2071875 152.30789062 -234.289375 151.99078125 -233.34375 151.6640625 C-205.987914 142.41701935 -177.75699012 145.86747241 -152 158 C-150.64841797 158.87978516 -150.64841797 158.87978516 -149.26953125 159.77734375 C-147.13316339 161.21307984 -147.13316339 161.21307984 -145.02026367 160.74316406 C-141.62191841 159.49306582 -139.72487204 156.54699587 -137.5 153.8125 C-136.42732628 152.52714097 -135.3544027 151.24199041 -134.28125 149.95703125 C-133.73597656 149.29783691 -133.19070313 148.63864258 -132.62890625 147.95947266 C-130.12106414 144.94269496 -127.5598768 141.97261056 -125 139 C-123.99970468 137.83358653 -122.99970555 136.66691898 -122 135.5 C-92 100.5 -92 100.5 -90.49926758 98.74926758 C-89.50154805 97.58518023 -88.50398886 96.42095544 -87.5065918 95.2565918 C-84.45813366 91.69831476 -81.4041327 88.14491782 -78.34399414 84.59667969 C-77.3320078 83.41772287 -76.32458378 82.23483277 -75.32202148 81.04785156 C-72.99761181 78.29627196 -70.65177911 75.61056764 -68.140625 73.02734375 C-63.44439691 68.34195037 -63.44439691 68.34195037 -62.08203125 62.203125 C-62.83884943 59.62323247 -63.77851781 57.3894688 -65 55 C-68.1051447 45.68456589 -67.21338708 32.20137833 -63.26953125 23.32421875 C-59.89268468 17.14199195 -56.26928827 11.74235944 -51 7 C-50.071875 6.154375 -49.14375 5.30875 -48.1875 4.4375 C-35.49000334 -5.94245871 -14.3821309 -8.08683831 0 0 Z " fill="#017260" transform="translate(457,4)"/>
</svg>
