<?xml version="1.0" encoding="UTF-8"?>
<svg version="1.1" xmlns="http://www.w3.org/2000/svg" width="512" height="512">
<path d="M0 0 C4.74383917 1.6691286 7.22222634 3.83333952 10 8 C11.8167876 11.79487878 12.2383094 14.76483335 12.1953125 18.95703125 C12.18564453 20.62475586 12.18564453 20.62475586 12.17578125 22.32617188 C12.15064453 24.0519043 12.15064453 24.0519043 12.125 25.8125 C12.11597656 26.98232422 12.10695313 28.15214844 12.09765625 29.35742188 C12.07413732 32.23849053 12.04126852 35.11913989 12 38 C13.47726562 38.13728516 13.47726562 38.13728516 14.984375 38.27734375 C19.44534244 38.91414348 23.20096885 40.65507395 27.25 42.5625 C32.39890868 45.12444905 32.39890868 45.12444905 38 46 C39.82409902 44.54286101 39.82409902 44.54286101 41.6171875 42.5703125 C42.30683594 41.85746094 42.99648438 41.14460938 43.70703125 40.41015625 C45.14474212 38.89473128 46.58224439 37.37910838 48.01953125 35.86328125 C48.71175781 35.14785156 49.40398437 34.43242187 50.1171875 33.6953125 C50.74222168 33.03547363 51.36725586 32.37563477 52.01123047 31.69580078 C56.10648432 28.20382518 60.42790007 27.4950803 65.65234375 27.6171875 C70.79561364 28.45585713 74.59959787 31.37372656 77.9375 35.25 C79.97856538 40.53275746 80.53979094 45.07699478 79 50.5625 C74.39874433 58.47090818 67.49214626 64.64034652 61 71 C61.72316406 72.57587891 61.72316406 72.57587891 62.4609375 74.18359375 C63.09940285 75.6013624 63.73739848 77.01934265 64.375 78.4375 C64.69210937 79.12521484 65.00921875 79.81292969 65.3359375 80.52148438 C67.59714627 85.58564984 68.98692364 90.55092549 70 96 C70.75619629 95.98428955 71.51239258 95.9685791 72.29150391 95.95239258 C75.73592576 95.88981953 79.18022774 95.85093795 82.625 95.8125 C83.81480469 95.78736328 85.00460937 95.76222656 86.23046875 95.73632812 C97.27406344 95.64378404 97.27406344 95.64378404 102 99 C105.88448797 103.10029286 107.74070608 106.70957035 108.375 112.3125 C107.90835238 116.9012016 106.67214573 120.24101824 104 124 C99.0809842 127.91513503 95.43565577 129.129115 89.23828125 129.09765625 C88.12001953 129.09443359 87.00175781 129.09121094 85.84960938 129.08789062 C84.68236328 129.07951172 83.51511719 129.07113281 82.3125 129.0625 C81.13365234 129.05798828 79.95480469 129.05347656 78.74023438 129.04882812 C75.82677211 129.03703273 72.91341137 129.0205727 70 129 C69.82041748 129.78213867 69.64083496 130.56427734 69.45581055 131.37011719 C68.03715198 137.3267436 66.5025334 142.75037616 63.8125 148.25 C63.28269531 149.34828125 62.75289062 150.4465625 62.20703125 151.578125 C61.60955078 152.77695312 61.60955078 152.77695312 61 154 C61.46897705 154.44802979 61.9379541 154.89605957 62.42114258 155.35766602 C64.56230464 157.41512064 66.68735066 159.48851504 68.8125 161.5625 C69.55048828 162.26697266 70.28847656 162.97144531 71.04882812 163.69726562 C75.99611425 168.55500811 79.44265461 172.49365865 80.3203125 179.58984375 C79.82007541 185.60269354 78.16284179 189.14012336 73.88671875 193.43359375 C69.26638715 197.26952123 65.03732885 197.19541022 59.34375 196.6796875 C52.79617269 194.78089008 48.23801403 189.48821066 43.625 184.75 C42.98433594 184.1003125 42.34367188 183.450625 41.68359375 182.78125 C40.11770636 181.19199115 38.55671491 179.59823583 37 178 C35.42412109 178.72316406 35.42412109 178.72316406 33.81640625 179.4609375 C32.3986376 180.09940285 30.98065735 180.73739848 29.5625 181.375 C28.87478516 181.69210937 28.18707031 182.00921875 27.47851562 182.3359375 C22.41435016 184.59714627 17.44907451 185.98692364 12 187 C12.02094727 187.71542969 12.04189453 188.43085938 12.06347656 189.16796875 C12.14720833 192.44516652 12.19884051 195.72213841 12.25 199 C12.28351563 200.12535156 12.31703125 201.25070312 12.3515625 202.41015625 C12.43395522 209.45473393 11.87563938 214.05085875 8 220 C2.76184149 224.16914657 -1.32325422 225.54727424 -8 225 C-13.27239347 223.19007388 -16.94520757 220.76547618 -20 216 C-21.05836661 212.82490018 -21.20243789 210.35717617 -21.31640625 207.01953125 C-21.35830078 205.85615234 -21.40019531 204.69277344 -21.44335938 203.49414062 C-21.48267578 202.27919922 -21.52199219 201.06425781 -21.5625 199.8125 C-21.62727539 197.97268555 -21.62727539 197.97268555 -21.69335938 196.09570312 C-21.7995309 193.06391619 -21.90157952 190.03204685 -22 187 C-23.61068359 186.41992188 -23.61068359 186.41992188 -25.25390625 185.828125 C-26.69022507 185.30241354 -28.12641622 184.77635317 -29.5625 184.25 C-30.26697266 183.99734375 -30.97144531 183.7446875 -31.69726562 183.484375 C-36.44694414 181.73334144 -40.66652192 179.61944799 -45 177 C-45.45850342 177.46897705 -45.91700684 177.9379541 -46.3894043 178.42114258 C-48.48342505 180.55691163 -50.58534833 182.68473465 -52.6875 184.8125 C-53.40873047 185.55048828 -54.12996094 186.28847656 -54.87304688 187.04882812 C-55.57880859 187.76103516 -56.28457031 188.47324219 -57.01171875 189.20703125 C-57.97791138 190.18893433 -57.97791138 190.18893433 -58.96362305 191.19067383 C-63.90619022 195.5821575 -68.46420896 197.17428776 -75 197 C-79.38677864 196.13500139 -82.24419237 194.7756973 -85.375 191.5625 C-87.74601821 187.82358668 -89.28884983 185.11853261 -89.3125 180.625 C-89.32925781 179.89539063 -89.34601563 179.16578125 -89.36328125 178.4140625 C-88.21712883 170.7976948 -82.57866475 166.22268204 -77.3125 161.125 C-76.11657227 159.949375 -76.11657227 159.949375 -74.89648438 158.75 C-72.9376318 156.82633639 -70.97211016 154.91005409 -69 153 C-70.04888098 150.35876488 -71.11505492 147.73691492 -72.25390625 145.1328125 C-72.90166016 143.64394531 -72.90166016 143.64394531 -73.5625 142.125 C-73.99691406 141.13757813 -74.43132812 140.15015625 -74.87890625 139.1328125 C-76.09005225 135.74835575 -76.60244132 132.56462725 -77 129 C-77.77601563 129.02094727 -78.55203125 129.04189453 -79.3515625 129.06347656 C-82.90090748 129.14712759 -86.45004435 129.19881629 -90 129.25 C-91.22074219 129.28351563 -92.44148438 129.31703125 -93.69921875 129.3515625 C-100.9854523 129.43033259 -105.85063616 129.02383879 -112 125 C-116.64305954 120.11883485 -117.35728013 116.03299394 -117.28125 109.50390625 C-116.7247527 104.54953445 -113.97706409 101.86074694 -110.375 98.6875 C-106.46224301 95.90738319 -104.26362309 95.88146251 -99.4609375 95.90234375 C-97.50800781 95.90717773 -97.50800781 95.90717773 -95.515625 95.91210938 C-94.13541601 95.92046534 -92.75520768 95.92893029 -91.375 95.9375 C-89.98698074 95.94251499 -88.59895978 95.9470779 -87.2109375 95.95117188 C-83.80724868 95.96299024 -80.40364561 95.97946566 -77 96 C-76.89187988 95.36658691 -76.78375977 94.73317383 -76.67236328 94.08056641 C-75.64040968 88.44759962 -74.22819483 83.59295376 -71.875 78.375 C-71.59785156 77.75238281 -71.32070313 77.12976563 -71.03515625 76.48828125 C-70.36584692 74.98810516 -69.68429557 73.49339976 -69 72 C-69.5347998 71.48091064 -70.06959961 70.96182129 -70.62060547 70.42700195 C-73.04663563 68.06345485 -75.46085349 65.68818135 -77.875 63.3125 C-79.13763672 62.08756836 -79.13763672 62.08756836 -80.42578125 60.83789062 C-81.23144531 60.04189453 -82.03710938 59.24589844 -82.8671875 58.42578125 C-83.61081543 57.69786377 -84.35444336 56.96994629 -85.12060547 56.2199707 C-88.7990277 51.87495988 -89.40147561 47.71851715 -89.24609375 42.20703125 C-88.70729859 37.37497942 -86.56449775 34.29978535 -83 31.1875 C-79.45478572 28.60244792 -76.97494076 27.83885888 -72.6875 27.75 C-71.57955078 27.71132813 -71.57955078 27.71132813 -70.44921875 27.671875 C-62.0944568 28.79117325 -57.14170194 35.72555828 -51.74609375 41.546875 C-50.72322266 42.61421875 -50.72322266 42.61421875 -49.6796875 43.703125 C-49.06851074 44.35958008 -48.45733398 45.01603516 -47.82763672 45.69238281 C-46.09387071 47.23769659 -46.09387071 47.23769659 -43.95458984 46.78979492 C-40.04103463 45.20843705 -36.27759113 43.31935357 -32.484375 41.47265625 C-28.66174315 39.85703718 -25.0415741 38.91332515 -21 38 C-21.0314209 36.82026611 -21.0314209 36.82026611 -21.06347656 35.61669922 C-21.14687753 32.03626402 -21.19873776 28.45603358 -21.25 24.875 C-21.28351563 23.6375 -21.31703125 22.4 -21.3515625 21.125 C-21.47395612 9.74239349 -21.47395612 9.74239349 -17 5 C-11.3010612 -0.0204937 -7.46345948 -0.63152349 0 0 Z M-37.8125 83.8125 C-46.35647 94.21035029 -49.09397244 105.7461031 -48 119 C-45.79194456 131.20020506 -39.57753858 141.22177769 -29.5 148.5 C-18.18067052 155.29159769 -6.904822 157.69844883 6 154.875 C17.18751127 151.78088677 26.65546313 144.97730761 32.82421875 135.0703125 C38.78849758 123.71940897 40.89097328 112.98170515 37.375 100.5 C33.22257699 88.18741469 26.56404973 79.25081652 14.9375 73.125 C-3.85902458 64.57589158 -23.72467639 68.78346404 -37.8125 83.8125 Z " fill="#017260" transform="translate(378,261)"/>
<path d="M0 0 C15.42851148 14.25994619 26.25154839 32.86810011 32.2421875 52.92578125 C32.43707764 53.57772461 32.63196777 54.22966797 32.83276367 54.90136719 C41.3744932 85.33386674 36.51492974 117.3603651 21.59814453 144.86743164 C18.08712788 151.08056233 13.9652079 156.73032096 9.4296875 162.23828125 C8.67042969 163.16253906 7.91117188 164.08679688 7.12890625 165.0390625 C-12.90038937 188.21535055 -42.22126754 201.80941701 -72.5703125 204.23828125 C-106.28317771 206.00738801 -136.3977068 194.98720954 -161.6328125 172.86328125 C-182.55117008 153.65320249 -197.10490821 126.38070638 -198.77514648 97.72387695 C-198.87346481 93.97602256 -198.89973143 90.23737223 -198.8828125 86.48828125 C-198.88032501 85.82742523 -198.87783752 85.16656921 -198.87527466 84.48568726 C-198.6894342 52.53319621 -186.4279025 24.48709895 -164.03222656 1.67724609 C-118.53653104 -43.10425514 -46.62012804 -41.6361105 0 0 Z M-145.1953125 29.86328125 C-162.5357179 50.02654334 -167.09629683 73.23161217 -165.5703125 99.23828125 C-164.90619924 104.46099907 -163.41721971 109.31521384 -161.5703125 114.23828125 C-161.20808594 115.27597656 -160.84585938 116.31367188 -160.47265625 117.3828125 C-152.26551008 139.05524256 -135.33081667 154.75495119 -114.71484375 164.4765625 C-94.85426152 173.29984732 -71.98315589 173.6797598 -51.67089844 166.23754883 C-44.42695312 163.40042935 -37.87265537 159.80464944 -31.5703125 155.23828125 C-30.66796875 154.59375 -29.765625 153.94921875 -28.8359375 153.28515625 C-11.33634438 139.93800896 -1.39834832 120.68478941 3.01171875 99.43359375 C6.09786072 75.84047105 0.11173935 53.48428884 -13.75 34.20703125 C-27.96179263 16.12776718 -47.51308736 5.4073957 -70.0703125 1.65625 C-98.70338534 -1.76310133 -125.37685832 9.15179447 -145.1953125 29.86328125 Z " fill="#017260" transform="translate(326.5703125,57.76171875)"/>
<path d="M0 0 C1.97419922 -0.04253906 1.97419922 -0.04253906 3.98828125 -0.0859375 C9.99048229 0.66196083 14.34775423 2.69172967 18.125 7.4375 C20.54632037 11.9895823 21.02986361 15.23954591 20.6875 20.375 C18.86692998 26.24128117 16.55864644 28.92460461 11.6875 32.375 C8.23755491 33.5249817 5.0294021 33.653248 1.43359375 33.8046875 C-0.06235938 33.87616564 -1.55828954 33.94812589 -3.05419922 34.02050781 C-4.2331778 34.07591736 -4.2331778 34.07591736 -5.43597412 34.13244629 C-61.1224362 36.81636626 -128.10706701 45.91335201 -168.83203125 88.3828125 C-177.61169238 98.9737108 -181.68825494 109.8486436 -181.5078125 123.56640625 C-181.50356766 124.81247902 -181.50356766 124.81247902 -181.49923706 126.08372498 C-181.48816291 128.70180505 -181.4630836 131.31952571 -181.4375 133.9375 C-181.42745365 135.72720855 -181.41833072 137.51692254 -181.41015625 139.30664062 C-181.38826565 143.66289604 -181.35382633 148.01888738 -181.3125 152.375 C-180.33882162 152.37738835 -179.36514324 152.37977671 -178.36195946 152.38223743 C-154.67610219 152.44101793 -130.99034676 152.51689179 -107.30460167 152.61071491 C-95.85037531 152.65569077 -84.39618017 152.69510134 -72.94189453 152.72143555 C-62.95896822 152.74440108 -52.97614055 152.777783 -42.99329245 152.82370156 C-37.70688194 152.84765318 -32.42056923 152.86636928 -27.13410568 152.87261391 C-22.15842959 152.87865594 -17.18300383 152.89862403 -12.20742035 152.92927551 C-10.38131828 152.93806985 -8.55518352 152.94177543 -6.72906113 152.94000816 C-4.23480509 152.93835643 -1.74131309 152.95504575 0.75283813 152.97627258 C1.47464126 152.97142501 2.19644439 152.96657743 2.94012034 152.96158296 C7.58012418 153.02670457 10.73802919 153.9505238 14.6875 156.375 C18.57198797 160.47529286 20.42820608 164.08457035 21.0625 169.6875 C20.59547151 174.27994686 19.35556907 177.61023996 16.6875 181.375 C10.90365527 186.07437384 6.31363118 186.52402624 -0.91917419 186.52217102 C-1.68929449 186.52584771 -2.45941478 186.5295244 -3.25287205 186.5333125 C-5.83582445 186.54433337 -8.4187366 186.54819053 -11.00170898 186.55200195 C-12.85310493 186.55826802 -14.70449962 186.56491495 -16.55589294 186.57191467 C-22.64011765 186.59294788 -28.72434258 186.60331929 -34.80859375 186.61328125 C-36.90585913 186.61732968 -39.00312437 186.62144663 -41.10038948 186.62563133 C-50.95846007 186.64468473 -60.81652318 186.65891306 -70.67460865 186.6672433 C-82.03669847 186.67700381 -93.39859286 186.70329175 -104.76061386 186.74374419 C-113.55233401 186.77396578 -122.34399836 186.78871807 -131.13576943 186.79202431 C-136.38161617 186.79436873 -141.62725417 186.80324921 -146.87304497 186.82848549 C-151.81513091 186.85187575 -156.75687232 186.85595561 -161.6989994 186.84572411 C-163.50445582 186.84523122 -165.30992983 186.85147798 -167.11533356 186.86528015 C-180.20037009 186.95964629 -192.89948265 186.41060323 -203.3125 177.4140625 C-215.26454253 165.22858164 -215.81148326 152.16599484 -215.70361328 135.94262695 C-215.68759288 133.07910074 -215.70348937 130.21699784 -215.72265625 127.35351562 C-215.75470113 100.10946319 -206.87079105 79.14676683 -187.875 59.5 C-167.23429959 38.84266996 -138.66954678 26.27216333 -111.3125 17.375 C-110.53100586 17.11477051 -109.74951172 16.85454102 -108.94433594 16.58642578 C-73.95845644 5.0101077 -36.72112085 0.73639138 0 0 Z " fill="#017260" transform="translate(241.3125,278.625)"/>
</svg>
