<?xml version="1.0" encoding="UTF-8"?>
<svg version="1.1" xmlns="http://www.w3.org/2000/svg" width="512" height="512">
<path d="M0 0 C1.01790619 0.00215515 2.03581238 0.0043103 3.08456421 0.00653076 C17.69363523 0.05620146 32.02575853 0.30709809 46.375 3.3125 C47.34985352 3.51117676 48.32470703 3.70985352 49.32910156 3.91455078 C97.7109774 14.03517194 141.69928269 35.9516877 177.375 70.3125 C178.3640332 71.26068604 178.3640332 71.26068604 179.37304688 72.22802734 C188.86130305 81.37247479 197.6012044 90.66984009 205.375 101.3125 C206.23306152 102.46355017 207.09113451 103.61459177 207.94921875 104.765625 C213.98736829 112.95680614 219.34595521 121.47054105 224.375 130.3125 C224.73948242 130.94430176 225.10396484 131.57610352 225.47949219 132.22705078 C247.08534998 169.97532572 256.85198095 212.74189997 256.6875 255.9375 C256.68534485 256.95540619 256.6831897 257.97331238 256.68096924 259.02206421 C256.63129854 273.63113523 256.38040191 287.96325853 253.375 302.3125 C253.07698486 303.77478027 253.07698486 303.77478027 252.77294922 305.26660156 C242.65232806 353.6484774 220.7358123 397.63678269 186.375 433.3125 C185.74287598 433.97185547 185.11075195 434.63121094 184.45947266 435.31054688 C175.31502521 444.79880305 166.01765991 453.5387044 155.375 461.3125 C154.22394983 462.17056152 153.07290823 463.02863451 151.921875 463.88671875 C143.73224019 469.92427396 135.22961724 475.30707302 126.375 480.3125 C125.66778809 480.7146875 124.96057617 481.116875 124.23193359 481.53125 C101.09654164 494.5566741 75.92537591 503.30551461 49.9375 508.625 C49.21860596 508.77235596 48.49971191 508.91971191 47.7590332 509.0715332 C33.08339502 511.86090125 18.55831162 512.66142619 3.64770508 512.62817383 C0.70811513 512.6250221 -2.2304558 512.64854926 -5.16992188 512.67382812 C-18.54306192 512.71848737 -31.43916711 511.51301542 -44.625 509.3125 C-46.33055054 509.03031616 -46.33055054 509.03031616 -48.07055664 508.74243164 C-109.33381836 497.7379236 -167.76195468 461.60504511 -204.625 411.3125 C-205.26211914 410.45857666 -205.26211914 410.45857666 -205.91210938 409.58740234 C-212.42768015 400.84658179 -218.26088547 391.80163672 -223.625 382.3125 C-224.0271875 381.60528809 -224.429375 380.89807617 -224.84375 380.16943359 C-237.8691741 357.03404164 -246.61801461 331.86287591 -251.9375 305.875 C-252.08485596 305.15610596 -252.23221191 304.43721191 -252.3840332 303.6965332 C-255.35789088 288.05024391 -255.99800362 272.57681954 -255.9375 256.6875 C-255.93534485 255.66959381 -255.9331897 254.65168762 -255.93096924 253.60293579 C-255.88129854 238.99386477 -255.63040191 224.66174147 -252.625 210.3125 C-252.42632324 209.33764648 -252.22764648 208.36279297 -252.02294922 207.35839844 C-241.90232806 158.9765226 -219.9858123 114.98821731 -185.625 79.3125 C-184.99287598 78.65314453 -184.36075195 77.99378906 -183.70947266 77.31445312 C-174.56502521 67.82619695 -165.26765991 59.0862956 -154.625 51.3125 C-153.47394983 50.45443848 -152.32290823 49.59636549 -151.171875 48.73828125 C-142.98224019 42.70072604 -134.47961724 37.31792698 -125.625 32.3125 C-124.91778809 31.9103125 -124.21057617 31.508125 -123.48193359 31.09375 C-100.34654164 18.0683259 -75.17537591 9.31948539 -49.1875 4 C-48.46860596 3.85264404 -47.74971191 3.70528809 -47.0090332 3.5534668 C-31.36274391 0.57960912 -15.88931954 -0.06050362 0 0 Z M-139.625 118.375 C-149.14903384 132.3634247 -142.01654886 161.19154227 -139.10498047 177.16552734 C-127.25316322 239.58086161 -93.50988478 300.21718906 -42.625 339.3125 C-41.38582965 340.3022733 -40.14761912 341.293249 -38.91015625 342.28515625 C-28.04072305 350.90385481 -16.59819389 358.32144048 -4.625 365.3125 C-3.55910645 365.93850098 -3.55910645 365.93850098 -2.47167969 366.57714844 C29.83641381 385.29669945 68.18365359 396.48118915 105.375 399.3125 C106.30151367 399.38484863 107.22802734 399.45719727 108.18261719 399.53173828 C111.24564796 399.75645273 114.30893817 399.94667827 117.375 400.125 C118.33100098 400.19041992 119.28700195 400.25583984 120.27197266 400.32324219 C126.79286847 400.63588006 133.88059366 400.43940568 139 395.85839844 C142.85614222 391.34769799 143.50442972 388.66134462 143.55200195 382.84667969 C143.55857315 382.18302902 143.56514435 381.51937836 143.57191467 380.83561707 C143.59165432 378.63520191 143.603313 376.4348551 143.61328125 374.234375 C143.61735678 373.48245125 143.6214323 372.7305275 143.62563133 371.95581818 C143.6464971 367.97429173 143.66079535 363.99279978 143.67016602 360.01123047 C143.68121847 355.90427932 143.71560281 351.79787178 143.75533772 347.69111252 C143.7815239 344.52887995 143.7898597 341.36677634 143.79344749 338.20444489 C143.79831005 336.6910155 143.80991473 335.17759175 143.82848549 333.66426849 C143.85291641 331.54104508 143.85190555 329.41922029 143.8449707 327.29589844 C143.85083694 326.08947693 143.85670319 324.88305542 143.86274719 323.64007568 C143.07799545 318.28623492 140.58914523 315.24840362 136.375 312 C131.92913037 309.49919834 128.37980664 309.20159335 123.28564453 309.02270508 C96.97301956 308.0926761 71.02804733 302.13902366 47.375 290.3125 C41.77030309 289.93885354 38.18791497 290.10389002 33.375 293.3125 C28.29523412 298.52955685 25.58900667 304.62535469 22.5625 311.1875 C22.06041016 312.25742187 21.55832031 313.32734375 21.04101562 314.4296875 C19.81101622 317.05368623 18.58931611 319.68121624 17.375 322.3125 C11.49079281 319.53568313 6.27335556 316.36259527 1 312.5625 C0.25395508 312.02882813 -0.49208984 311.49515625 -1.26074219 310.9453125 C-11.72778993 303.41231335 -21.27205479 295.16874246 -30.625 286.3125 C-31.64787109 285.3534375 -31.64787109 285.3534375 -32.69140625 284.375 C-45.59335631 271.92207373 -56.98955619 256.00613762 -65.625 240.3125 C-62.75703937 238.02519237 -59.91630271 236.3784592 -56.59765625 234.82421875 C-55.64052734 234.36466797 -54.68339844 233.90511719 -53.69726562 233.43164062 C-51.69847024 232.48088331 -49.69586274 231.5380973 -47.68945312 230.60351562 C-42.01840649 227.86142919 -38.12550691 225.61076203 -34.625 220.3125 C-31.98174847 212.3827454 -34.32900131 206.85229722 -37.75 199.6875 C-47.12407938 178.89740778 -51.81965868 156.54635483 -52.15942383 133.75317383 C-52.3402193 127.02951689 -53.58032082 121.45011915 -58.375 116.4375 C-65.80400858 111.58007131 -73.26873632 112.00530443 -81.8984375 112.01171875 C-83.17675446 112.00743362 -84.45507141 112.0031485 -85.77212524 111.99873352 C-88.47019617 111.99130162 -91.16813618 111.99154016 -93.86621094 111.99682617 C-97.30120671 112.00261327 -100.73566193 111.98569411 -104.17056847 111.9624815 C-107.47571269 111.9440909 -110.78074258 111.94793175 -114.0859375 111.94921875 C-115.30807953 111.940009 -116.53022156 111.93079926 -117.78939819 111.92131042 C-129.90711929 111.95877572 -129.90711929 111.95877572 -139.625 118.375 Z " fill="#017260" transform="translate(255.625,-0.3125)"/>
</svg>
