<?xml version="1.0" encoding="UTF-8"?>
<svg version="1.1" xmlns="http://www.w3.org/2000/svg" width="512" height="512">
<path d="M0 0 C1.51883789 0.29801514 1.51883789 0.29801514 3.06835938 0.60205078 C50.95723881 10.17839201 95.42348903 32.47256667 130.49975586 66.59692383 C132.56359956 68.52709628 134.79256034 70.23782168 137 72 C138.09809154 73.15466769 139.1624861 74.34249631 140.1875 75.5625 C142.1512211 77.87251171 144.12644722 80.13313755 146.21484375 82.33203125 C181.55068829 119.61506982 202.51918418 170.50640493 209 221 C209.08732895 221.66720566 209.1746579 222.33441132 209.26463318 223.02183533 C209.96087491 228.73820476 210.17456164 234.37742632 210.203125 240.1328125 C210.21018463 241.07916061 210.21724426 242.02550873 210.22451782 243.00053406 C210.45241099 282.51652112 210.45241099 282.51652112 207 299 C206.70198486 300.46228027 206.70198486 300.46228027 206.39794922 301.95410156 C196.51441104 349.20259644 175.60986842 389.82003012 144 426 C143.2059375 426.9178125 142.411875 427.835625 141.59375 428.78125 C137.65342434 433.2613463 133.63182136 437.40044876 129.06640625 441.2421875 C126.81253016 443.1594734 124.66507153 445.17062201 122.5 447.1875 C89.24247051 477.05347016 47.13017529 496.39458716 3.5625 505.3125 C2.84360596 505.45985596 2.12471191 505.60721191 1.3840332 505.7590332 C-13.29160498 508.54840125 -27.81668838 509.34892619 -42.72729492 509.31567383 C-45.66688487 509.3125221 -48.6054558 509.33604926 -51.54492188 509.36132812 C-64.91806192 509.40598737 -77.81416711 508.20051542 -91 506 C-92.70555054 505.71781616 -92.70555054 505.71781616 -94.44555664 505.42993164 C-97.0412622 504.96367402 -99.61274939 504.4449418 -102.1875 503.875 C-103.57642456 503.56804199 -103.57642456 503.56804199 -104.9934082 503.25488281 C-138.16852023 495.54089209 -169.5454776 481.10858262 -197 461 C-197.57298828 460.58395508 -198.14597656 460.16791016 -198.73632812 459.73925781 C-206.29793619 454.2148153 -213.23654952 448.19792517 -220.02734375 441.76171875 C-222.01731577 439.88131657 -224.05585344 438.10349377 -226.17578125 436.37109375 C-228.45888878 434.45429393 -230.34823289 432.64711124 -232.25 430.375 C-234.19125892 428.08617944 -236.14372424 425.84865787 -238.2109375 423.671875 C-250.83695998 410.35121697 -260.89764839 394.88055353 -270 379 C-270.64364502 377.87754883 -270.64364502 377.87754883 -271.30029297 376.73242188 C-283.99673715 354.29130054 -292.37727501 329.97369762 -297.75 304.8125 C-297.94883789 303.88767822 -298.14767578 302.96285645 -298.35253906 302.01000977 C-301.64441382 285.8033142 -302.37530274 269.86962039 -302.3125 253.375 C-302.31034485 252.35676147 -302.3081897 251.33852295 -302.30596924 250.28942871 C-302.25627396 235.66752576 -301.95061242 221.36866068 -299 207 C-298.80132324 205.98744141 -298.60264648 204.97488281 -298.39794922 203.93164062 C-288.98216498 156.84566641 -267.39840662 113.96935007 -234.61328125 78.859375 C-232.80590247 76.88179463 -231.08608028 74.9133346 -229.39453125 72.84375 C-227.46827842 70.55612837 -225.65418745 68.65768994 -223.375 66.75 C-220.13925696 64.00232993 -217.03189284 61.15587856 -213.9375 58.25 C-180.49974776 27.81425591 -136.07440676 8.23304644 -92 0 C-91.19498047 -0.16226074 -90.38996094 -0.32452148 -89.56054688 -0.49169922 C-61.49825586 -5.97845467 -27.99265408 -5.74830701 0 0 Z M-200.44140625 102.3125 C-238.81565514 139.68568153 -260.7120418 194.69244338 -261.47290039 247.76977539 C-261.98197214 310.93383178 -238.23087303 364.7852643 -194.5 409.6875 C-154.56869389 448.98273221 -97.89450796 469.08290675 -42.5078125 468.99609375 C17.49612693 468.32512318 71.34875789 441.47552031 112.859375 399.29296875 C153.43469234 355.82999196 170.92346705 298.68780476 169.30924988 240.09260559 C167.31819576 183.1120452 139.13008131 130.45380889 98 92 C25.25750337 27.52369617 -84.28360407 19.08613833 -200.44140625 102.3125 Z " fill="#017260" transform="translate(302,3)"/>
<path d="M0 0 C4.97341492 4.76113501 7.21129045 9.20605437 7.54333496 16.15237427 C7.56685262 18.66413637 7.56294172 21.17624892 7.53710938 23.68798828 C7.54061544 25.07843705 7.54627948 26.46888179 7.55392456 27.85931396 C7.5681103 31.61559102 7.55117465 35.37113058 7.52763939 39.12733698 C7.50745777 43.06697398 7.5134136 47.00658254 7.51574707 50.94625854 C7.51569359 57.55853364 7.49598857 64.17052211 7.46386719 70.78271484 C7.42694776 78.419554 7.41819677 86.05601835 7.4251647 93.69293511 C7.43147584 101.05275587 7.42070609 108.41244859 7.40119934 115.7722435 C7.39304007 118.89890243 7.39031305 122.02549578 7.39189148 125.15216446 C7.39277225 128.83443895 7.37850292 132.51635883 7.35266495 136.19853973 C7.34212134 138.18922695 7.34616784 140.17997479 7.35067749 142.17068481 C7.3393277 143.3621814 7.32797791 144.55367798 7.31628418 145.78128052 C7.31255547 146.81251604 7.30882675 147.84375156 7.30498505 148.90623665 C6.49336752 155.12107481 3.38803525 158.83345453 -1.33203125 162.58203125 C-6.52810068 166.32506113 -11.83875588 166.59237835 -18.078125 165.83984375 C-24.27520941 164.01460019 -28.51732762 160.15023707 -32.078125 154.83984375 C-33.12877824 151.68788402 -33.21418674 149.45215458 -33.23202515 146.14204407 C-33.24492584 144.36098518 -33.24492584 144.36098518 -33.25808716 142.54394531 C-33.26234711 141.23949463 -33.26660706 139.93504395 -33.27099609 138.59106445 C-33.27889909 137.20460302 -33.28716816 135.81814363 -33.29577637 134.4316864 C-33.32197698 129.87635253 -33.33730354 125.32100956 -33.3515625 120.765625 C-33.35692327 119.19604169 -33.36230078 117.62645843 -33.36769485 116.05687523 C-33.38932204 109.52607297 -33.40805733 102.99527316 -33.41931725 96.46444416 C-33.43554723 87.11316952 -33.46870335 77.76231098 -33.52571809 68.41119319 C-33.5644612 61.8318689 -33.58395517 55.25265569 -33.58923781 48.67322034 C-33.59288576 44.74589412 -33.60484669 40.8190119 -33.63734055 36.89180946 C-33.66749817 33.193945 -33.67370623 29.49679137 -33.66195679 25.79883003 C-33.66163216 23.80361383 -33.68604734 21.80844099 -33.71133423 19.81338501 C-33.66094984 12.53616472 -33.00362424 7.4087199 -28.078125 1.83984375 C-19.65291592 -5.67582571 -9.41347706 -5.65210909 0 0 Z " fill="#017260" transform="translate(269.078125,132.16015625)"/>
<path d="M0 0 C5.97072728 4.46255049 10.39381251 9.38458216 12.2578125 16.6875 C13.23603954 25.95491408 12.94558088 34.03695009 7.2578125 41.6875 C1.24295599 48.40242295 -5.9994215 51.17264041 -14.90625 51.74609375 C-23.03974061 51.57804642 -29.99717473 48.40697938 -35.7421875 42.6875 C-41.9901672 34.4811983 -42.46482891 26.74253911 -41.7421875 16.6875 C-39.94377874 9.08218101 -35.16388331 3.66465774 -28.78125 -0.6328125 C-19.86177974 -5.37438963 -8.68285156 -5.04350454 0 0 Z " fill="#017260" transform="translate(270.7421875,325.3125)"/>
</svg>
