<?xml version="1.0" encoding="UTF-8"?>
<svg version="1.1" xmlns="http://www.w3.org/2000/svg" width="512" height="512">
<path d="M0 0 C2.15543743 -0.0043554 4.30879349 -0.04067531 6.46386719 -0.07861328 C16.06558729 -0.15677133 23.57716973 1.10777425 31.67480469 6.55810547 C37.35461925 12.36700673 42.36072884 19.16123931 42.46386719 27.54638672 C42.45097656 28.47837891 42.43808594 29.41037109 42.42480469 30.37060547 C43.42002136 30.23074219 44.41523804 30.09087891 45.44061279 29.94677734 C69.00059709 26.63620105 92.56199313 23.33584402 116.12500763 20.0469017 C130.84855079 17.991749 145.57107089 15.92953878 160.29186583 13.85479498 C171.5512961 12.26801942 182.81187112 10.68961405 194.07342911 9.11800003 C200.49585415 8.22139094 206.91768217 7.3209056 213.33825684 6.41113281 C219.42105297 5.54933962 225.50522911 4.69803139 231.59056091 3.85433578 C233.8259748 3.54256605 236.06087469 3.22708316 238.29518127 2.90747452 C272.66928574 -2.00303539 272.66928574 -2.00303539 282.37011719 3.74560547 C288.87322655 8.888749 292.22952344 15.51194835 293.23786712 23.67556345 C293.31504541 24.35798243 293.3922237 25.04040141 293.47174072 25.74349976 C293.56097817 26.48274732 293.65021561 27.22199488 293.74215722 27.98364389 C294.04172402 30.47956939 294.33133487 32.97655106 294.62109375 35.47363281 C294.83746172 37.29353983 295.05444814 39.1133734 295.27199554 40.9331398 C295.87444767 45.98761488 296.46821506 51.0430792 297.06068707 56.09873247 C297.70819101 61.61103848 298.3635881 67.12240637 299.01812744 72.63388062 C300.18605282 82.47627974 301.34911555 92.3192449 302.51000977 102.16247559 C304.34718135 117.73507665 306.19998186 133.30580112 308.05500698 148.87628412 C311.52507154 178.00324673 314.98047373 207.13191883 318.42219016 236.26224478 C318.90020934 240.30813842 319.37830557 244.35402295 319.85644531 248.39990234 C319.95136861 249.20315031 320.04629191 250.00639827 320.14409167 250.83398709 C321.70836175 264.06913316 323.2807146 277.30330787 324.85581467 290.53716893 C326.50025947 304.35503434 328.13674035 318.1738258 329.76572824 331.99352205 C330.75795249 340.40916422 331.75605953 348.82406167 332.76229158 357.23804067 C333.44499658 362.95184102 334.11987101 368.66653321 334.78873596 374.38197006 C335.17238998 377.65838921 335.56042393 380.93417869 335.9555397 384.20923805 C338.6672551 406.71532719 338.6672551 406.71532719 338.85797119 417.55722046 C338.89173815 418.58989908 338.89173815 418.58989908 338.92618728 419.64343989 C338.90120779 425.97084648 336.34623905 430.81426236 332.62792969 435.76123047 C321.072962 446.76155971 299.99295759 447.24469808 284.93896484 449.94482422 C281.14001715 450.62685089 277.34290214 451.31847122 273.54589844 452.01123047 C271.12542697 452.44929138 268.70485754 452.88681147 266.28417969 453.32373047 C264.58584991 453.63301483 264.58584991 453.63301483 262.85321045 453.94854736 C261.80401428 454.13584412 260.75481812 454.32314087 259.67382812 454.51611328 C258.75390076 454.68169739 257.83397339 454.84728149 256.88616943 455.0178833 C254.42480469 455.37060547 254.42480469 455.37060547 250.42480469 455.37060547 C250.44575195 456.2782666 250.46669922 457.18592773 250.48828125 458.12109375 C250.55671402 461.50938189 250.60672764 464.89692897 250.64453125 468.28564453 C250.66456801 469.74832799 250.69180572 471.21093213 250.7265625 472.67333984 C250.77543694 474.78356557 250.79785128 476.89272683 250.81542969 479.00341797 C250.83637695 480.27072754 250.85732422 481.53803711 250.87890625 482.84375 C250.19558091 488.15091013 247.96635922 490.96781862 244.07025146 494.51320648 C239.17576546 497.63565845 233.34465107 496.91988758 227.74707031 496.87854004 C225.81012676 496.88789998 225.81012676 496.88789998 223.83405304 496.89744902 C220.25615363 496.91413627 216.67868137 496.90589902 213.10078049 496.89350414 C209.23976508 496.88445339 205.37882309 496.89842348 201.51782227 496.90942383 C193.95664089 496.92721341 186.3956183 496.92336714 178.83443069 496.91177326 C172.68949327 496.90274094 166.54460036 496.90151407 160.3996582 496.90586853 C159.52518933 496.90648146 158.65072045 496.90709439 157.74975252 496.9077259 C155.9733041 496.9090048 154.19685569 496.91030165 152.4204073 496.91161627 C135.76133841 496.92302335 119.10235756 496.90990635 102.44330311 496.8884148 C88.14803038 496.8705437 73.85288757 496.87364777 59.55761719 496.89208984 C42.95829885 496.91349429 26.35905768 496.9219247 9.75972748 496.90964079 C7.98980205 496.90836659 6.21987662 496.90710911 4.44995117 496.90586853 C3.57910653 496.90525143 2.70826188 496.90463433 1.811028 496.90399852 C-4.32676514 496.90054435 -10.46450935 496.90637543 -16.60229492 496.91578674 C-24.08189909 496.92700338 -31.56133534 496.92397379 -39.04092026 496.90266377 C-42.85740145 496.89214876 -46.67360264 496.88803899 -50.49008179 496.90126038 C-54.62611879 496.91537214 -58.76144834 496.8985266 -62.89746094 496.87854004 C-64.10543083 496.88746293 -65.31340073 496.89638581 -66.55797577 496.90557909 C-72.85214322 496.84637761 -76.81770653 496.66402563 -81.57519531 492.37060547 C-83.21828419 490.45513288 -84.2818047 488.55942034 -85.57519531 486.37060547 C-86.50460938 486.92490234 -87.43402344 487.47919922 -88.39160156 488.05029297 C-89.6400603 488.78247178 -90.88877183 489.51421968 -92.13769531 490.24560547 C-93.05131836 490.7928125 -93.05131836 490.7928125 -93.98339844 491.35107422 C-104.26064881 497.33254269 -116.32112402 498.08979665 -127.87597656 495.68310547 C-138.47556812 492.08494143 -147.74106864 485.53227731 -153.08300781 475.55419922 C-158.27774532 464.40777673 -160.01938721 451.1948735 -155.95019531 439.30810547 C-155.03613281 437.02294922 -155.03613281 437.02294922 -153.57519531 434.37060547 C-153.2549385 433.73664132 -152.93468168 433.10267717 -152.60472012 432.44950199 C-149.25214768 426.5932392 -145.31220562 423.59605385 -139.56465006 420.15875101 C-116.93728046 406.61784469 -93.02540602 386.97845102 -85.52349377 360.68441486 C-80.44446935 338.17538502 -80.52264905 314.64834487 -80.54003906 291.68701172 C-80.5400955 290.43588708 -80.5400955 290.43588708 -80.54015309 289.15948719 C-80.55546041 267.43471658 -81.16193557 245.73753214 -81.96235144 224.02929628 C-82.42245718 211.42412412 -82.73833918 198.8213954 -82.95336914 186.2097168 C-82.97632027 184.86781365 -82.97632027 184.86781365 -82.99973505 183.49880136 C-83.09070691 178.11677848 -83.17694988 172.73468729 -83.26164965 167.3525625 C-83.38545336 159.5239938 -83.51626777 151.69554706 -83.65174866 143.86717224 C-83.66619257 143.0255778 -83.68063648 142.18398336 -83.69551808 141.31688606 C-83.89739256 129.71565053 -84.18248421 118.11922212 -84.54280911 106.52185024 C-84.61519485 104.17275348 -84.68500561 101.82359559 -84.75382435 99.47439182 C-84.77602176 98.71866356 -84.79821916 97.96293531 -84.82108922 97.1843062 C-84.86505142 95.6873241 -84.90893149 94.1903396 -84.952726 92.69335259 C-85.07967348 88.42104843 -85.225462 84.14992098 -85.38596207 79.8787528 C-85.5009699 76.68584861 -85.59003136 73.49218995 -85.68370056 70.29859924 C-85.73307028 69.16705542 -85.78244 68.03551159 -85.83330578 66.86967856 C-85.98964033 60.65569177 -85.80080448 57.06504671 -81.57519531 52.37060547 C-76.67510771 48.09490822 -72.87396823 47.82009976 -66.67675781 47.97998047 C-65.84179779 47.98564026 -65.00683777 47.99130005 -64.14657593 47.99713135 C-61.49718266 48.01940324 -58.84917516 48.06958023 -56.20019531 48.12060547 C-54.39682952 48.14068244 -52.59344239 48.15893112 -50.79003906 48.17529297 C-46.38456262 48.21923761 -41.98011338 48.28819946 -37.57519531 48.37060547 C-37.60661621 47.35861084 -37.60661621 47.35861084 -37.63867188 46.32617188 C-37.72274118 43.2161398 -37.77413975 40.10634788 -37.82519531 36.99560547 C-37.85871094 35.93470703 -37.89222656 34.87380859 -37.92675781 33.78076172 C-38.04480295 24.16008333 -35.96646084 16.06289482 -29.27832031 8.90185547 C-20.5047196 1.013664 -11.40809529 -0.00257752 0 0 Z M-17.51269531 22.12060547 C-21.33558679 28.14455567 -21.86346992 33.88916348 -21.70019531 40.80810547 C-21.65894531 43.30373047 -21.61769531 45.79935547 -21.57519531 48.37060547 C-16.29519531 48.37060547 -11.01519531 48.37060547 -5.57519531 48.37060547 C-5.57519531 43.09060547 -5.57519531 37.81060547 -5.57519531 32.37060547 C-0.29519531 32.37060547 4.98480469 32.37060547 10.42480469 32.37060547 C10.42480469 37.65060547 10.42480469 42.93060547 10.42480469 48.37060547 C15.70480469 48.37060547 20.98480469 48.37060547 26.42480469 48.37060547 C27.39730703 34.33615403 27.39730703 34.33615403 22.13574219 21.79248047 C16.6595484 16.69698464 9.72192638 15.99762498 2.54980469 16.05810547 C1.84944092 16.06374512 1.14907715 16.06938477 0.42749023 16.07519531 C-6.47724846 16.23671902 -12.63005111 16.87316601 -17.51269531 22.12060547 Z M239.16430664 20.12451172 C237.0150161 20.42071312 234.86563505 20.71625841 232.71617126 21.01119995 C226.90615638 21.81031043 221.09744473 22.61855102 215.28892922 23.42847824 C209.20915929 24.27463104 203.12822398 25.11232393 197.04740906 25.95092773 C185.54383864 27.53868565 174.04133126 29.1340123 162.53918952 30.73208332 C149.43963347 32.55171659 136.3389101 34.36287495 123.23808348 36.17333412 C96.29901755 39.89635154 69.36142967 43.62997121 42.42480469 47.37060547 C42.42480469 47.70060547 42.42480469 48.03060547 42.42480469 48.37060547 C43.43971292 48.37207203 44.45462116 48.37353859 45.50028419 48.37504959 C70.1875771 48.41163365 94.87473422 48.47106889 119.56191444 48.55450821 C131.50042575 48.59432893 143.43887084 48.62670603 155.37744141 48.64160156 C165.78228628 48.65460233 176.18698566 48.68152676 186.5917486 48.72521853 C192.1017526 48.74786869 197.61157693 48.76351401 203.12163162 48.76248932 C208.30747889 48.76174481 213.49292841 48.77961146 218.67867279 48.8117733 C220.58217684 48.82029449 222.48572538 48.82200722 224.38924026 48.81640816 C226.98877007 48.80978011 229.58702995 48.82765956 232.18643188 48.85162354 C232.9393626 48.84386312 233.69229331 48.8361027 234.46804011 48.82810712 C239.59155813 48.91169753 242.53576975 50.0527721 246.42480469 53.37060547 C249.31289159 57.29607015 249.80160319 60.08729908 249.80956554 64.92044544 C249.81471545 65.56779666 249.81986536 66.21514789 249.82517132 66.88211581 C249.83880234 69.05432017 249.83110215 71.22592124 249.8235321 73.39814758 C249.82897066 74.96989193 249.83572184 76.54163219 249.843674 78.11336583 C249.86173216 82.43471468 249.86113824 86.75589196 249.85754454 91.07726967 C249.85692167 95.73642207 249.87353154 100.39551641 249.88806152 105.05464172 C249.91087341 113.12766764 249.9227371 121.20065033 249.92719078 129.27370644 C249.93364586 140.94601716 249.95657193 152.61824967 249.98353408 164.29052892 C250.02682901 183.22744774 250.0567803 202.16436327 250.07836914 221.10131836 C250.09937072 239.4981447 250.12663865 257.89494413 250.16235352 276.29174805 C250.16455234 277.42549275 250.16675117 278.55923745 250.16901662 279.72733805 C250.18008607 285.41493216 250.19127892 291.10252602 250.20253313 296.79011977 C250.29575654 343.98359119 250.36733675 391.17707789 250.42480469 438.37060547 C254.51534695 437.68982511 258.60584479 437.00877852 262.69630432 436.3275013 C264.08343858 436.09650685 265.47058428 435.86558104 266.85774231 435.63472939 C277.38802953 433.88220501 287.91502746 432.11749614 298.42480469 430.24560547 C299.11654785 430.12685059 299.80829102 430.0080957 300.52099609 429.88574219 C302.57396057 429.53289634 304.62445411 429.16798588 306.67480469 428.80029297 C307.83496094 428.59645996 308.99511719 428.39262695 310.19042969 428.18261719 C315.1582703 426.9354072 318.54362534 425.69237448 321.42480469 421.37060547 C322.37893588 411.72834514 320.88500723 401.92553733 319.73661804 392.35220337 C319.55250683 390.77037234 319.3690499 389.18846504 319.18618423 387.60648954 C318.68566254 383.29316301 318.17583201 378.98098198 317.66434729 374.66894364 C317.11286202 370.00568709 316.57007951 365.34141624 316.02612305 360.67727661 C314.96080471 351.55521498 313.88727844 342.43413763 312.81062993 333.31340702 C311.93577621 325.90130664 311.06364416 318.48889083 310.19342995 311.07624435 C310.06940486 310.01983879 309.94537977 308.96343323 309.81759635 307.87501537 C309.56562598 305.72878173 309.31365818 303.58254779 309.06169293 301.43631355 C306.70132229 281.33411786 304.33122117 261.2330783 301.95809893 241.13238458 C299.78717864 222.74182666 297.62826373 204.34988275 295.47501972 185.95724757 C293.26270049 167.06089967 291.04245977 148.16549821 288.81355315 129.27109945 C287.56280498 118.66736348 286.31518216 108.06328236 285.07581139 97.45820999 C284.021332 88.43601828 282.95935959 79.41474736 281.88766821 70.3945833 C281.34113873 65.79283329 280.79807365 61.19074418 280.26431465 56.5874939 C279.77562335 52.37371816 279.27704031 48.1612353 278.77055237 43.94956271 C278.58909864 42.4260519 278.41126334 40.90210484 278.23742136 39.37770672 C278.00042425 37.30430561 277.75022144 35.23290262 277.49672985 33.16146278 C277.36116969 32.01074244 277.22560953 30.8600221 277.08594149 29.67443144 C276.15497745 25.02222762 274.84969148 20.79549226 271.42480469 17.37060547 C261.08489098 15.7414828 249.4168649 18.6850006 239.16430664 20.12451172 Z M-21.57519531 64.37060547 C-21.65617975 68.26685653 -21.71569338 72.16142176 -21.76269531 76.05810547 C-21.78783203 77.16089844 -21.81296875 78.26369141 -21.83886719 79.39990234 C-21.84853516 80.46660156 -21.85820312 81.53330078 -21.86816406 82.63232422 C-21.88387451 83.61160889 -21.89958496 84.59089355 -21.91577148 85.59985352 C-21.39829297 89.80979161 -19.5297374 92.41606338 -16.57519531 95.37060547 C-13.65981502 95.87102693 -13.65981502 95.87102693 -10.57519531 95.37060547 C-7.72738912 93.13854116 -6.72521865 91.82067548 -5.57519531 88.37060547 C-5.49280363 86.52450014 -5.46776172 84.67555383 -5.47753906 82.82763672 C-5.48237305 81.21791992 -5.48237305 81.21791992 -5.48730469 79.57568359 C-5.49568359 78.45613281 -5.5040625 77.33658203 -5.51269531 76.18310547 C-5.51720703 75.05195312 -5.52171875 73.92080078 -5.52636719 72.75537109 C-5.5381602 69.96042671 -5.55609574 67.16550947 -5.57519531 64.37060547 C-10.85519531 64.37060547 -16.13519531 64.37060547 -21.57519531 64.37060547 Z M-69.57519531 64.37060547 C-69.57519531 157.76060547 -69.57519531 251.15060547 -69.57519531 347.37060547 C-64.48890999 343.01093233 -61.82019328 340.63983501 -58.29785156 335.50341797 C-44.20882939 316.68706883 -25.04138276 307.9111078 -3.38378906 300.55029297 C-2.62238491 300.28811855 -1.86098076 300.02594414 -1.07650375 299.75582504 C39.70361388 285.80233826 80.58790854 286.30143765 123.22490126 287.19657028 C133.64649303 287.41031622 144.06780313 287.47683176 154.49123383 287.53608131 C175.80564219 287.66027838 197.11417542 287.95842022 218.42480469 288.37060547 C218.42480469 293.65060547 218.42480469 298.93060547 218.42480469 304.37060547 C162.32480469 304.37060547 106.22480469 304.37060547 48.42480469 304.37060547 C37.03980469 338.52560547 37.03980469 338.52560547 25.42480469 373.37060547 C10.5654466 390.85650319 -3.28744477 406.37090787 -20.19287109 421.4473877 C-26.96080919 427.51086637 -33.57403925 433.7464973 -40.18176365 439.98355007 C-40.7115798 440.48361618 -41.24139596 440.98368228 -41.78726715 441.4989019 C-42.84273141 442.49540763 -43.89780708 443.49232512 -44.95248228 444.48966593 C-47.99632648 447.35971677 -51.07606953 450.18207697 -54.19769752 452.96727479 C-56.55867653 455.08339365 -58.88496398 457.2373452 -61.21948242 459.38256836 C-62.49776161 460.48773048 -62.49776161 460.48773048 -63.80186462 461.61521912 C-66.50365465 464.01535638 -66.50365465 464.01535638 -69.57519531 468.37060547 C-69.57519531 472.33060547 -69.57519531 476.29060547 -69.57519531 480.37060547 C30.74480469 480.37060547 131.06480469 480.37060547 234.42480469 480.37060547 C234.42480469 343.09060547 234.42480469 205.81060547 234.42480469 64.37060547 C171.06480469 64.37060547 107.70480469 64.37060547 42.42480469 64.37060547 C42.42480469 74.93060547 42.42480469 85.49060547 42.42480469 96.37060547 C37.14480469 96.37060547 31.86480469 96.37060547 26.42480469 96.37060547 C26.42480469 85.81060547 26.42480469 75.25060547 26.42480469 64.37060547 C21.14480469 64.37060547 15.86480469 64.37060547 10.42480469 64.37060547 C10.39902344 66.51560547 10.37324219 68.66060547 10.34667969 70.87060547 C10.30815 72.97245817 10.26302569 75.07407452 10.21728516 77.17578125 C10.18924432 78.62455763 10.16794658 80.07348219 10.15380859 81.52246094 C10.0593044 90.66416663 9.96295522 98.11163013 3.67871094 105.39404297 C3.12054688 105.84005859 2.56238281 106.28607422 1.98730469 106.74560547 C1.43171875 107.20708984 0.87613281 107.66857422 0.30371094 108.14404297 C-6.17757037 112.37506653 -13.082812 112.04093195 -20.57519531 111.37060547 C-26.78113902 109.73849114 -31.11137649 105.67664641 -34.57519531 100.37060547 C-36.5901394 96.22274193 -36.8759858 92.68859054 -36.98925781 88.10107422 C-37.02486816 86.85479248 -37.06047852 85.60851074 -37.09716797 84.32446289 C-37.13116699 82.75156494 -37.16516602 81.17866699 -37.20019531 79.55810547 C-37.32394531 74.54623047 -37.44769531 69.53435547 -37.57519531 64.37060547 C-48.13519531 64.37060547 -58.69519531 64.37060547 -69.57519531 64.37060547 Z M21.79980469 311.87060547 C20.57390625 312.28826172 20.57390625 312.28826172 19.32324219 312.71435547 C18.69675781 312.93091797 18.07027344 313.14748047 17.42480469 313.37060547 C18.98857968 316.69362733 20.6383362 318.93244554 23.42480469 321.37060547 C24.08480469 321.37060547 24.74480469 321.37060547 25.42480469 321.37060547 C26.41480469 317.74060547 27.40480469 314.11060547 28.42480469 310.37060547 C25.9586018 310.37060547 24.13136343 311.0712139 21.79980469 311.87060547 Z M-8.20019531 321.87060547 C-9.42609375 322.28826172 -9.42609375 322.28826172 -10.67675781 322.71435547 C-11.30324219 322.93091797 -11.92972656 323.14748047 -12.57519531 323.37060547 C-10.97096532 327.35051135 -8.19272834 330.04252863 -5.20019531 333.01123047 C-4.67506348 333.53827576 -4.14993164 334.06532104 -3.60888672 334.6083374 C-2.50180649 335.71677475 -1.39221201 336.82270593 -0.28027344 337.92626953 C1.42587444 339.62166848 3.12104516 341.32752157 4.81542969 343.03466797 C5.89291361 344.11083105 6.97101736 345.18637398 8.04980469 346.26123047 C8.55817871 346.77365295 9.06655273 347.28607544 9.59033203 347.81402588 C12.04794976 350.55632624 12.04794976 350.55632624 15.42480469 351.37060547 C16.41480469 347.74060547 17.40480469 344.11060547 18.42480469 340.37060547 C15.61949622 337.51594787 12.80772772 334.66783316 9.98974609 331.82568359 C9.03155513 330.85742009 8.07516487 329.88737121 7.12060547 328.91552734 C5.75016649 327.52089577 4.37274102 326.13314026 2.99511719 324.74560547 C2.1677002 323.90771484 1.3402832 323.06982422 0.48779297 322.20654297 C-2.68429668 319.38357088 -4.43351203 320.5791712 -8.20019531 321.87060547 Z M-32.10191536 334.65122986 C-33.00619428 335.55827415 -33.00619428 335.55827415 -33.92874146 336.48364258 C-34.62145142 337.17360321 -35.31416138 337.86356384 -36.02786255 338.57443237 C-36.78743256 339.34119293 -37.54700256 340.10795349 -38.32958984 340.89794922 C-39.12967468 341.697742 -39.92975952 342.49753479 -40.75408936 343.32156372 C-43.41016051 345.97903356 -46.05906842 348.64352821 -48.70800781 351.30810547 C-50.54317436 353.14700023 -52.37878158 354.98545532 -54.21481323 356.82348633 C-58.56043965 361.1759813 -62.90158185 365.53290295 -67.24060619 369.89197826 C-72.1797902 374.85349167 -77.1246323 379.80934934 -82.06996751 384.76473045 C-92.24470298 394.96038952 -102.41228194 405.16316292 -112.57519531 415.37060547 C-111.14899953 418.34212024 -109.75713224 420.4341956 -107.41064453 422.76220703 C-106.77013153 423.40256897 -106.12961853 424.04293091 -105.46969604 424.70269775 C-104.78005768 425.38201355 -104.09041931 426.06132935 -103.37988281 426.76123047 C-102.67243927 427.46584412 -101.96499573 428.17045776 -101.2361145 428.89642334 C-98.9787967 431.14255937 -96.71461898 433.38163556 -94.45019531 435.62060547 C-92.91718578 437.14358264 -91.38462816 438.66701486 -89.85253906 440.19091797 C-86.09864959 443.92277362 -82.33910617 447.64885898 -78.57519531 451.37060547 C-75.51744352 450.0047583 -73.4163834 448.45972182 -71.05706787 446.09298706 C-70.37843689 445.41710541 -69.69980591 444.74122375 -69.00061035 444.04486084 C-68.26693237 443.30399231 -67.53325439 442.56312378 -66.77734375 441.79980469 C-65.996474 441.01922699 -65.21560425 440.23864929 -64.41107178 439.43441772 C-61.83080258 436.85275502 -59.25769009 434.26407989 -56.68457031 431.67529297 C-54.89710366 429.88409628 -53.10919499 428.09334059 -51.32086182 426.30300903 C-47.095709 422.07099975 -42.87504072 417.83456789 -38.65651155 413.59595978 C-33.85272646 408.76980832 -29.04325089 403.94934484 -24.23329115 399.12934852 C-14.34091865 389.21607939 -4.45570644 379.2956958 5.42480469 369.37060547 C4.00427134 366.41362463 2.61467238 364.30830739 0.29199219 361.97900391 C-0.34206543 361.33864197 -0.97612305 360.69828003 -1.62939453 360.03851318 C-2.31275879 359.35919739 -2.99612305 358.67988159 -3.70019531 357.97998047 C-4.40289551 357.27536682 -5.1055957 356.57075317 -5.82958984 355.8447876 C-7.31329635 354.35972193 -8.79952423 352.87717165 -10.28808594 351.39697266 C-12.57363122 349.12216222 -14.84828548 346.83685187 -17.12207031 344.55029297 C-18.56413751 343.10954679 -20.00682467 341.66942082 -21.45019531 340.22998047 C-22.4752417 339.19886139 -22.4752417 339.19886139 -23.52099609 338.14691162 C-24.15505371 337.51915833 -24.78911133 336.89140503 -25.44238281 336.24462891 C-26.00038574 335.68821716 -26.55838867 335.13180542 -27.13330078 334.55853271 C-29.20652371 332.85047574 -30.05810709 332.93686794 -32.10191536 334.65122986 Z M-131.45019531 433.87060547 C-138.00121697 440.64883018 -140.73036208 444.83698081 -141.07519531 454.37060547 C-140.7615213 463.28655171 -138.60685718 467.70772106 -132.13769531 473.74560547 C-125.74779459 479.32426662 -120.32883007 479.84063429 -112.00878906 479.66748047 C-102.25562689 478.82420365 -96.99010757 472.25874896 -90.57519531 465.37060547 C-91.91746633 462.38625291 -93.40177814 460.29180996 -95.70800781 457.97900391 C-96.34206543 457.33864197 -96.97612305 456.69828003 -97.62939453 456.03851318 C-98.31275879 455.35919739 -98.99612305 454.67988159 -99.70019531 453.97998047 C-100.40289551 453.27536682 -101.1055957 452.57075317 -101.82958984 451.8447876 C-103.31329635 450.35972193 -104.79952423 448.87717165 -106.28808594 447.39697266 C-108.57363122 445.12216222 -110.84828548 442.83685187 -113.12207031 440.55029297 C-114.56413751 439.10954679 -116.00682467 437.66942082 -117.45019531 436.22998047 C-118.4752417 435.19886139 -118.4752417 435.19886139 -119.52099609 434.14691162 C-120.15505371 433.51915833 -120.78911133 432.89140503 -121.44238281 432.24462891 C-122.00038574 431.68821716 -122.55838867 431.13180542 -123.13330078 430.55853271 C-126.6902469 427.62808731 -128.82288288 431.28227393 -131.45019531 433.87060547 Z " fill="#375C4A" transform="translate(165.5751953125,7.62939453125)"/>
<path d="M0 0 C52.8 0 105.6 0 160 0 C160 52.8 160 105.6 160 160 C107.2 160 54.4 160 0 160 C0 107.2 0 54.4 0 0 Z M16 16 C16 58.24 16 100.48 16 144 C18.97 144 21.94 144 25 144 C25.15033691 143.0934668 25.30067383 142.18693359 25.45556641 141.25292969 C26.03306462 137.828099 26.62786518 134.4071586 27.23388672 130.98730469 C27.49066869 129.51842207 27.74088658 128.0483738 27.98388672 126.57714844 C30.50489383 111.36810968 35.39758635 97.78916956 48.35546875 88.26953125 C50.19363393 87.10807113 52.0911391 86.04119686 54 85 C53.731875 84.34 53.46375 83.68 53.1875 83 C52.795625 82.01 52.40375 81.02 52 80 C51.46375 78.906875 50.9275 77.81375 50.375 76.6875 C47.44388723 68.76597985 47.76308955 58.22097926 50.6875 50.375 C54.61065919 42.2142821 60.40266712 37.2578804 68.76953125 33.8828125 C77.48126703 31.50209631 87.78565791 31.88031209 95.95703125 35.80859375 C103.9086958 40.44579774 108.58453131 47.15040676 111 56 C111.23677481 58.65683366 111.38036639 61.1596072 111.375 63.8125 C111.37584595 64.86872559 111.37584595 64.86872559 111.37670898 65.94628906 C111.27040094 70.99098356 110.42000373 74.81719762 107.97265625 79.203125 C106.93710477 81.11619199 106.4458284 82.8787954 106 85 C106.64066406 85.4125 107.28132813 85.825 107.94140625 86.25 C119.74900968 94.13346697 127.47043789 103.91667573 130.48937988 118.05485535 C131.1764791 121.61083985 131.78482738 125.17684602 132.375 128.75 C132.63499826 130.23728096 132.8967075 131.72426386 133.16015625 133.2109375 C133.79313106 136.80408308 134.40309626 140.40066405 135 144 C137.97 144 140.94 144 144 144 C144 101.76 144 59.52 144 16 C101.76 16 59.52 16 16 16 Z M66.625 55.625 C64.42092107 60.20270239 64.2028361 64.00552411 65 69 C67.32968931 73.83858548 70.16141452 76.67031069 75 79 C79.99447589 79.7971639 83.79729761 79.57907893 88.375 77.375 C91.95907713 74.13226355 94.59535241 71.53524104 95.3828125 66.6015625 C95.63883919 60.91777006 94.93626932 57.35061345 91 53 C86.64938655 49.06373068 83.08222994 48.36116081 77.3984375 48.6171875 C72.46475896 49.40464759 69.86773645 52.04092287 66.625 55.625 Z M53.1796875 105.78515625 C44.19600518 116.77775245 43.9755973 130.17081889 42 144 C67.08 144 92.16 144 118 144 C115.98609255 121.50573104 115.98609255 121.50573104 103.85546875 103.3125 C88.82700624 92.94460547 66.78406526 92.44352398 53.1796875 105.78515625 Z " fill="#375C4A" transform="translate(224,88)"/>
<path d="M0 0 C36.96 0 73.92 0 112 0 C112 21.12 112 42.24 112 64 C75.04 64 38.08 64 0 64 C0 42.88 0 21.76 0 0 Z M16 16 C16 26.56 16 37.12 16 48 C42.4 48 68.8 48 96 48 C96 37.44 96 26.88 96 16 C69.6 16 43.2 16 16 16 Z " fill="#385D4B" transform="translate(272,408)"/>
<path d="M0 0 C89.76 0 179.52 0 272 0 C272 5.28 272 10.56 272 16 C182.24 16 92.48 16 0 16 C0 10.72 0 5.44 0 0 Z " fill="#385D4B" transform="translate(112,264)"/>
<path d="M0 0 C31.68 0 63.36 0 96 0 C96 5.28 96 10.56 96 16 C64.32 16 32.64 16 0 16 C0 10.72 0 5.44 0 0 Z " fill="#385D4B" transform="translate(112,232)"/>
<path d="M0 0 C31.68 0 63.36 0 96 0 C96 5.28 96 10.56 96 16 C64.32 16 32.64 16 0 16 C0 10.72 0 5.44 0 0 Z " fill="#385D4B" transform="translate(112,200)"/>
<path d="M0 0 C31.68 0 63.36 0 96 0 C96 5.28 96 10.56 96 16 C64.32 16 32.64 16 0 16 C0 10.72 0 5.44 0 0 Z " fill="#385D4B" transform="translate(112,168)"/>
<path d="M0 0 C31.68 0 63.36 0 96 0 C96 5.28 96 10.56 96 16 C64.32 16 32.64 16 0 16 C0 10.72 0 5.44 0 0 Z " fill="#385D4B" transform="translate(112,136)"/>
<path d="M0 0 C21.12 0 42.24 0 64 0 C64 5.28 64 10.56 64 16 C42.88 16 21.76 16 0 16 C0 10.72 0 5.44 0 0 Z " fill="#385D4B" transform="translate(192,456)"/>
<path d="M0 0 C21.12 0 42.24 0 64 0 C64 5.28 64 10.56 64 16 C42.88 16 21.76 16 0 16 C0 10.72 0 5.44 0 0 Z " fill="#385D4B" transform="translate(192,424)"/>
</svg>
