<?xml version="1.0" encoding="UTF-8"?>
<svg version="1.1" xmlns="http://www.w3.org/2000/svg" width="512" height="512">
<path d="M0 0 C3.34347403 2.44193014 6.05479685 5.45688801 8.9050293 8.44628906 C16.83996634 16.56550557 26.34566856 20.41295627 37.5625 20.91015625 C50.26750544 20.53453 60.25974248 14.94132275 68.875 5.91015625 C69.72449219 4.97816406 70.57398438 4.04617187 71.44921875 3.0859375 C75.51020833 -0.60429126 79.32309681 -2.14518469 84.8125 -2.90234375 C105.38090044 -1.88177426 130.33249694 17.60655297 144.1875 31.59765625 C148.05088141 36.3512177 149.57926305 40.95219872 149.4609375 47.140625 C149.10884947 50.30438745 148.36263842 53.3141051 147.625 56.41015625 C144.864053 68.74238616 147.26968696 79.62828379 153.9375 90.34765625 C161.13124716 100.41890228 170.51600848 105.46000248 182.3125 108.53515625 C189.12841513 110.40212431 194.48676891 112.50588596 198.484375 118.5625 C207.30989066 136.24550783 205.89521775 163.84533351 200.8125 182.47265625 C198.57314442 188.74947067 195.54990708 193.06175583 189.7890625 196.44921875 C186.53134661 197.88730955 183.19590397 198.74970906 179.75 199.59765625 C168.4124505 202.39062251 158.73724945 207.7427004 152.13671875 217.6875 C145.67239223 229.15732986 143.20982504 239.72531432 146.6875 252.59765625 C148.53771856 259.50277814 149.63871964 265.98075894 146.6875 272.72265625 C137.10285568 289.14412877 111.78734741 303.88656498 94.12036133 309.22192383 C88.29971565 310.35340971 83.50414545 310.02435367 78.3125 307.1953125 C75.5960164 305.15295626 73.54334789 302.78464562 71.3125 300.22265625 C63.70680205 291.50052558 54.66320963 286.46339708 43.08984375 285.28125 C32.95649993 284.90683563 23.32097922 287.05893726 15.32421875 293.546875 C11.85081 296.88058541 8.62957515 300.45761192 5.48632812 304.10327148 C1.88545533 308.19381024 -0.88161329 310.09047371 -6.36328125 311.0390625 C-26.26592586 311.91173857 -47.12079825 295.65498389 -61.8125 283.59765625 C-62.33811523 283.18878174 -62.86373047 282.77990723 -63.40527344 282.35864258 C-68.85972936 278.03509058 -72.10258658 272.97768812 -73.2265625 266.04296875 C-73.43123878 260.07014265 -71.90015249 255.12771445 -69.8125 249.59765625 C-67.10163861 239.9864204 -69.0978668 230.65773722 -72.8125 221.59765625 C-74.23274218 219.1049863 -75.73860931 216.80360715 -77.4453125 214.5 C-78.8125 212.59765625 -78.8125 212.59765625 -79.7421875 210.4765625 C-81.1058446 208.0826973 -82.30940496 207.67751133 -84.8125 206.59765625 C-86.35786973 205.62434444 -87.89927485 204.64472055 -89.4375 203.66015625 C-95.26195997 200.1467192 -101.04180549 198.44137519 -107.640625 196.96484375 C-115.35655858 195.13072839 -120.14504442 192.55284901 -124.625 185.91015625 C-127.97547638 176.56409055 -128.15751339 166.93824816 -128.12817383 157.12036133 C-128.12502941 154.93063752 -128.14850254 152.74229086 -128.17382812 150.55273438 C-128.22963688 138.31825385 -127.908323 124.74682723 -120.703125 114.39453125 C-115.83086376 109.76386974 -110.44852612 107.99969384 -104 106.66015625 C-92.63047002 104.02846601 -82.82289061 99.63031295 -75.8671875 89.8671875 C-69.26624987 79.19244946 -65.76049452 67.99678481 -68.4921875 55.484375 C-69.03101399 53.42400512 -69.57638851 51.36533442 -70.12890625 49.30859375 C-71.96692859 42.01952231 -70.56497792 35.98967244 -66.8125 29.59765625 C-55.02573843 15.57505537 -18.57159092 -10.12006615 0 0 Z M-4.8125 119.7890625 C-14.74415594 131.75413937 -17.86003957 145.32325961 -17.00341797 160.55761719 C-15.68322682 174.66441678 -8.06081496 187.08650078 2.1875 196.59765625 C16.12189011 207.16352262 30.08849168 209.89824403 47.1875 208.59765625 C61.65856319 205.98420315 74.15530276 197.61342989 82.9375 185.91015625 C91.4270471 173.15609246 93.97704682 158.51785792 91.7265625 143.52734375 C88.01735809 128.559613 79.30448519 115.8173055 66.1875 107.59765625 C41.53855747 92.95057665 14.05114768 99.12010478 -4.8125 119.7890625 Z " fill="#375C4A" transform="translate(127.8125,201.40234375)"/>
<path d="M0 0 C3.01687214 2.02215508 4.93299674 4.09172062 7.11328125 7.01953125 C11.88686476 13.06085333 20.16012845 16.19100736 27.61328125 17.08203125 C37.06983433 17.42073301 44.34975536 14.77051485 51.92578125 9.08203125 C53.59588607 7.36087519 55.06516226 5.63209201 56.4765625 3.6953125 C59.02578813 0.85749528 61.76754211 -0.65723191 65.4765625 -1.4921875 C75.40921881 -1.89960905 82.5615433 2.29110842 90.92578125 7.08203125 C91.85648438 7.59378906 92.7871875 8.10554687 93.74609375 8.6328125 C103.27945843 14.07388077 114.85630652 20.94308179 119.92578125 31.08203125 C120.02250957 33.05927186 120.05558028 35.03993185 120.05078125 37.01953125 C120.05335938 38.08042969 120.0559375 39.14132813 120.05859375 40.234375 C119.92578125 43.08203125 119.92578125 43.08203125 118.92578125 46.08203125 C118.04340085 58.01586458 119.40641408 67.75448663 127.125 77.2734375 C133.59899564 83.77551989 141.93260153 86.30267718 150.5078125 88.80859375 C155.0950193 90.51765594 157.966455 92.58974597 160.61328125 96.70703125 C164.05708383 105.56252359 164.26369576 114.48607896 164.23828125 123.89453125 C164.25439453 125.07595703 164.27050781 126.25738281 164.28710938 127.47460938 C164.29221464 136.79171752 163.98972895 147.40674339 158.30078125 155.20703125 C154.73266124 158.77515126 150.69656432 159.81631329 145.92578125 161.08203125 C134.62971094 164.48878261 127.04207801 169.13970902 121.1171875 179.5546875 C116.61962337 189.0954219 116.68466062 199.15609931 119.92578125 209.08203125 C120.58214264 215.09867735 119.39518217 219.2302909 115.92578125 224.08203125 C106.34082852 234.58429391 85.77237101 250.096719 70.86328125 250.83203125 C63.2595001 249.96632562 59.36395496 245.59919967 54.7421875 240.046875 C48.8379042 233.66009113 41.2265071 231.08302061 32.67578125 230.70703125 C24.81656765 230.84795508 18.14901866 233.39108124 11.92578125 238.08203125 C11.26578125 238.08203125 10.60578125 238.08203125 9.92578125 238.08203125 C9.69890625 238.61828125 9.47203125 239.15453125 9.23828125 239.70703125 C6.54810977 244.57496059 3.17985535 249.02608921 -2.07421875 251.08203125 C-14.37153645 253.6791182 -26.23351303 245.70012693 -36.15600586 239.29760742 C-39.17356828 237.28705132 -42.12866907 235.19609638 -45.07421875 233.08203125 C-45.99589844 232.44007813 -46.91757812 231.798125 -47.8671875 231.13671875 C-54.04730985 226.64025127 -57.14642243 222.85506962 -59.01171875 215.26953125 C-59.30131986 211.97689253 -58.70606178 209.56831027 -57.63671875 206.45703125 C-54.66355261 197.51000353 -54.78601639 187.89885507 -58.8203125 179.32421875 C-64.03301557 170.00306124 -70.90206729 164.18579843 -81.04296875 160.64453125 C-83.20962528 160.04453406 -85.35672824 159.69655024 -87.57421875 159.33203125 C-92.98308152 158.20713778 -96.52553801 155.22215878 -100.07421875 151.08203125 C-106.64427018 137.37061958 -104.93613413 114.0120276 -101.11328125 99.703125 C-98.92814122 94.19098605 -96.07635887 91.20322972 -90.94921875 88.33203125 C-87.77056784 87.15761819 -84.50291591 86.50322034 -81.19921875 85.76953125 C-72.17208979 83.59173639 -65.33568582 78.73361598 -60.07421875 71.08203125 C-55.1035341 62.59044498 -53.481622 53.74034433 -55.5234375 43.921875 C-55.70519531 43.35597656 -55.88695312 42.79007813 -56.07421875 42.20703125 C-57.68040403 37.18770226 -57.52249231 33.45044528 -55.88671875 28.45703125 C-48.8791585 15.40847078 -29.19734644 4.7305016 -15.51171875 -0.2890625 C-10.34369399 -1.62247914 -4.98720238 -2.2071423 0 0 Z M-4.47265625 97.765625 C-12.79396497 109.80107883 -15.0402629 122.18739167 -12.4609375 136.48046875 C-8.80016065 148.7690677 -1.01524037 157.63002407 9.92578125 164.08203125 C22.2706303 170.19228747 33.93887457 170.40521275 46.92578125 166.08203125 C58.69402451 161.03056834 66.73656292 152.33513986 71.9921875 140.7265625 C76.26808617 129.05563136 75.5601526 117.21691916 70.36328125 105.95703125 C64.10912915 94.38760703 55.27341755 86.21537007 42.67578125 82.20703125 C24.54075313 77.93545199 7.42684904 83.35650841 -4.47265625 97.765625 Z " fill="#375C4A" transform="translate(348.07421875,0.91796875)"/>
<path d="M0 0 C0.95132813 -0.01224609 1.90265625 -0.02449219 2.8828125 -0.03710938 C17.48627656 -0.06711649 17.48627656 -0.06711649 22.625 4.125 C24.16906859 7.03497542 24.85784738 9.38491897 25.625 12.5625 C27.31958234 19.35914918 30.29003389 23.25708732 36.125 27.0625 C41.6784164 29.06172991 46.45665093 29.42893194 52.25 28.1875 C56.49409873 27.53344369 60.41890321 27.02259493 64.171875 29.41015625 C72.00525914 37.58490346 79.99238454 53.08420209 79.83984375 64.5078125 C78.88438365 68.84851201 76.11425461 71.48085159 73.234375 74.75390625 C69.15199595 79.76044591 67.94781793 84.86518523 68.25 91.25 C69.18964544 97.83773159 72.49759352 102.40655549 77.0625 107.0625 C79.63538569 110.73805099 80.16231331 112.72704418 79.921875 117.1484375 C77.43356458 128.40370207 70.02800567 141.17091646 60.26953125 147.46484375 C57.83455539 148.33616006 56.23821705 148.23322253 53.6875 147.875 C52.92308594 147.77574219 52.15867187 147.67648437 51.37109375 147.57421875 C49.25 147.1875 49.25 147.1875 46.25 146.1875 C38.20943713 145.45653974 32.22393288 146.81416506 25.625 151.625 C21.66970886 155.13786484 20.20483964 159.47657653 18.48828125 164.3828125 C17.08497997 167.56126777 16.03728258 169.10743838 13.25 171.1875 C6.7736066 173.446707 0.49901479 173.52198681 -6.3125 173.5 C-7.81586914 173.52416992 -7.81586914 173.52416992 -9.34960938 173.54882812 C-15.94440217 173.55316966 -21.44183692 173.15343932 -26.5625 168.5625 C-27.72082815 166.2458437 -28.14354854 164.46186712 -28.625 161.9375 C-29.86869807 155.93616326 -31.90144171 151.23925877 -36.984375 147.578125 C-42.53821189 144.50799157 -47.44141994 143.2113174 -53.75 144.1875 C-54.760625 144.538125 -55.77125 144.88875 -56.8125 145.25 C-60.7669769 146.5120671 -63.82199729 146.6050655 -67.75 145.1875 C-76.19405421 137.79895257 -84.21129651 122.37198357 -85.375 111.1875 C-85.20629968 106.6414704 -82.68730072 104.34652386 -79.63671875 101.203125 C-74.85990441 96.09994447 -72.03623911 90.90860843 -71.5 83.9375 C-72.09144064 75.06589034 -75.97101824 70.31899767 -81.7890625 63.8984375 C-84.01565502 60.82023988 -84.58570068 58.96140551 -84.75 55.1875 C-82.25503998 44.5193951 -74.84245159 33.42237002 -66.75 26.1875 C-60.94190498 23.25631186 -55.89998425 24.51783277 -49.9375 26.375 C-44.05752178 27.90286836 -38.17292448 26.67098134 -32.66796875 24.28515625 C-27.26105641 20.97504216 -25.18486052 15.83565228 -22.75 10.1875 C-19.64964158 3.36671147 -19.64964158 3.36671147 -15.75 1.1875 C-10.50233595 -0.08688539 -5.37032341 0.00358022 0 0 Z M-25.75 69.1875 C-30.69334751 76.59638808 -32.67580649 83.95707774 -31.125 92.75 C-28.74446647 101.75530776 -22.85805492 108.59152612 -14.87890625 113.2890625 C-7.46328068 116.58832211 1.11441634 116.28253551 8.625 113.5 C17.2576453 109.53588928 22.24396595 103.53692414 25.5625 94.6875 C27.05231911 87.10296637 26.60376542 80.2124219 23.25 73.1875 C18.10400645 66.03857483 12.13988229 59.95903452 3.25 58.1875 C-8.68887737 57.13356148 -17.73644232 60.03912478 -25.75 69.1875 Z " fill="#375C4A" transform="translate(432.75,265.8125)"/>
</svg>
