<?xml version="1.0" standalone="no"?>
<!DOCTYPE svg PUBLIC "-//W3C//DTD SVG 20010904//EN"
 "http://www.w3.org/TR/2001/REC-SVG-20010904/DTD/svg10.dtd">
<svg version="1.0" xmlns="http://www.w3.org/2000/svg"
 width="512.000000pt" height="512.000000pt" viewBox="0 0 512.000000 512.000000"
 preserveAspectRatio="xMidYMid meet">

<g transform="translate(0.000000,512.000000) scale(0.100000,-0.100000)"
fill="#000000" stroke="none">
<path d="M2340 4275 c-246 -51 -478 -192 -632 -384 -59 -73 -148 -224 -148
-249 0 -10 829 595 870 634 12 12 12 14 -5 13 -11 0 -49 -7 -85 -14z"/>
<path d="M2679 3516 c-58 -56 -98 -85 -170 -120 -130 -64 -200 -80 -339 -80
-122 0 -225 21 -313 65 l-42 21 25 -24 c14 -14 95 -88 181 -166 l156 -141 -38
-173 c-64 -284 -66 -304 -44 -328 10 -11 26 -20 35 -20 9 0 110 54 224 120
l208 121 203 -121 c112 -66 215 -120 228 -120 26 0 57 28 57 51 0 8 -23 114
-50 234 -28 121 -49 225 -48 232 2 7 80 80 173 164 94 84 174 158 178 166 13
22 -1 63 -26 73 -17 7 -415 50 -465 50 -7 0 -20 16 -29 35 -9 19 -19 35 -22
35 -3 0 -40 -34 -82 -74z"/>
<path d="M3076 2497 c-291 -215 -523 -393 -517 -395 22 -7 217 19 289 39 229
64 426 194 575 379 37 46 84 118 103 160 39 80 87 201 82 205 -2 1 -241 -173
-532 -388z"/>
<path d="M3731 2423 c7 -12 15 -20 18 -17 3 2 -3 12 -13 22 -17 16 -18 16 -5
-5z"/>
<path d="M1600 1471 l0 -651 240 0 240 0 0 510 c0 401 -3 510 -12 510 -35 0
-250 117 -335 182 -53 40 -104 79 -114 87 -19 13 -19 -3 -19 -638z"/>
<path d="M3458 2072 c-84 -69 -228 -156 -329 -198 l-89 -37 0 -508 0 -509 240
0 240 0 0 650 c0 358 -1 650 -2 649 -2 0 -29 -21 -60 -47z"/>
<path d="M2240 1306 c0 -424 2 -486 15 -486 8 0 80 32 159 72 l145 72 148 -72
c82 -40 154 -72 161 -72 9 0 12 109 12 486 l0 486 -22 -5 c-156 -39 -474 -39
-600 -1 -17 5 -18 -22 -18 -480z"/>
</g>
</svg>
