<?xml version="1.0" encoding="UTF-8"?>
<svg version="1.1" xmlns="http://www.w3.org/2000/svg" width="512" height="512">
<path d="M0 0 C1.01790619 0.00215515 2.03581238 0.0043103 3.08456421 0.00653076 C17.69363523 0.05620146 32.02575853 0.30709809 46.375 3.3125 C47.34985352 3.51117676 48.32470703 3.70985352 49.32910156 3.91455078 C88.37782454 12.08284366 124.83813271 27.70153311 156.375 52.3125 C157.27089844 52.99699219 158.16679687 53.68148437 159.08984375 54.38671875 C174.64917637 66.50480877 189.28601276 80.73459548 201.375 96.3125 C202.138125 97.24707031 202.90125 98.18164062 203.6875 99.14453125 C238.32242031 142.38267695 256.81365439 197.89440148 256.69067383 253.03979492 C256.6875221 255.97938487 256.71104926 258.9179558 256.73632812 261.85742188 C256.78098737 275.23056192 255.57551542 288.12666711 253.375 301.3125 C253.09281616 303.01805054 253.09281616 303.01805054 252.80493164 304.75805664 C245.77946967 343.86954746 228.79665906 381.05202178 204.375 412.3125 C203.61574219 413.28445313 202.85648437 414.25640625 202.07421875 415.2578125 C189.73986402 430.63741644 175.93895499 445.19015196 160.375 457.3125 C159.43914062 458.07691406 158.50328125 458.84132813 157.5390625 459.62890625 C125.58628299 485.2157721 86.41988322 501.72551276 46.375 509.3125 C45.56562988 509.47621094 44.75625977 509.63992188 43.92236328 509.80859375 C13.88110013 515.67977137 -20.7615176 514.58512909 -50.625 508.3125 C-52.14794678 507.99901611 -52.14794678 507.99901611 -53.70166016 507.67919922 C-90.84546555 499.78695344 -125.70945445 483.68345578 -155.625 460.3125 C-156.59695312 459.55324219 -157.56890625 458.79398437 -158.5703125 458.01171875 C-173.94991644 445.67736402 -188.50265196 431.87645499 -200.625 416.3125 C-201.77162109 414.90871094 -201.77162109 414.90871094 -202.94140625 413.4765625 C-228.5282721 381.52378299 -245.03801276 342.35738322 -252.625 302.3125 C-252.78871094 301.50312988 -252.95242187 300.69375977 -253.12109375 299.85986328 C-258.59069558 271.87335724 -258.46977511 238.21828161 -252.625 210.3125 C-252.42632324 209.33764648 -252.22764648 208.36279297 -252.02294922 207.35839844 C-241.93598313 159.13741149 -219.89911449 114.53770064 -185.40722656 79.14160156 C-183.63301167 77.32072238 -181.87518486 75.48496071 -180.1171875 73.6484375 C-173.01562574 66.30860161 -165.60158994 59.73928631 -157.40917969 53.64355469 C-155.59628085 52.2910746 -153.80174757 50.91656557 -152.0078125 49.5390625 C-143.60124472 43.15234877 -134.85975388 37.61076633 -125.65234375 32.45166016 C-123.78933792 31.40484113 -121.94116361 30.33571119 -120.09375 29.26171875 C-83.4933446 8.69459905 -41.63834482 -0.15855121 0 0 Z M-138.625 91.3125 C-139.81416016 92.33537109 -139.81416016 92.33537109 -141.02734375 93.37890625 C-153.09257802 103.9970946 -164.21727504 115.26242591 -173.625 128.3125 C-174.10146973 128.97169434 -174.57793945 129.63088867 -175.06884766 130.31005859 C-196.8089059 160.7747926 -209.98028698 195.22881513 -214.625 232.3125 C-214.75648438 233.3025 -214.88796875 234.2925 -215.0234375 235.3125 C-220.92700317 290.19970514 -203.4991703 347.34853027 -169 390.1875 C-167.55278884 391.90526563 -166.09485013 393.61406558 -164.625 395.3125 C-163.94308594 396.10527344 -163.26117188 396.89804687 -162.55859375 397.71484375 C-151.9404054 409.78007802 -140.67507409 420.90477504 -127.625 430.3125 C-126.96580566 430.78896973 -126.30661133 431.26543945 -125.62744141 431.75634766 C-78.41084801 465.45076594 -20.68060832 478.75422202 36.515625 469.5 C74.44333789 462.98857867 110.24055669 446.52587582 139.375 421.3125 C140.16777344 420.63058594 140.96054687 419.94867188 141.77734375 419.24609375 C153.84257802 408.6279054 164.96727504 397.36257409 174.375 384.3125 C174.85146973 383.65330566 175.32793945 382.99411133 175.81884766 382.31494141 C209.70531843 334.8292214 222.95497514 276.80161579 213.375 219.3125 C206.53228457 181.69002909 190.45257032 146.29001796 165.375 117.3125 C164.69308594 116.51972656 164.01117188 115.72695312 163.30859375 114.91015625 C152.6904054 102.84492198 141.42507409 91.72022496 128.375 82.3125 C127.71580566 81.83603027 127.05661133 81.35956055 126.37744141 80.86865234 C95.81661183 59.06001896 61.48626267 46.1468135 24.375 41.3125 C22.88419922 41.11333984 22.88419922 41.11333984 21.36328125 40.91015625 C-35.63848801 34.83551515 -95.38979692 53.89611925 -138.625 91.3125 Z " fill="#017260" transform="translate(255.625,-0.3125)"/>
<path d="M0 0 C4.72429891 3.40149521 7.25118493 6.77580689 9.125 12.25 C9.33643341 14.60651302 9.33643341 14.60651302 9.28234863 17.08494568 C9.26749924 18.03080032 9.25264984 18.97665497 9.23735046 19.95117188 C9.21123184 20.97718506 9.18511322 22.00319824 9.15820312 23.06030273 C9.11909903 25.31968865 9.08050822 27.57908349 9.0423584 29.83848572 C9.00727425 31.63265584 9.00727425 31.63265584 8.97148132 33.46307182 C8.86006066 39.81804037 8.82364312 46.17357762 8.77734375 52.52929688 C8.71761927 60.60864681 8.63703149 68.68495041 8.44970703 76.76245117 C8.29839674 83.29793389 8.24313978 89.83041582 8.24290466 96.36766243 C8.22693668 98.84895185 8.1791052 101.33026213 8.09779358 103.81027031 C7.30421939 116.87226597 7.30421939 116.87226597 11.90027428 128.66112518 C16.12616083 132.89417023 20.87515432 136.08305594 26.04929447 139.04537201 C28.62613761 140.54083335 30.95717215 142.28196263 33.30078125 144.1171875 C34.67814329 145.12191202 36.05700984 146.12457784 37.4375 147.125 C45.18737454 152.78977571 52.84816255 158.563 60.46191406 164.40942383 C64.56114292 167.55367509 68.67290665 170.66691758 72.8671875 173.68359375 C73.59977783 174.2151709 74.33236816 174.74674805 75.0871582 175.29443359 C76.43443445 176.26820596 77.78918907 177.23176167 79.15307617 178.18212891 C84.20428292 181.85142092 87.05864126 185.66770112 88.875 191.76953125 C89.59449405 198.36864077 88.53167521 203.50761035 85.125 209.25 C81.46550185 213.51941451 76.89272236 215.84286687 71.36328125 216.65625 C69.91501953 216.70265625 69.91501953 216.70265625 68.4375 216.75 C67.48488281 216.8015625 66.53226562 216.853125 65.55078125 216.90625 C56.67503738 215.20599348 49.15601437 208.1865051 42.1875 202.75 C40.33562334 201.32163491 38.48273831 199.89457632 36.62890625 198.46875 C35.24469482 197.40333984 35.24469482 197.40333984 33.83251953 196.31640625 C29.8023917 193.24057199 25.71746527 190.2421082 21.625 187.25 C13.94197797 181.62233951 6.34704883 175.88665064 -1.21264648 170.09448242 C-5.32443208 166.94587326 -9.44540156 163.81492326 -13.6171875 160.74609375 C-14.34977783 160.20549316 -15.08236816 159.66489258 -15.8371582 159.10791016 C-17.18836399 158.11370666 -18.54338722 157.12465975 -19.90307617 156.14208984 C-24.69351289 152.61080589 -28.54528094 148.84133159 -30.875 143.25 C-31.13226891 140.73427963 -31.13226891 140.73427963 -31.14242554 137.84954834 C-31.15095551 136.75335678 -31.15948547 135.65716522 -31.16827393 134.52775574 C-31.16736755 133.32975845 -31.16646118 132.13176117 -31.16552734 130.89746094 C-31.17224457 129.63200943 -31.17896179 128.36655792 -31.18588257 127.0627594 C-31.20354173 123.59354213 -31.20823801 120.12442354 -31.20951414 116.65516567 C-31.21093677 114.48548548 -31.21520857 112.31583029 -31.22050858 110.14615631 C-31.23901118 102.57024038 -31.24717923 94.9943948 -31.24560547 87.41845703 C-31.24440519 80.36792654 -31.26548437 73.31770274 -31.2970928 66.26724982 C-31.32329367 60.20593322 -31.33397112 54.14471651 -31.33269465 48.08334374 C-31.33218597 44.46686793 -31.33781606 40.85066448 -31.35905075 37.2342453 C-31.38211457 33.19599156 -31.37288909 29.15841886 -31.36083984 25.12011719 C-31.37207886 23.93021683 -31.38331787 22.74031647 -31.39489746 21.51435852 C-31.33887567 14.11864178 -30.62172804 8.48430203 -25.53388023 2.73435593 C-18.49863601 -3.76525628 -8.33393267 -4.39945802 0 0 Z " fill="#017260" transform="translate(266.875,120.75)"/>
</svg>
