<?xml version="1.0" encoding="UTF-8"?>
<svg version="1.1" xmlns="http://www.w3.org/2000/svg" width="512" height="512">
<path d="M0 0 C3.4754992 0.00315712 6.95014277 -0.02035101 10.42553711 -0.0456543 C41.12577925 -0.13692929 41.12577925 -0.13692929 54.05639648 7.00317383 C54.71575195 7.35202637 55.37510742 7.70087891 56.05444336 8.06030273 C71.74154863 16.61446126 81.77288471 29.56105293 87.74780273 46.30395508 C90.7066021 56.40961281 90.8268568 66.64259424 90.77905273 77.10473633 C90.77693031 78.88139175 90.77693031 78.88139175 90.77476501 80.69393921 C90.76920858 84.44287744 90.7566643 88.19175392 90.74389648 91.94067383 C90.73887585 94.49666254 90.73431393 97.0526522 90.73022461 99.60864258 C90.71925345 105.8443404 90.70255924 112.0800027 90.68139648 118.31567383 C83.59906621 122.04417217 76.72330559 125.32787068 68.99389648 127.44067383 C68.10581299 127.6858374 67.21772949 127.93100098 66.30273438 128.18359375 C18.14200781 140.92821525 -35.40215585 136.43224163 -82.31860352 120.31567383 C-84.03769408 118.59658326 -83.45501153 116.32235235 -83.46386719 113.9765625 C-83.47024704 112.83414597 -83.47662689 111.69172943 -83.48320007 110.51469421 C-83.4843129 109.26694717 -83.48542572 108.01920013 -83.48657227 106.73364258 C-83.48990067 105.45395096 -83.49322906 104.17425934 -83.49665833 102.85578918 C-83.50266267 100.13448243 -83.50449736 97.41320745 -83.50390625 94.69189453 C-83.50380562 91.23696735 -83.51734737 87.78225034 -83.53467846 84.32737255 C-83.54862662 81.00446041 -83.54789212 77.68158349 -83.54907227 74.35864258 C-83.55625778 73.13316208 -83.5634433 71.90768158 -83.57084656 70.64506531 C-83.51793381 50.40113203 -77.80141385 33.58571101 -64.13110352 18.56567383 C-45.6369597 1.35882541 -24.05621529 -0.0456603 0 0 Z " fill="#375C4B" transform="translate(255.318603515625,317.684326171875)"/>
<path d="M0 0 C1.21087784 0.00141495 2.42175568 0.0028299 3.66932678 0.00428772 C7.52046219 0.00986599 11.37153854 0.02241455 15.22265625 0.03515625 C17.84049395 0.04017406 20.45833256 0.04473647 23.07617188 0.04882812 C29.47918667 0.05982831 35.88216724 0.07654481 42.28515625 0.09765625 C42.57084473 1.72030396 42.57084473 1.72030396 42.86230469 3.37573242 C43.12276689 4.8182472 43.38352483 6.2607086 43.64453125 7.703125 C43.83088135 8.76847473 43.83088135 8.76847473 44.02099609 9.85534668 C46.0957418 21.21751539 51.17979851 33.0676733 59.5 41.28515625 C61.28515625 43.09765625 61.28515625 43.09765625 61.28515625 45.09765625 C60.558125 45.37738281 59.83109375 45.65710938 59.08203125 45.9453125 C38.15599562 54.2888985 23.51025392 66.41513435 13.63671875 86.875 C8.68516735 98.68144481 7.2021219 110.37254711 6.72265625 123.03515625 C6.65788086 124.63327148 6.65788086 124.63327148 6.59179688 126.26367188 C6.48641136 128.87489068 6.38428537 131.48619371 6.28515625 134.09765625 C-57.44668733 132.36581267 -57.44668733 132.36581267 -70.71484375 119.09765625 C-70.82993998 117.14744039 -70.87452472 115.1930344 -70.8918457 113.23950195 C-70.91109856 111.35537346 -70.91109856 111.35537346 -70.93074036 109.43318176 C-70.93891653 108.04660437 -70.94635856 106.66002249 -70.953125 105.2734375 C-70.95720053 104.57471212 -70.96127605 103.87598675 -70.96547508 103.15608788 C-70.98638534 99.44414946 -71.00065467 95.73224834 -71.01000977 92.02026367 C-71.02096971 88.22008019 -71.05523086 84.42049942 -71.09518147 80.62052631 C-71.12161577 77.67328468 -71.12972593 74.72617926 -71.13329124 71.77882957 C-71.13810367 70.38086147 -71.14956092 68.98289717 -71.16832924 67.58504677 C-71.41426701 48.02095707 -65.06524232 32.33519638 -51.71484375 18.09765625 C-36.93223809 4.06753134 -19.7306477 -0.08726796 0 0 Z " fill="#375C4A" transform="translate(154.71484375,265.90234375)"/>
<path d="M0 0 C6.86434664 -0.076815 13.72858021 -0.1289168 20.59326172 -0.16479492 C22.92273094 -0.17977077 25.2521725 -0.2001586 27.58154297 -0.22631836 C58.69159296 -0.56664709 58.69159296 -0.56664709 72.25 6.625 C73.25256836 7.14332397 73.25256836 7.14332397 74.27539062 7.67211914 C80.34302634 10.94263342 85.23923386 15.0166081 90 20 C91.07507813 21.06347656 91.07507813 21.06347656 92.171875 22.1484375 C102.47186193 32.87436374 108.14374977 47.56261283 108.11352539 62.37255859 C108.11341209 64.23380875 108.11341209 64.23380875 108.11329651 66.13265991 C108.10819113 67.47125286 108.10297515 68.80984539 108.09765625 70.1484375 C108.09578906 71.52991688 108.09436658 72.91139692 108.09336853 74.2928772 C108.08956702 77.91288103 108.07975716 81.53284417 108.06866455 85.15283203 C108.05839935 88.85318451 108.05386 92.55354361 108.04882812 96.25390625 C108.03813258 103.50262264 108.02108485 110.7513056 108 118 C106.10971236 118.96665857 104.21687548 119.92833306 102.32299805 120.88793945 C100.74230782 121.69205009 100.74230782 121.69205009 99.12968445 122.5124054 C94.80118402 124.56981853 90.43078921 125.94831629 85.8125 127.1875 C84.91684326 127.4352417 84.02118652 127.6829834 83.09838867 127.93823242 C69.57839868 131.57735407 55.73606073 134.06754299 41.70703125 134.01953125 C40.63557861 134.01671143 39.56412598 134.0138916 38.46020508 134.01098633 C37.24240356 134.0055481 37.24240356 134.0055481 36 134 C35.96036133 133.19481934 35.92072266 132.38963867 35.87988281 131.56005859 C34.48891244 104.71279343 30.81651594 81.11728062 10.51171875 61.609375 C2.00440653 54.1985608 -8.1843562 48.29603846 -19 45 C-17.70545523 42.21642486 -16.26267553 39.98658242 -14.3125 37.625 C-5.65461946 26.18726076 -2.31466996 13.92181053 0 0 Z " fill="#375C4A" transform="translate(321,266)"/>
<path d="M0 0 C6.54289063 -0.07703478 13.08566136 -0.12900559 19.62890625 -0.16479492 C21.8477007 -0.179739 24.06646636 -0.20010168 26.28515625 -0.22631836 C59.16890346 -0.60471888 59.16890346 -0.60471888 72.375 6.6875 C73.03435547 7.03635254 73.69371094 7.38520508 74.37304688 7.74462891 C90.4417495 16.50687199 101.21236994 30.32382829 106.578125 47.78076172 C108.48192335 54.92333142 108.37795321 61.95216256 108.29296875 69.29296875 C108.28735918 70.73455865 108.28309553 72.17615436 108.28010559 73.61775208 C108.26876366 77.37428147 108.23939136 81.13045143 108.20599365 84.88684082 C108.17506009 88.73505799 108.161551 92.58333441 108.14648438 96.43164062 C108.11450883 103.95458925 108.06344534 111.47724387 108 119 C105.78601718 119.96605076 103.57042735 120.92808423 101.35375977 121.88793945 C100.42329708 122.29466259 100.42329708 122.29466259 99.47403717 122.70960236 C94.06293279 125.0466371 88.64728887 126.76402396 82.9375 128.1875 C81.96433838 128.4345166 80.99117676 128.6815332 79.98852539 128.93603516 C65.49248152 132.48709126 50.94679936 134.67825812 36 134 C35.98541748 133.34628418 35.97083496 132.69256836 35.95581055 132.01904297 C35.27935122 104.8315929 30.96096629 81.10708839 10.56835938 61.40039062 C2.0197265 53.76730249 -8.42158678 49.09953704 -19 45 C-17.60196653 41.92980886 -15.91640298 39.57626301 -13.75 37 C-6.01279367 27.15118111 -1.97693963 16.17590203 -0.46606445 3.81347656 C-0.31226318 2.5550293 -0.15846191 1.29658203 0 0 Z " fill="#375C4A" transform="translate(404,215)"/>
<path d="M0 0 C1.13580002 0.00424484 2.27160004 0.00848969 3.44181824 0.01286316 C7.01745813 0.0294595 10.59250346 0.06707482 14.16796875 0.10546875 C16.61392407 0.12054023 19.05988835 0.13422428 21.50585938 0.14648438 C27.455927 0.17930023 33.40565538 0.22930479 39.35546875 0.29296875 C39.52852539 1.42154297 39.70158203 2.55011719 39.87988281 3.71289062 C41.66151439 15.16607445 41.66151439 15.16607445 46.10546875 25.79296875 C46.44964844 26.44676514 46.79382813 27.10056152 47.1484375 27.77416992 C49.6711102 32.42967923 52.60106065 36.61217919 56.10546875 40.59375 C57.35546875 42.29296875 57.35546875 42.29296875 57.35546875 45.29296875 C56.32808594 45.70546875 55.30070312 46.11796875 54.2421875 46.54296875 C33.42942646 55.12048646 18.90856719 68.42985791 9.54296875 89.16796875 C3.89747757 103.80442736 3.70366086 118.80900026 3.35546875 134.29296875 C-20.26484316 134.8079742 -46.53649726 130.22073677 -67.64453125 119.29296875 C-69.43405459 117.50344541 -68.80014862 114.83733887 -68.8215332 112.41894531 C-68.83436844 111.15963196 -68.84720367 109.9003186 -68.86042786 108.60284424 C-68.86860312 107.21309809 -68.87604533 105.82334747 -68.8828125 104.43359375 C-68.88688803 103.73362022 -68.89096355 103.0336467 -68.89516258 102.31246185 C-68.91606976 98.59519239 -68.93034145 94.87796016 -68.93969727 91.16064453 C-68.95066739 87.35139579 -68.98494183 83.54274663 -69.02486897 79.73370743 C-69.05127336 76.78221702 -69.05941076 73.8308629 -69.06297874 70.87926483 C-69.06779734 69.47767925 -69.07927318 68.07609775 -69.09801674 66.67462921 C-69.34263499 47.14249437 -62.59420278 32.10760535 -49.46875 17.9453125 C-44.72685283 13.29905023 -39.6976037 9.93643503 -33.83203125 6.91796875 C-33.21714844 6.59618652 -32.60226563 6.2744043 -31.96875 5.94287109 C-21.85774418 1.04535265 -11.09796033 -0.16054642 0 0 Z " fill="#375C4A" transform="translate(68.64453125,216.70703125)"/>
<path d="M0 0 C0.59683594 0.4228125 1.19367188 0.845625 1.80859375 1.28125 C13.45605749 10.23618316 18.98853642 24.93665803 21 39 C22.44937603 53.72381999 17.01440074 68.49272795 8 80 C-0.75796755 90.52279728 -13.48367274 97.2068452 -27 99 C-43.61280236 99.97943959 -58.48695624 96.80555835 -71.3125 85.6875 C-83.74086216 73.75706902 -89.89109954 60.86730199 -90.3125 43.625 C-90.04460816 27.9454481 -84.59121244 14.80133273 -73.70703125 3.4765625 C-52.52016668 -15.90651418 -22.92933204 -16.40472536 0 0 Z " fill="#375C4A" transform="translate(291,71)"/>
<path d="M0 0 C0.82628906 0.31710938 1.65257812 0.63421875 2.50390625 0.9609375 C14.58107933 6.29076975 23.18203102 15.8615065 28.2109375 27.8984375 C33.47048464 41.81199128 33.54970694 55.34375426 27.67578125 69.1015625 C20.91549009 83.40286085 10.94685579 91.62817086 -3.95703125 97.08984375 C-18.4970648 101.43878832 -32.89667498 98.81047115 -46.109375 91.7890625 C-58.41835711 84.1708006 -66.03683605 72.63679618 -69.58984375 58.68359375 C-71.71954575 44.74925783 -69.59136837 31.00231308 -62 19 C-53.99677717 8.44525464 -44.67514211 1.76609654 -32 -2 C-31.40058594 -2.19335938 -30.80117187 -2.38671875 -30.18359375 -2.5859375 C-20.36849559 -4.4471189 -9.26682843 -3.60132669 0 0 Z " fill="#375C4A" transform="translate(278,217)"/>
<path d="M0 0 C10.52138719 7.77740941 17.09542485 17.40505943 20.87890625 29.9296875 C21.15734375 31.8478125 21.15734375 31.8478125 21.44140625 33.8046875 C21.66763672 35.18914062 21.66763672 35.18914062 21.8984375 36.6015625 C22.34816363 41.32668502 22.46030528 44.48215655 19.48828125 48.33984375 C17.74642905 49.98284851 15.97646602 51.59641929 14.18359375 53.18359375 C6.13045379 60.88111072 0.49444752 72.40484667 -0.89453125 83.484375 C-1.55859375 85.8046875 -1.55859375 85.8046875 -3.3515625 87.28125 C-17.01912896 93.83633082 -31.76452371 96.01347436 -46.37109375 91.1171875 C-58.58615821 86.0501978 -69.77401728 78.05689006 -75.55859375 65.8046875 C-81.38040845 50.68770425 -82.73795331 36.18866901 -76.33984375 20.890625 C-69.6738969 7.74389649 -59.41634773 -1.5856356 -45.55859375 -6.6328125 C-29.82325232 -10.96518899 -13.72765345 -8.85797221 0 0 Z " fill="#375C4A" transform="translate(199.55859375,170.1953125)"/>
<path d="M0 0 C0.886875 0.598125 1.77375 1.19625 2.6875 1.8125 C10.70166127 9.39346336 16.19530155 20.13676662 18 31 C18.12503906 31.74121094 18.25007813 32.48242188 18.37890625 33.24609375 C18.58410171 35.69534165 18.59315802 37.60618369 18 40 C15.66256987 42.52465148 12.89474668 44.17316549 10 46 C0.61134782 54.47268611 -5.8099492 64.43646542 -8.15356445 76.91918945 C-9.78923958 84.99210068 -9.78923958 84.99210068 -13.21484375 87.84375 C-24.53419067 92.28893532 -41.11557043 91.82581638 -52.328125 87.328125 C-67.67517855 79.69947265 -76.57749463 69.71323265 -82.23828125 53.54296875 C-86.272304 40.07553896 -84.16270419 25.75173276 -77.57421875 13.4453125 C-69.91153098 1.54247741 -58.65386643 -7.31994892 -44.86328125 -10.7890625 C-27.9860285 -13.84284768 -13.47826378 -10.5080538 0 0 Z " fill="#375C4A" transform="translate(119,124)"/>
<path d="M0 0 C0.825 0.3403125 1.65 0.680625 2.5 1.03125 C14.38033773 6.39189019 22.92951882 15.82993829 28.3125 27.625 C33.58278482 42.15820967 32.80391281 57.1725663 26.4765625 71.21484375 C19.75096463 83.90095825 9.0972606 91.74404944 -4 97 C-7.99838456 98.07320061 -11.87634656 98.68047715 -16 99 C-16.71671875 99.05800781 -17.4334375 99.11601562 -18.171875 99.17578125 C-25.756217 99.46398625 -34.46622274 97.94749043 -41 94 C-41.99504986 91.53856087 -42.48654631 89.56726847 -43 87 C-47.07750857 72.77943528 -53.76183772 58.16265467 -67.125 50.4375 C-70 48 -70 48 -70.56640625 45.94140625 C-71.10947363 34.99246722 -66.63301563 24.46626115 -60 16 C-59.54882812 15.38640625 -59.09765625 14.7728125 -58.6328125 14.140625 C-45.65249859 -2.43310914 -19.24784503 -8.52404566 0 0 Z " fill="#375C4B" transform="translate(362,165)"/>
<path d="M0 0 C12.22506634 8.50058376 20.03005546 19.62473909 22.78125 34.36328125 C24.73352735 49.80924032 21.07617841 63.34997711 12.1796875 76.078125 C3.61132518 86.56089365 -8.6506955 92.29671917 -21.8203125 94.515625 C-30.20369225 95.14833291 -37.83585441 94.13702841 -45.8203125 91.515625 C-46.54605469 91.32484375 -47.27179688 91.1340625 -48.01953125 90.9375 C-51.07378175 88.52590091 -51.3174082 84.77676785 -52.1328125 81.140625 C-55.69549282 67.03531925 -62.98736011 54.53745943 -75.3828125 46.390625 C-78.53414402 44.13698353 -78.7485823 43.90035971 -79.5078125 39.828125 C-79.28125 37.77734375 -79.28125 37.77734375 -78.8203125 35.515625 C-78.64757812 34.65582031 -78.47484375 33.79601562 -78.296875 32.91015625 C-74.80559129 18.3494495 -66.9699239 7.28193005 -54.4453125 -1.015625 C-50.10805127 -3.44242593 -45.57424207 -5.07186557 -40.8203125 -6.484375 C-40.21832031 -6.67644531 -39.61632812 -6.86851563 -38.99609375 -7.06640625 C-25.65401717 -9.62942635 -11.56902275 -7.03464387 0 0 Z " fill="#375C4A" transform="translate(453.8203125,118.484375)"/>
<path d="M0 0 C1.34191406 1.15628906 1.34191406 1.15628906 2.7109375 2.3359375 C2.35 3.30789062 1.9890625 4.27984375 1.6171875 5.28125 C-4.8556508 23.98312102 -4.25664481 42.03696213 4.2734375 59.8984375 C5.84221418 62.94855084 7.59738016 65.63425986 9.7109375 68.3359375 C8.21273591 72.14954156 5.91092483 73.87520411 2.7109375 76.3359375 C1.96070313 75.99820313 1.21046875 75.66046875 0.4375 75.3125 C-16.07193172 68.11821364 -29.28069329 68.24569239 -46.2890625 73.3359375 C-47.62095981 73.67496322 -48.95399762 74.00960846 -50.2890625 74.3359375 C-50.58039063 73.16417969 -50.87171875 71.99242187 -51.171875 70.78515625 C-56.09289515 51.63969476 -64.29119908 39.29258699 -80.2890625 27.3359375 C-77.56136407 15.3600425 -71.43129086 5.41607924 -61.2890625 -1.6640625 C-41.96428394 -12.99469744 -18.30549429 -15.21704534 0 0 Z " fill="#375C4B" transform="translate(195.2890625,83.6640625)"/>
<path d="M0 0 C7.08325367 5.81800073 11.57471243 12.85132601 15.37109375 21.1015625 C15.37109375 22.0915625 15.37109375 23.0815625 15.37109375 24.1015625 C13.17578125 25.75 13.17578125 25.75 10.24609375 27.4765625 C-3.31078031 35.52251214 -11.15150755 47.16435843 -15.62890625 62.1015625 C-16.43914191 65.41926432 -17.1182343 68.72503005 -17.62890625 72.1015625 C-21.94048598 71.62249809 -26.08936083 71.01453452 -30.31640625 70.0390625 C-40.88396506 67.92877255 -50.04957546 69.09446807 -60.21875 72.12890625 C-63.35568988 73.02363481 -66.40412919 73.63384674 -69.62890625 74.1015625 C-71.60890625 71.4615625 -73.58890625 68.8215625 -75.62890625 66.1015625 C-74.92314453 64.77705078 -74.92314453 64.77705078 -74.203125 63.42578125 C-65.82047445 47.40580419 -62.98335764 32.65174323 -66.83984375 14.79296875 C-67.23042969 12.96572266 -67.23042969 12.96572266 -67.62890625 11.1015625 C-67.89574219 9.86535156 -68.16257812 8.62914062 -68.4375 7.35546875 C-68.62890625 4.1015625 -68.62890625 4.1015625 -67.328125 2.0625 C-46.7898858 -14.1288109 -21.40247558 -15.45557672 0 0 Z " fill="#375C4A" transform="translate(383.62890625,83.8984375)"/>
<path d="M0 0 C1.30485352 -0.00315216 2.60970703 -0.00630432 3.95410156 -0.009552 C5.37044305 -0.007762 6.78678423 -0.00571099 8.203125 -0.00341797 C9.66373714 -0.00409211 11.12434918 -0.00506305 12.58496094 -0.00631714 C15.64128694 -0.00778892 18.69758366 -0.00565625 21.75390625 -0.00097656 C25.66447278 0.00472041 29.57497066 0.00143863 33.48553467 -0.00454903 C36.50016799 -0.00816865 39.51478513 -0.0070096 42.52941895 -0.00442123 C43.97106942 -0.00375585 45.41272138 -0.00456679 46.85437012 -0.00690079 C48.87166311 -0.00945028 50.88896128 -0.0048732 52.90625 0 C54.05254883 0.00079559 55.19884766 0.00159119 56.37988281 0.00241089 C59.18963036 0.11850717 61.72124976 0.486659 64.453125 1.12939453 C63.74630361 4.70608107 62.26920173 7.63048703 60.640625 10.87939453 C57.09689917 18.38526201 55.21706814 26.04638451 53.453125 34.12939453 C52.86144531 33.99662109 52.26976562 33.86384766 51.66015625 33.72705078 C50.86996094 33.55044922 50.07976562 33.37384766 49.265625 33.19189453 C48.48832031 33.01787109 47.71101563 32.84384766 46.91015625 32.66455078 C46.09933594 32.48794922 45.28851563 32.31134766 44.453125 32.12939453 C43.37224609 31.860625 43.37224609 31.860625 42.26953125 31.58642578 C28.69348763 29.38337848 16.05005566 30.83729556 3.453125 36.12939453 C1.968125 36.62439453 1.968125 36.62439453 0.453125 37.12939453 C0.14181641 35.31568359 0.14181641 35.31568359 -0.17578125 33.46533203 C-2.18474744 22.54192811 -5.17178827 13.83558789 -10.546875 4.12939453 C-10.876875 3.13939453 -11.206875 2.14939453 -11.546875 1.12939453 C-7.63927473 0.21004305 -4.01007896 0.00278321 0 0 Z " fill="#375C4A" transform="translate(229.546875,172.87060546875)"/>
</svg>
