<?xml version="1.0" standalone="no"?>
<!DOCTYPE svg PUBLIC "-//W3C//DTD SVG 20010904//EN"
 "http://www.w3.org/TR/2001/REC-SVG-20010904/DTD/svg10.dtd">
<svg version="1.0" xmlns="http://www.w3.org/2000/svg"
 width="512.000000pt" height="512.000000pt" viewBox="0 0 512.000000 512.000000"
 preserveAspectRatio="xMidYMid meet">

<g transform="translate(0.000000,512.000000) scale(0.100000,-0.100000)"
fill="#000000" stroke="none">
<path d="M1048 2252 l-87 -152 72 -41 c40 -23 86 -50 103 -60 l31 -19 65 107
64 108 -45 30 c-51 34 -96 93 -108 144 -8 35 -9 35 -95 -117z"/>
<path d="M3976 2368 c-10 -48 -55 -109 -107 -143 l-45 -30 74 -125 c40 -69 75
-126 76 -127 1 -1 48 25 104 58 97 56 102 61 91 82 -28 53 -181 317 -184 317
-1 0 -6 -15 -9 -32z"/>
<path d="M2298 1542 c-42 -75 -78 -143 -80 -151 -2 -9 35 -36 97 -72 l99 -59
70 120 c39 66 73 120 76 120 3 0 39 -57 80 -127 40 -71 77 -133 82 -139 6 -8
38 5 108 45 55 31 99 60 100 65 0 7 -174 322 -185 334 -1 1 -26 -10 -56 -25
-44 -23 -66 -28 -129 -28 -63 0 -85 5 -129 28 -29 15 -54 27 -54 27 -1 0 -37
-62 -79 -138z"/>
</g>
</svg>
